0, 0, Header, 1, 6, 960
1, 0, Start_track
1, 0, Control_c, 0, 101, 0
1, 0, Control_c, 1, 101, 0
1, 0, Control_c, 0, 100, 0
1, 0, Control_c, 1, 100, 0
1, 0, Control_c, 0, 6, 12
1, 0, Control_c, 1, 6, 12
1, 0, Control_c, 0, 38, 0
1, 0, Control_c, 1, 38, 0
1, 0, Control_c, 2, 101, 0
1, 0, Control_c, 3, 101, 0
1, 0, Control_c, 2, 100, 0
1, 0, Control_c, 3, 100, 0
1, 0, Control_c, 2, 6, 12
1, 0, Control_c, 3, 6, 12
1, 0, Control_c, 2, 38, 0
1, 0, Control_c, 3, 38, 0
1, 0, Control_c, 4, 101, 0
1, 0, Control_c, 5, 101, 0
1, 0, Control_c, 4, 100, 0
1, 0, Control_c, 5, 100, 0
1, 0, Control_c, 4, 6, 12
1, 0, Control_c, 5, 6, 12
1, 0, Control_c, 4, 38, 0
1, 0, Control_c, 5, 38, 0
1, 0, Control_c, 6, 101, 0
1, 0, Control_c, 7, 101, 0
1, 0, Control_c, 6, 100, 0
1, 0, Control_c, 7, 100, 0
1, 0, Control_c, 6, 6, 12
1, 0, Control_c, 7, 6, 12
1, 0, Control_c, 6, 38, 0
1, 0, Control_c, 7, 38, 0
1, 0, Control_c, 9, 101, 0
1, 0, Control_c, 9, 100, 0
1, 0, Control_c, 9, 6, 12
1, 0, Control_c, 9, 38, 0
1, 0, Time_signature, 4, 2, 24, 8
1, 0, Tempo, 869565
1, 0, End_track
2, 0, Start_track
2, 0, Pitch_bend_c, 0, 8192
2, 0, Control_c, 0, 7, 103
2, 0, Control_c, 1, 7, 103
2, 0, Control_c, 0, 10, 63
2, 0, Control_c, 1, 10, 63
2, 0, Control_c, 0, 93, 0
2, 0, Control_c, 1, 93, 0
2, 0, Control_c, 0, 91, 0
2, 0, Control_c, 1, 91, 0
2, 0, Control_c, 0, 95, 0
2, 0, Control_c, 1, 95, 0
2, 0, Control_c, 0, 92, 0
2, 0, Control_c, 1, 92, 0
2, 0, Control_c, 0, 11, 127
2, 0, Control_c, 1, 11, 127
2, 0, Control_c, 0, 0, 0
2, 0, Control_c, 1, 0, 0
2, 0, Program_c, 0, 25
2, 0, Program_c, 1, 25
2, 3840, Note_on_c, 0, 60, 95
2, 3840, Note_on_c, 0, 57, 95
2, 4080, Note_off_c, 0, 60, 95
2, 4080, Note_off_c, 0, 57, 95
2, 4080, Note_on_c, 0, 64, 95
2, 5520, Note_off_c, 0, 64, 95
2, 5520, Note_on_c, 0, 57, 95
2, 5520, Note_on_c, 0, 52, 95
2, 5760, Note_off_c, 0, 57, 95
2, 5760, Note_off_c, 0, 52, 95
2, 5760, Note_on_c, 0, 64, 95
2, 5760, Note_on_c, 0, 60, 95
2, 5760, Note_on_c, 0, 57, 95
2, 6000, Note_off_c, 0, 64, 95
2, 6000, Note_off_c, 0, 60, 95
2, 6000, Note_off_c, 0, 57, 95
2, 6000, Note_on_c, 0, 55, 95
2, 6480, Note_off_c, 0, 55, 95
2, 6480, Note_on_c, 0, 64, 95
2, 6480, Note_on_c, 0, 60, 95
2, 6480, Note_on_c, 0, 57, 95
2, 6720, Note_off_c, 0, 64, 95
2, 6720, Note_off_c, 0, 60, 95
2, 6720, Note_off_c, 0, 57, 95
2, 6720, Note_on_c, 0, 64, 95
2, 6720, Note_on_c, 0, 60, 95
2, 6720, Note_on_c, 0, 57, 95
2, 6960, Note_off_c, 0, 64, 95
2, 6960, Note_off_c, 0, 60, 95
2, 6960, Note_off_c, 0, 57, 95
2, 6960, Note_on_c, 0, 55, 95
2, 7200, Note_off_c, 0, 55, 95
2, 7200, Note_on_c, 0, 55, 95
2, 7200, Note_on_c, 0, 50, 95
2, 7680, Note_off_c, 0, 55, 95
2, 7680, Note_off_c, 0, 50, 95
2, 7680, Note_on_c, 0, 47, 95
2, 7680, Note_on_c, 0, 43, 95
2, 9360, Note_off_c, 0, 47, 95
2, 9360, Note_off_c, 0, 43, 95
2, 9360, Note_on_c, 0, 59, 95
2, 9360, Note_on_c, 0, 55, 95
2, 9600, Note_off_c, 0, 59, 95
2, 9600, Note_off_c, 0, 55, 95
2, 9600, Note_on_c, 0, 60, 95
2, 10080, Note_off_c, 0, 60, 95
2, 10080, Note_on_c, 0, 59, 95
2, 10080, Note_on_c, 0, 55, 95
2, 10560, Note_off_c, 0, 59, 95
2, 10560, Note_off_c, 0, 55, 95
2, 10560, Note_on_c, 0, 55, 95
2, 10560, Note_on_c, 0, 50, 95
2, 11040, Note_off_c, 0, 55, 95
2, 11040, Note_off_c, 0, 50, 95
2, 11040, Note_on_c, 0, 50, 95
2, 11040, Note_on_c, 0, 47, 95
2, 11520, Note_off_c, 0, 50, 95
2, 11520, Note_off_c, 0, 47, 95
2, 11520, Note_on_c, 0, 64, 95
2, 11520, Note_on_c, 0, 60, 95
2, 11520, Note_on_c, 0, 57, 95
2, 13440, Note_off_c, 0, 64, 95
2, 13440, Note_off_c, 0, 60, 95
2, 13440, Note_off_c, 0, 57, 95
2, 13440, Note_on_c, 0, 57, 95
2, 13440, Note_on_c, 0, 52, 95
2, 13680, Note_off_c, 0, 57, 95
2, 13680, Note_off_c, 0, 52, 95
2, 13680, Note_on_c, 0, 55, 95
2, 13680, Note_on_c, 0, 50, 95
2, 14160, Note_off_c, 0, 55, 95
2, 14160, Note_off_c, 0, 50, 95
2, 14160, Note_on_c, 0, 50, 95
2, 14400, Note_off_c, 0, 50, 95
2, 14400, Note_on_c, 0, 57, 95
2, 14400, Note_on_c, 0, 52, 95
2, 14640, Note_off_c, 0, 57, 95
2, 14640, Note_off_c, 0, 52, 95
2, 14640, Note_on_c, 0, 55, 95
2, 14640, Note_on_c, 0, 50, 95
2, 14880, Note_off_c, 0, 55, 95
2, 14880, Note_off_c, 0, 50, 95
2, 14880, Note_on_c, 0, 45, 95
2, 15360, Note_off_c, 0, 45, 95
2, 15360, Note_on_c, 0, 67, 95
2, 15360, Note_on_c, 0, 59, 95
2, 15360, Note_on_c, 0, 55, 95
2, 17280, Note_off_c, 0, 67, 95
2, 17280, Note_off_c, 0, 59, 95
2, 17280, Note_off_c, 0, 55, 95
2, 17280, Note_on_c, 0, 59, 95
2, 17280, Note_on_c, 0, 57, 95
2, 17280, Note_on_c, 0, 50, 95
2, 17760, Note_off_c, 0, 59, 95
2, 17760, Note_off_c, 0, 57, 95
2, 17760, Note_off_c, 0, 50, 95
2, 17760, Note_on_c, 0, 59, 95
2, 17760, Note_on_c, 0, 55, 95
2, 17760, Note_on_c, 0, 50, 95
2, 18240, Note_off_c, 0, 59, 95
2, 18240, Note_off_c, 0, 55, 95
2, 18240, Note_off_c, 0, 50, 95
2, 18240, Note_on_c, 0, 55, 95
2, 18240, Note_on_c, 0, 52, 95
2, 18240, Note_on_c, 0, 47, 95
2, 18720, Note_off_c, 0, 55, 95
2, 18720, Note_off_c, 0, 52, 95
2, 18720, Note_off_c, 0, 47, 95
2, 18720, Note_on_c, 0, 55, 95
2, 18720, Note_on_c, 0, 50, 95
2, 18720, Note_on_c, 0, 47, 95
2, 19200, Note_off_c, 0, 55, 95
2, 19200, Note_off_c, 0, 50, 95
2, 19200, Note_off_c, 0, 47, 95
2, 19200, Note_on_c, 0, 62, 95
2, 19200, Note_on_c, 0, 59, 95
2, 19200, Note_on_c, 0, 54, 95
2, 19200, Note_on_c, 0, 50, 95
2, 20160, Note_off_c, 0, 62, 95
2, 20160, Note_off_c, 0, 59, 95
2, 20160, Note_off_c, 0, 54, 95
2, 20160, Note_off_c, 0, 50, 95
2, 20160, Note_on_c, 0, 62, 95
2, 20160, Note_on_c, 0, 59, 95
2, 20160, Note_on_c, 0, 54, 95
2, 20160, Note_on_c, 0, 50, 95
2, 20880, Note_off_c, 0, 62, 95
2, 20880, Note_off_c, 0, 59, 95
2, 20880, Note_off_c, 0, 54, 95
2, 20880, Note_off_c, 0, 50, 95
2, 20880, Note_on_c, 0, 62, 95
2, 20880, Note_on_c, 0, 59, 95
2, 20880, Note_on_c, 0, 54, 95
2, 20880, Note_on_c, 0, 50, 95
2, 21120, Note_off_c, 0, 62, 95
2, 21120, Note_off_c, 0, 59, 95
2, 21120, Note_off_c, 0, 54, 95
2, 21120, Note_off_c, 0, 50, 95
2, 21120, Note_on_c, 0, 62, 95
2, 21120, Note_on_c, 0, 59, 95
2, 21120, Note_on_c, 0, 54, 95
2, 21120, Note_on_c, 0, 50, 95
2, 21600, Note_off_c, 0, 62, 95
2, 21600, Note_off_c, 0, 59, 95
2, 21600, Note_off_c, 0, 54, 95
2, 21600, Note_off_c, 0, 50, 95
2, 21600, Note_on_c, 0, 62, 95
2, 21600, Note_on_c, 0, 59, 95
2, 21600, Note_on_c, 0, 54, 95
2, 21600, Note_on_c, 0, 50, 95
2, 22080, Note_off_c, 0, 62, 95
2, 22080, Note_off_c, 0, 59, 95
2, 22080, Note_off_c, 0, 54, 95
2, 22080, Note_off_c, 0, 50, 95
2, 22080, Note_on_c, 0, 62, 95
2, 22080, Note_on_c, 0, 59, 95
2, 22080, Note_on_c, 0, 54, 95
2, 22080, Note_on_c, 0, 50, 95
2, 22560, Note_off_c, 0, 62, 95
2, 22560, Note_off_c, 0, 59, 95
2, 22560, Note_off_c, 0, 54, 95
2, 22560, Note_off_c, 0, 50, 95
2, 22560, Note_on_c, 0, 62, 95
2, 22560, Note_on_c, 0, 59, 95
2, 22560, Note_on_c, 0, 54, 95
2, 22560, Note_on_c, 0, 50, 95
2, 23040, Note_off_c, 0, 62, 95
2, 23040, Note_off_c, 0, 59, 95
2, 23040, Note_off_c, 0, 54, 95
2, 23040, Note_off_c, 0, 50, 95
2, 23040, Note_on_c, 0, 67, 95
2, 23040, Note_on_c, 0, 59, 95
2, 23040, Note_on_c, 0, 55, 95
2, 23040, Note_on_c, 0, 50, 95
2, 24000, Note_off_c, 0, 67, 95
2, 24000, Note_off_c, 0, 59, 95
2, 24000, Note_off_c, 0, 55, 95
2, 24000, Note_off_c, 0, 50, 95
2, 24000, Note_on_c, 0, 67, 95
2, 24000, Note_on_c, 0, 59, 95
2, 24000, Note_on_c, 0, 55, 95
2, 24000, Note_on_c, 0, 50, 95
2, 24720, Note_off_c, 0, 67, 95
2, 24720, Note_off_c, 0, 59, 95
2, 24720, Note_off_c, 0, 55, 95
2, 24720, Note_off_c, 0, 50, 95
2, 24720, Note_on_c, 0, 67, 95
2, 24720, Note_on_c, 0, 59, 95
2, 24720, Note_on_c, 0, 55, 95
2, 24720, Note_on_c, 0, 50, 95
2, 24960, Note_off_c, 0, 67, 95
2, 24960, Note_off_c, 0, 59, 95
2, 24960, Note_off_c, 0, 55, 95
2, 24960, Note_off_c, 0, 50, 95
2, 24960, Note_on_c, 0, 67, 95
2, 24960, Note_on_c, 0, 60, 95
2, 24960, Note_on_c, 0, 55, 95
2, 24960, Note_on_c, 0, 50, 95
2, 25440, Note_off_c, 0, 67, 95
2, 25440, Note_off_c, 0, 60, 95
2, 25440, Note_off_c, 0, 55, 95
2, 25440, Note_off_c, 0, 50, 95
2, 25440, Note_on_c, 0, 67, 95
2, 25440, Note_on_c, 0, 59, 95
2, 25440, Note_on_c, 0, 55, 95
2, 25440, Note_on_c, 0, 50, 95
2, 25920, Note_off_c, 0, 67, 95
2, 25920, Note_off_c, 0, 59, 95
2, 25920, Note_off_c, 0, 55, 95
2, 25920, Note_off_c, 0, 50, 95
2, 26400, Note_on_c, 0, 72, 95
2, 26400, Note_on_c, 0, 55, 95
2, 26400, Note_on_c, 0, 50, 95
2, 26400, Note_on_c, 0, 47, 95
2, 26880, Note_off_c, 0, 72, 95
2, 26880, Note_off_c, 0, 55, 95
2, 26880, Note_off_c, 0, 50, 95
2, 26880, Note_off_c, 0, 47, 95
2, 27840, Note_on_c, 0, 62, 95
2, 27840, Note_on_c, 0, 59, 95
2, 27840, Note_on_c, 0, 54, 95
2, 28560, Note_off_c, 0, 62, 95
2, 28560, Note_off_c, 0, 59, 95
2, 28560, Note_off_c, 0, 54, 95
2, 28560, Note_on_c, 0, 62, 95
2, 28560, Note_on_c, 0, 59, 95
2, 28560, Note_on_c, 0, 54, 95
2, 28800, Note_off_c, 0, 62, 95
2, 28800, Note_off_c, 0, 59, 95
2, 28800, Note_off_c, 0, 54, 95
2, 28800, Note_on_c, 0, 62, 95
2, 28800, Note_on_c, 0, 59, 95
2, 28800, Note_on_c, 0, 54, 95
2, 29280, Note_off_c, 0, 62, 95
2, 29280, Note_off_c, 0, 59, 95
2, 29280, Note_off_c, 0, 54, 95
2, 29280, Note_on_c, 0, 62, 95
2, 29280, Note_on_c, 0, 59, 95
2, 29280, Note_on_c, 0, 54, 95
2, 29760, Note_off_c, 0, 62, 95
2, 29760, Note_off_c, 0, 59, 95
2, 29760, Note_off_c, 0, 54, 95
2, 29760, Note_on_c, 0, 59, 95
2, 29760, Note_on_c, 0, 54, 95
2, 29760, Note_on_c, 0, 50, 95
2, 30240, Note_off_c, 0, 59, 95
2, 30240, Note_off_c, 0, 54, 95
2, 30240, Note_off_c, 0, 50, 95
2, 30240, Note_on_c, 0, 59, 95
2, 30240, Note_on_c, 0, 54, 95
2, 30240, Note_on_c, 0, 50, 95
2, 30720, Note_off_c, 0, 59, 95
2, 30720, Note_off_c, 0, 54, 95
2, 30720, Note_off_c, 0, 50, 95
2, 30720, Note_on_c, 0, 67, 95
2, 30720, Note_on_c, 0, 59, 95
2, 30720, Note_on_c, 0, 55, 95
2, 30720, Note_on_c, 0, 50, 95
2, 31680, Note_off_c, 0, 67, 95
2, 31680, Note_off_c, 0, 59, 95
2, 31680, Note_off_c, 0, 55, 95
2, 31680, Note_off_c, 0, 50, 95
2, 31680, Note_on_c, 0, 67, 95
2, 31680, Note_on_c, 0, 59, 95
2, 31680, Note_on_c, 0, 55, 95
2, 31680, Note_on_c, 0, 50, 95
2, 32400, Note_off_c, 0, 67, 95
2, 32400, Note_off_c, 0, 59, 95
2, 32400, Note_off_c, 0, 55, 95
2, 32400, Note_off_c, 0, 50, 95
2, 32400, Note_on_c, 0, 67, 95
2, 32400, Note_on_c, 0, 59, 95
2, 32400, Note_on_c, 0, 55, 95
2, 32400, Note_on_c, 0, 50, 95
2, 32640, Note_off_c, 0, 67, 95
2, 32640, Note_off_c, 0, 59, 95
2, 32640, Note_off_c, 0, 55, 95
2, 32640, Note_off_c, 0, 50, 95
2, 32640, Note_on_c, 0, 60, 95
2, 32640, Note_on_c, 0, 55, 95
2, 32640, Note_on_c, 0, 50, 95
2, 33120, Note_off_c, 0, 60, 95
2, 33120, Note_off_c, 0, 55, 95
2, 33120, Note_off_c, 0, 50, 95
2, 33120, Note_on_c, 0, 60, 95
2, 33120, Note_on_c, 0, 55, 95
2, 33120, Note_on_c, 0, 50, 95
2, 33600, Note_off_c, 0, 60, 95
2, 33600, Note_off_c, 0, 55, 95
2, 33600, Note_off_c, 0, 50, 95
2, 33600, Note_on_c, 0, 59, 95
2, 33600, Note_on_c, 0, 55, 95
2, 33600, Note_on_c, 0, 50, 95
2, 34080, Note_off_c, 0, 59, 95
2, 34080, Note_off_c, 0, 55, 95
2, 34080, Note_off_c, 0, 50, 95
2, 34080, Note_on_c, 0, 60, 95
2, 34080, Note_on_c, 0, 55, 95
2, 34080, Note_on_c, 0, 50, 95
2, 34560, Note_off_c, 0, 60, 95
2, 34560, Note_off_c, 0, 55, 95
2, 34560, Note_off_c, 0, 50, 95
2, 34560, Note_on_c, 0, 64, 95
2, 34560, Note_on_c, 0, 60, 95
2, 34560, Note_on_c, 0, 57, 95
2, 34560, Note_on_c, 0, 52, 95
2, 35520, Note_off_c, 0, 64, 95
2, 35520, Note_off_c, 0, 60, 95
2, 35520, Note_off_c, 0, 57, 95
2, 35520, Note_off_c, 0, 52, 95
2, 35520, Note_on_c, 0, 64, 95
2, 35520, Note_on_c, 0, 60, 95
2, 35520, Note_on_c, 0, 57, 95
2, 35520, Note_on_c, 0, 52, 95
2, 36480, Note_off_c, 0, 64, 95
2, 36480, Note_off_c, 0, 60, 95
2, 36480, Note_off_c, 0, 57, 95
2, 36480, Note_off_c, 0, 52, 95
2, 36480, Note_on_c, 0, 64, 95
2, 36480, Note_on_c, 0, 60, 95
2, 36480, Note_on_c, 0, 57, 95
2, 36480, Note_on_c, 0, 52, 95
2, 36960, Note_off_c, 0, 64, 95
2, 36960, Note_off_c, 0, 60, 95
2, 36960, Note_off_c, 0, 57, 95
2, 36960, Note_off_c, 0, 52, 95
2, 36960, Note_on_c, 0, 64, 95
2, 36960, Note_on_c, 0, 60, 95
2, 36960, Note_on_c, 0, 57, 95
2, 36960, Note_on_c, 0, 52, 95
2, 37440, Note_off_c, 0, 64, 95
2, 37440, Note_off_c, 0, 60, 95
2, 37440, Note_off_c, 0, 57, 95
2, 37440, Note_off_c, 0, 52, 95
2, 37440, Note_on_c, 0, 64, 95
2, 37440, Note_on_c, 0, 60, 95
2, 37440, Note_on_c, 0, 57, 95
2, 37440, Note_on_c, 0, 52, 95
2, 37920, Note_off_c, 0, 64, 95
2, 37920, Note_off_c, 0, 60, 95
2, 37920, Note_off_c, 0, 57, 95
2, 37920, Note_off_c, 0, 52, 95
2, 37920, Note_on_c, 0, 67, 95
2, 37920, Note_on_c, 0, 59, 95
2, 37920, Note_on_c, 0, 55, 95
2, 37920, Note_on_c, 0, 50, 95
2, 38400, Note_off_c, 0, 67, 95
2, 38400, Note_off_c, 0, 59, 95
2, 38400, Note_off_c, 0, 55, 95
2, 38400, Note_off_c, 0, 50, 95
2, 38400, Note_on_c, 0, 64, 95
2, 38400, Note_on_c, 0, 60, 95
2, 38400, Note_on_c, 0, 55, 95
2, 38400, Note_on_c, 0, 52, 95
2, 38880, Note_off_c, 0, 64, 95
2, 38880, Note_off_c, 0, 60, 95
2, 38880, Note_off_c, 0, 55, 95
2, 38880, Note_off_c, 0, 52, 95
2, 38880, Note_on_c, 0, 48, 95
2, 39360, Note_off_c, 0, 48, 95
2, 39360, Note_on_c, 0, 60, 95
2, 39360, Note_on_c, 0, 55, 95
2, 39360, Note_on_c, 0, 52, 95
2, 39360, Note_on_c, 0, 48, 95
2, 39360, Note_on_c, 0, 43, 95
2, 40080, Note_off_c, 0, 60, 95
2, 40080, Note_off_c, 0, 55, 95
2, 40080, Note_off_c, 0, 52, 95
2, 40080, Note_off_c, 0, 48, 95
2, 40080, Note_off_c, 0, 43, 95
2, 40080, Note_on_c, 0, 60, 95
2, 40080, Note_on_c, 0, 55, 95
2, 40080, Note_on_c, 0, 52, 95
2, 40080, Note_on_c, 0, 48, 95
2, 40320, Note_off_c, 0, 60, 95
2, 40320, Note_off_c, 0, 55, 95
2, 40320, Note_off_c, 0, 52, 95
2, 40320, Note_off_c, 0, 48, 95
2, 40320, Note_on_c, 0, 55, 95
2, 40320, Note_on_c, 0, 52, 95
2, 40320, Note_on_c, 0, 48, 95
2, 40320, Note_on_c, 0, 43, 95
2, 40800, Note_off_c, 0, 55, 95
2, 40800, Note_off_c, 0, 52, 95
2, 40800, Note_off_c, 0, 48, 95
2, 40800, Note_off_c, 0, 43, 95
2, 40800, Note_on_c, 0, 55, 95
2, 40800, Note_on_c, 0, 52, 95
2, 40800, Note_on_c, 0, 48, 95
2, 40800, Note_on_c, 0, 43, 95
2, 41280, Note_off_c, 0, 55, 95
2, 41280, Note_off_c, 0, 52, 95
2, 41280, Note_off_c, 0, 48, 95
2, 41280, Note_off_c, 0, 43, 95
2, 41280, Note_on_c, 0, 57, 95
2, 41280, Note_on_c, 0, 54, 95
2, 41280, Note_on_c, 0, 50, 95
2, 41280, Note_on_c, 0, 45, 95
2, 41760, Note_off_c, 0, 57, 95
2, 41760, Note_off_c, 0, 54, 95
2, 41760, Note_off_c, 0, 50, 95
2, 41760, Note_off_c, 0, 45, 95
2, 41760, Note_on_c, 0, 57, 95
2, 41760, Note_on_c, 0, 54, 95
2, 41760, Note_on_c, 0, 50, 95
2, 41760, Note_on_c, 0, 45, 95
2, 42240, Note_off_c, 0, 57, 95
2, 42240, Note_off_c, 0, 54, 95
2, 42240, Note_off_c, 0, 50, 95
2, 42240, Note_off_c, 0, 45, 95
2, 42240, Note_on_c, 0, 67, 95
2, 42240, Note_on_c, 0, 59, 95
2, 42240, Note_on_c, 0, 55, 95
2, 42240, Note_on_c, 0, 50, 95
2, 42240, Note_on_c, 0, 47, 95
2, 43200, Note_off_c, 0, 67, 95
2, 43200, Note_off_c, 0, 59, 95
2, 43200, Note_off_c, 0, 55, 95
2, 43200, Note_off_c, 0, 50, 95
2, 43200, Note_off_c, 0, 47, 95
2, 43200, Note_on_c, 0, 59, 95
2, 43200, Note_on_c, 0, 55, 95
2, 43200, Note_on_c, 0, 50, 95
2, 43200, Note_on_c, 0, 47, 95
2, 43920, Note_off_c, 0, 59, 95
2, 43920, Note_off_c, 0, 55, 95
2, 43920, Note_off_c, 0, 50, 95
2, 43920, Note_off_c, 0, 47, 95
2, 43920, Note_on_c, 0, 59, 95
2, 43920, Note_on_c, 0, 55, 95
2, 43920, Note_on_c, 0, 50, 95
2, 43920, Note_on_c, 0, 47, 95
2, 44160, Note_off_c, 0, 59, 95
2, 44160, Note_off_c, 0, 55, 95
2, 44160, Note_off_c, 0, 50, 95
2, 44160, Note_off_c, 0, 47, 95
2, 44160, Note_on_c, 0, 67, 95
2, 44160, Note_on_c, 0, 59, 95
2, 44160, Note_on_c, 0, 55, 95
2, 44160, Note_on_c, 0, 50, 95
2, 44640, Note_off_c, 0, 67, 95
2, 44640, Note_off_c, 0, 59, 95
2, 44640, Note_off_c, 0, 55, 95
2, 44640, Note_off_c, 0, 50, 95
2, 44640, Note_on_c, 0, 59, 95
2, 44640, Note_on_c, 0, 55, 95
2, 44640, Note_on_c, 0, 50, 95
2, 44640, Note_on_c, 0, 47, 95
2, 45120, Note_off_c, 0, 59, 95
2, 45120, Note_off_c, 0, 55, 95
2, 45120, Note_off_c, 0, 50, 95
2, 45120, Note_off_c, 0, 47, 95
2, 45120, Note_on_c, 0, 59, 95
2, 45120, Note_on_c, 0, 55, 95
2, 45120, Note_on_c, 0, 50, 95
2, 45120, Note_on_c, 0, 47, 95
2, 45600, Note_off_c, 0, 59, 95
2, 45600, Note_off_c, 0, 55, 95
2, 45600, Note_off_c, 0, 50, 95
2, 45600, Note_off_c, 0, 47, 95
2, 45600, Note_on_c, 0, 59, 95
2, 45600, Note_on_c, 0, 55, 95
2, 45600, Note_on_c, 0, 50, 95
2, 45600, Note_on_c, 0, 47, 95
2, 46080, Note_off_c, 0, 59, 95
2, 46080, Note_off_c, 0, 55, 95
2, 46080, Note_off_c, 0, 50, 95
2, 46080, Note_off_c, 0, 47, 95
2, 46080, Note_on_c, 0, 62, 95
2, 46080, Note_on_c, 0, 57, 95
2, 46080, Note_on_c, 0, 50, 95
2, 46080, Note_on_c, 0, 45, 95
2, 47040, Note_off_c, 0, 62, 95
2, 47040, Note_off_c, 0, 57, 95
2, 47040, Note_off_c, 0, 50, 95
2, 47040, Note_off_c, 0, 45, 95
2, 47040, Note_on_c, 0, 57, 95
2, 47040, Note_on_c, 0, 54, 95
2, 47040, Note_on_c, 0, 50, 95
2, 47040, Note_on_c, 0, 45, 95
2, 48000, Note_off_c, 0, 57, 95
2, 48000, Note_off_c, 0, 54, 95
2, 48000, Note_off_c, 0, 50, 95
2, 48000, Note_off_c, 0, 45, 95
2, 48000, Note_on_c, 0, 57, 95
2, 48000, Note_on_c, 0, 54, 95
2, 48000, Note_on_c, 0, 50, 95
2, 48000, Note_on_c, 0, 45, 95
2, 48480, Note_off_c, 0, 57, 95
2, 48480, Note_off_c, 0, 54, 95
2, 48480, Note_off_c, 0, 50, 95
2, 48480, Note_off_c, 0, 45, 95
2, 48480, Note_on_c, 0, 57, 95
2, 48480, Note_on_c, 0, 54, 95
2, 48480, Note_on_c, 0, 50, 95
2, 48480, Note_on_c, 0, 45, 95
2, 48960, Note_off_c, 0, 57, 95
2, 48960, Note_off_c, 0, 54, 95
2, 48960, Note_off_c, 0, 50, 95
2, 48960, Note_off_c, 0, 45, 95
2, 48960, Note_on_c, 0, 60, 95
2, 48960, Note_on_c, 0, 55, 95
2, 48960, Note_on_c, 0, 52, 95
2, 48960, Note_on_c, 0, 48, 95
2, 48960, Note_on_c, 0, 43, 95
2, 49200, Note_off_c, 0, 60, 95
2, 49200, Note_off_c, 0, 55, 95
2, 49200, Note_off_c, 0, 52, 95
2, 49200, Note_off_c, 0, 48, 95
2, 49200, Note_off_c, 0, 43, 95
2, 49200, Note_on_c, 0, 64, 95
2, 49200, Note_on_c, 0, 60, 95
2, 49200, Note_on_c, 0, 55, 95
2, 49200, Note_on_c, 0, 52, 95
2, 49440, Note_off_c, 0, 64, 95
2, 49440, Note_off_c, 0, 60, 95
2, 49440, Note_off_c, 0, 55, 95
2, 49440, Note_off_c, 0, 52, 95
2, 49440, Note_on_c, 0, 60, 95
2, 49440, Note_on_c, 0, 55, 95
2, 49440, Note_on_c, 0, 52, 95
2, 49440, Note_on_c, 0, 48, 95
2, 49440, Note_on_c, 0, 43, 95
2, 49920, Note_off_c, 0, 60, 95
2, 49920, Note_off_c, 0, 55, 95
2, 49920, Note_off_c, 0, 52, 95
2, 49920, Note_off_c, 0, 48, 95
2, 49920, Note_off_c, 0, 43, 95
2, 49920, Note_on_c, 0, 62, 95
2, 49920, Note_on_c, 0, 59, 95
2, 49920, Note_on_c, 0, 54, 95
2, 49920, Note_on_c, 0, 50, 95
2, 50880, Note_off_c, 0, 62, 95
2, 50880, Note_off_c, 0, 59, 95
2, 50880, Note_off_c, 0, 54, 95
2, 50880, Note_off_c, 0, 50, 95
2, 50880, Note_on_c, 0, 62, 95
2, 50880, Note_on_c, 0, 59, 95
2, 50880, Note_on_c, 0, 54, 95
2, 50880, Note_on_c, 0, 50, 95
2, 51840, Note_off_c, 0, 62, 95
2, 51840, Note_off_c, 0, 59, 95
2, 51840, Note_off_c, 0, 54, 95
2, 51840, Note_off_c, 0, 50, 95
2, 51840, Note_on_c, 0, 62, 95
2, 51840, Note_on_c, 0, 59, 95
2, 51840, Note_on_c, 0, 54, 95
2, 51840, Note_on_c, 0, 50, 95
2, 52320, Note_off_c, 0, 62, 95
2, 52320, Note_off_c, 0, 59, 95
2, 52320, Note_off_c, 0, 54, 95
2, 52320, Note_off_c, 0, 50, 95
2, 52320, Note_on_c, 0, 62, 95
2, 52320, Note_on_c, 0, 59, 95
2, 52320, Note_on_c, 0, 54, 95
2, 52320, Note_on_c, 0, 50, 95
2, 52800, Note_off_c, 0, 62, 95
2, 52800, Note_off_c, 0, 59, 95
2, 52800, Note_off_c, 0, 54, 95
2, 52800, Note_off_c, 0, 50, 95
2, 52800, Note_on_c, 0, 66, 95
2, 52800, Note_on_c, 0, 62, 95
2, 52800, Note_on_c, 0, 59, 95
2, 52800, Note_on_c, 0, 54, 95
2, 53280, Note_off_c, 0, 66, 95
2, 53280, Note_off_c, 0, 62, 95
2, 53280, Note_off_c, 0, 59, 95
2, 53280, Note_off_c, 0, 54, 95
2, 53280, Note_on_c, 0, 66, 95
2, 53280, Note_on_c, 0, 62, 95
2, 53280, Note_on_c, 0, 59, 95
2, 53280, Note_on_c, 0, 54, 95
2, 53760, Note_off_c, 0, 66, 95
2, 53760, Note_off_c, 0, 62, 95
2, 53760, Note_off_c, 0, 59, 95
2, 53760, Note_off_c, 0, 54, 95
2, 53760, Note_on_c, 0, 67, 95
2, 53760, Note_on_c, 0, 59, 95
2, 53760, Note_on_c, 0, 55, 95
2, 53760, Note_on_c, 0, 50, 95
2, 54720, Note_off_c, 0, 67, 95
2, 54720, Note_off_c, 0, 59, 95
2, 54720, Note_off_c, 0, 55, 95
2, 54720, Note_off_c, 0, 50, 95
2, 54720, Note_on_c, 0, 67, 95
2, 54720, Note_on_c, 0, 59, 95
2, 54720, Note_on_c, 0, 55, 95
2, 54720, Note_on_c, 0, 50, 95
2, 55440, Note_off_c, 0, 67, 95
2, 55440, Note_off_c, 0, 59, 95
2, 55440, Note_off_c, 0, 55, 95
2, 55440, Note_off_c, 0, 50, 95
2, 55440, Note_on_c, 0, 67, 95
2, 55440, Note_on_c, 0, 59, 95
2, 55440, Note_on_c, 0, 55, 95
2, 55440, Note_on_c, 0, 50, 95
2, 55680, Note_off_c, 0, 67, 95
2, 55680, Note_off_c, 0, 59, 95
2, 55680, Note_off_c, 0, 55, 95
2, 55680, Note_off_c, 0, 50, 95
2, 55680, Note_on_c, 0, 67, 95
2, 55680, Note_on_c, 0, 60, 95
2, 55680, Note_on_c, 0, 55, 95
2, 55680, Note_on_c, 0, 50, 95
2, 56160, Note_off_c, 0, 67, 95
2, 56160, Note_off_c, 0, 60, 95
2, 56160, Note_off_c, 0, 55, 95
2, 56160, Note_off_c, 0, 50, 95
2, 56160, Note_on_c, 0, 59, 95
2, 56160, Note_on_c, 0, 55, 95
2, 56160, Note_on_c, 0, 50, 95
2, 56640, Note_off_c, 0, 59, 95
2, 56640, Note_off_c, 0, 55, 95
2, 56640, Note_off_c, 0, 50, 95
2, 56640, Note_on_c, 0, 57, 95
2, 56640, Note_on_c, 0, 50, 95
2, 56640, Note_on_c, 0, 47, 95
2, 57120, Note_off_c, 0, 57, 95
2, 57120, Note_off_c, 0, 50, 95
2, 57120, Note_off_c, 0, 47, 95
2, 57120, Note_on_c, 0, 55, 95
2, 57120, Note_on_c, 0, 50, 95
2, 57120, Note_on_c, 0, 47, 95
2, 57600, Note_off_c, 0, 55, 95
2, 57600, Note_off_c, 0, 50, 95
2, 57600, Note_off_c, 0, 47, 95
2, 57600, Note_on_c, 0, 62, 95
2, 57600, Note_on_c, 0, 59, 95
2, 57600, Note_on_c, 0, 54, 95
2, 57600, Note_on_c, 0, 50, 95
2, 58560, Note_off_c, 0, 62, 95
2, 58560, Note_off_c, 0, 59, 95
2, 58560, Note_off_c, 0, 54, 95
2, 58560, Note_off_c, 0, 50, 95
2, 58560, Note_on_c, 0, 66, 95
2, 58560, Note_on_c, 0, 62, 95
2, 58560, Note_on_c, 0, 59, 95
2, 58560, Note_on_c, 0, 54, 95
2, 59280, Note_off_c, 0, 66, 95
2, 59280, Note_off_c, 0, 62, 95
2, 59280, Note_off_c, 0, 59, 95
2, 59280, Note_off_c, 0, 54, 95
2, 59280, Note_on_c, 0, 66, 95
2, 59280, Note_on_c, 0, 62, 95
2, 59280, Note_on_c, 0, 59, 95
2, 59280, Note_on_c, 0, 54, 95
2, 59520, Note_off_c, 0, 66, 95
2, 59520, Note_off_c, 0, 62, 95
2, 59520, Note_off_c, 0, 59, 95
2, 59520, Note_off_c, 0, 54, 95
2, 59520, Note_on_c, 0, 66, 95
2, 59520, Note_on_c, 0, 62, 95
2, 59520, Note_on_c, 0, 59, 95
2, 59520, Note_on_c, 0, 54, 95
2, 60000, Note_off_c, 0, 66, 95
2, 60000, Note_off_c, 0, 62, 95
2, 60000, Note_off_c, 0, 59, 95
2, 60000, Note_off_c, 0, 54, 95
2, 60000, Note_on_c, 0, 66, 95
2, 60000, Note_on_c, 0, 62, 95
2, 60000, Note_on_c, 0, 59, 95
2, 60000, Note_on_c, 0, 54, 95
2, 60480, Note_off_c, 0, 66, 95
2, 60480, Note_off_c, 0, 62, 95
2, 60480, Note_off_c, 0, 59, 95
2, 60480, Note_off_c, 0, 54, 95
2, 60480, Note_on_c, 0, 62, 95
2, 60480, Note_on_c, 0, 59, 95
2, 60480, Note_on_c, 0, 54, 95
2, 60480, Note_on_c, 0, 50, 95
2, 60960, Note_off_c, 0, 62, 95
2, 60960, Note_off_c, 0, 59, 95
2, 60960, Note_off_c, 0, 54, 95
2, 60960, Note_off_c, 0, 50, 95
2, 60960, Note_on_c, 0, 62, 95
2, 60960, Note_on_c, 0, 59, 95
2, 60960, Note_on_c, 0, 54, 95
2, 60960, Note_on_c, 0, 50, 95
2, 61440, Note_off_c, 0, 62, 95
2, 61440, Note_off_c, 0, 59, 95
2, 61440, Note_off_c, 0, 54, 95
2, 61440, Note_off_c, 0, 50, 95
2, 61440, Note_on_c, 0, 67, 95
2, 61440, Note_on_c, 0, 59, 95
2, 61440, Note_on_c, 0, 55, 95
2, 61440, Note_on_c, 0, 50, 95
2, 62400, Note_off_c, 0, 67, 95
2, 62400, Note_off_c, 0, 59, 95
2, 62400, Note_off_c, 0, 55, 95
2, 62400, Note_off_c, 0, 50, 95
2, 63120, Note_on_c, 0, 67, 95
2, 63120, Note_on_c, 0, 59, 95
2, 63120, Note_on_c, 0, 60, 95
2, 63120, Note_on_c, 0, 55, 95
2, 63120, Note_on_c, 0, 50, 95
2, 63360, Note_off_c, 0, 67, 95
2, 63360, Note_off_c, 0, 59, 95
2, 63360, Note_off_c, 0, 60, 95
2, 63360, Note_off_c, 0, 55, 95
2, 63360, Note_off_c, 0, 50, 95
2, 63360, Note_on_c, 0, 60, 95
2, 63360, Note_on_c, 0, 55, 95
2, 63360, Note_on_c, 0, 50, 95
2, 63840, Note_off_c, 0, 60, 95
2, 63840, Note_off_c, 0, 55, 95
2, 63840, Note_off_c, 0, 50, 95
2, 63840, Note_on_c, 0, 60, 95
2, 63840, Note_on_c, 0, 55, 95
2, 63840, Note_on_c, 0, 50, 95
2, 64320, Note_off_c, 0, 60, 95
2, 64320, Note_off_c, 0, 55, 95
2, 64320, Note_off_c, 0, 50, 95
2, 64320, Note_on_c, 0, 59, 95
2, 64320, Note_on_c, 0, 55, 95
2, 64320, Note_on_c, 0, 50, 95
2, 64800, Note_off_c, 0, 59, 95
2, 64800, Note_off_c, 0, 55, 95
2, 64800, Note_off_c, 0, 50, 95
2, 64800, Note_on_c, 0, 60, 95
2, 64800, Note_on_c, 0, 57, 95
2, 64800, Note_on_c, 0, 50, 95
2, 65280, Note_off_c, 0, 60, 95
2, 65280, Note_off_c, 0, 57, 95
2, 65280, Note_off_c, 0, 50, 95
2, 65280, Note_on_c, 0, 60, 95
2, 65280, Note_on_c, 0, 57, 95
2, 65280, Note_on_c, 0, 52, 95
2, 65280, Note_on_c, 0, 48, 95
2, 66240, Note_off_c, 0, 60, 95
2, 66240, Note_off_c, 0, 57, 95
2, 66240, Note_off_c, 0, 52, 95
2, 66240, Note_off_c, 0, 48, 95
2, 66240, Note_on_c, 0, 64, 95
2, 66240, Note_on_c, 0, 60, 95
2, 66240, Note_on_c, 0, 57, 95
2, 66240, Note_on_c, 0, 52, 95
2, 67200, Note_off_c, 0, 64, 95
2, 67200, Note_off_c, 0, 60, 95
2, 67200, Note_off_c, 0, 57, 95
2, 67200, Note_off_c, 0, 52, 95
2, 67200, Note_on_c, 0, 64, 95
2, 67200, Note_on_c, 0, 60, 95
2, 67200, Note_on_c, 0, 57, 95
2, 67200, Note_on_c, 0, 52, 95
2, 68160, Note_off_c, 0, 64, 95
2, 68160, Note_off_c, 0, 60, 95
2, 68160, Note_off_c, 0, 57, 95
2, 68160, Note_off_c, 0, 52, 95
2, 68160, Note_on_c, 0, 60, 95
2, 68160, Note_on_c, 0, 57, 95
2, 68160, Note_on_c, 0, 52, 95
2, 68160, Note_on_c, 0, 48, 95
2, 69120, Note_off_c, 0, 60, 95
2, 69120, Note_off_c, 0, 57, 95
2, 69120, Note_off_c, 0, 52, 95
2, 69120, Note_off_c, 0, 48, 95
2, 69120, Note_on_c, 0, 64, 95
2, 69120, Note_on_c, 0, 60, 95
2, 69120, Note_on_c, 0, 55, 95
2, 69120, Note_on_c, 0, 52, 95
2, 69600, Note_off_c, 0, 64, 95
2, 69600, Note_off_c, 0, 60, 95
2, 69600, Note_off_c, 0, 55, 95
2, 69600, Note_off_c, 0, 52, 95
2, 69600, Note_on_c, 0, 48, 95
2, 70080, Note_off_c, 0, 48, 95
2, 70080, Note_on_c, 0, 60, 95
2, 70080, Note_on_c, 0, 55, 95
2, 70080, Note_on_c, 0, 52, 95
2, 70080, Note_on_c, 0, 48, 95
2, 70080, Note_on_c, 0, 43, 95
2, 70800, Note_off_c, 0, 60, 95
2, 70800, Note_off_c, 0, 55, 95
2, 70800, Note_off_c, 0, 52, 95
2, 70800, Note_off_c, 0, 48, 95
2, 70800, Note_off_c, 0, 43, 95
2, 70800, Note_on_c, 0, 55, 95
2, 70800, Note_on_c, 0, 52, 95
2, 70800, Note_on_c, 0, 48, 95
2, 71040, Note_off_c, 0, 55, 95
2, 71040, Note_off_c, 0, 52, 95
2, 71040, Note_off_c, 0, 48, 95
2, 71040, Note_on_c, 0, 55, 95
2, 71040, Note_on_c, 0, 52, 95
2, 71040, Note_on_c, 0, 48, 95
2, 71040, Note_on_c, 0, 43, 95
2, 71520, Note_off_c, 0, 55, 95
2, 71520, Note_off_c, 0, 52, 95
2, 71520, Note_off_c, 0, 48, 95
2, 71520, Note_off_c, 0, 43, 95
2, 71520, Note_on_c, 0, 60, 95
2, 71520, Note_on_c, 0, 55, 95
2, 71520, Note_on_c, 0, 52, 95
2, 71520, Note_on_c, 0, 48, 95
2, 72000, Note_off_c, 0, 60, 95
2, 72000, Note_off_c, 0, 55, 95
2, 72000, Note_off_c, 0, 52, 95
2, 72000, Note_off_c, 0, 48, 95
2, 72000, Note_on_c, 0, 55, 95
2, 72000, Note_on_c, 0, 50, 95
2, 72000, Note_on_c, 0, 45, 95
2, 72480, Note_off_c, 0, 55, 95
2, 72480, Note_off_c, 0, 50, 95
2, 72480, Note_off_c, 0, 45, 95
2, 72480, Note_on_c, 0, 57, 95
2, 72480, Note_on_c, 0, 54, 95
2, 72480, Note_on_c, 0, 50, 95
2, 72480, Note_on_c, 0, 45, 95
2, 72960, Note_off_c, 0, 57, 95
2, 72960, Note_off_c, 0, 54, 95
2, 72960, Note_off_c, 0, 50, 95
2, 72960, Note_off_c, 0, 45, 95
2, 72960, Note_on_c, 0, 67, 95
2, 72960, Note_on_c, 0, 59, 95
2, 72960, Note_on_c, 0, 55, 95
2, 72960, Note_on_c, 0, 50, 95
2, 72960, Note_on_c, 0, 47, 95
2, 73920, Note_off_c, 0, 67, 95
2, 73920, Note_off_c, 0, 59, 95
2, 73920, Note_off_c, 0, 55, 95
2, 73920, Note_off_c, 0, 50, 95
2, 73920, Note_off_c, 0, 47, 95
2, 73920, Note_on_c, 0, 59, 95
2, 73920, Note_on_c, 0, 55, 95
2, 73920, Note_on_c, 0, 50, 95
2, 73920, Note_on_c, 0, 47, 95
2, 74880, Note_off_c, 0, 59, 95
2, 74880, Note_off_c, 0, 55, 95
2, 74880, Note_off_c, 0, 50, 95
2, 74880, Note_off_c, 0, 47, 95
2, 74880, Note_on_c, 0, 67, 95
2, 74880, Note_on_c, 0, 59, 95
2, 74880, Note_on_c, 0, 55, 95
2, 74880, Note_on_c, 0, 50, 95
2, 75360, Note_off_c, 0, 67, 95
2, 75360, Note_off_c, 0, 59, 95
2, 75360, Note_off_c, 0, 55, 95
2, 75360, Note_off_c, 0, 50, 95
2, 75360, Note_on_c, 0, 67, 95
2, 75360, Note_on_c, 0, 59, 95
2, 75360, Note_on_c, 0, 55, 95
2, 75360, Note_on_c, 0, 50, 95
2, 75840, Note_off_c, 0, 67, 95
2, 75840, Note_off_c, 0, 59, 95
2, 75840, Note_off_c, 0, 55, 95
2, 75840, Note_off_c, 0, 50, 95
2, 75840, Note_on_c, 0, 59, 95
2, 75840, Note_on_c, 0, 55, 95
2, 75840, Note_on_c, 0, 50, 95
2, 75840, Note_on_c, 0, 48, 95
2, 76320, Note_off_c, 0, 59, 95
2, 76320, Note_off_c, 0, 55, 95
2, 76320, Note_off_c, 0, 50, 95
2, 76320, Note_off_c, 0, 48, 95
2, 76320, Note_on_c, 0, 59, 95
2, 76320, Note_on_c, 0, 55, 95
2, 76320, Note_on_c, 0, 50, 95
2, 76320, Note_on_c, 0, 48, 95
2, 76800, Note_off_c, 0, 59, 95
2, 76800, Note_off_c, 0, 55, 95
2, 76800, Note_off_c, 0, 50, 95
2, 76800, Note_off_c, 0, 48, 95
2, 76800, Note_on_c, 0, 62, 95
2, 76800, Note_on_c, 0, 57, 95
2, 76800, Note_on_c, 0, 54, 95
2, 76800, Note_on_c, 0, 50, 95
2, 76800, Note_on_c, 0, 45, 95
2, 77760, Note_off_c, 0, 62, 95
2, 77760, Note_off_c, 0, 57, 95
2, 77760, Note_off_c, 0, 54, 95
2, 77760, Note_off_c, 0, 50, 95
2, 77760, Note_off_c, 0, 45, 95
2, 77760, Note_on_c, 0, 57, 95
2, 77760, Note_on_c, 0, 54, 95
2, 77760, Note_on_c, 0, 50, 95
2, 77760, Note_on_c, 0, 45, 95
2, 78720, Note_off_c, 0, 57, 95
2, 78720, Note_off_c, 0, 54, 95
2, 78720, Note_off_c, 0, 50, 95
2, 78720, Note_off_c, 0, 45, 95
2, 78720, Note_on_c, 0, 57, 95
2, 78720, Note_on_c, 0, 54, 95
2, 78720, Note_on_c, 0, 50, 95
2, 78720, Note_on_c, 0, 45, 95
2, 79200, Note_off_c, 0, 57, 95
2, 79200, Note_off_c, 0, 54, 95
2, 79200, Note_off_c, 0, 50, 95
2, 79200, Note_off_c, 0, 45, 95
2, 79200, Note_on_c, 0, 57, 95
2, 79200, Note_on_c, 0, 54, 95
2, 79200, Note_on_c, 0, 50, 95
2, 79200, Note_on_c, 0, 45, 95
2, 79680, Note_off_c, 0, 57, 95
2, 79680, Note_off_c, 0, 54, 95
2, 79680, Note_off_c, 0, 50, 95
2, 79680, Note_off_c, 0, 45, 95
2, 79680, Note_on_c, 0, 62, 95
2, 79680, Note_on_c, 0, 57, 95
2, 79680, Note_on_c, 0, 54, 95
2, 79680, Note_on_c, 0, 50, 95
2, 80160, Note_off_c, 0, 62, 95
2, 80160, Note_off_c, 0, 57, 95
2, 80160, Note_off_c, 0, 54, 95
2, 80160, Note_off_c, 0, 50, 95
2, 80160, Note_on_c, 0, 59, 95
2, 80160, Note_on_c, 0, 55, 95
2, 80160, Note_on_c, 0, 50, 95
2, 80640, Note_off_c, 0, 59, 95
2, 80640, Note_off_c, 0, 55, 95
2, 80640, Note_off_c, 0, 50, 95
2, 80640, Note_on_c, 0, 64, 95
2, 80640, Note_on_c, 0, 60, 95
2, 80640, Note_on_c, 0, 57, 95
2, 80640, Note_on_c, 0, 52, 95
2, 81600, Note_off_c, 0, 64, 95
2, 81600, Note_off_c, 0, 60, 95
2, 81600, Note_off_c, 0, 57, 95
2, 81600, Note_off_c, 0, 52, 95
2, 81600, Note_on_c, 0, 64, 95
2, 81600, Note_on_c, 0, 60, 95
2, 81600, Note_on_c, 0, 57, 95
2, 81600, Note_on_c, 0, 52, 95
2, 82560, Note_off_c, 0, 64, 95
2, 82560, Note_off_c, 0, 60, 95
2, 82560, Note_off_c, 0, 57, 95
2, 82560, Note_off_c, 0, 52, 95
2, 82560, Note_on_c, 0, 60, 95
2, 82560, Note_on_c, 0, 55, 95
2, 82560, Note_on_c, 0, 52, 95
2, 82560, Note_on_c, 0, 48, 95
2, 83520, Note_off_c, 0, 60, 95
2, 83520, Note_off_c, 0, 55, 95
2, 83520, Note_off_c, 0, 52, 95
2, 83520, Note_off_c, 0, 48, 95
2, 83520, Note_on_c, 0, 60, 95
2, 83520, Note_on_c, 0, 55, 95
2, 83520, Note_on_c, 0, 52, 95
2, 83520, Note_on_c, 0, 48, 95
2, 84480, Note_off_c, 0, 60, 95
2, 84480, Note_off_c, 0, 55, 95
2, 84480, Note_off_c, 0, 52, 95
2, 84480, Note_off_c, 0, 48, 95
2, 84480, Note_on_c, 0, 60, 95
2, 84480, Note_on_c, 0, 55, 95
2, 84480, Note_on_c, 0, 52, 95
2, 84480, Note_on_c, 0, 48, 95
2, 85440, Note_off_c, 0, 60, 95
2, 85440, Note_off_c, 0, 55, 95
2, 85440, Note_off_c, 0, 52, 95
2, 85440, Note_off_c, 0, 48, 95
2, 85440, Note_on_c, 0, 55, 95
2, 85440, Note_on_c, 0, 52, 95
2, 85440, Note_on_c, 0, 48, 95
2, 86400, Note_off_c, 0, 55, 95
2, 86400, Note_off_c, 0, 52, 95
2, 86400, Note_off_c, 0, 48, 95
2, 86400, Note_on_c, 0, 60, 95
2, 86400, Note_on_c, 0, 55, 95
2, 86400, Note_on_c, 0, 52, 95
2, 86400, Note_on_c, 0, 48, 95
2, 86400, Note_on_c, 0, 43, 95
2, 86880, Note_off_c, 0, 60, 95
2, 86880, Note_off_c, 0, 55, 95
2, 86880, Note_off_c, 0, 52, 95
2, 86880, Note_off_c, 0, 48, 95
2, 86880, Note_off_c, 0, 43, 95
2, 86880, Note_on_c, 0, 60, 95
2, 86880, Note_on_c, 0, 55, 95
2, 86880, Note_on_c, 0, 52, 95
2, 86880, Note_on_c, 0, 48, 95
2, 86880, Note_on_c, 0, 43, 95
2, 87360, Note_off_c, 0, 60, 95
2, 87360, Note_off_c, 0, 55, 95
2, 87360, Note_off_c, 0, 52, 95
2, 87360, Note_off_c, 0, 48, 95
2, 87360, Note_off_c, 0, 43, 95
2, 87360, Note_on_c, 0, 62, 95
2, 87360, Note_on_c, 0, 57, 95
2, 87360, Note_on_c, 0, 54, 95
2, 87360, Note_on_c, 0, 50, 95
2, 87840, Note_off_c, 0, 62, 95
2, 87840, Note_off_c, 0, 57, 95
2, 87840, Note_off_c, 0, 54, 95
2, 87840, Note_off_c, 0, 50, 95
2, 87840, Note_on_c, 0, 62, 95
2, 87840, Note_on_c, 0, 57, 95
2, 87840, Note_on_c, 0, 54, 95
2, 87840, Note_on_c, 0, 50, 95
2, 88320, Note_off_c, 0, 62, 95
2, 88320, Note_off_c, 0, 57, 95
2, 88320, Note_off_c, 0, 54, 95
2, 88320, Note_off_c, 0, 50, 95
2, 88320, Note_on_c, 0, 67, 95
2, 88320, Note_on_c, 0, 59, 95
2, 88320, Note_on_c, 0, 55, 95
2, 88320, Note_on_c, 0, 50, 95
2, 88320, Note_on_c, 0, 47, 95
2, 89280, Note_off_c, 0, 67, 95
2, 89280, Note_off_c, 0, 59, 95
2, 89280, Note_off_c, 0, 55, 95
2, 89280, Note_off_c, 0, 50, 95
2, 89280, Note_off_c, 0, 47, 95
2, 89280, Note_on_c, 0, 59, 95
2, 89280, Note_on_c, 0, 55, 95
2, 89280, Note_on_c, 0, 50, 95
2, 89280, Note_on_c, 0, 47, 95
2, 90240, Note_off_c, 0, 59, 95
2, 90240, Note_off_c, 0, 55, 95
2, 90240, Note_off_c, 0, 50, 95
2, 90240, Note_off_c, 0, 47, 95
2, 90240, Note_on_c, 0, 65, 95
2, 90240, Note_on_c, 0, 60, 95
2, 90240, Note_on_c, 0, 57, 95
2, 90240, Note_on_c, 0, 53, 95
2, 90240, Note_on_c, 0, 48, 95
2, 91200, Note_off_c, 0, 65, 95
2, 91200, Note_off_c, 0, 60, 95
2, 91200, Note_off_c, 0, 57, 95
2, 91200, Note_off_c, 0, 53, 95
2, 91200, Note_off_c, 0, 48, 95
2, 91200, Note_on_c, 0, 60, 95
2, 91200, Note_on_c, 0, 57, 95
2, 91200, Note_on_c, 0, 53, 95
2, 91200, Note_on_c, 0, 48, 95
2, 92160, Note_off_c, 0, 60, 95
2, 92160, Note_off_c, 0, 57, 95
2, 92160, Note_off_c, 0, 53, 95
2, 92160, Note_off_c, 0, 48, 95
2, 92160, Note_on_c, 0, 60, 95
2, 92160, Note_on_c, 0, 55, 95
2, 92160, Note_on_c, 0, 52, 95
2, 92160, Note_on_c, 0, 48, 95
2, 92160, Note_on_c, 0, 43, 95
2, 93120, Note_off_c, 0, 60, 95
2, 93120, Note_off_c, 0, 55, 95
2, 93120, Note_off_c, 0, 52, 95
2, 93120, Note_off_c, 0, 48, 95
2, 93120, Note_off_c, 0, 43, 95
2, 93120, Note_on_c, 0, 55, 95
2, 93120, Note_on_c, 0, 52, 95
2, 93120, Note_on_c, 0, 48, 95
2, 93120, Note_on_c, 0, 43, 95
2, 94080, Note_off_c, 0, 55, 95
2, 94080, Note_off_c, 0, 52, 95
2, 94080, Note_off_c, 0, 48, 95
2, 94080, Note_off_c, 0, 43, 95
2, 94080, Note_on_c, 0, 60, 95
2, 94080, Note_on_c, 0, 55, 95
2, 94080, Note_on_c, 0, 52, 95
2, 94080, Note_on_c, 0, 48, 95
2, 94080, Note_on_c, 0, 43, 95
2, 94560, Note_off_c, 0, 60, 95
2, 94560, Note_off_c, 0, 55, 95
2, 94560, Note_off_c, 0, 52, 95
2, 94560, Note_off_c, 0, 48, 95
2, 94560, Note_off_c, 0, 43, 95
2, 94560, Note_on_c, 0, 64, 95
2, 94560, Note_on_c, 0, 60, 95
2, 94560, Note_on_c, 0, 55, 95
2, 94560, Note_on_c, 0, 52, 95
2, 94560, Note_on_c, 0, 48, 95
2, 95040, Note_off_c, 0, 64, 95
2, 95040, Note_off_c, 0, 60, 95
2, 95040, Note_off_c, 0, 55, 95
2, 95040, Note_off_c, 0, 52, 95
2, 95040, Note_off_c, 0, 48, 95
2, 95040, Note_on_c, 0, 66, 95
2, 95040, Note_on_c, 0, 62, 95
2, 95040, Note_on_c, 0, 59, 95
2, 95040, Note_on_c, 0, 54, 95
2, 95280, Note_off_c, 0, 66, 95
2, 95280, Note_off_c, 0, 62, 95
2, 95280, Note_off_c, 0, 59, 95
2, 95280, Note_off_c, 0, 54, 95
2, 95280, Note_on_c, 0, 66, 95
2, 95280, Note_on_c, 0, 62, 95
2, 95280, Note_on_c, 0, 59, 95
2, 95520, Note_off_c, 0, 66, 95
2, 95520, Note_off_c, 0, 62, 95
2, 95520, Note_off_c, 0, 59, 95
2, 95520, Note_on_c, 0, 66, 95
2, 95520, Note_on_c, 0, 62, 95
2, 95520, Note_on_c, 0, 59, 95
2, 95520, Note_on_c, 0, 54, 95
2, 96000, Note_off_c, 0, 66, 95
2, 96000, Note_off_c, 0, 62, 95
2, 96000, Note_off_c, 0, 59, 95
2, 96000, Note_off_c, 0, 54, 95
2, 96000, Note_on_c, 0, 64, 95
2, 96000, Note_on_c, 0, 60, 95
2, 96000, Note_on_c, 0, 57, 95
2, 96000, Note_on_c, 0, 52, 95
2, 96960, Note_off_c, 0, 64, 95
2, 96960, Note_off_c, 0, 60, 95
2, 96960, Note_off_c, 0, 57, 95
2, 96960, Note_off_c, 0, 52, 95
2, 96960, Note_on_c, 0, 64, 95
2, 96960, Note_on_c, 0, 60, 95
2, 96960, Note_on_c, 0, 57, 95
2, 96960, Note_on_c, 0, 52, 95
2, 97920, Note_off_c, 0, 64, 95
2, 97920, Note_off_c, 0, 60, 95
2, 97920, Note_off_c, 0, 57, 95
2, 97920, Note_off_c, 0, 52, 95
2, 97920, Note_on_c, 0, 60, 95
2, 97920, Note_on_c, 0, 55, 95
2, 97920, Note_on_c, 0, 52, 95
2, 97920, Note_on_c, 0, 48, 95
2, 98880, Note_off_c, 0, 60, 95
2, 98880, Note_off_c, 0, 55, 95
2, 98880, Note_off_c, 0, 52, 95
2, 98880, Note_off_c, 0, 48, 95
2, 98880, Note_on_c, 0, 60, 95
2, 98880, Note_on_c, 0, 55, 95
2, 98880, Note_on_c, 0, 52, 95
2, 98880, Note_on_c, 0, 48, 95
2, 99840, Note_off_c, 0, 60, 95
2, 99840, Note_off_c, 0, 55, 95
2, 99840, Note_off_c, 0, 52, 95
2, 99840, Note_off_c, 0, 48, 95
2, 99840, Note_on_c, 0, 64, 95
2, 99840, Note_on_c, 0, 60, 95
2, 99840, Note_on_c, 0, 55, 95
2, 99840, Note_on_c, 0, 52, 95
2, 99840, Note_on_c, 0, 48, 95
2, 100800, Note_off_c, 0, 64, 95
2, 100800, Note_off_c, 0, 60, 95
2, 100800, Note_off_c, 0, 55, 95
2, 100800, Note_off_c, 0, 52, 95
2, 100800, Note_off_c, 0, 48, 95
2, 100800, Note_on_c, 0, 60, 95
2, 100800, Note_on_c, 0, 55, 95
2, 100800, Note_on_c, 0, 52, 95
2, 100800, Note_on_c, 0, 48, 95
2, 100800, Note_on_c, 0, 43, 95
2, 101760, Note_off_c, 0, 60, 95
2, 101760, Note_off_c, 0, 55, 95
2, 101760, Note_off_c, 0, 52, 95
2, 101760, Note_off_c, 0, 48, 95
2, 101760, Note_off_c, 0, 43, 95
2, 101760, Note_on_c, 0, 60, 95
2, 101760, Note_on_c, 0, 55, 95
2, 101760, Note_on_c, 0, 52, 95
2, 101760, Note_on_c, 0, 48, 95
2, 102240, Note_off_c, 0, 60, 95
2, 102240, Note_off_c, 0, 55, 95
2, 102240, Note_off_c, 0, 52, 95
2, 102240, Note_off_c, 0, 48, 95
2, 102240, Note_on_c, 0, 64, 95
2, 102240, Note_on_c, 0, 60, 95
2, 102240, Note_on_c, 0, 55, 95
2, 102240, Note_on_c, 0, 52, 95
2, 102720, Note_off_c, 0, 64, 95
2, 102720, Note_off_c, 0, 60, 95
2, 102720, Note_off_c, 0, 55, 95
2, 102720, Note_off_c, 0, 52, 95
2, 102720, Note_on_c, 0, 62, 95
2, 102720, Note_on_c, 0, 57, 95
2, 102720, Note_on_c, 0, 54, 95
2, 102720, Note_on_c, 0, 50, 95
2, 102960, Note_off_c, 0, 62, 95
2, 102960, Note_off_c, 0, 57, 95
2, 102960, Note_off_c, 0, 54, 95
2, 102960, Note_off_c, 0, 50, 95
2, 102960, Note_on_c, 0, 62, 95
2, 102960, Note_on_c, 0, 57, 95
2, 102960, Note_on_c, 0, 54, 95
2, 103200, Note_off_c, 0, 62, 95
2, 103200, Note_off_c, 0, 57, 95
2, 103200, Note_off_c, 0, 54, 95
2, 103200, Note_on_c, 0, 62, 95
2, 103200, Note_on_c, 0, 57, 95
2, 103200, Note_on_c, 0, 54, 95
2, 103200, Note_on_c, 0, 50, 95
2, 103680, Note_off_c, 0, 62, 95
2, 103680, Note_off_c, 0, 57, 95
2, 103680, Note_off_c, 0, 54, 95
2, 103680, Note_off_c, 0, 50, 95
2, 103680, Note_on_c, 0, 67, 95
2, 103680, Note_on_c, 0, 59, 95
2, 103680, Note_on_c, 0, 55, 95
2, 103680, Note_on_c, 0, 50, 95
2, 103680, Note_on_c, 0, 47, 95
2, 104640, Note_off_c, 0, 67, 95
2, 104640, Note_off_c, 0, 59, 95
2, 104640, Note_off_c, 0, 55, 95
2, 104640, Note_off_c, 0, 50, 95
2, 104640, Note_off_c, 0, 47, 95
2, 104640, Note_on_c, 0, 59, 95
2, 104640, Note_on_c, 0, 55, 95
2, 104640, Note_on_c, 0, 50, 95
2, 104640, Note_on_c, 0, 47, 95
2, 105600, Note_off_c, 0, 59, 95
2, 105600, Note_off_c, 0, 55, 95
2, 105600, Note_off_c, 0, 50, 95
2, 105600, Note_off_c, 0, 47, 95
2, 105600, Note_on_c, 0, 65, 95
2, 105600, Note_on_c, 0, 60, 95
2, 105600, Note_on_c, 0, 57, 95
2, 105600, Note_on_c, 0, 53, 95
2, 105600, Note_on_c, 0, 48, 95
2, 106560, Note_off_c, 0, 65, 95
2, 106560, Note_off_c, 0, 60, 95
2, 106560, Note_off_c, 0, 57, 95
2, 106560, Note_off_c, 0, 53, 95
2, 106560, Note_off_c, 0, 48, 95
2, 106560, Note_on_c, 0, 60, 95
2, 106560, Note_on_c, 0, 57, 95
2, 106560, Note_on_c, 0, 53, 95
2, 106560, Note_on_c, 0, 48, 95
2, 107520, Note_off_c, 0, 60, 95
2, 107520, Note_off_c, 0, 57, 95
2, 107520, Note_off_c, 0, 53, 95
2, 107520, Note_off_c, 0, 48, 95
2, 107520, Note_on_c, 0, 60, 95
2, 107520, Note_on_c, 0, 55, 95
2, 107520, Note_on_c, 0, 52, 95
2, 107520, Note_on_c, 0, 48, 95
2, 107520, Note_on_c, 0, 43, 95
2, 109440, Note_off_c, 0, 60, 95
2, 109440, Note_off_c, 0, 55, 95
2, 109440, Note_off_c, 0, 52, 95
2, 109440, Note_off_c, 0, 48, 95
2, 109440, Note_off_c, 0, 43, 95
2, 111360, Note_on_c, 0, 62, 95
2, 111360, Note_on_c, 0, 59, 95
2, 111360, Note_on_c, 0, 54, 95
2, 111360, Note_on_c, 0, 50, 95
2, 112320, Note_off_c, 0, 62, 95
2, 112320, Note_off_c, 0, 59, 95
2, 112320, Note_off_c, 0, 54, 95
2, 112320, Note_off_c, 0, 50, 95
2, 112320, Note_on_c, 0, 62, 95
2, 112320, Note_on_c, 0, 59, 95
2, 112320, Note_on_c, 0, 54, 95
2, 112320, Note_on_c, 0, 50, 95
2, 113040, Note_off_c, 0, 62, 95
2, 113040, Note_off_c, 0, 59, 95
2, 113040, Note_off_c, 0, 54, 95
2, 113040, Note_off_c, 0, 50, 95
2, 113040, Note_on_c, 0, 62, 95
2, 113040, Note_on_c, 0, 59, 95
2, 113040, Note_on_c, 0, 54, 95
2, 113040, Note_on_c, 0, 50, 95
2, 113280, Note_off_c, 0, 62, 95
2, 113280, Note_off_c, 0, 59, 95
2, 113280, Note_off_c, 0, 54, 95
2, 113280, Note_off_c, 0, 50, 95
2, 113280, Note_on_c, 0, 62, 95
2, 113280, Note_on_c, 0, 59, 95
2, 113280, Note_on_c, 0, 54, 95
2, 113280, Note_on_c, 0, 50, 95
2, 113760, Note_off_c, 0, 62, 95
2, 113760, Note_off_c, 0, 59, 95
2, 113760, Note_off_c, 0, 54, 95
2, 113760, Note_off_c, 0, 50, 95
2, 113760, Note_on_c, 0, 62, 95
2, 113760, Note_on_c, 0, 59, 95
2, 113760, Note_on_c, 0, 54, 95
2, 113760, Note_on_c, 0, 50, 95
2, 114240, Note_off_c, 0, 62, 95
2, 114240, Note_off_c, 0, 59, 95
2, 114240, Note_off_c, 0, 54, 95
2, 114240, Note_off_c, 0, 50, 95
2, 114240, Note_on_c, 0, 62, 95
2, 114240, Note_on_c, 0, 59, 95
2, 114240, Note_on_c, 0, 54, 95
2, 114240, Note_on_c, 0, 50, 95
2, 114720, Note_off_c, 0, 62, 95
2, 114720, Note_off_c, 0, 59, 95
2, 114720, Note_off_c, 0, 54, 95
2, 114720, Note_off_c, 0, 50, 95
2, 114720, Note_on_c, 0, 62, 95
2, 114720, Note_on_c, 0, 59, 95
2, 114720, Note_on_c, 0, 54, 95
2, 114720, Note_on_c, 0, 50, 95
2, 115200, Note_off_c, 0, 62, 95
2, 115200, Note_off_c, 0, 59, 95
2, 115200, Note_off_c, 0, 54, 95
2, 115200, Note_off_c, 0, 50, 95
2, 115200, Note_on_c, 0, 67, 95
2, 115200, Note_on_c, 0, 59, 95
2, 115200, Note_on_c, 0, 55, 95
2, 115200, Note_on_c, 0, 50, 95
2, 116160, Note_off_c, 0, 67, 95
2, 116160, Note_off_c, 0, 59, 95
2, 116160, Note_off_c, 0, 55, 95
2, 116160, Note_off_c, 0, 50, 95
2, 116160, Note_on_c, 0, 67, 95
2, 116160, Note_on_c, 0, 59, 95
2, 116160, Note_on_c, 0, 55, 95
2, 116160, Note_on_c, 0, 50, 95
2, 116880, Note_off_c, 0, 67, 95
2, 116880, Note_off_c, 0, 59, 95
2, 116880, Note_off_c, 0, 55, 95
2, 116880, Note_off_c, 0, 50, 95
2, 116880, Note_on_c, 0, 67, 95
2, 116880, Note_on_c, 0, 59, 95
2, 116880, Note_on_c, 0, 55, 95
2, 116880, Note_on_c, 0, 50, 95
2, 117120, Note_off_c, 0, 67, 95
2, 117120, Note_off_c, 0, 59, 95
2, 117120, Note_off_c, 0, 55, 95
2, 117120, Note_off_c, 0, 50, 95
2, 117120, Note_on_c, 0, 67, 95
2, 117120, Note_on_c, 0, 60, 95
2, 117120, Note_on_c, 0, 55, 95
2, 117120, Note_on_c, 0, 50, 95
2, 117600, Note_off_c, 0, 67, 95
2, 117600, Note_off_c, 0, 60, 95
2, 117600, Note_off_c, 0, 55, 95
2, 117600, Note_off_c, 0, 50, 95
2, 117600, Note_on_c, 0, 67, 95
2, 117600, Note_on_c, 0, 59, 95
2, 117600, Note_on_c, 0, 55, 95
2, 117600, Note_on_c, 0, 50, 95
2, 118080, Note_off_c, 0, 67, 95
2, 118080, Note_off_c, 0, 59, 95
2, 118080, Note_off_c, 0, 55, 95
2, 118080, Note_off_c, 0, 50, 95
2, 118080, Note_on_c, 0, 57, 95
2, 118080, Note_on_c, 0, 50, 95
2, 118080, Note_on_c, 0, 47, 95
2, 118560, Note_off_c, 0, 57, 95
2, 118560, Note_off_c, 0, 50, 95
2, 118560, Note_off_c, 0, 47, 95
2, 118560, Note_on_c, 0, 55, 95
2, 118560, Note_on_c, 0, 50, 95
2, 118560, Note_on_c, 0, 47, 95
2, 119040, Note_off_c, 0, 55, 95
2, 119040, Note_off_c, 0, 50, 95
2, 119040, Note_off_c, 0, 47, 95
2, 119040, Note_on_c, 0, 62, 95
2, 119040, Note_on_c, 0, 59, 95
2, 119040, Note_on_c, 0, 54, 95
2, 119040, Note_on_c, 0, 50, 95
2, 120000, Note_off_c, 0, 62, 95
2, 120000, Note_off_c, 0, 59, 95
2, 120000, Note_off_c, 0, 54, 95
2, 120000, Note_off_c, 0, 50, 95
2, 120000, Note_on_c, 0, 62, 95
2, 120000, Note_on_c, 0, 59, 95
2, 120000, Note_on_c, 0, 54, 95
2, 120720, Note_off_c, 0, 62, 95
2, 120720, Note_off_c, 0, 59, 95
2, 120720, Note_off_c, 0, 54, 95
2, 120720, Note_on_c, 0, 62, 95
2, 120720, Note_on_c, 0, 59, 95
2, 120720, Note_on_c, 0, 54, 95
2, 120960, Note_off_c, 0, 62, 95
2, 120960, Note_off_c, 0, 59, 95
2, 120960, Note_off_c, 0, 54, 95
2, 120960, Note_on_c, 0, 62, 95
2, 120960, Note_on_c, 0, 59, 95
2, 120960, Note_on_c, 0, 54, 95
2, 121440, Note_off_c, 0, 62, 95
2, 121440, Note_off_c, 0, 59, 95
2, 121440, Note_off_c, 0, 54, 95
2, 121440, Note_on_c, 0, 62, 95
2, 121440, Note_on_c, 0, 59, 95
2, 121440, Note_on_c, 0, 54, 95
2, 121920, Note_off_c, 0, 62, 95
2, 121920, Note_off_c, 0, 59, 95
2, 121920, Note_off_c, 0, 54, 95
2, 121920, Note_on_c, 0, 59, 95
2, 121920, Note_on_c, 0, 54, 95
2, 121920, Note_on_c, 0, 50, 95
2, 122400, Note_off_c, 0, 59, 95
2, 122400, Note_off_c, 0, 54, 95
2, 122400, Note_off_c, 0, 50, 95
2, 122400, Note_on_c, 0, 59, 95
2, 122400, Note_on_c, 0, 54, 95
2, 122400, Note_on_c, 0, 50, 95
2, 122880, Note_off_c, 0, 59, 95
2, 122880, Note_off_c, 0, 54, 95
2, 122880, Note_off_c, 0, 50, 95
2, 123840, Note_on_c, 0, 67, 95
2, 123840, Note_on_c, 0, 59, 95
2, 123840, Note_on_c, 0, 55, 95
2, 123840, Note_on_c, 0, 50, 95
2, 124560, Note_off_c, 0, 67, 95
2, 124560, Note_off_c, 0, 59, 95
2, 124560, Note_off_c, 0, 55, 95
2, 124560, Note_off_c, 0, 50, 95
2, 124560, Note_on_c, 0, 67, 95
2, 124560, Note_on_c, 0, 59, 95
2, 124560, Note_on_c, 0, 55, 95
2, 124560, Note_on_c, 0, 50, 95
2, 124800, Note_off_c, 0, 67, 95
2, 124800, Note_off_c, 0, 59, 95
2, 124800, Note_off_c, 0, 55, 95
2, 124800, Note_off_c, 0, 50, 95
2, 124800, Note_on_c, 0, 60, 95
2, 124800, Note_on_c, 0, 55, 95
2, 124800, Note_on_c, 0, 50, 95
2, 125280, Note_off_c, 0, 60, 95
2, 125280, Note_off_c, 0, 55, 95
2, 125280, Note_off_c, 0, 50, 95
2, 125280, Note_on_c, 0, 60, 95
2, 125280, Note_on_c, 0, 55, 95
2, 125280, Note_on_c, 0, 50, 95
2, 125760, Note_off_c, 0, 60, 95
2, 125760, Note_off_c, 0, 55, 95
2, 125760, Note_off_c, 0, 50, 95
2, 125760, Note_on_c, 0, 59, 95
2, 125760, Note_on_c, 0, 55, 95
2, 125760, Note_on_c, 0, 50, 95
2, 126240, Note_off_c, 0, 59, 95
2, 126240, Note_off_c, 0, 55, 95
2, 126240, Note_off_c, 0, 50, 95
2, 126240, Note_on_c, 0, 60, 95
2, 126240, Note_on_c, 0, 55, 95
2, 126240, Note_on_c, 0, 50, 95
2, 126720, Note_off_c, 0, 60, 95
2, 126720, Note_off_c, 0, 55, 95
2, 126720, Note_off_c, 0, 50, 95
2, 126720, Note_on_c, 0, 64, 95
2, 126720, Note_on_c, 0, 60, 95
2, 126720, Note_on_c, 0, 57, 95
2, 126720, Note_on_c, 0, 52, 95
2, 127680, Note_off_c, 0, 64, 95
2, 127680, Note_off_c, 0, 60, 95
2, 127680, Note_off_c, 0, 57, 95
2, 127680, Note_off_c, 0, 52, 95
2, 127680, Note_on_c, 0, 64, 95
2, 127680, Note_on_c, 0, 60, 95
2, 127680, Note_on_c, 0, 57, 95
2, 127680, Note_on_c, 0, 52, 95
2, 128640, Note_off_c, 0, 64, 95
2, 128640, Note_off_c, 0, 60, 95
2, 128640, Note_off_c, 0, 57, 95
2, 128640, Note_off_c, 0, 52, 95
2, 128640, Note_on_c, 0, 64, 95
2, 128640, Note_on_c, 0, 60, 95
2, 128640, Note_on_c, 0, 57, 95
2, 128640, Note_on_c, 0, 52, 95
2, 129120, Note_off_c, 0, 64, 95
2, 129120, Note_off_c, 0, 60, 95
2, 129120, Note_off_c, 0, 57, 95
2, 129120, Note_off_c, 0, 52, 95
2, 129120, Note_on_c, 0, 64, 95
2, 129120, Note_on_c, 0, 60, 95
2, 129120, Note_on_c, 0, 57, 95
2, 129120, Note_on_c, 0, 52, 95
2, 129600, Note_off_c, 0, 64, 95
2, 129600, Note_off_c, 0, 60, 95
2, 129600, Note_off_c, 0, 57, 95
2, 129600, Note_off_c, 0, 52, 95
2, 129600, Note_on_c, 0, 64, 95
2, 129600, Note_on_c, 0, 60, 95
2, 129600, Note_on_c, 0, 57, 95
2, 129600, Note_on_c, 0, 52, 95
2, 130080, Note_off_c, 0, 64, 95
2, 130080, Note_off_c, 0, 60, 95
2, 130080, Note_off_c, 0, 57, 95
2, 130080, Note_off_c, 0, 52, 95
2, 130080, Note_on_c, 0, 67, 95
2, 130080, Note_on_c, 0, 59, 95
2, 130080, Note_on_c, 0, 55, 95
2, 130080, Note_on_c, 0, 50, 95
2, 130560, Note_off_c, 0, 67, 95
2, 130560, Note_off_c, 0, 59, 95
2, 130560, Note_off_c, 0, 55, 95
2, 130560, Note_off_c, 0, 50, 95
2, 130560, Note_on_c, 0, 64, 95
2, 130560, Note_on_c, 0, 60, 95
2, 130560, Note_on_c, 0, 55, 95
2, 130560, Note_on_c, 0, 52, 95
2, 131040, Note_off_c, 0, 64, 95
2, 131040, Note_off_c, 0, 60, 95
2, 131040, Note_off_c, 0, 55, 95
2, 131040, Note_off_c, 0, 52, 95
2, 131040, Note_on_c, 0, 48, 95
2, 131520, Note_off_c, 0, 48, 95
2, 131520, Note_on_c, 0, 60, 95
2, 131520, Note_on_c, 0, 55, 95
2, 131520, Note_on_c, 0, 52, 95
2, 131520, Note_on_c, 0, 48, 95
2, 131520, Note_on_c, 0, 43, 95
2, 132240, Note_off_c, 0, 60, 95
2, 132240, Note_off_c, 0, 55, 95
2, 132240, Note_off_c, 0, 52, 95
2, 132240, Note_off_c, 0, 48, 95
2, 132240, Note_off_c, 0, 43, 95
2, 132240, Note_on_c, 0, 60, 95
2, 132240, Note_on_c, 0, 55, 95
2, 132240, Note_on_c, 0, 52, 95
2, 132240, Note_on_c, 0, 48, 95
2, 132480, Note_off_c, 0, 60, 95
2, 132480, Note_off_c, 0, 55, 95
2, 132480, Note_off_c, 0, 52, 95
2, 132480, Note_off_c, 0, 48, 95
2, 132480, Note_on_c, 0, 55, 95
2, 132480, Note_on_c, 0, 52, 95
2, 132480, Note_on_c, 0, 48, 95
2, 132480, Note_on_c, 0, 43, 95
2, 132960, Note_off_c, 0, 55, 95
2, 132960, Note_off_c, 0, 52, 95
2, 132960, Note_off_c, 0, 48, 95
2, 132960, Note_off_c, 0, 43, 95
2, 132960, Note_on_c, 0, 55, 95
2, 132960, Note_on_c, 0, 52, 95
2, 132960, Note_on_c, 0, 48, 95
2, 132960, Note_on_c, 0, 43, 95
2, 133440, Note_off_c, 0, 55, 95
2, 133440, Note_off_c, 0, 52, 95
2, 133440, Note_off_c, 0, 48, 95
2, 133440, Note_off_c, 0, 43, 95
2, 133440, Note_on_c, 0, 57, 95
2, 133440, Note_on_c, 0, 54, 95
2, 133440, Note_on_c, 0, 50, 95
2, 133440, Note_on_c, 0, 45, 95
2, 133920, Note_off_c, 0, 57, 95
2, 133920, Note_off_c, 0, 54, 95
2, 133920, Note_off_c, 0, 50, 95
2, 133920, Note_off_c, 0, 45, 95
2, 133920, Note_on_c, 0, 57, 95
2, 133920, Note_on_c, 0, 54, 95
2, 133920, Note_on_c, 0, 50, 95
2, 133920, Note_on_c, 0, 45, 95
2, 134400, Note_off_c, 0, 57, 95
2, 134400, Note_off_c, 0, 54, 95
2, 134400, Note_off_c, 0, 50, 95
2, 134400, Note_off_c, 0, 45, 95
2, 134400, Note_on_c, 0, 67, 95
2, 134400, Note_on_c, 0, 59, 95
2, 134400, Note_on_c, 0, 55, 95
2, 134400, Note_on_c, 0, 50, 95
2, 134400, Note_on_c, 0, 47, 95
2, 135360, Note_off_c, 0, 67, 95
2, 135360, Note_off_c, 0, 59, 95
2, 135360, Note_off_c, 0, 55, 95
2, 135360, Note_off_c, 0, 50, 95
2, 135360, Note_off_c, 0, 47, 95
2, 135360, Note_on_c, 0, 59, 95
2, 135360, Note_on_c, 0, 55, 95
2, 135360, Note_on_c, 0, 50, 95
2, 135360, Note_on_c, 0, 47, 95
2, 136080, Note_off_c, 0, 59, 95
2, 136080, Note_off_c, 0, 55, 95
2, 136080, Note_off_c, 0, 50, 95
2, 136080, Note_off_c, 0, 47, 95
2, 136080, Note_on_c, 0, 59, 95
2, 136080, Note_on_c, 0, 55, 95
2, 136080, Note_on_c, 0, 50, 95
2, 136080, Note_on_c, 0, 47, 95
2, 136320, Note_off_c, 0, 59, 95
2, 136320, Note_off_c, 0, 55, 95
2, 136320, Note_off_c, 0, 50, 95
2, 136320, Note_off_c, 0, 47, 95
2, 136320, Note_on_c, 0, 67, 95
2, 136320, Note_on_c, 0, 59, 95
2, 136320, Note_on_c, 0, 55, 95
2, 136320, Note_on_c, 0, 50, 95
2, 136800, Note_off_c, 0, 67, 95
2, 136800, Note_off_c, 0, 59, 95
2, 136800, Note_off_c, 0, 55, 95
2, 136800, Note_off_c, 0, 50, 95
2, 136800, Note_on_c, 0, 59, 95
2, 136800, Note_on_c, 0, 55, 95
2, 136800, Note_on_c, 0, 50, 95
2, 136800, Note_on_c, 0, 47, 95
2, 137280, Note_off_c, 0, 59, 95
2, 137280, Note_off_c, 0, 55, 95
2, 137280, Note_off_c, 0, 50, 95
2, 137280, Note_off_c, 0, 47, 95
2, 137280, Note_on_c, 0, 59, 95
2, 137280, Note_on_c, 0, 55, 95
2, 137280, Note_on_c, 0, 50, 95
2, 137280, Note_on_c, 0, 47, 95
2, 137760, Note_off_c, 0, 59, 95
2, 137760, Note_off_c, 0, 55, 95
2, 137760, Note_off_c, 0, 50, 95
2, 137760, Note_off_c, 0, 47, 95
2, 137760, Note_on_c, 0, 59, 95
2, 137760, Note_on_c, 0, 55, 95
2, 137760, Note_on_c, 0, 50, 95
2, 137760, Note_on_c, 0, 47, 95
2, 138240, Note_off_c, 0, 59, 95
2, 138240, Note_off_c, 0, 55, 95
2, 138240, Note_off_c, 0, 50, 95
2, 138240, Note_off_c, 0, 47, 95
2, 138240, Note_on_c, 0, 62, 95
2, 138240, Note_on_c, 0, 57, 95
2, 138240, Note_on_c, 0, 50, 95
2, 138240, Note_on_c, 0, 45, 95
2, 139200, Note_off_c, 0, 62, 95
2, 139200, Note_off_c, 0, 57, 95
2, 139200, Note_off_c, 0, 50, 95
2, 139200, Note_off_c, 0, 45, 95
2, 139200, Note_on_c, 0, 57, 95
2, 139200, Note_on_c, 0, 54, 95
2, 139200, Note_on_c, 0, 50, 95
2, 139200, Note_on_c, 0, 45, 95
2, 140160, Note_off_c, 0, 57, 95
2, 140160, Note_off_c, 0, 54, 95
2, 140160, Note_off_c, 0, 50, 95
2, 140160, Note_off_c, 0, 45, 95
2, 140640, Note_on_c, 0, 57, 95
2, 140640, Note_on_c, 0, 54, 95
2, 140640, Note_on_c, 0, 50, 95
2, 140640, Note_on_c, 0, 45, 95
2, 141120, Note_off_c, 0, 57, 95
2, 141120, Note_off_c, 0, 54, 95
2, 141120, Note_off_c, 0, 50, 95
2, 141120, Note_off_c, 0, 45, 95
2, 141120, Note_on_c, 0, 60, 95
2, 141120, Note_on_c, 0, 55, 95
2, 141120, Note_on_c, 0, 52, 95
2, 141120, Note_on_c, 0, 48, 95
2, 141120, Note_on_c, 0, 43, 95
2, 141600, Note_off_c, 0, 60, 95
2, 141600, Note_off_c, 0, 55, 95
2, 141600, Note_off_c, 0, 52, 95
2, 141600, Note_off_c, 0, 48, 95
2, 141600, Note_off_c, 0, 43, 95
2, 141600, Note_on_c, 0, 70, 95
2, 141600, Note_on_c, 0, 60, 95
2, 141600, Note_on_c, 0, 55, 95
2, 141600, Note_on_c, 0, 52, 95
2, 141600, Note_on_c, 0, 48, 95
2, 141600, Note_on_c, 0, 43, 95
2, 142080, Note_off_c, 0, 70, 95
2, 142080, Note_off_c, 0, 60, 95
2, 142080, Note_off_c, 0, 55, 95
2, 142080, Note_off_c, 0, 52, 95
2, 142080, Note_off_c, 0, 48, 95
2, 142080, Note_off_c, 0, 43, 95
2, 143040, Note_on_c, 0, 62, 95
2, 143040, Note_on_c, 0, 59, 95
2, 143040, Note_on_c, 0, 54, 95
2, 143040, Note_on_c, 0, 50, 95
2, 144000, Note_off_c, 0, 62, 95
2, 144000, Note_off_c, 0, 59, 95
2, 144000, Note_off_c, 0, 54, 95
2, 144000, Note_off_c, 0, 50, 95
2, 144000, Note_on_c, 0, 62, 95
2, 144000, Note_on_c, 0, 59, 95
2, 144000, Note_on_c, 0, 54, 95
2, 144000, Note_on_c, 0, 50, 95
2, 144480, Note_off_c, 0, 62, 95
2, 144480, Note_off_c, 0, 59, 95
2, 144480, Note_off_c, 0, 54, 95
2, 144480, Note_off_c, 0, 50, 95
2, 144480, Note_on_c, 0, 62, 95
2, 144480, Note_on_c, 0, 59, 95
2, 144480, Note_on_c, 0, 54, 95
2, 144480, Note_on_c, 0, 50, 95
2, 144960, Note_off_c, 0, 62, 95
2, 144960, Note_off_c, 0, 59, 95
2, 144960, Note_off_c, 0, 54, 95
2, 144960, Note_off_c, 0, 50, 95
2, 144960, Note_on_c, 0, 66, 95
2, 144960, Note_on_c, 0, 62, 95
2, 144960, Note_on_c, 0, 59, 95
2, 144960, Note_on_c, 0, 54, 95
2, 145440, Note_off_c, 0, 66, 95
2, 145440, Note_off_c, 0, 62, 95
2, 145440, Note_off_c, 0, 59, 95
2, 145440, Note_off_c, 0, 54, 95
2, 145440, Note_on_c, 0, 66, 95
2, 145440, Note_on_c, 0, 62, 95
2, 145440, Note_on_c, 0, 59, 95
2, 145440, Note_on_c, 0, 54, 95
2, 145920, Note_off_c, 0, 66, 95
2, 145920, Note_off_c, 0, 62, 95
2, 145920, Note_off_c, 0, 59, 95
2, 145920, Note_off_c, 0, 54, 95
2, 145920, Note_on_c, 0, 67, 95
2, 145920, Note_on_c, 0, 59, 95
2, 145920, Note_on_c, 0, 55, 95
2, 145920, Note_on_c, 0, 50, 95
2, 146880, Note_off_c, 0, 67, 95
2, 146880, Note_off_c, 0, 59, 95
2, 146880, Note_off_c, 0, 55, 95
2, 146880, Note_off_c, 0, 50, 95
2, 146880, Note_on_c, 0, 67, 95
2, 146880, Note_on_c, 0, 59, 95
2, 146880, Note_on_c, 0, 55, 95
2, 146880, Note_on_c, 0, 50, 95
2, 147600, Note_off_c, 0, 67, 95
2, 147600, Note_off_c, 0, 59, 95
2, 147600, Note_off_c, 0, 55, 95
2, 147600, Note_off_c, 0, 50, 95
2, 147600, Note_on_c, 0, 67, 95
2, 147600, Note_on_c, 0, 59, 95
2, 147600, Note_on_c, 0, 55, 95
2, 147600, Note_on_c, 0, 50, 95
2, 147840, Note_off_c, 0, 67, 95
2, 147840, Note_off_c, 0, 59, 95
2, 147840, Note_off_c, 0, 55, 95
2, 147840, Note_off_c, 0, 50, 95
2, 147840, Note_on_c, 0, 67, 95
2, 147840, Note_on_c, 0, 60, 95
2, 147840, Note_on_c, 0, 55, 95
2, 147840, Note_on_c, 0, 50, 95
2, 148320, Note_off_c, 0, 67, 95
2, 148320, Note_off_c, 0, 60, 95
2, 148320, Note_off_c, 0, 55, 95
2, 148320, Note_off_c, 0, 50, 95
2, 148320, Note_on_c, 0, 59, 95
2, 148320, Note_on_c, 0, 55, 95
2, 148320, Note_on_c, 0, 50, 95
2, 148800, Note_off_c, 0, 59, 95
2, 148800, Note_off_c, 0, 55, 95
2, 148800, Note_off_c, 0, 50, 95
2, 148800, Note_on_c, 0, 57, 95
2, 148800, Note_on_c, 0, 50, 95
2, 148800, Note_on_c, 0, 47, 95
2, 149280, Note_off_c, 0, 57, 95
2, 149280, Note_off_c, 0, 50, 95
2, 149280, Note_off_c, 0, 47, 95
2, 149280, Note_on_c, 0, 55, 95
2, 149280, Note_on_c, 0, 50, 95
2, 149280, Note_on_c, 0, 47, 95
2, 149760, Note_off_c, 0, 55, 95
2, 149760, Note_off_c, 0, 50, 95
2, 149760, Note_off_c, 0, 47, 95
2, 149760, Note_on_c, 0, 62, 95
2, 149760, Note_on_c, 0, 59, 95
2, 149760, Note_on_c, 0, 54, 95
2, 149760, Note_on_c, 0, 50, 95
2, 150720, Note_off_c, 0, 62, 95
2, 150720, Note_off_c, 0, 59, 95
2, 150720, Note_off_c, 0, 54, 95
2, 150720, Note_off_c, 0, 50, 95
2, 150720, Note_on_c, 0, 66, 95
2, 150720, Note_on_c, 0, 62, 95
2, 150720, Note_on_c, 0, 59, 95
2, 150720, Note_on_c, 0, 54, 95
2, 151440, Note_off_c, 0, 66, 95
2, 151440, Note_off_c, 0, 62, 95
2, 151440, Note_off_c, 0, 59, 95
2, 151440, Note_off_c, 0, 54, 95
2, 151440, Note_on_c, 0, 66, 95
2, 151440, Note_on_c, 0, 62, 95
2, 151440, Note_on_c, 0, 59, 95
2, 151440, Note_on_c, 0, 54, 95
2, 151680, Note_off_c, 0, 66, 95
2, 151680, Note_off_c, 0, 62, 95
2, 151680, Note_off_c, 0, 59, 95
2, 151680, Note_off_c, 0, 54, 95
2, 151680, Note_on_c, 0, 66, 95
2, 151680, Note_on_c, 0, 62, 95
2, 151680, Note_on_c, 0, 59, 95
2, 151680, Note_on_c, 0, 54, 95
2, 152160, Note_off_c, 0, 66, 95
2, 152160, Note_off_c, 0, 62, 95
2, 152160, Note_off_c, 0, 59, 95
2, 152160, Note_off_c, 0, 54, 95
2, 152160, Note_on_c, 0, 66, 95
2, 152160, Note_on_c, 0, 62, 95
2, 152160, Note_on_c, 0, 59, 95
2, 152160, Note_on_c, 0, 54, 95
2, 152640, Note_off_c, 0, 66, 95
2, 152640, Note_off_c, 0, 62, 95
2, 152640, Note_off_c, 0, 59, 95
2, 152640, Note_off_c, 0, 54, 95
2, 152640, Note_on_c, 0, 62, 95
2, 152640, Note_on_c, 0, 59, 95
2, 152640, Note_on_c, 0, 54, 95
2, 152640, Note_on_c, 0, 50, 95
2, 153120, Note_off_c, 0, 62, 95
2, 153120, Note_off_c, 0, 59, 95
2, 153120, Note_off_c, 0, 54, 95
2, 153120, Note_off_c, 0, 50, 95
2, 153120, Note_on_c, 0, 62, 95
2, 153120, Note_on_c, 0, 59, 95
2, 153120, Note_on_c, 0, 54, 95
2, 153120, Note_on_c, 0, 50, 95
2, 153600, Note_off_c, 0, 62, 95
2, 153600, Note_off_c, 0, 59, 95
2, 153600, Note_off_c, 0, 54, 95
2, 153600, Note_off_c, 0, 50, 95
2, 153600, Note_on_c, 0, 67, 95
2, 153600, Note_on_c, 0, 59, 95
2, 153600, Note_on_c, 0, 55, 95
2, 153600, Note_on_c, 0, 50, 95
2, 154560, Note_off_c, 0, 67, 95
2, 154560, Note_off_c, 0, 59, 95
2, 154560, Note_off_c, 0, 55, 95
2, 154560, Note_off_c, 0, 50, 95
2, 155280, Note_on_c, 0, 67, 95
2, 155280, Note_on_c, 0, 59, 95
2, 155280, Note_on_c, 0, 60, 95
2, 155280, Note_on_c, 0, 55, 95
2, 155280, Note_on_c, 0, 50, 95
2, 155520, Note_off_c, 0, 67, 95
2, 155520, Note_off_c, 0, 59, 95
2, 155520, Note_off_c, 0, 60, 95
2, 155520, Note_off_c, 0, 55, 95
2, 155520, Note_off_c, 0, 50, 95
2, 155520, Note_on_c, 0, 60, 95
2, 155520, Note_on_c, 0, 55, 95
2, 155520, Note_on_c, 0, 50, 95
2, 156000, Note_off_c, 0, 60, 95
2, 156000, Note_off_c, 0, 55, 95
2, 156000, Note_off_c, 0, 50, 95
2, 156000, Note_on_c, 0, 60, 95
2, 156000, Note_on_c, 0, 55, 95
2, 156000, Note_on_c, 0, 50, 95
2, 156480, Note_off_c, 0, 60, 95
2, 156480, Note_off_c, 0, 55, 95
2, 156480, Note_off_c, 0, 50, 95
2, 157440, Note_on_c, 0, 72, 95
2, 157440, Note_on_c, 0, 60, 95
2, 157440, Note_on_c, 0, 57, 95
2, 157440, Note_on_c, 0, 52, 95
2, 157440, Note_on_c, 0, 48, 95
2, 158400, Note_off_c, 0, 72, 95
2, 158400, Note_off_c, 0, 60, 95
2, 158400, Note_off_c, 0, 57, 95
2, 158400, Note_off_c, 0, 52, 95
2, 158400, Note_off_c, 0, 48, 95
2, 158400, Note_on_c, 0, 64, 95
2, 158400, Note_on_c, 0, 60, 95
2, 158400, Note_on_c, 0, 57, 95
2, 158400, Note_on_c, 0, 52, 95
2, 159360, Note_off_c, 0, 64, 95
2, 159360, Note_off_c, 0, 60, 95
2, 159360, Note_off_c, 0, 57, 95
2, 159360, Note_off_c, 0, 52, 95
2, 159360, Note_on_c, 0, 64, 95
2, 159360, Note_on_c, 0, 60, 95
2, 159360, Note_on_c, 0, 57, 95
2, 159360, Note_on_c, 0, 52, 95
2, 160320, Note_off_c, 0, 64, 95
2, 160320, Note_off_c, 0, 60, 95
2, 160320, Note_off_c, 0, 57, 95
2, 160320, Note_off_c, 0, 52, 95
2, 160320, Note_on_c, 0, 60, 95
2, 160320, Note_on_c, 0, 57, 95
2, 160320, Note_on_c, 0, 52, 95
2, 160320, Note_on_c, 0, 48, 95
2, 161280, Note_off_c, 0, 60, 95
2, 161280, Note_off_c, 0, 57, 95
2, 161280, Note_off_c, 0, 52, 95
2, 161280, Note_off_c, 0, 48, 95
2, 161280, Note_on_c, 0, 64, 95
2, 161280, Note_on_c, 0, 60, 95
2, 161280, Note_on_c, 0, 55, 95
2, 161280, Note_on_c, 0, 52, 95
2, 161760, Note_off_c, 0, 64, 95
2, 161760, Note_off_c, 0, 60, 95
2, 161760, Note_off_c, 0, 55, 95
2, 161760, Note_off_c, 0, 52, 95
2, 161760, Note_on_c, 0, 48, 95
2, 162240, Note_off_c, 0, 48, 95
2, 162240, Note_on_c, 0, 60, 95
2, 162240, Note_on_c, 0, 55, 95
2, 162240, Note_on_c, 0, 52, 95
2, 162240, Note_on_c, 0, 48, 95
2, 162240, Note_on_c, 0, 43, 95
2, 162960, Note_off_c, 0, 60, 95
2, 162960, Note_off_c, 0, 55, 95
2, 162960, Note_off_c, 0, 52, 95
2, 162960, Note_off_c, 0, 48, 95
2, 162960, Note_off_c, 0, 43, 95
2, 162960, Note_on_c, 0, 55, 95
2, 162960, Note_on_c, 0, 52, 95
2, 162960, Note_on_c, 0, 48, 95
2, 163200, Note_off_c, 0, 55, 95
2, 163200, Note_off_c, 0, 52, 95
2, 163200, Note_off_c, 0, 48, 95
2, 163200, Note_on_c, 0, 55, 95
2, 163200, Note_on_c, 0, 52, 95
2, 163200, Note_on_c, 0, 48, 95
2, 163200, Note_on_c, 0, 43, 95
2, 163680, Note_off_c, 0, 55, 95
2, 163680, Note_off_c, 0, 52, 95
2, 163680, Note_off_c, 0, 48, 95
2, 163680, Note_off_c, 0, 43, 95
2, 163680, Note_on_c, 0, 60, 95
2, 163680, Note_on_c, 0, 55, 95
2, 163680, Note_on_c, 0, 52, 95
2, 163680, Note_on_c, 0, 48, 95
2, 164160, Note_off_c, 0, 60, 95
2, 164160, Note_off_c, 0, 55, 95
2, 164160, Note_off_c, 0, 52, 95
2, 164160, Note_off_c, 0, 48, 95
2, 164160, Note_on_c, 0, 55, 95
2, 164160, Note_on_c, 0, 50, 95
2, 164160, Note_on_c, 0, 45, 95
2, 164640, Note_off_c, 0, 55, 95
2, 164640, Note_off_c, 0, 50, 95
2, 164640, Note_off_c, 0, 45, 95
2, 164640, Note_on_c, 0, 57, 95
2, 164640, Note_on_c, 0, 54, 95
2, 164640, Note_on_c, 0, 50, 95
2, 164640, Note_on_c, 0, 45, 95
2, 165120, Note_off_c, 0, 57, 95
2, 165120, Note_off_c, 0, 54, 95
2, 165120, Note_off_c, 0, 50, 95
2, 165120, Note_off_c, 0, 45, 95
2, 165120, Note_on_c, 0, 67, 95
2, 165120, Note_on_c, 0, 59, 95
2, 165120, Note_on_c, 0, 55, 95
2, 165120, Note_on_c, 0, 50, 95
2, 165120, Note_on_c, 0, 47, 95
2, 166080, Note_off_c, 0, 67, 95
2, 166080, Note_off_c, 0, 59, 95
2, 166080, Note_off_c, 0, 55, 95
2, 166080, Note_off_c, 0, 50, 95
2, 166080, Note_off_c, 0, 47, 95
2, 166080, Note_on_c, 0, 59, 95
2, 166080, Note_on_c, 0, 55, 95
2, 166080, Note_on_c, 0, 50, 95
2, 166080, Note_on_c, 0, 47, 95
2, 167040, Note_off_c, 0, 59, 95
2, 167040, Note_off_c, 0, 55, 95
2, 167040, Note_off_c, 0, 50, 95
2, 167040, Note_off_c, 0, 47, 95
2, 167040, Note_on_c, 0, 67, 95
2, 167040, Note_on_c, 0, 59, 95
2, 167040, Note_on_c, 0, 55, 95
2, 167040, Note_on_c, 0, 50, 95
2, 167520, Note_off_c, 0, 67, 95
2, 167520, Note_off_c, 0, 59, 95
2, 167520, Note_off_c, 0, 55, 95
2, 167520, Note_off_c, 0, 50, 95
2, 167520, Note_on_c, 0, 67, 95
2, 167520, Note_on_c, 0, 59, 95
2, 167520, Note_on_c, 0, 55, 95
2, 167520, Note_on_c, 0, 50, 95
2, 168000, Note_off_c, 0, 67, 95
2, 168000, Note_off_c, 0, 59, 95
2, 168000, Note_off_c, 0, 55, 95
2, 168000, Note_off_c, 0, 50, 95
2, 168000, Note_on_c, 0, 59, 95
2, 168000, Note_on_c, 0, 55, 95
2, 168000, Note_on_c, 0, 50, 95
2, 168000, Note_on_c, 0, 48, 95
2, 168480, Note_off_c, 0, 59, 95
2, 168480, Note_off_c, 0, 55, 95
2, 168480, Note_off_c, 0, 50, 95
2, 168480, Note_off_c, 0, 48, 95
2, 168480, Note_on_c, 0, 59, 95
2, 168480, Note_on_c, 0, 55, 95
2, 168480, Note_on_c, 0, 50, 95
2, 168480, Note_on_c, 0, 48, 95
2, 168960, Note_off_c, 0, 59, 95
2, 168960, Note_off_c, 0, 55, 95
2, 168960, Note_off_c, 0, 50, 95
2, 168960, Note_off_c, 0, 48, 95
2, 168960, Note_on_c, 0, 62, 95
2, 168960, Note_on_c, 0, 57, 95
2, 168960, Note_on_c, 0, 54, 95
2, 168960, Note_on_c, 0, 50, 95
2, 168960, Note_on_c, 0, 45, 95
2, 170880, Note_off_c, 0, 62, 95
2, 170880, Note_off_c, 0, 57, 95
2, 170880, Note_off_c, 0, 54, 95
2, 170880, Note_off_c, 0, 50, 95
2, 170880, Note_off_c, 0, 45, 95
2, 170880, Note_on_c, 0, 57, 95
2, 170880, Note_on_c, 0, 54, 95
2, 170880, Note_on_c, 0, 50, 95
2, 170880, Note_on_c, 0, 45, 95
2, 171360, Note_off_c, 0, 57, 95
2, 171360, Note_off_c, 0, 54, 95
2, 171360, Note_off_c, 0, 50, 95
2, 171360, Note_off_c, 0, 45, 95
2, 171360, Note_on_c, 0, 57, 95
2, 171360, Note_on_c, 0, 54, 95
2, 171360, Note_on_c, 0, 50, 95
2, 171360, Note_on_c, 0, 45, 95
2, 171840, Note_off_c, 0, 57, 95
2, 171840, Note_off_c, 0, 54, 95
2, 171840, Note_off_c, 0, 50, 95
2, 171840, Note_off_c, 0, 45, 95
2, 171840, Note_on_c, 0, 62, 95
2, 171840, Note_on_c, 0, 57, 95
2, 171840, Note_on_c, 0, 54, 95
2, 171840, Note_on_c, 0, 50, 95
2, 172320, Note_off_c, 0, 62, 95
2, 172320, Note_off_c, 0, 57, 95
2, 172320, Note_off_c, 0, 54, 95
2, 172320, Note_off_c, 0, 50, 95
2, 172320, Note_on_c, 0, 59, 95
2, 172320, Note_on_c, 0, 55, 95
2, 172320, Note_on_c, 0, 50, 95
2, 172800, Note_off_c, 0, 59, 95
2, 172800, Note_off_c, 0, 55, 95
2, 172800, Note_off_c, 0, 50, 95
2, 172800, Note_on_c, 0, 64, 95
2, 172800, Note_on_c, 0, 60, 95
2, 172800, Note_on_c, 0, 57, 95
2, 172800, Note_on_c, 0, 52, 95
2, 173760, Note_off_c, 0, 64, 95
2, 173760, Note_off_c, 0, 60, 95
2, 173760, Note_off_c, 0, 57, 95
2, 173760, Note_off_c, 0, 52, 95
2, 173760, Note_on_c, 0, 64, 95
2, 173760, Note_on_c, 0, 60, 95
2, 173760, Note_on_c, 0, 57, 95
2, 173760, Note_on_c, 0, 52, 95
2, 174720, Note_off_c, 0, 64, 95
2, 174720, Note_off_c, 0, 60, 95
2, 174720, Note_off_c, 0, 57, 95
2, 174720, Note_off_c, 0, 52, 95
2, 174720, Note_on_c, 0, 60, 95
2, 174720, Note_on_c, 0, 55, 95
2, 174720, Note_on_c, 0, 52, 95
2, 174720, Note_on_c, 0, 48, 95
2, 175680, Note_off_c, 0, 60, 95
2, 175680, Note_off_c, 0, 55, 95
2, 175680, Note_off_c, 0, 52, 95
2, 175680, Note_off_c, 0, 48, 95
2, 175680, Note_on_c, 0, 60, 95
2, 175680, Note_on_c, 0, 55, 95
2, 175680, Note_on_c, 0, 52, 95
2, 175680, Note_on_c, 0, 48, 95
2, 176640, Note_off_c, 0, 60, 95
2, 176640, Note_off_c, 0, 55, 95
2, 176640, Note_off_c, 0, 52, 95
2, 176640, Note_off_c, 0, 48, 95
2, 176640, Note_on_c, 0, 60, 95
2, 176640, Note_on_c, 0, 55, 95
2, 176640, Note_on_c, 0, 52, 95
2, 176640, Note_on_c, 0, 48, 95
2, 177600, Note_off_c, 0, 60, 95
2, 177600, Note_off_c, 0, 55, 95
2, 177600, Note_off_c, 0, 52, 95
2, 177600, Note_off_c, 0, 48, 95
2, 177600, Note_on_c, 0, 55, 95
2, 177600, Note_on_c, 0, 52, 95
2, 177600, Note_on_c, 0, 48, 95
2, 178560, Note_off_c, 0, 55, 95
2, 178560, Note_off_c, 0, 52, 95
2, 178560, Note_off_c, 0, 48, 95
2, 178560, Note_on_c, 0, 60, 95
2, 178560, Note_on_c, 0, 55, 95
2, 178560, Note_on_c, 0, 52, 95
2, 178560, Note_on_c, 0, 48, 95
2, 178560, Note_on_c, 0, 43, 95
2, 179040, Note_off_c, 0, 60, 95
2, 179040, Note_off_c, 0, 55, 95
2, 179040, Note_off_c, 0, 52, 95
2, 179040, Note_off_c, 0, 48, 95
2, 179040, Note_off_c, 0, 43, 95
2, 179040, Note_on_c, 0, 60, 95
2, 179040, Note_on_c, 0, 55, 95
2, 179040, Note_on_c, 0, 52, 95
2, 179040, Note_on_c, 0, 48, 95
2, 179040, Note_on_c, 0, 43, 95
2, 179520, Note_off_c, 0, 60, 95
2, 179520, Note_off_c, 0, 55, 95
2, 179520, Note_off_c, 0, 52, 95
2, 179520, Note_off_c, 0, 48, 95
2, 179520, Note_off_c, 0, 43, 95
2, 179520, Note_on_c, 0, 62, 95
2, 179520, Note_on_c, 0, 57, 95
2, 179520, Note_on_c, 0, 54, 95
2, 179520, Note_on_c, 0, 50, 95
2, 180000, Note_off_c, 0, 62, 95
2, 180000, Note_off_c, 0, 57, 95
2, 180000, Note_off_c, 0, 54, 95
2, 180000, Note_off_c, 0, 50, 95
2, 180000, Note_on_c, 0, 62, 95
2, 180000, Note_on_c, 0, 57, 95
2, 180000, Note_on_c, 0, 54, 95
2, 180000, Note_on_c, 0, 50, 95
2, 180480, Note_off_c, 0, 62, 95
2, 180480, Note_off_c, 0, 57, 95
2, 180480, Note_off_c, 0, 54, 95
2, 180480, Note_off_c, 0, 50, 95
2, 180480, Note_on_c, 0, 67, 95
2, 180480, Note_on_c, 0, 59, 95
2, 180480, Note_on_c, 0, 55, 95
2, 180480, Note_on_c, 0, 50, 95
2, 180480, Note_on_c, 0, 47, 95
2, 181440, Note_off_c, 0, 67, 95
2, 181440, Note_off_c, 0, 59, 95
2, 181440, Note_off_c, 0, 55, 95
2, 181440, Note_off_c, 0, 50, 95
2, 181440, Note_off_c, 0, 47, 95
2, 181440, Note_on_c, 0, 59, 95
2, 181440, Note_on_c, 0, 55, 95
2, 181440, Note_on_c, 0, 50, 95
2, 181440, Note_on_c, 0, 47, 95
2, 182400, Note_off_c, 0, 59, 95
2, 182400, Note_off_c, 0, 55, 95
2, 182400, Note_off_c, 0, 50, 95
2, 182400, Note_off_c, 0, 47, 95
2, 182400, Note_on_c, 0, 65, 95
2, 182400, Note_on_c, 0, 60, 95
2, 182400, Note_on_c, 0, 57, 95
2, 182400, Note_on_c, 0, 53, 95
2, 182400, Note_on_c, 0, 48, 95
2, 183360, Note_off_c, 0, 65, 95
2, 183360, Note_off_c, 0, 60, 95
2, 183360, Note_off_c, 0, 57, 95
2, 183360, Note_off_c, 0, 53, 95
2, 183360, Note_off_c, 0, 48, 95
2, 183360, Note_on_c, 0, 60, 95
2, 183360, Note_on_c, 0, 57, 95
2, 183360, Note_on_c, 0, 53, 95
2, 183360, Note_on_c, 0, 48, 95
2, 184320, Note_off_c, 0, 60, 95
2, 184320, Note_off_c, 0, 57, 95
2, 184320, Note_off_c, 0, 53, 95
2, 184320, Note_off_c, 0, 48, 95
2, 184320, Note_on_c, 0, 60, 95
2, 184320, Note_on_c, 0, 55, 95
2, 184320, Note_on_c, 0, 52, 95
2, 184320, Note_on_c, 0, 48, 95
2, 184320, Note_on_c, 0, 43, 95
2, 185280, Note_off_c, 0, 60, 95
2, 185280, Note_off_c, 0, 55, 95
2, 185280, Note_off_c, 0, 52, 95
2, 185280, Note_off_c, 0, 48, 95
2, 185280, Note_off_c, 0, 43, 95
2, 185280, Note_on_c, 0, 55, 95
2, 185280, Note_on_c, 0, 52, 95
2, 185280, Note_on_c, 0, 48, 95
2, 185280, Note_on_c, 0, 43, 95
2, 186240, Note_off_c, 0, 55, 95
2, 186240, Note_off_c, 0, 52, 95
2, 186240, Note_off_c, 0, 48, 95
2, 186240, Note_off_c, 0, 43, 95
2, 186240, Note_on_c, 0, 60, 95
2, 186240, Note_on_c, 0, 55, 95
2, 186240, Note_on_c, 0, 52, 95
2, 186240, Note_on_c, 0, 48, 95
2, 186240, Note_on_c, 0, 43, 95
2, 186720, Note_off_c, 0, 60, 95
2, 186720, Note_off_c, 0, 55, 95
2, 186720, Note_off_c, 0, 52, 95
2, 186720, Note_off_c, 0, 48, 95
2, 186720, Note_off_c, 0, 43, 95
2, 186720, Note_on_c, 0, 64, 95
2, 186720, Note_on_c, 0, 60, 95
2, 186720, Note_on_c, 0, 55, 95
2, 186720, Note_on_c, 0, 52, 95
2, 186720, Note_on_c, 0, 48, 95
2, 187200, Note_off_c, 0, 64, 95
2, 187200, Note_off_c, 0, 60, 95
2, 187200, Note_off_c, 0, 55, 95
2, 187200, Note_off_c, 0, 52, 95
2, 187200, Note_off_c, 0, 48, 95
2, 187200, Note_on_c, 0, 66, 95
2, 187200, Note_on_c, 0, 62, 95
2, 187200, Note_on_c, 0, 59, 95
2, 187200, Note_on_c, 0, 54, 95
2, 187440, Note_off_c, 0, 66, 95
2, 187440, Note_off_c, 0, 62, 95
2, 187440, Note_off_c, 0, 59, 95
2, 187440, Note_off_c, 0, 54, 95
2, 187440, Note_on_c, 0, 66, 95
2, 187440, Note_on_c, 0, 62, 95
2, 187440, Note_on_c, 0, 59, 95
2, 187680, Note_off_c, 0, 66, 95
2, 187680, Note_off_c, 0, 62, 95
2, 187680, Note_off_c, 0, 59, 95
2, 187680, Note_on_c, 0, 66, 95
2, 187680, Note_on_c, 0, 62, 95
2, 187680, Note_on_c, 0, 59, 95
2, 187680, Note_on_c, 0, 54, 95
2, 188160, Note_off_c, 0, 66, 95
2, 188160, Note_off_c, 0, 62, 95
2, 188160, Note_off_c, 0, 59, 95
2, 188160, Note_off_c, 0, 54, 95
2, 188160, Note_on_c, 0, 64, 95
2, 188160, Note_on_c, 0, 60, 95
2, 188160, Note_on_c, 0, 57, 95
2, 188160, Note_on_c, 0, 52, 95
2, 189120, Note_off_c, 0, 64, 95
2, 189120, Note_off_c, 0, 60, 95
2, 189120, Note_off_c, 0, 57, 95
2, 189120, Note_off_c, 0, 52, 95
2, 189120, Note_on_c, 0, 64, 95
2, 189120, Note_on_c, 0, 60, 95
2, 189120, Note_on_c, 0, 57, 95
2, 189120, Note_on_c, 0, 52, 95
2, 190080, Note_off_c, 0, 64, 95
2, 190080, Note_off_c, 0, 60, 95
2, 190080, Note_off_c, 0, 57, 95
2, 190080, Note_off_c, 0, 52, 95
2, 190080, Note_on_c, 0, 60, 95
2, 190080, Note_on_c, 0, 55, 95
2, 190080, Note_on_c, 0, 52, 95
2, 190080, Note_on_c, 0, 48, 95
2, 191040, Note_off_c, 0, 60, 95
2, 191040, Note_off_c, 0, 55, 95
2, 191040, Note_off_c, 0, 52, 95
2, 191040, Note_off_c, 0, 48, 95
2, 191040, Note_on_c, 0, 60, 95
2, 191040, Note_on_c, 0, 55, 95
2, 191040, Note_on_c, 0, 52, 95
2, 191040, Note_on_c, 0, 48, 95
2, 192000, Note_off_c, 0, 60, 95
2, 192000, Note_off_c, 0, 55, 95
2, 192000, Note_off_c, 0, 52, 95
2, 192000, Note_off_c, 0, 48, 95
2, 192000, Note_on_c, 0, 64, 95
2, 192000, Note_on_c, 0, 60, 95
2, 192000, Note_on_c, 0, 55, 95
2, 192000, Note_on_c, 0, 52, 95
2, 192000, Note_on_c, 0, 48, 95
2, 192960, Note_off_c, 0, 64, 95
2, 192960, Note_off_c, 0, 60, 95
2, 192960, Note_off_c, 0, 55, 95
2, 192960, Note_off_c, 0, 52, 95
2, 192960, Note_off_c, 0, 48, 95
2, 192960, Note_on_c, 0, 60, 95
2, 192960, Note_on_c, 0, 55, 95
2, 192960, Note_on_c, 0, 52, 95
2, 192960, Note_on_c, 0, 48, 95
2, 192960, Note_on_c, 0, 43, 95
2, 194400, Note_off_c, 0, 60, 95
2, 194400, Note_off_c, 0, 55, 95
2, 194400, Note_off_c, 0, 52, 95
2, 194400, Note_off_c, 0, 48, 95
2, 194400, Note_off_c, 0, 43, 95
2, 194400, Note_on_c, 0, 64, 95
2, 194400, Note_on_c, 0, 60, 95
2, 194400, Note_on_c, 0, 55, 95
2, 194400, Note_on_c, 0, 52, 95
2, 195120, Note_off_c, 0, 64, 95
2, 195120, Note_off_c, 0, 60, 95
2, 195120, Note_off_c, 0, 55, 95
2, 195120, Note_off_c, 0, 52, 95
2, 195120, Note_on_c, 0, 62, 95
2, 195120, Note_on_c, 0, 57, 95
2, 195120, Note_on_c, 0, 54, 95
2, 195120, Note_on_c, 0, 42, 95
2, 195360, Note_off_c, 0, 62, 95
2, 195360, Note_off_c, 0, 57, 95
2, 195360, Note_off_c, 0, 54, 95
2, 195360, Note_off_c, 0, 42, 95
2, 195360, Note_on_c, 0, 62, 95
2, 195360, Note_on_c, 0, 57, 95
2, 195360, Note_on_c, 0, 54, 95
2, 195360, Note_on_c, 0, 50, 95
2, 195360, Note_on_c, 0, 43, 95
2, 195840, Note_off_c, 0, 62, 95
2, 195840, Note_off_c, 0, 57, 95
2, 195840, Note_off_c, 0, 54, 95
2, 195840, Note_off_c, 0, 50, 95
2, 195840, Note_off_c, 0, 43, 95
2, 196800, Note_on_c, 0, 59, 95
2, 196800, Note_on_c, 0, 55, 95
2, 196800, Note_on_c, 0, 50, 95
2, 196800, Note_on_c, 0, 47, 95
2, 197760, Note_off_c, 0, 59, 95
2, 197760, Note_off_c, 0, 55, 95
2, 197760, Note_off_c, 0, 50, 95
2, 197760, Note_off_c, 0, 47, 95
2, 197760, Note_on_c, 0, 65, 95
2, 197760, Note_on_c, 0, 60, 95
2, 197760, Note_on_c, 0, 57, 95
2, 197760, Note_on_c, 0, 53, 95
2, 197760, Note_on_c, 0, 48, 95
2, 198720, Note_off_c, 0, 65, 95
2, 198720, Note_off_c, 0, 60, 95
2, 198720, Note_off_c, 0, 57, 95
2, 198720, Note_off_c, 0, 53, 95
2, 198720, Note_off_c, 0, 48, 95
2, 198720, Note_on_c, 0, 60, 95
2, 198720, Note_on_c, 0, 57, 95
2, 198720, Note_on_c, 0, 53, 95
2, 198720, Note_on_c, 0, 48, 95
2, 199680, Note_off_c, 0, 60, 95
2, 199680, Note_off_c, 0, 57, 95
2, 199680, Note_off_c, 0, 53, 95
2, 199680, Note_off_c, 0, 48, 95
2, 199680, Note_on_c, 0, 60, 95
2, 199680, Note_on_c, 0, 55, 95
2, 199680, Note_on_c, 0, 52, 95
2, 199680, Note_on_c, 0, 48, 95
2, 199920, Note_off_c, 0, 60, 95
2, 199920, Note_off_c, 0, 55, 95
2, 199920, Note_off_c, 0, 52, 95
2, 199920, Note_off_c, 0, 48, 95
2, 199920, Note_on_c, 0, 64, 95
2, 199920, Note_on_c, 0, 60, 95
2, 199920, Note_on_c, 0, 55, 95
2, 199920, Note_on_c, 0, 52, 95
2, 200160, Note_off_c, 0, 64, 95
2, 200160, Note_off_c, 0, 60, 95
2, 200160, Note_off_c, 0, 55, 95
2, 200160, Note_off_c, 0, 52, 95
2, 200160, Note_on_c, 0, 60, 95
2, 200160, Note_on_c, 0, 55, 95
2, 200160, Note_on_c, 0, 52, 95
2, 200640, Note_off_c, 0, 60, 95
2, 200640, Note_off_c, 0, 55, 95
2, 200640, Note_off_c, 0, 52, 95
2, 200640, Note_on_c, 0, 64, 95
2, 200640, Note_on_c, 0, 60, 95
2, 200640, Note_on_c, 0, 55, 95
2, 200640, Note_on_c, 0, 52, 95
2, 201360, Note_off_c, 0, 64, 95
2, 201360, Note_off_c, 0, 60, 95
2, 201360, Note_off_c, 0, 55, 95
2, 201360, Note_off_c, 0, 52, 95
2, 201360, Note_on_c, 0, 64, 95
2, 201360, Note_on_c, 0, 60, 95
2, 201360, Note_on_c, 0, 55, 95
2, 201600, Note_off_c, 0, 64, 95
2, 201600, Note_off_c, 0, 60, 95
2, 201600, Note_off_c, 0, 55, 95
2, 201600, Note_on_c, 0, 60, 95
2, 201600, Note_on_c, 0, 55, 95
2, 201600, Note_on_c, 0, 52, 95
2, 201600, Note_on_c, 0, 48, 95
2, 202080, Note_off_c, 0, 60, 95
2, 202080, Note_off_c, 0, 55, 95
2, 202080, Note_off_c, 0, 52, 95
2, 202080, Note_off_c, 0, 48, 95
2, 202080, Note_on_c, 0, 64, 95
2, 202080, Note_on_c, 0, 60, 95
2, 202080, Note_on_c, 0, 55, 95
2, 202080, Note_on_c, 0, 52, 95
2, 202560, Note_off_c, 0, 64, 95
2, 202560, Note_off_c, 0, 60, 95
2, 202560, Note_off_c, 0, 55, 95
2, 202560, Note_off_c, 0, 52, 95
2, 202560, Note_on_c, 0, 60, 95
2, 202560, Note_on_c, 0, 55, 95
2, 202560, Note_on_c, 0, 52, 95
2, 202560, Note_on_c, 0, 48, 95
2, 203040, Note_off_c, 0, 60, 95
2, 203040, Note_off_c, 0, 55, 95
2, 203040, Note_off_c, 0, 52, 95
2, 203040, Note_off_c, 0, 48, 95
2, 203040, Note_on_c, 0, 64, 95
2, 203040, Note_on_c, 0, 60, 95
2, 203040, Note_on_c, 0, 55, 95
2, 203040, Note_on_c, 0, 52, 95
2, 203520, Note_off_c, 0, 64, 95
2, 203520, Note_off_c, 0, 60, 95
2, 203520, Note_off_c, 0, 55, 95
2, 203520, Note_off_c, 0, 52, 95
2, 203520, Note_on_c, 0, 65, 95
2, 203520, Note_on_c, 0, 60, 95
2, 203520, Note_on_c, 0, 57, 95
2, 203520, Note_on_c, 0, 53, 95
2, 203760, Note_off_c, 0, 65, 95
2, 203760, Note_off_c, 0, 60, 95
2, 203760, Note_off_c, 0, 57, 95
2, 203760, Note_off_c, 0, 53, 95
2, 203760, Note_on_c, 0, 65, 95
2, 203760, Note_on_c, 0, 60, 95
2, 203760, Note_on_c, 0, 57, 95
2, 204000, Note_off_c, 0, 65, 95
2, 204000, Note_off_c, 0, 60, 95
2, 204000, Note_off_c, 0, 57, 95
2, 204000, Note_on_c, 0, 65, 95
2, 204000, Note_on_c, 0, 60, 95
2, 204000, Note_on_c, 0, 57, 95
2, 204000, Note_on_c, 0, 53, 95
2, 204480, Note_off_c, 0, 65, 95
2, 204480, Note_off_c, 0, 60, 95
2, 204480, Note_off_c, 0, 57, 95
2, 204480, Note_off_c, 0, 53, 95
2, 204480, Note_on_c, 0, 65, 95
2, 204480, Note_on_c, 0, 60, 95
2, 204480, Note_on_c, 0, 57, 95
2, 204480, Note_on_c, 0, 53, 95
2, 205200, Note_off_c, 0, 65, 95
2, 205200, Note_off_c, 0, 60, 95
2, 205200, Note_off_c, 0, 57, 95
2, 205200, Note_off_c, 0, 53, 95
2, 205200, Note_on_c, 0, 65, 95
2, 205200, Note_on_c, 0, 60, 95
2, 205200, Note_on_c, 0, 57, 95
2, 205200, Note_on_c, 0, 53, 95
2, 205440, Note_off_c, 0, 65, 95
2, 205440, Note_off_c, 0, 60, 95
2, 205440, Note_off_c, 0, 57, 95
2, 205440, Note_off_c, 0, 53, 95
2, 205440, Note_on_c, 0, 65, 95
2, 205440, Note_on_c, 0, 60, 95
2, 205440, Note_on_c, 0, 57, 95
2, 205440, Note_on_c, 0, 53, 95
2, 205920, Note_off_c, 0, 65, 95
2, 205920, Note_off_c, 0, 60, 95
2, 205920, Note_off_c, 0, 57, 95
2, 205920, Note_off_c, 0, 53, 95
2, 205920, Note_on_c, 0, 65, 95
2, 205920, Note_on_c, 0, 60, 95
2, 205920, Note_on_c, 0, 57, 95
2, 205920, Note_on_c, 0, 53, 95
2, 206400, Note_off_c, 0, 65, 95
2, 206400, Note_off_c, 0, 60, 95
2, 206400, Note_off_c, 0, 57, 95
2, 206400, Note_off_c, 0, 53, 95
2, 206400, Note_on_c, 0, 65, 95
2, 206400, Note_on_c, 0, 60, 95
2, 206400, Note_on_c, 0, 57, 95
2, 206400, Note_on_c, 0, 53, 95
2, 206880, Note_off_c, 0, 65, 95
2, 206880, Note_off_c, 0, 60, 95
2, 206880, Note_off_c, 0, 57, 95
2, 206880, Note_off_c, 0, 53, 95
2, 206880, Note_on_c, 0, 65, 95
2, 206880, Note_on_c, 0, 60, 95
2, 206880, Note_on_c, 0, 57, 95
2, 206880, Note_on_c, 0, 53, 95
2, 207360, Note_off_c, 0, 65, 95
2, 207360, Note_off_c, 0, 60, 95
2, 207360, Note_off_c, 0, 57, 95
2, 207360, Note_off_c, 0, 53, 95
2, 207360, Note_on_c, 0, 64, 95
2, 207360, Note_on_c, 0, 60, 95
2, 207360, Note_on_c, 0, 55, 95
2, 207360, Note_on_c, 0, 52, 95
2, 207360, Note_on_c, 0, 48, 95
2, 207840, Note_off_c, 0, 64, 95
2, 207840, Note_off_c, 0, 60, 95
2, 207840, Note_off_c, 0, 55, 95
2, 207840, Note_off_c, 0, 52, 95
2, 207840, Note_off_c, 0, 48, 95
2, 207840, Note_on_c, 0, 64, 95
2, 207840, Note_on_c, 0, 60, 95
2, 207840, Note_on_c, 0, 55, 95
2, 207840, Note_on_c, 0, 52, 95
2, 208320, Note_off_c, 0, 64, 95
2, 208320, Note_off_c, 0, 60, 95
2, 208320, Note_off_c, 0, 55, 95
2, 208320, Note_off_c, 0, 52, 95
2, 208320, Note_on_c, 0, 60, 95
2, 208320, Note_on_c, 0, 55, 95
2, 208320, Note_on_c, 0, 52, 95
2, 208320, Note_on_c, 0, 48, 95
2, 209040, Note_off_c, 0, 60, 95
2, 209040, Note_off_c, 0, 55, 95
2, 209040, Note_off_c, 0, 52, 95
2, 209040, Note_off_c, 0, 48, 95
2, 209040, Note_on_c, 0, 64, 95
2, 209040, Note_on_c, 0, 60, 95
2, 209040, Note_on_c, 0, 55, 95
2, 209040, Note_on_c, 0, 52, 95
2, 209280, Note_off_c, 0, 64, 95
2, 209280, Note_off_c, 0, 60, 95
2, 209280, Note_off_c, 0, 55, 95
2, 209280, Note_off_c, 0, 52, 95
2, 209280, Note_on_c, 0, 60, 95
2, 209280, Note_on_c, 0, 55, 95
2, 209280, Note_on_c, 0, 52, 95
2, 209280, Note_on_c, 0, 48, 95
2, 209760, Note_off_c, 0, 60, 95
2, 209760, Note_off_c, 0, 55, 95
2, 209760, Note_off_c, 0, 52, 95
2, 209760, Note_off_c, 0, 48, 95
2, 209760, Note_on_c, 0, 60, 95
2, 209760, Note_on_c, 0, 55, 95
2, 209760, Note_on_c, 0, 52, 95
2, 210240, Note_off_c, 0, 60, 95
2, 210240, Note_off_c, 0, 55, 95
2, 210240, Note_off_c, 0, 52, 95
2, 210240, Note_on_c, 0, 60, 95
2, 210240, Note_on_c, 0, 55, 95
2, 210240, Note_on_c, 0, 52, 95
2, 210240, Note_on_c, 0, 48, 95
2, 210720, Note_off_c, 0, 60, 95
2, 210720, Note_off_c, 0, 55, 95
2, 210720, Note_off_c, 0, 52, 95
2, 210720, Note_off_c, 0, 48, 95
2, 210720, Note_on_c, 0, 60, 95
2, 210720, Note_on_c, 0, 55, 95
2, 210720, Note_on_c, 0, 52, 95
2, 211200, Note_off_c, 0, 60, 95
2, 211200, Note_off_c, 0, 55, 95
2, 211200, Note_off_c, 0, 52, 95
2, 211200, Note_on_c, 0, 65, 95
2, 211200, Note_on_c, 0, 60, 95
2, 211200, Note_on_c, 0, 57, 95
2, 211200, Note_on_c, 0, 53, 95
2, 211680, Note_off_c, 0, 65, 95
2, 211680, Note_off_c, 0, 60, 95
2, 211680, Note_off_c, 0, 57, 95
2, 211680, Note_off_c, 0, 53, 95
2, 211680, Note_on_c, 0, 65, 95
2, 211680, Note_on_c, 0, 60, 95
2, 211680, Note_on_c, 0, 57, 95
2, 211680, Note_on_c, 0, 53, 95
2, 212160, Note_off_c, 0, 65, 95
2, 212160, Note_off_c, 0, 60, 95
2, 212160, Note_off_c, 0, 57, 95
2, 212160, Note_off_c, 0, 53, 95
2, 212160, Note_on_c, 0, 65, 95
2, 212160, Note_on_c, 0, 60, 95
2, 212160, Note_on_c, 0, 57, 95
2, 212160, Note_on_c, 0, 53, 95
2, 212880, Note_off_c, 0, 65, 95
2, 212880, Note_off_c, 0, 60, 95
2, 212880, Note_off_c, 0, 57, 95
2, 212880, Note_off_c, 0, 53, 95
2, 212880, Note_on_c, 0, 65, 95
2, 212880, Note_on_c, 0, 60, 95
2, 212880, Note_on_c, 0, 57, 95
2, 213120, Note_off_c, 0, 65, 95
2, 213120, Note_off_c, 0, 60, 95
2, 213120, Note_off_c, 0, 57, 95
2, 213120, Note_on_c, 0, 65, 95
2, 213120, Note_on_c, 0, 60, 95
2, 213120, Note_on_c, 0, 57, 95
2, 213120, Note_on_c, 0, 53, 95
2, 213600, Note_off_c, 0, 65, 95
2, 213600, Note_off_c, 0, 60, 95
2, 213600, Note_off_c, 0, 57, 95
2, 213600, Note_off_c, 0, 53, 95
2, 213600, Note_on_c, 0, 65, 95
2, 213600, Note_on_c, 0, 60, 95
2, 213600, Note_on_c, 0, 57, 95
2, 213600, Note_on_c, 0, 53, 95
2, 214080, Note_off_c, 0, 65, 95
2, 214080, Note_off_c, 0, 60, 95
2, 214080, Note_off_c, 0, 57, 95
2, 214080, Note_off_c, 0, 53, 95
2, 214080, Note_on_c, 0, 65, 95
2, 214080, Note_on_c, 0, 60, 95
2, 214080, Note_on_c, 0, 57, 95
2, 214080, Note_on_c, 0, 53, 95
2, 214560, Note_off_c, 0, 65, 95
2, 214560, Note_off_c, 0, 60, 95
2, 214560, Note_off_c, 0, 57, 95
2, 214560, Note_off_c, 0, 53, 95
2, 214560, Note_on_c, 0, 65, 95
2, 214560, Note_on_c, 0, 60, 95
2, 214560, Note_on_c, 0, 57, 95
2, 214560, Note_on_c, 0, 53, 95
2, 215040, Note_off_c, 0, 65, 95
2, 215040, Note_off_c, 0, 60, 95
2, 215040, Note_off_c, 0, 57, 95
2, 215040, Note_off_c, 0, 53, 95
2, 215040, Note_on_c, 0, 60, 95
2, 215040, Note_on_c, 0, 55, 95
2, 215040, Note_on_c, 0, 52, 95
2, 215040, Note_on_c, 0, 48, 95
2, 215520, Note_off_c, 0, 60, 95
2, 215520, Note_off_c, 0, 55, 95
2, 215520, Note_off_c, 0, 52, 95
2, 215520, Note_off_c, 0, 48, 95
2, 215520, Note_on_c, 0, 64, 95
2, 215520, Note_on_c, 0, 60, 95
2, 215520, Note_on_c, 0, 55, 95
2, 215520, Note_on_c, 0, 52, 95
2, 216000, Note_off_c, 0, 64, 95
2, 216000, Note_off_c, 0, 60, 95
2, 216000, Note_off_c, 0, 55, 95
2, 216000, Note_off_c, 0, 52, 95
2, 216000, Note_on_c, 0, 64, 95
2, 216000, Note_on_c, 0, 60, 95
2, 216000, Note_on_c, 0, 55, 95
2, 216000, Note_on_c, 0, 52, 95
2, 216720, Note_off_c, 0, 64, 95
2, 216720, Note_off_c, 0, 60, 95
2, 216720, Note_off_c, 0, 55, 95
2, 216720, Note_off_c, 0, 52, 95
2, 216720, Note_on_c, 0, 64, 95
2, 216720, Note_on_c, 0, 60, 95
2, 216720, Note_on_c, 0, 55, 95
2, 216960, Note_off_c, 0, 64, 95
2, 216960, Note_off_c, 0, 60, 95
2, 216960, Note_off_c, 0, 55, 95
2, 216960, Note_on_c, 0, 64, 95
2, 216960, Note_on_c, 0, 60, 95
2, 216960, Note_on_c, 0, 55, 95
2, 216960, Note_on_c, 0, 52, 95
2, 217440, Note_off_c, 0, 64, 95
2, 217440, Note_off_c, 0, 60, 95
2, 217440, Note_off_c, 0, 55, 95
2, 217440, Note_off_c, 0, 52, 95
2, 217440, Note_on_c, 0, 64, 95
2, 217440, Note_on_c, 0, 60, 95
2, 217440, Note_on_c, 0, 55, 95
2, 217440, Note_on_c, 0, 52, 95
2, 217920, Note_off_c, 0, 64, 95
2, 217920, Note_off_c, 0, 60, 95
2, 217920, Note_off_c, 0, 55, 95
2, 217920, Note_off_c, 0, 52, 95
2, 217920, Note_on_c, 0, 66, 95
2, 217920, Note_on_c, 0, 62, 95
2, 217920, Note_on_c, 0, 57, 95
2, 217920, Note_on_c, 0, 50, 95
2, 218160, Note_off_c, 0, 66, 95
2, 218160, Note_off_c, 0, 62, 95
2, 218160, Note_off_c, 0, 57, 95
2, 218160, Note_off_c, 0, 50, 95
2, 218160, Note_on_c, 0, 66, 95
2, 218160, Note_on_c, 0, 62, 95
2, 218160, Note_on_c, 0, 57, 95
2, 218400, Note_off_c, 0, 66, 95
2, 218400, Note_off_c, 0, 62, 95
2, 218400, Note_off_c, 0, 57, 95
2, 218400, Note_on_c, 0, 66, 95
2, 218400, Note_on_c, 0, 62, 95
2, 218400, Note_on_c, 0, 57, 95
2, 218400, Note_on_c, 0, 50, 95
2, 218880, Note_off_c, 0, 66, 95
2, 218880, Note_off_c, 0, 62, 95
2, 218880, Note_off_c, 0, 57, 95
2, 218880, Note_off_c, 0, 50, 95
2, 218880, Note_on_c, 0, 67, 95
2, 218880, Note_on_c, 0, 59, 95
2, 218880, Note_on_c, 0, 55, 95
2, 218880, Note_on_c, 0, 50, 95
2, 219840, Note_off_c, 0, 67, 95
2, 219840, Note_off_c, 0, 59, 95
2, 219840, Note_off_c, 0, 55, 95
2, 219840, Note_off_c, 0, 50, 95
2, 219840, Note_on_c, 0, 67, 95
2, 219840, Note_on_c, 0, 59, 95
2, 219840, Note_on_c, 0, 55, 95
2, 219840, Note_on_c, 0, 50, 95
2, 220560, Note_off_c, 0, 67, 95
2, 220560, Note_off_c, 0, 59, 95
2, 220560, Note_off_c, 0, 55, 95
2, 220560, Note_off_c, 0, 50, 95
2, 220560, Note_on_c, 0, 67, 95
2, 220560, Note_on_c, 0, 59, 95
2, 220560, Note_on_c, 0, 55, 95
2, 220560, Note_on_c, 0, 50, 95
2, 220800, Note_off_c, 0, 67, 95
2, 220800, Note_off_c, 0, 59, 95
2, 220800, Note_off_c, 0, 55, 95
2, 220800, Note_off_c, 0, 50, 95
2, 220800, Note_on_c, 0, 60, 95
2, 220800, Note_on_c, 0, 55, 95
2, 220800, Note_on_c, 0, 50, 95
2, 221280, Note_off_c, 0, 60, 95
2, 221280, Note_off_c, 0, 55, 95
2, 221280, Note_off_c, 0, 50, 95
2, 221280, Note_on_c, 0, 59, 95
2, 221280, Note_on_c, 0, 55, 95
2, 221280, Note_on_c, 0, 50, 95
2, 221280, Note_on_c, 0, 47, 95
2, 221760, Note_off_c, 0, 59, 95
2, 221760, Note_off_c, 0, 55, 95
2, 221760, Note_off_c, 0, 50, 95
2, 221760, Note_off_c, 0, 47, 95
2, 222720, Note_on_c, 0, 67, 95
2, 222720, Note_on_c, 0, 59, 95
2, 222720, Note_on_c, 0, 55, 95
2, 222720, Note_on_c, 0, 50, 95
2, 222720, Note_on_c, 0, 47, 95
2, 222720, Note_on_c, 0, 41, 95
2, 223680, Note_off_c, 0, 67, 95
2, 223680, Note_off_c, 0, 59, 95
2, 223680, Note_off_c, 0, 55, 95
2, 223680, Note_off_c, 0, 50, 95
2, 223680, Note_off_c, 0, 47, 95
2, 223680, Note_off_c, 0, 41, 95
2, 223680, Note_on_c, 0, 67, 95
2, 223680, Note_on_c, 0, 59, 95
2, 223680, Note_on_c, 0, 55, 95
2, 223680, Note_on_c, 0, 50, 95
2, 224400, Note_off_c, 0, 67, 95
2, 224400, Note_off_c, 0, 59, 95
2, 224400, Note_off_c, 0, 55, 95
2, 224400, Note_off_c, 0, 50, 95
2, 224400, Note_on_c, 0, 67, 95
2, 224400, Note_on_c, 0, 59, 95
2, 224400, Note_on_c, 0, 55, 95
2, 224640, Note_off_c, 0, 67, 95
2, 224640, Note_off_c, 0, 59, 95
2, 224640, Note_off_c, 0, 55, 95
2, 224640, Note_on_c, 0, 67, 95
2, 224640, Note_on_c, 0, 59, 95
2, 224640, Note_on_c, 0, 55, 95
2, 224640, Note_on_c, 0, 50, 95
2, 225120, Note_off_c, 0, 67, 95
2, 225120, Note_off_c, 0, 59, 95
2, 225120, Note_off_c, 0, 55, 95
2, 225120, Note_off_c, 0, 50, 95
2, 225120, Note_on_c, 0, 67, 95
2, 225120, Note_on_c, 0, 59, 95
2, 225120, Note_on_c, 0, 55, 95
2, 225120, Note_on_c, 0, 50, 95
2, 225600, Note_off_c, 0, 67, 95
2, 225600, Note_off_c, 0, 59, 95
2, 225600, Note_off_c, 0, 55, 95
2, 225600, Note_off_c, 0, 50, 95
2, 225600, Note_on_c, 0, 67, 95
2, 225600, Note_on_c, 0, 59, 95
2, 225600, Note_on_c, 0, 55, 95
2, 225600, Note_on_c, 0, 50, 95
2, 226080, Note_off_c, 0, 67, 95
2, 226080, Note_off_c, 0, 59, 95
2, 226080, Note_off_c, 0, 55, 95
2, 226080, Note_off_c, 0, 50, 95
2, 226080, Note_on_c, 0, 67, 95
2, 226080, Note_on_c, 0, 59, 95
2, 226080, Note_on_c, 0, 55, 95
2, 226560, Note_off_c, 0, 67, 95
2, 226560, Note_off_c, 0, 59, 95
2, 226560, Note_off_c, 0, 55, 95
2, 226560, Note_on_c, 0, 62, 95
2, 226560, Note_on_c, 0, 59, 95
2, 226560, Note_on_c, 0, 54, 95
2, 226560, Note_on_c, 0, 50, 95
2, 227520, Note_off_c, 0, 62, 95
2, 227520, Note_off_c, 0, 59, 95
2, 227520, Note_off_c, 0, 54, 95
2, 227520, Note_off_c, 0, 50, 95
2, 227520, Note_on_c, 0, 62, 95
2, 227520, Note_on_c, 0, 59, 95
2, 227520, Note_on_c, 0, 54, 95
2, 227520, Note_on_c, 0, 50, 95
2, 228240, Note_off_c, 0, 62, 95
2, 228240, Note_off_c, 0, 59, 95
2, 228240, Note_off_c, 0, 54, 95
2, 228240, Note_off_c, 0, 50, 95
2, 228240, Note_on_c, 0, 62, 95
2, 228240, Note_on_c, 0, 59, 95
2, 228240, Note_on_c, 0, 54, 95
2, 228240, Note_on_c, 0, 50, 95
2, 228480, Note_off_c, 0, 62, 95
2, 228480, Note_off_c, 0, 59, 95
2, 228480, Note_off_c, 0, 54, 95
2, 228480, Note_off_c, 0, 50, 95
2, 228480, Note_on_c, 0, 62, 95
2, 228480, Note_on_c, 0, 59, 95
2, 228480, Note_on_c, 0, 54, 95
2, 228480, Note_on_c, 0, 50, 95
2, 228960, Note_off_c, 0, 62, 95
2, 228960, Note_off_c, 0, 59, 95
2, 228960, Note_off_c, 0, 54, 95
2, 228960, Note_off_c, 0, 50, 95
2, 228960, Note_on_c, 0, 62, 95
2, 228960, Note_on_c, 0, 59, 95
2, 228960, Note_on_c, 0, 54, 95
2, 228960, Note_on_c, 0, 50, 95
2, 229440, Note_off_c, 0, 62, 95
2, 229440, Note_off_c, 0, 59, 95
2, 229440, Note_off_c, 0, 54, 95
2, 229440, Note_off_c, 0, 50, 95
2, 229440, Note_on_c, 0, 62, 95
2, 229440, Note_on_c, 0, 59, 95
2, 229440, Note_on_c, 0, 54, 95
2, 229440, Note_on_c, 0, 50, 95
2, 229920, Note_off_c, 0, 62, 95
2, 229920, Note_off_c, 0, 59, 95
2, 229920, Note_off_c, 0, 54, 95
2, 229920, Note_off_c, 0, 50, 95
2, 229920, Note_on_c, 0, 62, 95
2, 229920, Note_on_c, 0, 59, 95
2, 229920, Note_on_c, 0, 54, 95
2, 229920, Note_on_c, 0, 50, 95
2, 230400, Note_off_c, 0, 62, 95
2, 230400, Note_off_c, 0, 59, 95
2, 230400, Note_off_c, 0, 54, 95
2, 230400, Note_off_c, 0, 50, 95
2, 230400, Note_on_c, 0, 67, 95
2, 230400, Note_on_c, 0, 59, 95
2, 230400, Note_on_c, 0, 55, 95
2, 230400, Note_on_c, 0, 50, 95
2, 231360, Note_off_c, 0, 67, 95
2, 231360, Note_off_c, 0, 59, 95
2, 231360, Note_off_c, 0, 55, 95
2, 231360, Note_off_c, 0, 50, 95
2, 231360, Note_on_c, 0, 67, 95
2, 231360, Note_on_c, 0, 59, 95
2, 231360, Note_on_c, 0, 55, 95
2, 231360, Note_on_c, 0, 50, 95
2, 232080, Note_off_c, 0, 67, 95
2, 232080, Note_off_c, 0, 59, 95
2, 232080, Note_off_c, 0, 55, 95
2, 232080, Note_off_c, 0, 50, 95
2, 232080, Note_on_c, 0, 67, 95
2, 232080, Note_on_c, 0, 59, 95
2, 232080, Note_on_c, 0, 55, 95
2, 232080, Note_on_c, 0, 50, 95
2, 232320, Note_off_c, 0, 67, 95
2, 232320, Note_off_c, 0, 59, 95
2, 232320, Note_off_c, 0, 55, 95
2, 232320, Note_off_c, 0, 50, 95
2, 232320, Note_on_c, 0, 67, 95
2, 232320, Note_on_c, 0, 60, 95
2, 232320, Note_on_c, 0, 55, 95
2, 232320, Note_on_c, 0, 50, 95
2, 232800, Note_off_c, 0, 67, 95
2, 232800, Note_off_c, 0, 60, 95
2, 232800, Note_off_c, 0, 55, 95
2, 232800, Note_off_c, 0, 50, 95
2, 232800, Note_on_c, 0, 67, 95
2, 232800, Note_on_c, 0, 59, 95
2, 232800, Note_on_c, 0, 55, 95
2, 232800, Note_on_c, 0, 50, 95
2, 233280, Note_off_c, 0, 67, 95
2, 233280, Note_off_c, 0, 59, 95
2, 233280, Note_off_c, 0, 55, 95
2, 233280, Note_off_c, 0, 50, 95
2, 233280, Note_on_c, 0, 57, 95
2, 233280, Note_on_c, 0, 50, 95
2, 233280, Note_on_c, 0, 47, 95
2, 233760, Note_off_c, 0, 57, 95
2, 233760, Note_off_c, 0, 50, 95
2, 233760, Note_off_c, 0, 47, 95
2, 233760, Note_on_c, 0, 55, 95
2, 233760, Note_on_c, 0, 50, 95
2, 233760, Note_on_c, 0, 47, 95
2, 234240, Note_off_c, 0, 55, 95
2, 234240, Note_off_c, 0, 50, 95
2, 234240, Note_off_c, 0, 47, 95
2, 234240, Note_on_c, 0, 62, 95
2, 234240, Note_on_c, 0, 59, 95
2, 234240, Note_on_c, 0, 54, 95
2, 234240, Note_on_c, 0, 50, 95
2, 235200, Note_off_c, 0, 62, 95
2, 235200, Note_off_c, 0, 59, 95
2, 235200, Note_off_c, 0, 54, 95
2, 235200, Note_off_c, 0, 50, 95
2, 235200, Note_on_c, 0, 62, 95
2, 235200, Note_on_c, 0, 59, 95
2, 235200, Note_on_c, 0, 54, 95
2, 235920, Note_off_c, 0, 62, 95
2, 235920, Note_off_c, 0, 59, 95
2, 235920, Note_off_c, 0, 54, 95
2, 235920, Note_on_c, 0, 62, 95
2, 235920, Note_on_c, 0, 59, 95
2, 235920, Note_on_c, 0, 54, 95
2, 236160, Note_off_c, 0, 62, 95
2, 236160, Note_off_c, 0, 59, 95
2, 236160, Note_off_c, 0, 54, 95
2, 236160, Note_on_c, 0, 62, 95
2, 236160, Note_on_c, 0, 59, 95
2, 236160, Note_on_c, 0, 54, 95
2, 236640, Note_off_c, 0, 62, 95
2, 236640, Note_off_c, 0, 59, 95
2, 236640, Note_off_c, 0, 54, 95
2, 236640, Note_on_c, 0, 62, 95
2, 236640, Note_on_c, 0, 59, 95
2, 236640, Note_on_c, 0, 54, 95
2, 237120, Note_off_c, 0, 62, 95
2, 237120, Note_off_c, 0, 59, 95
2, 237120, Note_off_c, 0, 54, 95
2, 237120, Note_on_c, 0, 59, 95
2, 237120, Note_on_c, 0, 54, 95
2, 237120, Note_on_c, 0, 50, 95
2, 237600, Note_off_c, 0, 59, 95
2, 237600, Note_off_c, 0, 54, 95
2, 237600, Note_off_c, 0, 50, 95
2, 237600, Note_on_c, 0, 59, 95
2, 237600, Note_on_c, 0, 54, 95
2, 237600, Note_on_c, 0, 50, 95
2, 238080, Note_off_c, 0, 59, 95
2, 238080, Note_off_c, 0, 54, 95
2, 238080, Note_off_c, 0, 50, 95
2, 238080, Note_on_c, 0, 67, 95
2, 238080, Note_on_c, 0, 59, 95
2, 238080, Note_on_c, 0, 55, 95
2, 238080, Note_on_c, 0, 50, 95
2, 239040, Note_off_c, 0, 67, 95
2, 239040, Note_off_c, 0, 59, 95
2, 239040, Note_off_c, 0, 55, 95
2, 239040, Note_off_c, 0, 50, 95
2, 239040, Note_on_c, 0, 67, 95
2, 239040, Note_on_c, 0, 59, 95
2, 239040, Note_on_c, 0, 55, 95
2, 239040, Note_on_c, 0, 50, 95
2, 239760, Note_off_c, 0, 67, 95
2, 239760, Note_off_c, 0, 59, 95
2, 239760, Note_off_c, 0, 55, 95
2, 239760, Note_off_c, 0, 50, 95
2, 239760, Note_on_c, 0, 67, 95
2, 239760, Note_on_c, 0, 59, 95
2, 239760, Note_on_c, 0, 55, 95
2, 239760, Note_on_c, 0, 50, 95
2, 240000, Note_off_c, 0, 67, 95
2, 240000, Note_off_c, 0, 59, 95
2, 240000, Note_off_c, 0, 55, 95
2, 240000, Note_off_c, 0, 50, 95
2, 240000, Note_on_c, 0, 60, 95
2, 240000, Note_on_c, 0, 55, 95
2, 240000, Note_on_c, 0, 50, 95
2, 240480, Note_off_c, 0, 60, 95
2, 240480, Note_off_c, 0, 55, 95
2, 240480, Note_off_c, 0, 50, 95
2, 240480, Note_on_c, 0, 60, 95
2, 240480, Note_on_c, 0, 55, 95
2, 240480, Note_on_c, 0, 50, 95
2, 240960, Note_off_c, 0, 60, 95
2, 240960, Note_off_c, 0, 55, 95
2, 240960, Note_off_c, 0, 50, 95
2, 240960, Note_on_c, 0, 59, 95
2, 240960, Note_on_c, 0, 55, 95
2, 240960, Note_on_c, 0, 50, 95
2, 241440, Note_off_c, 0, 59, 95
2, 241440, Note_off_c, 0, 55, 95
2, 241440, Note_off_c, 0, 50, 95
2, 241440, Note_on_c, 0, 60, 95
2, 241440, Note_on_c, 0, 55, 95
2, 241440, Note_on_c, 0, 50, 95
2, 241920, Note_off_c, 0, 60, 95
2, 241920, Note_off_c, 0, 55, 95
2, 241920, Note_off_c, 0, 50, 95
2, 241920, Note_on_c, 0, 64, 95
2, 241920, Note_on_c, 0, 60, 95
2, 241920, Note_on_c, 0, 57, 95
2, 241920, Note_on_c, 0, 52, 95
2, 242880, Note_off_c, 0, 64, 95
2, 242880, Note_off_c, 0, 60, 95
2, 242880, Note_off_c, 0, 57, 95
2, 242880, Note_off_c, 0, 52, 95
2, 242880, Note_on_c, 0, 64, 95
2, 242880, Note_on_c, 0, 60, 95
2, 242880, Note_on_c, 0, 57, 95
2, 242880, Note_on_c, 0, 52, 95
2, 243840, Note_off_c, 0, 64, 95
2, 243840, Note_off_c, 0, 60, 95
2, 243840, Note_off_c, 0, 57, 95
2, 243840, Note_off_c, 0, 52, 95
2, 243840, Note_on_c, 0, 64, 95
2, 243840, Note_on_c, 0, 60, 95
2, 243840, Note_on_c, 0, 57, 95
2, 243840, Note_on_c, 0, 52, 95
2, 244320, Note_off_c, 0, 64, 95
2, 244320, Note_off_c, 0, 60, 95
2, 244320, Note_off_c, 0, 57, 95
2, 244320, Note_off_c, 0, 52, 95
2, 244320, Note_on_c, 0, 64, 95
2, 244320, Note_on_c, 0, 60, 95
2, 244320, Note_on_c, 0, 57, 95
2, 244320, Note_on_c, 0, 52, 95
2, 244800, Note_off_c, 0, 64, 95
2, 244800, Note_off_c, 0, 60, 95
2, 244800, Note_off_c, 0, 57, 95
2, 244800, Note_off_c, 0, 52, 95
2, 244800, Note_on_c, 0, 64, 95
2, 244800, Note_on_c, 0, 60, 95
2, 244800, Note_on_c, 0, 57, 95
2, 244800, Note_on_c, 0, 52, 95
2, 245280, Note_off_c, 0, 64, 95
2, 245280, Note_off_c, 0, 60, 95
2, 245280, Note_off_c, 0, 57, 95
2, 245280, Note_off_c, 0, 52, 95
2, 245280, Note_on_c, 0, 67, 95
2, 245280, Note_on_c, 0, 59, 95
2, 245280, Note_on_c, 0, 55, 95
2, 245280, Note_on_c, 0, 50, 95
2, 245760, Note_off_c, 0, 67, 95
2, 245760, Note_off_c, 0, 59, 95
2, 245760, Note_off_c, 0, 55, 95
2, 245760, Note_off_c, 0, 50, 95
2, 245760, Note_on_c, 0, 64, 95
2, 245760, Note_on_c, 0, 60, 95
2, 245760, Note_on_c, 0, 55, 95
2, 245760, Note_on_c, 0, 52, 95
2, 246240, Note_off_c, 0, 64, 95
2, 246240, Note_off_c, 0, 60, 95
2, 246240, Note_off_c, 0, 55, 95
2, 246240, Note_off_c, 0, 52, 95
2, 246240, Note_on_c, 0, 48, 95
2, 246720, Note_off_c, 0, 48, 95
2, 246720, Note_on_c, 0, 60, 95
2, 246720, Note_on_c, 0, 55, 95
2, 246720, Note_on_c, 0, 52, 95
2, 246720, Note_on_c, 0, 48, 95
2, 246720, Note_on_c, 0, 43, 95
2, 247440, Note_off_c, 0, 60, 95
2, 247440, Note_off_c, 0, 55, 95
2, 247440, Note_off_c, 0, 52, 95
2, 247440, Note_off_c, 0, 48, 95
2, 247440, Note_off_c, 0, 43, 95
2, 247440, Note_on_c, 0, 60, 95
2, 247440, Note_on_c, 0, 55, 95
2, 247440, Note_on_c, 0, 52, 95
2, 247440, Note_on_c, 0, 48, 95
2, 247680, Note_off_c, 0, 60, 95
2, 247680, Note_off_c, 0, 55, 95
2, 247680, Note_off_c, 0, 52, 95
2, 247680, Note_off_c, 0, 48, 95
2, 247680, Note_on_c, 0, 55, 95
2, 247680, Note_on_c, 0, 52, 95
2, 247680, Note_on_c, 0, 48, 95
2, 247680, Note_on_c, 0, 43, 95
2, 248160, Note_off_c, 0, 55, 95
2, 248160, Note_off_c, 0, 52, 95
2, 248160, Note_off_c, 0, 48, 95
2, 248160, Note_off_c, 0, 43, 95
2, 248160, Note_on_c, 0, 55, 95
2, 248160, Note_on_c, 0, 52, 95
2, 248160, Note_on_c, 0, 48, 95
2, 248160, Note_on_c, 0, 43, 95
2, 248640, Note_off_c, 0, 55, 95
2, 248640, Note_off_c, 0, 52, 95
2, 248640, Note_off_c, 0, 48, 95
2, 248640, Note_off_c, 0, 43, 95
2, 248640, Note_on_c, 0, 57, 95
2, 248640, Note_on_c, 0, 54, 95
2, 248640, Note_on_c, 0, 50, 95
2, 248640, Note_on_c, 0, 45, 95
2, 249120, Note_off_c, 0, 57, 95
2, 249120, Note_off_c, 0, 54, 95
2, 249120, Note_off_c, 0, 50, 95
2, 249120, Note_off_c, 0, 45, 95
2, 249120, Note_on_c, 0, 57, 95
2, 249120, Note_on_c, 0, 54, 95
2, 249120, Note_on_c, 0, 50, 95
2, 249120, Note_on_c, 0, 45, 95
2, 249600, Note_off_c, 0, 57, 95
2, 249600, Note_off_c, 0, 54, 95
2, 249600, Note_off_c, 0, 50, 95
2, 249600, Note_off_c, 0, 45, 95
2, 249600, Note_on_c, 0, 67, 95
2, 249600, Note_on_c, 0, 59, 95
2, 249600, Note_on_c, 0, 55, 95
2, 249600, Note_on_c, 0, 50, 95
2, 249600, Note_on_c, 0, 47, 95
2, 250560, Note_off_c, 0, 67, 95
2, 250560, Note_off_c, 0, 59, 95
2, 250560, Note_off_c, 0, 55, 95
2, 250560, Note_off_c, 0, 50, 95
2, 250560, Note_off_c, 0, 47, 95
2, 250560, Note_on_c, 0, 59, 95
2, 250560, Note_on_c, 0, 55, 95
2, 250560, Note_on_c, 0, 50, 95
2, 250560, Note_on_c, 0, 47, 95
2, 251280, Note_off_c, 0, 59, 95
2, 251280, Note_off_c, 0, 55, 95
2, 251280, Note_off_c, 0, 50, 95
2, 251280, Note_off_c, 0, 47, 95
2, 251280, Note_on_c, 0, 59, 95
2, 251280, Note_on_c, 0, 55, 95
2, 251280, Note_on_c, 0, 50, 95
2, 251280, Note_on_c, 0, 47, 95
2, 251520, Note_off_c, 0, 59, 95
2, 251520, Note_off_c, 0, 55, 95
2, 251520, Note_off_c, 0, 50, 95
2, 251520, Note_off_c, 0, 47, 95
2, 251520, Note_on_c, 0, 67, 95
2, 251520, Note_on_c, 0, 59, 95
2, 251520, Note_on_c, 0, 55, 95
2, 251520, Note_on_c, 0, 50, 95
2, 252000, Note_off_c, 0, 67, 95
2, 252000, Note_off_c, 0, 59, 95
2, 252000, Note_off_c, 0, 55, 95
2, 252000, Note_off_c, 0, 50, 95
2, 252000, Note_on_c, 0, 59, 95
2, 252000, Note_on_c, 0, 55, 95
2, 252000, Note_on_c, 0, 50, 95
2, 252000, Note_on_c, 0, 47, 95
2, 252480, Note_off_c, 0, 59, 95
2, 252480, Note_off_c, 0, 55, 95
2, 252480, Note_off_c, 0, 50, 95
2, 252480, Note_off_c, 0, 47, 95
2, 252480, Note_on_c, 0, 59, 95
2, 252480, Note_on_c, 0, 55, 95
2, 252480, Note_on_c, 0, 50, 95
2, 252480, Note_on_c, 0, 47, 95
2, 252960, Note_off_c, 0, 59, 95
2, 252960, Note_off_c, 0, 55, 95
2, 252960, Note_off_c, 0, 50, 95
2, 252960, Note_off_c, 0, 47, 95
2, 252960, Note_on_c, 0, 59, 95
2, 252960, Note_on_c, 0, 55, 95
2, 252960, Note_on_c, 0, 50, 95
2, 252960, Note_on_c, 0, 47, 95
2, 253440, Note_off_c, 0, 59, 95
2, 253440, Note_off_c, 0, 55, 95
2, 253440, Note_off_c, 0, 50, 95
2, 253440, Note_off_c, 0, 47, 95
2, 253440, Note_on_c, 0, 62, 95
2, 253440, Note_on_c, 0, 57, 95
2, 253440, Note_on_c, 0, 50, 95
2, 253440, Note_on_c, 0, 45, 95
2, 254400, Note_off_c, 0, 62, 95
2, 254400, Note_off_c, 0, 57, 95
2, 254400, Note_off_c, 0, 50, 95
2, 254400, Note_off_c, 0, 45, 95
2, 254400, Note_on_c, 0, 57, 95
2, 254400, Note_on_c, 0, 54, 95
2, 254400, Note_on_c, 0, 50, 95
2, 254400, Note_on_c, 0, 45, 95
2, 255360, Note_off_c, 0, 57, 95
2, 255360, Note_off_c, 0, 54, 95
2, 255360, Note_off_c, 0, 50, 95
2, 255360, Note_off_c, 0, 45, 95
2, 255360, Note_on_c, 0, 57, 95
2, 255360, Note_on_c, 0, 54, 95
2, 255360, Note_on_c, 0, 50, 95
2, 255360, Note_on_c, 0, 45, 95
2, 255840, Note_off_c, 0, 57, 95
2, 255840, Note_off_c, 0, 54, 95
2, 255840, Note_off_c, 0, 50, 95
2, 255840, Note_off_c, 0, 45, 95
2, 255840, Note_on_c, 0, 57, 95
2, 255840, Note_on_c, 0, 54, 95
2, 255840, Note_on_c, 0, 50, 95
2, 255840, Note_on_c, 0, 45, 95
2, 256320, Note_off_c, 0, 57, 95
2, 256320, Note_off_c, 0, 54, 95
2, 256320, Note_off_c, 0, 50, 95
2, 256320, Note_off_c, 0, 45, 95
2, 256320, Note_on_c, 0, 60, 95
2, 256320, Note_on_c, 0, 55, 95
2, 256320, Note_on_c, 0, 52, 95
2, 256320, Note_on_c, 0, 48, 95
2, 256320, Note_on_c, 0, 43, 95
2, 256560, Note_off_c, 0, 60, 95
2, 256560, Note_off_c, 0, 55, 95
2, 256560, Note_off_c, 0, 52, 95
2, 256560, Note_off_c, 0, 48, 95
2, 256560, Note_off_c, 0, 43, 95
2, 256560, Note_on_c, 0, 64, 95
2, 256560, Note_on_c, 0, 60, 95
2, 256560, Note_on_c, 0, 55, 95
2, 256560, Note_on_c, 0, 52, 95
2, 256800, Note_off_c, 0, 64, 95
2, 256800, Note_off_c, 0, 60, 95
2, 256800, Note_off_c, 0, 55, 95
2, 256800, Note_off_c, 0, 52, 95
2, 256800, Note_on_c, 0, 60, 95
2, 256800, Note_on_c, 0, 55, 95
2, 256800, Note_on_c, 0, 52, 95
2, 256800, Note_on_c, 0, 48, 95
2, 256800, Note_on_c, 0, 43, 95
2, 257280, Note_off_c, 0, 60, 95
2, 257280, Note_off_c, 0, 55, 95
2, 257280, Note_off_c, 0, 52, 95
2, 257280, Note_off_c, 0, 48, 95
2, 257280, Note_off_c, 0, 43, 95
2, 257280, Note_on_c, 0, 62, 95
2, 257280, Note_on_c, 0, 59, 95
2, 257280, Note_on_c, 0, 54, 95
2, 257280, Note_on_c, 0, 50, 95
2, 258240, Note_off_c, 0, 62, 95
2, 258240, Note_off_c, 0, 59, 95
2, 258240, Note_off_c, 0, 54, 95
2, 258240, Note_off_c, 0, 50, 95
2, 258240, Note_on_c, 0, 62, 95
2, 258240, Note_on_c, 0, 59, 95
2, 258240, Note_on_c, 0, 54, 95
2, 258240, Note_on_c, 0, 50, 95
2, 259200, Note_off_c, 0, 62, 95
2, 259200, Note_off_c, 0, 59, 95
2, 259200, Note_off_c, 0, 54, 95
2, 259200, Note_off_c, 0, 50, 95
2, 259200, Note_on_c, 0, 62, 95
2, 259200, Note_on_c, 0, 59, 95
2, 259200, Note_on_c, 0, 54, 95
2, 259200, Note_on_c, 0, 50, 95
2, 259680, Note_off_c, 0, 62, 95
2, 259680, Note_off_c, 0, 59, 95
2, 259680, Note_off_c, 0, 54, 95
2, 259680, Note_off_c, 0, 50, 95
2, 259680, Note_on_c, 0, 62, 95
2, 259680, Note_on_c, 0, 59, 95
2, 259680, Note_on_c, 0, 54, 95
2, 259680, Note_on_c, 0, 50, 95
2, 260160, Note_off_c, 0, 62, 95
2, 260160, Note_off_c, 0, 59, 95
2, 260160, Note_off_c, 0, 54, 95
2, 260160, Note_off_c, 0, 50, 95
2, 260160, Note_on_c, 0, 66, 95
2, 260160, Note_on_c, 0, 62, 95
2, 260160, Note_on_c, 0, 59, 95
2, 260160, Note_on_c, 0, 54, 95
2, 260640, Note_off_c, 0, 66, 95
2, 260640, Note_off_c, 0, 62, 95
2, 260640, Note_off_c, 0, 59, 95
2, 260640, Note_off_c, 0, 54, 95
2, 260640, Note_on_c, 0, 66, 95
2, 260640, Note_on_c, 0, 62, 95
2, 260640, Note_on_c, 0, 59, 95
2, 260640, Note_on_c, 0, 54, 95
2, 261120, Note_off_c, 0, 66, 95
2, 261120, Note_off_c, 0, 62, 95
2, 261120, Note_off_c, 0, 59, 95
2, 261120, Note_off_c, 0, 54, 95
2, 261120, Note_on_c, 0, 67, 95
2, 261120, Note_on_c, 0, 59, 95
2, 261120, Note_on_c, 0, 55, 95
2, 261120, Note_on_c, 0, 50, 95
2, 262080, Note_off_c, 0, 67, 95
2, 262080, Note_off_c, 0, 59, 95
2, 262080, Note_off_c, 0, 55, 95
2, 262080, Note_off_c, 0, 50, 95
2, 262080, Note_on_c, 0, 67, 95
2, 262080, Note_on_c, 0, 59, 95
2, 262080, Note_on_c, 0, 55, 95
2, 262080, Note_on_c, 0, 50, 95
2, 262800, Note_off_c, 0, 67, 95
2, 262800, Note_off_c, 0, 59, 95
2, 262800, Note_off_c, 0, 55, 95
2, 262800, Note_off_c, 0, 50, 95
2, 262800, Note_on_c, 0, 67, 95
2, 262800, Note_on_c, 0, 59, 95
2, 262800, Note_on_c, 0, 55, 95
2, 262800, Note_on_c, 0, 50, 95
2, 263040, Note_off_c, 0, 67, 95
2, 263040, Note_off_c, 0, 59, 95
2, 263040, Note_off_c, 0, 55, 95
2, 263040, Note_off_c, 0, 50, 95
2, 263040, Note_on_c, 0, 67, 95
2, 263040, Note_on_c, 0, 60, 95
2, 263040, Note_on_c, 0, 55, 95
2, 263040, Note_on_c, 0, 50, 95
2, 263520, Note_off_c, 0, 67, 95
2, 263520, Note_off_c, 0, 60, 95
2, 263520, Note_off_c, 0, 55, 95
2, 263520, Note_off_c, 0, 50, 95
2, 263520, Note_on_c, 0, 59, 95
2, 263520, Note_on_c, 0, 55, 95
2, 263520, Note_on_c, 0, 50, 95
2, 264000, Note_off_c, 0, 59, 95
2, 264000, Note_off_c, 0, 55, 95
2, 264000, Note_off_c, 0, 50, 95
2, 264000, Note_on_c, 0, 57, 95
2, 264000, Note_on_c, 0, 50, 95
2, 264000, Note_on_c, 0, 47, 95
2, 264480, Note_off_c, 0, 57, 95
2, 264480, Note_off_c, 0, 50, 95
2, 264480, Note_off_c, 0, 47, 95
2, 264480, Note_on_c, 0, 55, 95
2, 264480, Note_on_c, 0, 50, 95
2, 264480, Note_on_c, 0, 47, 95
2, 264960, Note_off_c, 0, 55, 95
2, 264960, Note_off_c, 0, 50, 95
2, 264960, Note_off_c, 0, 47, 95
2, 264960, Note_on_c, 0, 62, 95
2, 264960, Note_on_c, 0, 59, 95
2, 264960, Note_on_c, 0, 54, 95
2, 264960, Note_on_c, 0, 50, 95
2, 265920, Note_off_c, 0, 62, 95
2, 265920, Note_off_c, 0, 59, 95
2, 265920, Note_off_c, 0, 54, 95
2, 265920, Note_off_c, 0, 50, 95
2, 265920, Note_on_c, 0, 66, 95
2, 265920, Note_on_c, 0, 62, 95
2, 265920, Note_on_c, 0, 59, 95
2, 265920, Note_on_c, 0, 54, 95
2, 266640, Note_off_c, 0, 66, 95
2, 266640, Note_off_c, 0, 62, 95
2, 266640, Note_off_c, 0, 59, 95
2, 266640, Note_off_c, 0, 54, 95
2, 266640, Note_on_c, 0, 66, 95
2, 266640, Note_on_c, 0, 62, 95
2, 266640, Note_on_c, 0, 59, 95
2, 266640, Note_on_c, 0, 54, 95
2, 266880, Note_off_c, 0, 66, 95
2, 266880, Note_off_c, 0, 62, 95
2, 266880, Note_off_c, 0, 59, 95
2, 266880, Note_off_c, 0, 54, 95
2, 266880, Note_on_c, 0, 66, 95
2, 266880, Note_on_c, 0, 62, 95
2, 266880, Note_on_c, 0, 59, 95
2, 266880, Note_on_c, 0, 54, 95
2, 267360, Note_off_c, 0, 66, 95
2, 267360, Note_off_c, 0, 62, 95
2, 267360, Note_off_c, 0, 59, 95
2, 267360, Note_off_c, 0, 54, 95
2, 267360, Note_on_c, 0, 66, 95
2, 267360, Note_on_c, 0, 62, 95
2, 267360, Note_on_c, 0, 59, 95
2, 267360, Note_on_c, 0, 54, 95
2, 267840, Note_off_c, 0, 66, 95
2, 267840, Note_off_c, 0, 62, 95
2, 267840, Note_off_c, 0, 59, 95
2, 267840, Note_off_c, 0, 54, 95
2, 267840, Note_on_c, 0, 62, 95
2, 267840, Note_on_c, 0, 59, 95
2, 267840, Note_on_c, 0, 54, 95
2, 267840, Note_on_c, 0, 50, 95
2, 268320, Note_off_c, 0, 62, 95
2, 268320, Note_off_c, 0, 59, 95
2, 268320, Note_off_c, 0, 54, 95
2, 268320, Note_off_c, 0, 50, 95
2, 268320, Note_on_c, 0, 62, 95
2, 268320, Note_on_c, 0, 59, 95
2, 268320, Note_on_c, 0, 54, 95
2, 268320, Note_on_c, 0, 50, 95
2, 268800, Note_off_c, 0, 62, 95
2, 268800, Note_off_c, 0, 59, 95
2, 268800, Note_off_c, 0, 54, 95
2, 268800, Note_off_c, 0, 50, 95
2, 268800, Note_on_c, 0, 67, 95
2, 268800, Note_on_c, 0, 59, 95
2, 268800, Note_on_c, 0, 55, 95
2, 268800, Note_on_c, 0, 50, 95
2, 269760, Note_off_c, 0, 67, 95
2, 269760, Note_off_c, 0, 59, 95
2, 269760, Note_off_c, 0, 55, 95
2, 269760, Note_off_c, 0, 50, 95
2, 269760, Note_on_c, 0, 67, 95
2, 269760, Note_on_c, 0, 59, 95
2, 269760, Note_on_c, 0, 55, 95
2, 269760, Note_on_c, 0, 50, 95
2, 270480, Note_off_c, 0, 67, 95
2, 270480, Note_off_c, 0, 59, 95
2, 270480, Note_off_c, 0, 55, 95
2, 270480, Note_off_c, 0, 50, 95
2, 270480, Note_on_c, 0, 67, 95
2, 270480, Note_on_c, 0, 59, 95
2, 270480, Note_on_c, 0, 55, 95
2, 270480, Note_on_c, 0, 50, 95
2, 270720, Note_off_c, 0, 67, 95
2, 270720, Note_off_c, 0, 59, 95
2, 270720, Note_off_c, 0, 55, 95
2, 270720, Note_off_c, 0, 50, 95
2, 270720, Note_on_c, 0, 60, 95
2, 270720, Note_on_c, 0, 55, 95
2, 270720, Note_on_c, 0, 50, 95
2, 271200, Note_off_c, 0, 60, 95
2, 271200, Note_off_c, 0, 55, 95
2, 271200, Note_off_c, 0, 50, 95
2, 271200, Note_on_c, 0, 60, 95
2, 271200, Note_on_c, 0, 55, 95
2, 271200, Note_on_c, 0, 50, 95
2, 271680, Note_off_c, 0, 60, 95
2, 271680, Note_off_c, 0, 55, 95
2, 271680, Note_off_c, 0, 50, 95
2, 271680, Note_on_c, 0, 59, 95
2, 271680, Note_on_c, 0, 55, 95
2, 271680, Note_on_c, 0, 50, 95
2, 272160, Note_off_c, 0, 59, 95
2, 272160, Note_off_c, 0, 55, 95
2, 272160, Note_off_c, 0, 50, 95
2, 272160, Note_on_c, 0, 60, 95
2, 272160, Note_on_c, 0, 57, 95
2, 272160, Note_on_c, 0, 50, 95
2, 272640, Note_off_c, 0, 60, 95
2, 272640, Note_off_c, 0, 57, 95
2, 272640, Note_off_c, 0, 50, 95
2, 272640, Note_on_c, 0, 60, 95
2, 272640, Note_on_c, 0, 57, 95
2, 272640, Note_on_c, 0, 52, 95
2, 272640, Note_on_c, 0, 48, 95
2, 273600, Note_off_c, 0, 60, 95
2, 273600, Note_off_c, 0, 57, 95
2, 273600, Note_off_c, 0, 52, 95
2, 273600, Note_off_c, 0, 48, 95
2, 273600, Note_on_c, 0, 64, 95
2, 273600, Note_on_c, 0, 60, 95
2, 273600, Note_on_c, 0, 57, 95
2, 273600, Note_on_c, 0, 52, 95
2, 274560, Note_off_c, 0, 64, 95
2, 274560, Note_off_c, 0, 60, 95
2, 274560, Note_off_c, 0, 57, 95
2, 274560, Note_off_c, 0, 52, 95
2, 274560, Note_on_c, 0, 64, 95
2, 274560, Note_on_c, 0, 60, 95
2, 274560, Note_on_c, 0, 57, 95
2, 274560, Note_on_c, 0, 52, 95
2, 275520, Note_off_c, 0, 64, 95
2, 275520, Note_off_c, 0, 60, 95
2, 275520, Note_off_c, 0, 57, 95
2, 275520, Note_off_c, 0, 52, 95
2, 275520, Note_on_c, 0, 60, 95
2, 275520, Note_on_c, 0, 57, 95
2, 275520, Note_on_c, 0, 52, 95
2, 275520, Note_on_c, 0, 48, 95
2, 276480, Note_off_c, 0, 60, 95
2, 276480, Note_off_c, 0, 57, 95
2, 276480, Note_off_c, 0, 52, 95
2, 276480, Note_off_c, 0, 48, 95
2, 276480, Note_on_c, 0, 64, 95
2, 276480, Note_on_c, 0, 60, 95
2, 276480, Note_on_c, 0, 55, 95
2, 276480, Note_on_c, 0, 52, 95
2, 276960, Note_off_c, 0, 64, 95
2, 276960, Note_off_c, 0, 60, 95
2, 276960, Note_off_c, 0, 55, 95
2, 276960, Note_off_c, 0, 52, 95
2, 276960, Note_on_c, 0, 48, 95
2, 277440, Note_off_c, 0, 48, 95
2, 277440, Note_on_c, 0, 60, 95
2, 277440, Note_on_c, 0, 55, 95
2, 277440, Note_on_c, 0, 52, 95
2, 277440, Note_on_c, 0, 48, 95
2, 277440, Note_on_c, 0, 43, 95
2, 278160, Note_off_c, 0, 60, 95
2, 278160, Note_off_c, 0, 55, 95
2, 278160, Note_off_c, 0, 52, 95
2, 278160, Note_off_c, 0, 48, 95
2, 278160, Note_off_c, 0, 43, 95
2, 278160, Note_on_c, 0, 55, 95
2, 278160, Note_on_c, 0, 52, 95
2, 278160, Note_on_c, 0, 48, 95
2, 278400, Note_off_c, 0, 55, 95
2, 278400, Note_off_c, 0, 52, 95
2, 278400, Note_off_c, 0, 48, 95
2, 278400, Note_on_c, 0, 55, 95
2, 278400, Note_on_c, 0, 52, 95
2, 278400, Note_on_c, 0, 48, 95
2, 278400, Note_on_c, 0, 43, 95
2, 278880, Note_off_c, 0, 55, 95
2, 278880, Note_off_c, 0, 52, 95
2, 278880, Note_off_c, 0, 48, 95
2, 278880, Note_off_c, 0, 43, 95
2, 278880, Note_on_c, 0, 60, 95
2, 278880, Note_on_c, 0, 55, 95
2, 278880, Note_on_c, 0, 52, 95
2, 278880, Note_on_c, 0, 48, 95
2, 279360, Note_off_c, 0, 60, 95
2, 279360, Note_off_c, 0, 55, 95
2, 279360, Note_off_c, 0, 52, 95
2, 279360, Note_off_c, 0, 48, 95
2, 279360, Note_on_c, 0, 55, 95
2, 279360, Note_on_c, 0, 50, 95
2, 279360, Note_on_c, 0, 45, 95
2, 279840, Note_off_c, 0, 55, 95
2, 279840, Note_off_c, 0, 50, 95
2, 279840, Note_off_c, 0, 45, 95
2, 279840, Note_on_c, 0, 57, 95
2, 279840, Note_on_c, 0, 54, 95
2, 279840, Note_on_c, 0, 50, 95
2, 279840, Note_on_c, 0, 45, 95
2, 280320, Note_off_c, 0, 57, 95
2, 280320, Note_off_c, 0, 54, 95
2, 280320, Note_off_c, 0, 50, 95
2, 280320, Note_off_c, 0, 45, 95
2, 280320, Note_on_c, 0, 67, 95
2, 280320, Note_on_c, 0, 59, 95
2, 280320, Note_on_c, 0, 55, 95
2, 280320, Note_on_c, 0, 50, 95
2, 280320, Note_on_c, 0, 47, 95
2, 281280, Note_off_c, 0, 67, 95
2, 281280, Note_off_c, 0, 59, 95
2, 281280, Note_off_c, 0, 55, 95
2, 281280, Note_off_c, 0, 50, 95
2, 281280, Note_off_c, 0, 47, 95
2, 281280, Note_on_c, 0, 59, 95
2, 281280, Note_on_c, 0, 55, 95
2, 281280, Note_on_c, 0, 50, 95
2, 281280, Note_on_c, 0, 47, 95
2, 282240, Note_off_c, 0, 59, 95
2, 282240, Note_off_c, 0, 55, 95
2, 282240, Note_off_c, 0, 50, 95
2, 282240, Note_off_c, 0, 47, 95
2, 282240, Note_on_c, 0, 67, 95
2, 282240, Note_on_c, 0, 59, 95
2, 282240, Note_on_c, 0, 55, 95
2, 282240, Note_on_c, 0, 50, 95
2, 282720, Note_off_c, 0, 67, 95
2, 282720, Note_off_c, 0, 59, 95
2, 282720, Note_off_c, 0, 55, 95
2, 282720, Note_off_c, 0, 50, 95
2, 282720, Note_on_c, 0, 67, 95
2, 282720, Note_on_c, 0, 59, 95
2, 282720, Note_on_c, 0, 55, 95
2, 282720, Note_on_c, 0, 50, 95
2, 283200, Note_off_c, 0, 67, 95
2, 283200, Note_off_c, 0, 59, 95
2, 283200, Note_off_c, 0, 55, 95
2, 283200, Note_off_c, 0, 50, 95
2, 283200, Note_on_c, 0, 59, 95
2, 283200, Note_on_c, 0, 55, 95
2, 283200, Note_on_c, 0, 50, 95
2, 283200, Note_on_c, 0, 48, 95
2, 283680, Note_off_c, 0, 59, 95
2, 283680, Note_off_c, 0, 55, 95
2, 283680, Note_off_c, 0, 50, 95
2, 283680, Note_off_c, 0, 48, 95
2, 283680, Note_on_c, 0, 59, 95
2, 283680, Note_on_c, 0, 55, 95
2, 283680, Note_on_c, 0, 50, 95
2, 283680, Note_on_c, 0, 48, 95
2, 284160, Note_off_c, 0, 59, 95
2, 284160, Note_off_c, 0, 55, 95
2, 284160, Note_off_c, 0, 50, 95
2, 284160, Note_off_c, 0, 48, 95
2, 284160, Note_on_c, 0, 62, 95
2, 284160, Note_on_c, 0, 57, 95
2, 284160, Note_on_c, 0, 54, 95
2, 284160, Note_on_c, 0, 50, 95
2, 284160, Note_on_c, 0, 45, 95
2, 285120, Note_off_c, 0, 62, 95
2, 285120, Note_off_c, 0, 57, 95
2, 285120, Note_off_c, 0, 54, 95
2, 285120, Note_off_c, 0, 50, 95
2, 285120, Note_off_c, 0, 45, 95
2, 285120, Note_on_c, 0, 57, 95
2, 285120, Note_on_c, 0, 54, 95
2, 285120, Note_on_c, 0, 50, 95
2, 285120, Note_on_c, 0, 45, 95
2, 286080, Note_off_c, 0, 57, 95
2, 286080, Note_off_c, 0, 54, 95
2, 286080, Note_off_c, 0, 50, 95
2, 286080, Note_off_c, 0, 45, 95
2, 286080, Note_on_c, 0, 57, 95
2, 286080, Note_on_c, 0, 54, 95
2, 286080, Note_on_c, 0, 50, 95
2, 286080, Note_on_c, 0, 45, 95
2, 286560, Note_off_c, 0, 57, 95
2, 286560, Note_off_c, 0, 54, 95
2, 286560, Note_off_c, 0, 50, 95
2, 286560, Note_off_c, 0, 45, 95
2, 286560, Note_on_c, 0, 57, 95
2, 286560, Note_on_c, 0, 54, 95
2, 286560, Note_on_c, 0, 50, 95
2, 286560, Note_on_c, 0, 45, 95
2, 287040, Note_off_c, 0, 57, 95
2, 287040, Note_off_c, 0, 54, 95
2, 287040, Note_off_c, 0, 50, 95
2, 287040, Note_off_c, 0, 45, 95
2, 287040, Note_on_c, 0, 62, 95
2, 287040, Note_on_c, 0, 57, 95
2, 287040, Note_on_c, 0, 54, 95
2, 287040, Note_on_c, 0, 50, 95
2, 287520, Note_off_c, 0, 62, 95
2, 287520, Note_off_c, 0, 57, 95
2, 287520, Note_off_c, 0, 54, 95
2, 287520, Note_off_c, 0, 50, 95
2, 287520, Note_on_c, 0, 59, 95
2, 287520, Note_on_c, 0, 55, 95
2, 287520, Note_on_c, 0, 50, 95
2, 288000, Note_off_c, 0, 59, 95
2, 288000, Note_off_c, 0, 55, 95
2, 288000, Note_off_c, 0, 50, 95
2, 288000, Note_on_c, 0, 64, 95
2, 288000, Note_on_c, 0, 60, 95
2, 288000, Note_on_c, 0, 57, 95
2, 288000, Note_on_c, 0, 52, 95
2, 288960, Note_off_c, 0, 64, 95
2, 288960, Note_off_c, 0, 60, 95
2, 288960, Note_off_c, 0, 57, 95
2, 288960, Note_off_c, 0, 52, 95
2, 288960, Note_on_c, 0, 64, 95
2, 288960, Note_on_c, 0, 60, 95
2, 288960, Note_on_c, 0, 57, 95
2, 288960, Note_on_c, 0, 52, 95
2, 289920, Note_off_c, 0, 64, 95
2, 289920, Note_off_c, 0, 60, 95
2, 289920, Note_off_c, 0, 57, 95
2, 289920, Note_off_c, 0, 52, 95
2, 289920, Note_on_c, 0, 60, 95
2, 289920, Note_on_c, 0, 55, 95
2, 289920, Note_on_c, 0, 52, 95
2, 289920, Note_on_c, 0, 48, 95
2, 290880, Note_off_c, 0, 60, 95
2, 290880, Note_off_c, 0, 55, 95
2, 290880, Note_off_c, 0, 52, 95
2, 290880, Note_off_c, 0, 48, 95
2, 290880, Note_on_c, 0, 60, 95
2, 290880, Note_on_c, 0, 55, 95
2, 290880, Note_on_c, 0, 52, 95
2, 290880, Note_on_c, 0, 48, 95
2, 291840, Note_off_c, 0, 60, 95
2, 291840, Note_off_c, 0, 55, 95
2, 291840, Note_off_c, 0, 52, 95
2, 291840, Note_off_c, 0, 48, 95
2, 291840, Note_on_c, 0, 60, 95
2, 291840, Note_on_c, 0, 55, 95
2, 291840, Note_on_c, 0, 52, 95
2, 291840, Note_on_c, 0, 48, 95
2, 292800, Note_off_c, 0, 60, 95
2, 292800, Note_off_c, 0, 55, 95
2, 292800, Note_off_c, 0, 52, 95
2, 292800, Note_off_c, 0, 48, 95
2, 292800, Note_on_c, 0, 55, 95
2, 292800, Note_on_c, 0, 52, 95
2, 292800, Note_on_c, 0, 48, 95
2, 293760, Note_off_c, 0, 55, 95
2, 293760, Note_off_c, 0, 52, 95
2, 293760, Note_off_c, 0, 48, 95
2, 293760, Note_on_c, 0, 60, 95
2, 293760, Note_on_c, 0, 55, 95
2, 293760, Note_on_c, 0, 52, 95
2, 293760, Note_on_c, 0, 48, 95
2, 293760, Note_on_c, 0, 43, 95
2, 294240, Note_off_c, 0, 60, 95
2, 294240, Note_off_c, 0, 55, 95
2, 294240, Note_off_c, 0, 52, 95
2, 294240, Note_off_c, 0, 48, 95
2, 294240, Note_off_c, 0, 43, 95
2, 294240, Note_on_c, 0, 60, 95
2, 294240, Note_on_c, 0, 55, 95
2, 294240, Note_on_c, 0, 52, 95
2, 294240, Note_on_c, 0, 48, 95
2, 294240, Note_on_c, 0, 43, 95
2, 294720, Note_off_c, 0, 60, 95
2, 294720, Note_off_c, 0, 55, 95
2, 294720, Note_off_c, 0, 52, 95
2, 294720, Note_off_c, 0, 48, 95
2, 294720, Note_off_c, 0, 43, 95
2, 294720, Note_on_c, 0, 62, 95
2, 294720, Note_on_c, 0, 57, 95
2, 294720, Note_on_c, 0, 54, 95
2, 294720, Note_on_c, 0, 50, 95
2, 295200, Note_off_c, 0, 62, 95
2, 295200, Note_off_c, 0, 57, 95
2, 295200, Note_off_c, 0, 54, 95
2, 295200, Note_off_c, 0, 50, 95
2, 295200, Note_on_c, 0, 62, 95
2, 295200, Note_on_c, 0, 57, 95
2, 295200, Note_on_c, 0, 54, 95
2, 295200, Note_on_c, 0, 50, 95
2, 295680, Note_off_c, 0, 62, 95
2, 295680, Note_off_c, 0, 57, 95
2, 295680, Note_off_c, 0, 54, 95
2, 295680, Note_off_c, 0, 50, 95
2, 295680, Note_on_c, 0, 67, 95
2, 295680, Note_on_c, 0, 59, 95
2, 295680, Note_on_c, 0, 55, 95
2, 295680, Note_on_c, 0, 50, 95
2, 295680, Note_on_c, 0, 47, 95
2, 296640, Note_off_c, 0, 67, 95
2, 296640, Note_off_c, 0, 59, 95
2, 296640, Note_off_c, 0, 55, 95
2, 296640, Note_off_c, 0, 50, 95
2, 296640, Note_off_c, 0, 47, 95
2, 296640, Note_on_c, 0, 59, 95
2, 296640, Note_on_c, 0, 55, 95
2, 296640, Note_on_c, 0, 50, 95
2, 296640, Note_on_c, 0, 47, 95
2, 297600, Note_off_c, 0, 59, 95
2, 297600, Note_off_c, 0, 55, 95
2, 297600, Note_off_c, 0, 50, 95
2, 297600, Note_off_c, 0, 47, 95
2, 297600, Note_on_c, 0, 65, 95
2, 297600, Note_on_c, 0, 60, 95
2, 297600, Note_on_c, 0, 57, 95
2, 297600, Note_on_c, 0, 53, 95
2, 297600, Note_on_c, 0, 48, 95
2, 298560, Note_off_c, 0, 65, 95
2, 298560, Note_off_c, 0, 60, 95
2, 298560, Note_off_c, 0, 57, 95
2, 298560, Note_off_c, 0, 53, 95
2, 298560, Note_off_c, 0, 48, 95
2, 298560, Note_on_c, 0, 60, 95
2, 298560, Note_on_c, 0, 57, 95
2, 298560, Note_on_c, 0, 53, 95
2, 298560, Note_on_c, 0, 48, 95
2, 299520, Note_off_c, 0, 60, 95
2, 299520, Note_off_c, 0, 57, 95
2, 299520, Note_off_c, 0, 53, 95
2, 299520, Note_off_c, 0, 48, 95
2, 299520, Note_on_c, 0, 60, 95
2, 299520, Note_on_c, 0, 55, 95
2, 299520, Note_on_c, 0, 52, 95
2, 299520, Note_on_c, 0, 48, 95
2, 299520, Note_on_c, 0, 43, 95
2, 300480, Note_off_c, 0, 60, 95
2, 300480, Note_off_c, 0, 55, 95
2, 300480, Note_off_c, 0, 52, 95
2, 300480, Note_off_c, 0, 48, 95
2, 300480, Note_off_c, 0, 43, 95
2, 300480, Note_on_c, 0, 55, 95
2, 300480, Note_on_c, 0, 52, 95
2, 300480, Note_on_c, 0, 48, 95
2, 300480, Note_on_c, 0, 43, 95
2, 301440, Note_off_c, 0, 55, 95
2, 301440, Note_off_c, 0, 52, 95
2, 301440, Note_off_c, 0, 48, 95
2, 301440, Note_off_c, 0, 43, 95
2, 301440, Note_on_c, 0, 60, 95
2, 301440, Note_on_c, 0, 55, 95
2, 301440, Note_on_c, 0, 52, 95
2, 301440, Note_on_c, 0, 48, 95
2, 301440, Note_on_c, 0, 43, 95
2, 301920, Note_off_c, 0, 60, 95
2, 301920, Note_off_c, 0, 55, 95
2, 301920, Note_off_c, 0, 52, 95
2, 301920, Note_off_c, 0, 48, 95
2, 301920, Note_off_c, 0, 43, 95
2, 301920, Note_on_c, 0, 64, 95
2, 301920, Note_on_c, 0, 60, 95
2, 301920, Note_on_c, 0, 55, 95
2, 301920, Note_on_c, 0, 52, 95
2, 301920, Note_on_c, 0, 48, 95
2, 302400, Note_off_c, 0, 64, 95
2, 302400, Note_off_c, 0, 60, 95
2, 302400, Note_off_c, 0, 55, 95
2, 302400, Note_off_c, 0, 52, 95
2, 302400, Note_off_c, 0, 48, 95
2, 302400, Note_on_c, 0, 66, 95
2, 302400, Note_on_c, 0, 62, 95
2, 302400, Note_on_c, 0, 59, 95
2, 302400, Note_on_c, 0, 54, 95
2, 302640, Note_off_c, 0, 66, 95
2, 302640, Note_off_c, 0, 62, 95
2, 302640, Note_off_c, 0, 59, 95
2, 302640, Note_off_c, 0, 54, 95
2, 302640, Note_on_c, 0, 66, 95
2, 302640, Note_on_c, 0, 62, 95
2, 302640, Note_on_c, 0, 59, 95
2, 302880, Note_off_c, 0, 66, 95
2, 302880, Note_off_c, 0, 62, 95
2, 302880, Note_off_c, 0, 59, 95
2, 302880, Note_on_c, 0, 66, 95
2, 302880, Note_on_c, 0, 62, 95
2, 302880, Note_on_c, 0, 59, 95
2, 302880, Note_on_c, 0, 54, 95
2, 303360, Note_off_c, 0, 66, 95
2, 303360, Note_off_c, 0, 62, 95
2, 303360, Note_off_c, 0, 59, 95
2, 303360, Note_off_c, 0, 54, 95
2, 303360, Note_on_c, 0, 64, 95
2, 303360, Note_on_c, 0, 60, 95
2, 303360, Note_on_c, 0, 57, 95
2, 303360, Note_on_c, 0, 52, 95
2, 304320, Note_off_c, 0, 64, 95
2, 304320, Note_off_c, 0, 60, 95
2, 304320, Note_off_c, 0, 57, 95
2, 304320, Note_off_c, 0, 52, 95
2, 304320, Note_on_c, 0, 64, 95
2, 304320, Note_on_c, 0, 60, 95
2, 304320, Note_on_c, 0, 57, 95
2, 304320, Note_on_c, 0, 52, 95
2, 305280, Note_off_c, 0, 64, 95
2, 305280, Note_off_c, 0, 60, 95
2, 305280, Note_off_c, 0, 57, 95
2, 305280, Note_off_c, 0, 52, 95
2, 305280, Note_on_c, 0, 60, 95
2, 305280, Note_on_c, 0, 55, 95
2, 305280, Note_on_c, 0, 52, 95
2, 305280, Note_on_c, 0, 48, 95
2, 306240, Note_off_c, 0, 60, 95
2, 306240, Note_off_c, 0, 55, 95
2, 306240, Note_off_c, 0, 52, 95
2, 306240, Note_off_c, 0, 48, 95
2, 306240, Note_on_c, 0, 60, 95
2, 306240, Note_on_c, 0, 55, 95
2, 306240, Note_on_c, 0, 52, 95
2, 306240, Note_on_c, 0, 48, 95
2, 307200, Note_off_c, 0, 60, 95
2, 307200, Note_off_c, 0, 55, 95
2, 307200, Note_off_c, 0, 52, 95
2, 307200, Note_off_c, 0, 48, 95
2, 307200, Note_on_c, 0, 64, 95
2, 307200, Note_on_c, 0, 60, 95
2, 307200, Note_on_c, 0, 55, 95
2, 307200, Note_on_c, 0, 52, 95
2, 307200, Note_on_c, 0, 48, 95
2, 308160, Note_off_c, 0, 64, 95
2, 308160, Note_off_c, 0, 60, 95
2, 308160, Note_off_c, 0, 55, 95
2, 308160, Note_off_c, 0, 52, 95
2, 308160, Note_off_c, 0, 48, 95
2, 308160, Note_on_c, 0, 60, 95
2, 308160, Note_on_c, 0, 55, 95
2, 308160, Note_on_c, 0, 52, 95
2, 308160, Note_on_c, 0, 48, 95
2, 308160, Note_on_c, 0, 43, 95
2, 309120, Note_off_c, 0, 60, 95
2, 309120, Note_off_c, 0, 55, 95
2, 309120, Note_off_c, 0, 52, 95
2, 309120, Note_off_c, 0, 48, 95
2, 309120, Note_off_c, 0, 43, 95
2, 309120, Note_on_c, 0, 60, 95
2, 309120, Note_on_c, 0, 55, 95
2, 309120, Note_on_c, 0, 52, 95
2, 309120, Note_on_c, 0, 48, 95
2, 309600, Note_off_c, 0, 60, 95
2, 309600, Note_off_c, 0, 55, 95
2, 309600, Note_off_c, 0, 52, 95
2, 309600, Note_off_c, 0, 48, 95
2, 309600, Note_on_c, 0, 64, 95
2, 309600, Note_on_c, 0, 60, 95
2, 309600, Note_on_c, 0, 55, 95
2, 309600, Note_on_c, 0, 52, 95
2, 310080, Note_off_c, 0, 64, 95
2, 310080, Note_off_c, 0, 60, 95
2, 310080, Note_off_c, 0, 55, 95
2, 310080, Note_off_c, 0, 52, 95
2, 310080, Note_on_c, 0, 62, 95
2, 310080, Note_on_c, 0, 57, 95
2, 310080, Note_on_c, 0, 54, 95
2, 310080, Note_on_c, 0, 50, 95
2, 310320, Note_off_c, 0, 62, 95
2, 310320, Note_off_c, 0, 57, 95
2, 310320, Note_off_c, 0, 54, 95
2, 310320, Note_off_c, 0, 50, 95
2, 310320, Note_on_c, 0, 62, 95
2, 310320, Note_on_c, 0, 57, 95
2, 310320, Note_on_c, 0, 54, 95
2, 310560, Note_off_c, 0, 62, 95
2, 310560, Note_off_c, 0, 57, 95
2, 310560, Note_off_c, 0, 54, 95
2, 310560, Note_on_c, 0, 62, 95
2, 310560, Note_on_c, 0, 57, 95
2, 310560, Note_on_c, 0, 54, 95
2, 310560, Note_on_c, 0, 50, 95
2, 311040, Note_off_c, 0, 62, 95
2, 311040, Note_off_c, 0, 57, 95
2, 311040, Note_off_c, 0, 54, 95
2, 311040, Note_off_c, 0, 50, 95
2, 311040, Note_on_c, 0, 67, 95
2, 311040, Note_on_c, 0, 59, 95
2, 311040, Note_on_c, 0, 55, 95
2, 311040, Note_on_c, 0, 50, 95
2, 311040, Note_on_c, 0, 47, 95
2, 312000, Note_off_c, 0, 67, 95
2, 312000, Note_off_c, 0, 59, 95
2, 312000, Note_off_c, 0, 55, 95
2, 312000, Note_off_c, 0, 50, 95
2, 312000, Note_off_c, 0, 47, 95
2, 312000, Note_on_c, 0, 59, 95
2, 312000, Note_on_c, 0, 55, 95
2, 312000, Note_on_c, 0, 50, 95
2, 312000, Note_on_c, 0, 47, 95
2, 312960, Note_off_c, 0, 59, 95
2, 312960, Note_off_c, 0, 55, 95
2, 312960, Note_off_c, 0, 50, 95
2, 312960, Note_off_c, 0, 47, 95
2, 312960, Note_on_c, 0, 65, 95
2, 312960, Note_on_c, 0, 60, 95
2, 312960, Note_on_c, 0, 57, 95
2, 312960, Note_on_c, 0, 53, 95
2, 312960, Note_on_c, 0, 48, 95
2, 313920, Note_off_c, 0, 65, 95
2, 313920, Note_off_c, 0, 60, 95
2, 313920, Note_off_c, 0, 57, 95
2, 313920, Note_off_c, 0, 53, 95
2, 313920, Note_off_c, 0, 48, 95
2, 313920, Note_on_c, 0, 60, 95
2, 313920, Note_on_c, 0, 57, 95
2, 313920, Note_on_c, 0, 53, 95
2, 313920, Note_on_c, 0, 48, 95
2, 314880, Note_off_c, 0, 60, 95
2, 314880, Note_off_c, 0, 57, 95
2, 314880, Note_off_c, 0, 53, 95
2, 314880, Note_off_c, 0, 48, 95
2, 314880, Note_on_c, 0, 65, 95
2, 314880, Note_on_c, 0, 60, 95
2, 314880, Note_on_c, 0, 55, 95
2, 314880, Note_on_c, 0, 52, 95
2, 314880, Note_on_c, 0, 48, 95
2, 316800, Note_off_c, 0, 65, 95
2, 316800, Note_off_c, 0, 60, 95
2, 316800, Note_off_c, 0, 55, 95
2, 316800, Note_off_c, 0, 52, 95
2, 316800, Note_off_c, 0, 48, 95
2, 316800, Note_on_c, 0, 64, 95
2, 316800, Note_on_c, 0, 60, 95
2, 316800, Note_on_c, 0, 55, 95
2, 316800, Note_on_c, 0, 52, 95
2, 316800, Note_on_c, 0, 48, 95
2, 317760, Note_off_c, 0, 64, 95
2, 317760, Note_off_c, 0, 60, 95
2, 317760, Note_off_c, 0, 55, 95
2, 317760, Note_off_c, 0, 52, 95
2, 317760, Note_off_c, 0, 48, 95
2, 317760, Note_on_c, 0, 62, 95
2, 317760, Note_on_c, 0, 59, 95
2, 317760, Note_on_c, 0, 55, 95
2, 318240, Note_off_c, 0, 62, 95
2, 318240, Note_off_c, 0, 59, 95
2, 318240, Note_off_c, 0, 55, 95
2, 318240, Note_on_c, 0, 62, 95
2, 318240, Note_on_c, 0, 59, 95
2, 318240, Note_on_c, 0, 55, 95
2, 318720, Note_off_c, 0, 62, 95
2, 318720, Note_off_c, 0, 59, 95
2, 318720, Note_off_c, 0, 55, 95
2, 318720, Note_on_c, 0, 62, 95
2, 318720, Note_on_c, 0, 59, 95
2, 318720, Note_on_c, 0, 54, 95
2, 318720, Note_on_c, 0, 50, 95
2, 319680, Note_off_c, 0, 62, 95
2, 319680, Note_off_c, 0, 59, 95
2, 319680, Note_off_c, 0, 54, 95
2, 319680, Note_off_c, 0, 50, 95
2, 319680, Note_on_c, 0, 62, 95
2, 319680, Note_on_c, 0, 59, 95
2, 319680, Note_on_c, 0, 54, 95
2, 319680, Note_on_c, 0, 50, 95
2, 320640, Note_off_c, 0, 62, 95
2, 320640, Note_off_c, 0, 59, 95
2, 320640, Note_off_c, 0, 54, 95
2, 320640, Note_off_c, 0, 50, 95
2, 320640, Note_on_c, 0, 62, 95
2, 320640, Note_on_c, 0, 59, 95
2, 320640, Note_on_c, 0, 54, 95
2, 320640, Note_on_c, 0, 50, 95
2, 321120, Note_off_c, 0, 62, 95
2, 321120, Note_off_c, 0, 59, 95
2, 321120, Note_off_c, 0, 54, 95
2, 321120, Note_off_c, 0, 50, 95
2, 321120, Note_on_c, 0, 62, 95
2, 321120, Note_on_c, 0, 59, 95
2, 321120, Note_on_c, 0, 54, 95
2, 321120, Note_on_c, 0, 50, 95
2, 321600, Note_off_c, 0, 62, 95
2, 321600, Note_off_c, 0, 59, 95
2, 321600, Note_off_c, 0, 54, 95
2, 321600, Note_off_c, 0, 50, 95
2, 321600, Note_on_c, 0, 66, 95
2, 321600, Note_on_c, 0, 62, 95
2, 321600, Note_on_c, 0, 59, 95
2, 321600, Note_on_c, 0, 54, 95
2, 322080, Note_off_c, 0, 66, 95
2, 322080, Note_off_c, 0, 62, 95
2, 322080, Note_off_c, 0, 59, 95
2, 322080, Note_off_c, 0, 54, 95
2, 322080, Note_on_c, 0, 66, 95
2, 322080, Note_on_c, 0, 62, 95
2, 322080, Note_on_c, 0, 59, 95
2, 322080, Note_on_c, 0, 54, 95
2, 322560, Note_off_c, 0, 66, 95
2, 322560, Note_off_c, 0, 62, 95
2, 322560, Note_off_c, 0, 59, 95
2, 322560, Note_off_c, 0, 54, 95
2, 322560, Note_on_c, 0, 67, 95
2, 322560, Note_on_c, 0, 59, 95
2, 322560, Note_on_c, 0, 55, 95
2, 322560, Note_on_c, 0, 50, 95
2, 323520, Note_off_c, 0, 67, 95
2, 323520, Note_off_c, 0, 59, 95
2, 323520, Note_off_c, 0, 55, 95
2, 323520, Note_off_c, 0, 50, 95
2, 323520, Note_on_c, 0, 67, 95
2, 323520, Note_on_c, 0, 59, 95
2, 323520, Note_on_c, 0, 55, 95
2, 323520, Note_on_c, 0, 50, 95
2, 324240, Note_off_c, 0, 67, 95
2, 324240, Note_off_c, 0, 59, 95
2, 324240, Note_off_c, 0, 55, 95
2, 324240, Note_off_c, 0, 50, 95
2, 324240, Note_on_c, 0, 67, 95
2, 324240, Note_on_c, 0, 59, 95
2, 324240, Note_on_c, 0, 55, 95
2, 324240, Note_on_c, 0, 50, 95
2, 324480, Note_off_c, 0, 67, 95
2, 324480, Note_off_c, 0, 59, 95
2, 324480, Note_off_c, 0, 55, 95
2, 324480, Note_off_c, 0, 50, 95
2, 324480, Note_on_c, 0, 67, 95
2, 324480, Note_on_c, 0, 60, 95
2, 324480, Note_on_c, 0, 55, 95
2, 324480, Note_on_c, 0, 50, 95
2, 324960, Note_off_c, 0, 67, 95
2, 324960, Note_off_c, 0, 60, 95
2, 324960, Note_off_c, 0, 55, 95
2, 324960, Note_off_c, 0, 50, 95
2, 324960, Note_on_c, 0, 59, 95
2, 324960, Note_on_c, 0, 55, 95
2, 324960, Note_on_c, 0, 50, 95
2, 325440, Note_off_c, 0, 59, 95
2, 325440, Note_off_c, 0, 55, 95
2, 325440, Note_off_c, 0, 50, 95
2, 325440, Note_on_c, 0, 57, 95
2, 325440, Note_on_c, 0, 50, 95
2, 325440, Note_on_c, 0, 47, 95
2, 325920, Note_off_c, 0, 57, 95
2, 325920, Note_off_c, 0, 50, 95
2, 325920, Note_off_c, 0, 47, 95
2, 325920, Note_on_c, 0, 55, 95
2, 325920, Note_on_c, 0, 50, 95
2, 325920, Note_on_c, 0, 47, 95
2, 326400, Note_off_c, 0, 55, 95
2, 326400, Note_off_c, 0, 50, 95
2, 326400, Note_off_c, 0, 47, 95
2, 326400, Note_on_c, 0, 62, 95
2, 326400, Note_on_c, 0, 59, 95
2, 326400, Note_on_c, 0, 54, 95
2, 326400, Note_on_c, 0, 50, 95
2, 327360, Note_off_c, 0, 62, 95
2, 327360, Note_off_c, 0, 59, 95
2, 327360, Note_off_c, 0, 54, 95
2, 327360, Note_off_c, 0, 50, 95
2, 327360, Note_on_c, 0, 66, 95
2, 327360, Note_on_c, 0, 62, 95
2, 327360, Note_on_c, 0, 59, 95
2, 327360, Note_on_c, 0, 54, 95
2, 328080, Note_off_c, 0, 66, 95
2, 328080, Note_off_c, 0, 62, 95
2, 328080, Note_off_c, 0, 59, 95
2, 328080, Note_off_c, 0, 54, 95
2, 328080, Note_on_c, 0, 66, 95
2, 328080, Note_on_c, 0, 62, 95
2, 328080, Note_on_c, 0, 59, 95
2, 328080, Note_on_c, 0, 54, 95
2, 328320, Note_off_c, 0, 66, 95
2, 328320, Note_off_c, 0, 62, 95
2, 328320, Note_off_c, 0, 59, 95
2, 328320, Note_off_c, 0, 54, 95
2, 328320, Note_on_c, 0, 66, 95
2, 328320, Note_on_c, 0, 62, 95
2, 328320, Note_on_c, 0, 59, 95
2, 328320, Note_on_c, 0, 54, 95
2, 328800, Note_off_c, 0, 66, 95
2, 328800, Note_off_c, 0, 62, 95
2, 328800, Note_off_c, 0, 59, 95
2, 328800, Note_off_c, 0, 54, 95
2, 328800, Note_on_c, 0, 66, 95
2, 328800, Note_on_c, 0, 62, 95
2, 328800, Note_on_c, 0, 59, 95
2, 328800, Note_on_c, 0, 54, 95
2, 329280, Note_off_c, 0, 66, 95
2, 329280, Note_off_c, 0, 62, 95
2, 329280, Note_off_c, 0, 59, 95
2, 329280, Note_off_c, 0, 54, 95
2, 329280, Note_on_c, 0, 62, 95
2, 329280, Note_on_c, 0, 59, 95
2, 329280, Note_on_c, 0, 54, 95
2, 329280, Note_on_c, 0, 50, 95
2, 329760, Note_off_c, 0, 62, 95
2, 329760, Note_off_c, 0, 59, 95
2, 329760, Note_off_c, 0, 54, 95
2, 329760, Note_off_c, 0, 50, 95
2, 329760, Note_on_c, 0, 62, 95
2, 329760, Note_on_c, 0, 59, 95
2, 329760, Note_on_c, 0, 54, 95
2, 329760, Note_on_c, 0, 50, 95
2, 330240, Note_off_c, 0, 62, 95
2, 330240, Note_off_c, 0, 59, 95
2, 330240, Note_off_c, 0, 54, 95
2, 330240, Note_off_c, 0, 50, 95
2, 330240, Note_on_c, 0, 67, 95
2, 330240, Note_on_c, 0, 59, 95
2, 330240, Note_on_c, 0, 55, 95
2, 330240, Note_on_c, 0, 50, 95
2, 331200, Note_off_c, 0, 67, 95
2, 331200, Note_off_c, 0, 59, 95
2, 331200, Note_off_c, 0, 55, 95
2, 331200, Note_off_c, 0, 50, 95
2, 331200, Note_on_c, 0, 67, 95
2, 331200, Note_on_c, 0, 59, 95
2, 331200, Note_on_c, 0, 55, 95
2, 331200, Note_on_c, 0, 50, 95
2, 331920, Note_off_c, 0, 67, 95
2, 331920, Note_off_c, 0, 59, 95
2, 331920, Note_off_c, 0, 55, 95
2, 331920, Note_off_c, 0, 50, 95
2, 331920, Note_on_c, 0, 67, 95
2, 331920, Note_on_c, 0, 59, 95
2, 331920, Note_on_c, 0, 55, 95
2, 331920, Note_on_c, 0, 50, 95
2, 332160, Note_off_c, 0, 67, 95
2, 332160, Note_off_c, 0, 59, 95
2, 332160, Note_off_c, 0, 55, 95
2, 332160, Note_off_c, 0, 50, 95
2, 332160, Note_on_c, 0, 60, 95
2, 332160, Note_on_c, 0, 55, 95
2, 332160, Note_on_c, 0, 50, 95
2, 332640, Note_off_c, 0, 60, 95
2, 332640, Note_off_c, 0, 55, 95
2, 332640, Note_off_c, 0, 50, 95
2, 332640, Note_on_c, 0, 60, 95
2, 332640, Note_on_c, 0, 55, 95
2, 332640, Note_on_c, 0, 50, 95
2, 333120, Note_off_c, 0, 60, 95
2, 333120, Note_off_c, 0, 55, 95
2, 333120, Note_off_c, 0, 50, 95
2, 333120, Note_on_c, 0, 59, 95
2, 333120, Note_on_c, 0, 55, 95
2, 333120, Note_on_c, 0, 50, 95
2, 333600, Note_off_c, 0, 59, 95
2, 333600, Note_off_c, 0, 55, 95
2, 333600, Note_off_c, 0, 50, 95
2, 333600, Note_on_c, 0, 60, 95
2, 333600, Note_on_c, 0, 57, 95
2, 333600, Note_on_c, 0, 50, 95
2, 334080, Note_off_c, 0, 60, 95
2, 334080, Note_off_c, 0, 57, 95
2, 334080, Note_off_c, 0, 50, 95
2, 334080, Note_on_c, 0, 60, 95
2, 334080, Note_on_c, 0, 57, 95
2, 334080, Note_on_c, 0, 52, 95
2, 334080, Note_on_c, 0, 48, 95
2, 335040, Note_off_c, 0, 60, 95
2, 335040, Note_off_c, 0, 57, 95
2, 335040, Note_off_c, 0, 52, 95
2, 335040, Note_off_c, 0, 48, 95
2, 335040, Note_on_c, 0, 64, 95
2, 335040, Note_on_c, 0, 60, 95
2, 335040, Note_on_c, 0, 57, 95
2, 335040, Note_on_c, 0, 52, 95
2, 336000, Note_off_c, 0, 64, 95
2, 336000, Note_off_c, 0, 60, 95
2, 336000, Note_off_c, 0, 57, 95
2, 336000, Note_off_c, 0, 52, 95
2, 336000, Note_on_c, 0, 64, 95
2, 336000, Note_on_c, 0, 60, 95
2, 336000, Note_on_c, 0, 57, 95
2, 336000, Note_on_c, 0, 52, 95
2, 336960, Note_off_c, 0, 64, 95
2, 336960, Note_off_c, 0, 60, 95
2, 336960, Note_off_c, 0, 57, 95
2, 336960, Note_off_c, 0, 52, 95
2, 336960, Note_on_c, 0, 60, 95
2, 336960, Note_on_c, 0, 57, 95
2, 336960, Note_on_c, 0, 52, 95
2, 336960, Note_on_c, 0, 48, 95
2, 337920, Note_off_c, 0, 60, 95
2, 337920, Note_off_c, 0, 57, 95
2, 337920, Note_off_c, 0, 52, 95
2, 337920, Note_off_c, 0, 48, 95
2, 337920, Note_on_c, 0, 64, 95
2, 337920, Note_on_c, 0, 60, 95
2, 337920, Note_on_c, 0, 55, 95
2, 337920, Note_on_c, 0, 52, 95
2, 338400, Note_off_c, 0, 64, 95
2, 338400, Note_off_c, 0, 60, 95
2, 338400, Note_off_c, 0, 55, 95
2, 338400, Note_off_c, 0, 52, 95
2, 338400, Note_on_c, 0, 48, 95
2, 338880, Note_off_c, 0, 48, 95
2, 338880, Note_on_c, 0, 60, 95
2, 338880, Note_on_c, 0, 55, 95
2, 338880, Note_on_c, 0, 52, 95
2, 338880, Note_on_c, 0, 48, 95
2, 338880, Note_on_c, 0, 43, 95
2, 339600, Note_off_c, 0, 60, 95
2, 339600, Note_off_c, 0, 55, 95
2, 339600, Note_off_c, 0, 52, 95
2, 339600, Note_off_c, 0, 48, 95
2, 339600, Note_off_c, 0, 43, 95
2, 339600, Note_on_c, 0, 55, 95
2, 339600, Note_on_c, 0, 52, 95
2, 339600, Note_on_c, 0, 48, 95
2, 339840, Note_off_c, 0, 55, 95
2, 339840, Note_off_c, 0, 52, 95
2, 339840, Note_off_c, 0, 48, 95
2, 339840, Note_on_c, 0, 55, 95
2, 339840, Note_on_c, 0, 52, 95
2, 339840, Note_on_c, 0, 48, 95
2, 339840, Note_on_c, 0, 43, 95
2, 340320, Note_off_c, 0, 55, 95
2, 340320, Note_off_c, 0, 52, 95
2, 340320, Note_off_c, 0, 48, 95
2, 340320, Note_off_c, 0, 43, 95
2, 340320, Note_on_c, 0, 60, 95
2, 340320, Note_on_c, 0, 55, 95
2, 340320, Note_on_c, 0, 52, 95
2, 340320, Note_on_c, 0, 48, 95
2, 340800, Note_off_c, 0, 60, 95
2, 340800, Note_off_c, 0, 55, 95
2, 340800, Note_off_c, 0, 52, 95
2, 340800, Note_off_c, 0, 48, 95
2, 340800, Note_on_c, 0, 55, 95
2, 340800, Note_on_c, 0, 50, 95
2, 340800, Note_on_c, 0, 45, 95
2, 341280, Note_off_c, 0, 55, 95
2, 341280, Note_off_c, 0, 50, 95
2, 341280, Note_off_c, 0, 45, 95
2, 341280, Note_on_c, 0, 57, 95
2, 341280, Note_on_c, 0, 54, 95
2, 341280, Note_on_c, 0, 50, 95
2, 341280, Note_on_c, 0, 45, 95
2, 341760, Note_off_c, 0, 57, 95
2, 341760, Note_off_c, 0, 54, 95
2, 341760, Note_off_c, 0, 50, 95
2, 341760, Note_off_c, 0, 45, 95
2, 341760, Note_on_c, 0, 67, 95
2, 341760, Note_on_c, 0, 59, 95
2, 341760, Note_on_c, 0, 55, 95
2, 341760, Note_on_c, 0, 50, 95
2, 341760, Note_on_c, 0, 47, 95
2, 342720, Note_off_c, 0, 67, 95
2, 342720, Note_off_c, 0, 59, 95
2, 342720, Note_off_c, 0, 55, 95
2, 342720, Note_off_c, 0, 50, 95
2, 342720, Note_off_c, 0, 47, 95
2, 342720, Note_on_c, 0, 59, 95
2, 342720, Note_on_c, 0, 55, 95
2, 342720, Note_on_c, 0, 50, 95
2, 342720, Note_on_c, 0, 47, 95
2, 343680, Note_off_c, 0, 59, 95
2, 343680, Note_off_c, 0, 55, 95
2, 343680, Note_off_c, 0, 50, 95
2, 343680, Note_off_c, 0, 47, 95
2, 343680, Note_on_c, 0, 67, 95
2, 343680, Note_on_c, 0, 59, 95
2, 343680, Note_on_c, 0, 55, 95
2, 343680, Note_on_c, 0, 50, 95
2, 344160, Note_off_c, 0, 67, 95
2, 344160, Note_off_c, 0, 59, 95
2, 344160, Note_off_c, 0, 55, 95
2, 344160, Note_off_c, 0, 50, 95
2, 344160, Note_on_c, 0, 67, 95
2, 344160, Note_on_c, 0, 59, 95
2, 344160, Note_on_c, 0, 55, 95
2, 344160, Note_on_c, 0, 50, 95
2, 344640, Note_off_c, 0, 67, 95
2, 344640, Note_off_c, 0, 59, 95
2, 344640, Note_off_c, 0, 55, 95
2, 344640, Note_off_c, 0, 50, 95
2, 344640, Note_on_c, 0, 59, 95
2, 344640, Note_on_c, 0, 55, 95
2, 344640, Note_on_c, 0, 50, 95
2, 344640, Note_on_c, 0, 48, 95
2, 345120, Note_off_c, 0, 59, 95
2, 345120, Note_off_c, 0, 55, 95
2, 345120, Note_off_c, 0, 50, 95
2, 345120, Note_off_c, 0, 48, 95
2, 345120, Note_on_c, 0, 59, 95
2, 345120, Note_on_c, 0, 55, 95
2, 345120, Note_on_c, 0, 50, 95
2, 345120, Note_on_c, 0, 48, 95
2, 345600, Note_off_c, 0, 59, 95
2, 345600, Note_off_c, 0, 55, 95
2, 345600, Note_off_c, 0, 50, 95
2, 345600, Note_off_c, 0, 48, 95
2, 345600, Note_on_c, 0, 62, 95
2, 345600, Note_on_c, 0, 57, 95
2, 345600, Note_on_c, 0, 54, 95
2, 345600, Note_on_c, 0, 50, 95
2, 345600, Note_on_c, 0, 45, 95
2, 346560, Note_off_c, 0, 62, 95
2, 346560, Note_off_c, 0, 57, 95
2, 346560, Note_off_c, 0, 54, 95
2, 346560, Note_off_c, 0, 50, 95
2, 346560, Note_off_c, 0, 45, 95
2, 346560, Note_on_c, 0, 57, 95
2, 346560, Note_on_c, 0, 54, 95
2, 346560, Note_on_c, 0, 50, 95
2, 346560, Note_on_c, 0, 45, 95
2, 347520, Note_off_c, 0, 57, 95
2, 347520, Note_off_c, 0, 54, 95
2, 347520, Note_off_c, 0, 50, 95
2, 347520, Note_off_c, 0, 45, 95
2, 347520, Note_on_c, 0, 57, 95
2, 347520, Note_on_c, 0, 54, 95
2, 347520, Note_on_c, 0, 50, 95
2, 347520, Note_on_c, 0, 45, 95
2, 348000, Note_off_c, 0, 57, 95
2, 348000, Note_off_c, 0, 54, 95
2, 348000, Note_off_c, 0, 50, 95
2, 348000, Note_off_c, 0, 45, 95
2, 348000, Note_on_c, 0, 57, 95
2, 348000, Note_on_c, 0, 54, 95
2, 348000, Note_on_c, 0, 50, 95
2, 348000, Note_on_c, 0, 45, 95
2, 348480, Note_off_c, 0, 57, 95
2, 348480, Note_off_c, 0, 54, 95
2, 348480, Note_off_c, 0, 50, 95
2, 348480, Note_off_c, 0, 45, 95
2, 348480, Note_on_c, 0, 62, 95
2, 348480, Note_on_c, 0, 57, 95
2, 348480, Note_on_c, 0, 54, 95
2, 348480, Note_on_c, 0, 50, 95
2, 348960, Note_off_c, 0, 62, 95
2, 348960, Note_off_c, 0, 57, 95
2, 348960, Note_off_c, 0, 54, 95
2, 348960, Note_off_c, 0, 50, 95
2, 348960, Note_on_c, 0, 59, 95
2, 348960, Note_on_c, 0, 55, 95
2, 348960, Note_on_c, 0, 50, 95
2, 349440, Note_off_c, 0, 59, 95
2, 349440, Note_off_c, 0, 55, 95
2, 349440, Note_off_c, 0, 50, 95
2, 349440, Note_on_c, 0, 64, 95
2, 349440, Note_on_c, 0, 60, 95
2, 349440, Note_on_c, 0, 57, 95
2, 349440, Note_on_c, 0, 52, 95
2, 350400, Note_off_c, 0, 64, 95
2, 350400, Note_off_c, 0, 60, 95
2, 350400, Note_off_c, 0, 57, 95
2, 350400, Note_off_c, 0, 52, 95
2, 350400, Note_on_c, 0, 64, 95
2, 350400, Note_on_c, 0, 60, 95
2, 350400, Note_on_c, 0, 57, 95
2, 350400, Note_on_c, 0, 52, 95
2, 351360, Note_off_c, 0, 64, 95
2, 351360, Note_off_c, 0, 60, 95
2, 351360, Note_off_c, 0, 57, 95
2, 351360, Note_off_c, 0, 52, 95
2, 351360, Note_on_c, 0, 60, 95
2, 351360, Note_on_c, 0, 55, 95
2, 351360, Note_on_c, 0, 52, 95
2, 351360, Note_on_c, 0, 48, 95
2, 352320, Note_off_c, 0, 60, 95
2, 352320, Note_off_c, 0, 55, 95
2, 352320, Note_off_c, 0, 52, 95
2, 352320, Note_off_c, 0, 48, 95
2, 352320, Note_on_c, 0, 60, 95
2, 352320, Note_on_c, 0, 55, 95
2, 352320, Note_on_c, 0, 52, 95
2, 352320, Note_on_c, 0, 48, 95
2, 353280, Note_off_c, 0, 60, 95
2, 353280, Note_off_c, 0, 55, 95
2, 353280, Note_off_c, 0, 52, 95
2, 353280, Note_off_c, 0, 48, 95
2, 353280, Note_on_c, 0, 60, 95
2, 353280, Note_on_c, 0, 55, 95
2, 353280, Note_on_c, 0, 52, 95
2, 353280, Note_on_c, 0, 48, 95
2, 354240, Note_off_c, 0, 60, 95
2, 354240, Note_off_c, 0, 55, 95
2, 354240, Note_off_c, 0, 52, 95
2, 354240, Note_off_c, 0, 48, 95
2, 354240, Note_on_c, 0, 55, 95
2, 354240, Note_on_c, 0, 52, 95
2, 354240, Note_on_c, 0, 48, 95
2, 355200, Note_off_c, 0, 55, 95
2, 355200, Note_off_c, 0, 52, 95
2, 355200, Note_off_c, 0, 48, 95
2, 355200, Note_on_c, 0, 60, 95
2, 355200, Note_on_c, 0, 55, 95
2, 355200, Note_on_c, 0, 52, 95
2, 355200, Note_on_c, 0, 48, 95
2, 355200, Note_on_c, 0, 43, 95
2, 355680, Note_off_c, 0, 60, 95
2, 355680, Note_off_c, 0, 55, 95
2, 355680, Note_off_c, 0, 52, 95
2, 355680, Note_off_c, 0, 48, 95
2, 355680, Note_off_c, 0, 43, 95
2, 355680, Note_on_c, 0, 60, 95
2, 355680, Note_on_c, 0, 55, 95
2, 355680, Note_on_c, 0, 52, 95
2, 355680, Note_on_c, 0, 48, 95
2, 355680, Note_on_c, 0, 43, 95
2, 356160, Note_off_c, 0, 60, 95
2, 356160, Note_off_c, 0, 55, 95
2, 356160, Note_off_c, 0, 52, 95
2, 356160, Note_off_c, 0, 48, 95
2, 356160, Note_off_c, 0, 43, 95
2, 356160, Note_on_c, 0, 62, 95
2, 356160, Note_on_c, 0, 57, 95
2, 356160, Note_on_c, 0, 54, 95
2, 356160, Note_on_c, 0, 50, 95
2, 356640, Note_off_c, 0, 62, 95
2, 356640, Note_off_c, 0, 57, 95
2, 356640, Note_off_c, 0, 54, 95
2, 356640, Note_off_c, 0, 50, 95
2, 356640, Note_on_c, 0, 62, 95
2, 356640, Note_on_c, 0, 57, 95
2, 356640, Note_on_c, 0, 54, 95
2, 356640, Note_on_c, 0, 50, 95
2, 357120, Note_off_c, 0, 62, 95
2, 357120, Note_off_c, 0, 57, 95
2, 357120, Note_off_c, 0, 54, 95
2, 357120, Note_off_c, 0, 50, 95
2, 357120, Note_on_c, 0, 67, 95
2, 357120, Note_on_c, 0, 59, 95
2, 357120, Note_on_c, 0, 55, 95
2, 357120, Note_on_c, 0, 50, 95
2, 357120, Note_on_c, 0, 47, 95
2, 358080, Note_off_c, 0, 67, 95
2, 358080, Note_off_c, 0, 59, 95
2, 358080, Note_off_c, 0, 55, 95
2, 358080, Note_off_c, 0, 50, 95
2, 358080, Note_off_c, 0, 47, 95
2, 358080, Note_on_c, 0, 59, 95
2, 358080, Note_on_c, 0, 55, 95
2, 358080, Note_on_c, 0, 50, 95
2, 358080, Note_on_c, 0, 47, 95
2, 359040, Note_off_c, 0, 59, 95
2, 359040, Note_off_c, 0, 55, 95
2, 359040, Note_off_c, 0, 50, 95
2, 359040, Note_off_c, 0, 47, 95
2, 359040, Note_on_c, 0, 65, 95
2, 359040, Note_on_c, 0, 60, 95
2, 359040, Note_on_c, 0, 57, 95
2, 359040, Note_on_c, 0, 53, 95
2, 359040, Note_on_c, 0, 48, 95
2, 360000, Note_off_c, 0, 65, 95
2, 360000, Note_off_c, 0, 60, 95
2, 360000, Note_off_c, 0, 57, 95
2, 360000, Note_off_c, 0, 53, 95
2, 360000, Note_off_c, 0, 48, 95
2, 360000, Note_on_c, 0, 60, 95
2, 360000, Note_on_c, 0, 57, 95
2, 360000, Note_on_c, 0, 53, 95
2, 360000, Note_on_c, 0, 48, 95
2, 360960, Note_off_c, 0, 60, 95
2, 360960, Note_off_c, 0, 57, 95
2, 360960, Note_off_c, 0, 53, 95
2, 360960, Note_off_c, 0, 48, 95
2, 360960, Note_on_c, 0, 60, 95
2, 360960, Note_on_c, 0, 55, 95
2, 360960, Note_on_c, 0, 52, 95
2, 360960, Note_on_c, 0, 48, 95
2, 360960, Note_on_c, 0, 43, 95
2, 361920, Note_off_c, 0, 60, 95
2, 361920, Note_off_c, 0, 55, 95
2, 361920, Note_off_c, 0, 52, 95
2, 361920, Note_off_c, 0, 48, 95
2, 361920, Note_off_c, 0, 43, 95
2, 361920, Note_on_c, 0, 55, 95
2, 361920, Note_on_c, 0, 52, 95
2, 361920, Note_on_c, 0, 48, 95
2, 361920, Note_on_c, 0, 43, 95
2, 362880, Note_off_c, 0, 55, 95
2, 362880, Note_off_c, 0, 52, 95
2, 362880, Note_off_c, 0, 48, 95
2, 362880, Note_off_c, 0, 43, 95
2, 362880, Note_on_c, 0, 60, 95
2, 362880, Note_on_c, 0, 55, 95
2, 362880, Note_on_c, 0, 52, 95
2, 362880, Note_on_c, 0, 48, 95
2, 362880, Note_on_c, 0, 43, 95
2, 363360, Note_off_c, 0, 60, 95
2, 363360, Note_off_c, 0, 55, 95
2, 363360, Note_off_c, 0, 52, 95
2, 363360, Note_off_c, 0, 48, 95
2, 363360, Note_off_c, 0, 43, 95
2, 363360, Note_on_c, 0, 64, 95
2, 363360, Note_on_c, 0, 60, 95
2, 363360, Note_on_c, 0, 55, 95
2, 363360, Note_on_c, 0, 52, 95
2, 363360, Note_on_c, 0, 48, 95
2, 363840, Note_off_c, 0, 64, 95
2, 363840, Note_off_c, 0, 60, 95
2, 363840, Note_off_c, 0, 55, 95
2, 363840, Note_off_c, 0, 52, 95
2, 363840, Note_off_c, 0, 48, 95
2, 363840, Note_on_c, 0, 66, 95
2, 363840, Note_on_c, 0, 62, 95
2, 363840, Note_on_c, 0, 59, 95
2, 363840, Note_on_c, 0, 54, 95
2, 364080, Note_off_c, 0, 66, 95
2, 364080, Note_off_c, 0, 62, 95
2, 364080, Note_off_c, 0, 59, 95
2, 364080, Note_off_c, 0, 54, 95
2, 364080, Note_on_c, 0, 66, 95
2, 364080, Note_on_c, 0, 62, 95
2, 364080, Note_on_c, 0, 59, 95
2, 364320, Note_off_c, 0, 66, 95
2, 364320, Note_off_c, 0, 62, 95
2, 364320, Note_off_c, 0, 59, 95
2, 364320, Note_on_c, 0, 66, 95
2, 364320, Note_on_c, 0, 62, 95
2, 364320, Note_on_c, 0, 59, 95
2, 364320, Note_on_c, 0, 54, 95
2, 364800, Note_off_c, 0, 66, 95
2, 364800, Note_off_c, 0, 62, 95
2, 364800, Note_off_c, 0, 59, 95
2, 364800, Note_off_c, 0, 54, 95
2, 364800, Note_on_c, 0, 64, 95
2, 364800, Note_on_c, 0, 60, 95
2, 364800, Note_on_c, 0, 57, 95
2, 364800, Note_on_c, 0, 52, 95
2, 365760, Note_off_c, 0, 64, 95
2, 365760, Note_off_c, 0, 60, 95
2, 365760, Note_off_c, 0, 57, 95
2, 365760, Note_off_c, 0, 52, 95
2, 365760, Note_on_c, 0, 64, 95
2, 365760, Note_on_c, 0, 60, 95
2, 365760, Note_on_c, 0, 57, 95
2, 365760, Note_on_c, 0, 52, 95
2, 366720, Note_off_c, 0, 64, 95
2, 366720, Note_off_c, 0, 60, 95
2, 366720, Note_off_c, 0, 57, 95
2, 366720, Note_off_c, 0, 52, 95
2, 366720, Note_on_c, 0, 60, 95
2, 366720, Note_on_c, 0, 55, 95
2, 366720, Note_on_c, 0, 52, 95
2, 366720, Note_on_c, 0, 48, 95
2, 367680, Note_off_c, 0, 60, 95
2, 367680, Note_off_c, 0, 55, 95
2, 367680, Note_off_c, 0, 52, 95
2, 367680, Note_off_c, 0, 48, 95
2, 367680, Note_on_c, 0, 60, 95
2, 367680, Note_on_c, 0, 55, 95
2, 367680, Note_on_c, 0, 52, 95
2, 367680, Note_on_c, 0, 48, 95
2, 368640, Note_off_c, 0, 60, 95
2, 368640, Note_off_c, 0, 55, 95
2, 368640, Note_off_c, 0, 52, 95
2, 368640, Note_off_c, 0, 48, 95
2, 368640, Note_on_c, 0, 64, 95
2, 368640, Note_on_c, 0, 60, 95
2, 368640, Note_on_c, 0, 55, 95
2, 368640, Note_on_c, 0, 52, 95
2, 368640, Note_on_c, 0, 48, 95
2, 369120, Note_off_c, 0, 64, 95
2, 369120, Note_off_c, 0, 60, 95
2, 369120, Note_off_c, 0, 55, 95
2, 369120, Note_off_c, 0, 52, 95
2, 369120, Note_off_c, 0, 48, 95
2, 369600, Note_on_c, 0, 60, 95
2, 369600, Note_on_c, 0, 55, 95
2, 369600, Note_on_c, 0, 52, 95
2, 369600, Note_on_c, 0, 48, 95
2, 369600, Note_on_c, 0, 43, 95
2, 370560, Note_off_c, 0, 60, 95
2, 370560, Note_off_c, 0, 55, 95
2, 370560, Note_off_c, 0, 52, 95
2, 370560, Note_off_c, 0, 48, 95
2, 370560, Note_off_c, 0, 43, 95
2, 370560, Note_on_c, 0, 60, 95
2, 370560, Note_on_c, 0, 55, 95
2, 370560, Note_on_c, 0, 52, 95
2, 370560, Note_on_c, 0, 48, 95
2, 371040, Note_off_c, 0, 60, 95
2, 371040, Note_off_c, 0, 55, 95
2, 371040, Note_off_c, 0, 52, 95
2, 371040, Note_off_c, 0, 48, 95
2, 371040, Note_on_c, 0, 64, 95
2, 371040, Note_on_c, 0, 60, 95
2, 371040, Note_on_c, 0, 55, 95
2, 371040, Note_on_c, 0, 52, 95
2, 371520, Note_off_c, 0, 64, 95
2, 371520, Note_off_c, 0, 60, 95
2, 371520, Note_off_c, 0, 55, 95
2, 371520, Note_off_c, 0, 52, 95
2, 371520, Note_on_c, 0, 62, 95
2, 371520, Note_on_c, 0, 57, 95
2, 371520, Note_on_c, 0, 54, 95
2, 371520, Note_on_c, 0, 50, 95
2, 371760, Note_off_c, 0, 62, 95
2, 371760, Note_off_c, 0, 57, 95
2, 371760, Note_off_c, 0, 54, 95
2, 371760, Note_off_c, 0, 50, 95
2, 371760, Note_on_c, 0, 62, 95
2, 371760, Note_on_c, 0, 57, 95
2, 371760, Note_on_c, 0, 54, 95
2, 372000, Note_off_c, 0, 62, 95
2, 372000, Note_off_c, 0, 57, 95
2, 372000, Note_off_c, 0, 54, 95
2, 372000, Note_on_c, 0, 62, 95
2, 372000, Note_on_c, 0, 57, 95
2, 372000, Note_on_c, 0, 54, 95
2, 372000, Note_on_c, 0, 50, 95
2, 372480, Note_off_c, 0, 62, 95
2, 372480, Note_off_c, 0, 57, 95
2, 372480, Note_off_c, 0, 54, 95
2, 372480, Note_off_c, 0, 50, 95
2, 372480, Note_on_c, 0, 67, 95
2, 372480, Note_on_c, 0, 59, 95
2, 372480, Note_on_c, 0, 55, 95
2, 372480, Note_on_c, 0, 50, 95
2, 372480, Note_on_c, 0, 47, 95
2, 373440, Note_off_c, 0, 67, 95
2, 373440, Note_off_c, 0, 59, 95
2, 373440, Note_off_c, 0, 55, 95
2, 373440, Note_off_c, 0, 50, 95
2, 373440, Note_off_c, 0, 47, 95
2, 373440, Note_on_c, 0, 59, 95
2, 373440, Note_on_c, 0, 55, 95
2, 373440, Note_on_c, 0, 50, 95
2, 373440, Note_on_c, 0, 47, 95
2, 374400, Note_off_c, 0, 59, 95
2, 374400, Note_off_c, 0, 55, 95
2, 374400, Note_off_c, 0, 50, 95
2, 374400, Note_off_c, 0, 47, 95
2, 374400, Note_on_c, 0, 65, 95
2, 374400, Note_on_c, 0, 60, 95
2, 374400, Note_on_c, 0, 57, 95
2, 374400, Note_on_c, 0, 53, 95
2, 374400, Note_on_c, 0, 48, 95
2, 375360, Note_off_c, 0, 65, 95
2, 375360, Note_off_c, 0, 60, 95
2, 375360, Note_off_c, 0, 57, 95
2, 375360, Note_off_c, 0, 53, 95
2, 375360, Note_off_c, 0, 48, 95
2, 375360, Note_on_c, 0, 60, 95
2, 375360, Note_on_c, 0, 57, 95
2, 375360, Note_on_c, 0, 53, 95
2, 375360, Note_on_c, 0, 48, 95
2, 376320, Note_off_c, 0, 60, 95
2, 376320, Note_off_c, 0, 57, 95
2, 376320, Note_off_c, 0, 53, 95
2, 376320, Note_off_c, 0, 48, 95
2, 376320, Note_on_c, 0, 64, 95
2, 376320, Note_on_c, 0, 60, 95
2, 376320, Note_on_c, 0, 55, 95
2, 376320, Note_on_c, 0, 52, 95
2, 376320, Note_on_c, 0, 48, 95
2, 379200, Note_off_c, 0, 64, 95
2, 379200, Note_off_c, 0, 60, 95
2, 379200, Note_off_c, 0, 55, 95
2, 379200, Note_off_c, 0, 52, 95
2, 379200, Note_off_c, 0, 48, 95
2, 379200, Note_on_c, 0, 67, 95
2, 379200, Note_on_c, 0, 59, 95
2, 379200, Note_on_c, 0, 55, 95
2, 379200, Note_on_c, 0, 50, 95
2, 380160, Note_off_c, 0, 67, 95
2, 380160, Note_off_c, 0, 59, 95
2, 380160, Note_off_c, 0, 55, 95
2, 380160, Note_off_c, 0, 50, 95
2, 380160, Note_on_c, 0, 71, 95
2, 380160, Note_on_c, 0, 67, 95
2, 380160, Note_on_c, 0, 62, 95
2, 380160, Note_on_c, 0, 59, 95
2, 384000, Note_off_c, 0, 71, 95
2, 384000, Note_off_c, 0, 67, 95
2, 384000, Note_off_c, 0, 62, 95
2, 384000, Note_off_c, 0, 59, 95
2, 384000, End_track
3, 0, Start_track
3, 0, Pitch_bend_c, 2, 8192
3, 0, Control_c, 2, 7, 103
3, 0, Control_c, 3, 7, 103
3, 0, Control_c, 2, 10, 63
3, 0, Control_c, 3, 10, 63
3, 0, Control_c, 2, 93, 0
3, 0, Control_c, 3, 93, 0
3, 0, Control_c, 2, 91, 0
3, 0, Control_c, 3, 91, 0
3, 0, Control_c, 2, 95, 0
3, 0, Control_c, 3, 95, 0
3, 0, Control_c, 2, 92, 0
3, 0, Control_c, 3, 92, 0
3, 0, Control_c, 2, 11, 127
3, 0, Control_c, 3, 11, 127
3, 0, Control_c, 2, 0, 0
3, 0, Control_c, 3, 0, 0
3, 0, Program_c, 2, 25
3, 0, Program_c, 3, 25
3, 0, Note_on_c, 2, 67, 95
3, 0, Note_on_c, 2, 62, 95
3, 0, Note_on_c, 2, 59, 95
3, 0, Note_on_c, 2, 55, 95
3, 960, Note_off_c, 2, 67, 95
3, 960, Note_off_c, 2, 62, 95
3, 960, Note_off_c, 2, 59, 95
3, 960, Note_off_c, 2, 55, 95
3, 960, Note_on_c, 2, 67, 95
3, 960, Note_on_c, 2, 62, 95
3, 960, Note_on_c, 2, 59, 95
3, 960, Note_on_c, 2, 55, 95
3, 1680, Note_off_c, 2, 67, 95
3, 1680, Note_off_c, 2, 62, 95
3, 1680, Note_off_c, 2, 59, 95
3, 1680, Note_off_c, 2, 55, 95
3, 1680, Note_on_c, 2, 67, 95
3, 1680, Note_on_c, 2, 62, 95
3, 1680, Note_on_c, 2, 59, 95
3, 1680, Note_on_c, 2, 55, 95
3, 1920, Note_off_c, 2, 67, 95
3, 1920, Note_off_c, 2, 62, 95
3, 1920, Note_off_c, 2, 59, 95
3, 1920, Note_off_c, 2, 55, 95
3, 1920, Note_on_c, 2, 67, 95
3, 1920, Note_on_c, 2, 62, 95
3, 1920, Note_on_c, 2, 59, 95
3, 1920, Note_on_c, 2, 55, 95
3, 2400, Note_off_c, 2, 67, 95
3, 2400, Note_off_c, 2, 62, 95
3, 2400, Note_off_c, 2, 59, 95
3, 2400, Note_off_c, 2, 55, 95
3, 2400, Note_on_c, 2, 67, 95
3, 2400, Note_on_c, 2, 62, 95
3, 2400, Note_on_c, 2, 59, 95
3, 2400, Note_on_c, 2, 55, 95
3, 3120, Note_off_c, 2, 67, 95
3, 3120, Note_off_c, 2, 62, 95
3, 3120, Note_off_c, 2, 59, 95
3, 3120, Note_off_c, 2, 55, 95
3, 3120, Note_on_c, 2, 67, 95
3, 3120, Note_on_c, 2, 62, 95
3, 3120, Note_on_c, 2, 59, 95
3, 3120, Note_on_c, 2, 55, 95
3, 3360, Note_off_c, 2, 67, 95
3, 3360, Note_off_c, 2, 62, 95
3, 3360, Note_off_c, 2, 59, 95
3, 3360, Note_off_c, 2, 55, 95
3, 3360, Note_on_c, 2, 67, 95
3, 3360, Note_on_c, 2, 62, 95
3, 3360, Note_on_c, 2, 59, 95
3, 3360, Note_on_c, 2, 55, 95
3, 3600, Note_off_c, 2, 67, 95
3, 3600, Note_off_c, 2, 62, 95
3, 3600, Note_off_c, 2, 59, 95
3, 3600, Note_off_c, 2, 55, 95
3, 3600, Note_on_c, 2, 64, 95
3, 3600, Note_on_c, 2, 62, 95
3, 3600, Note_on_c, 2, 59, 95
3, 3600, Note_on_c, 2, 55, 95
3, 3840, Note_off_c, 2, 64, 95
3, 3840, Note_off_c, 2, 62, 95
3, 3840, Note_off_c, 2, 59, 95
3, 3840, Note_off_c, 2, 55, 95
3, 3840, Note_on_c, 2, 64, 95
3, 3840, Note_on_c, 2, 67, 95
3, 3840, Note_on_c, 2, 60, 95
3, 3840, Note_on_c, 2, 57, 95
3, 4800, Note_off_c, 2, 64, 95
3, 4800, Note_off_c, 2, 67, 95
3, 4800, Note_off_c, 2, 60, 95
3, 4800, Note_off_c, 2, 57, 95
3, 4800, Note_on_c, 2, 64, 95
3, 4800, Note_on_c, 2, 67, 95
3, 4800, Note_on_c, 2, 60, 95
3, 4800, Note_on_c, 2, 57, 95
3, 5520, Note_off_c, 2, 64, 95
3, 5520, Note_off_c, 2, 67, 95
3, 5520, Note_off_c, 2, 60, 95
3, 5520, Note_off_c, 2, 57, 95
3, 5520, Note_on_c, 2, 64, 95
3, 5520, Note_on_c, 2, 67, 95
3, 5520, Note_on_c, 2, 60, 95
3, 5520, Note_on_c, 2, 57, 95
3, 5760, Note_off_c, 2, 64, 95
3, 5760, Note_off_c, 2, 67, 95
3, 5760, Note_off_c, 2, 60, 95
3, 5760, Note_off_c, 2, 57, 95
3, 5760, Note_on_c, 2, 64, 95
3, 5760, Note_on_c, 2, 67, 95
3, 5760, Note_on_c, 2, 60, 95
3, 5760, Note_on_c, 2, 57, 95
3, 6240, Note_off_c, 2, 64, 95
3, 6240, Note_off_c, 2, 67, 95
3, 6240, Note_off_c, 2, 60, 95
3, 6240, Note_off_c, 2, 57, 95
3, 6240, Note_on_c, 2, 64, 95
3, 6240, Note_on_c, 2, 67, 95
3, 6240, Note_on_c, 2, 60, 95
3, 6240, Note_on_c, 2, 57, 95
3, 6720, Note_off_c, 2, 64, 95
3, 6720, Note_off_c, 2, 67, 95
3, 6720, Note_off_c, 2, 60, 95
3, 6720, Note_off_c, 2, 57, 95
3, 6720, Note_on_c, 2, 64, 95
3, 6720, Note_on_c, 2, 60, 95
3, 6720, Note_on_c, 2, 57, 95
3, 6960, Note_off_c, 2, 64, 95
3, 6960, Note_off_c, 2, 60, 95
3, 6960, Note_off_c, 2, 57, 95
3, 6960, Note_on_c, 2, 64, 95
3, 6960, Note_on_c, 2, 67, 95
3, 6960, Note_on_c, 2, 60, 95
3, 6960, Note_on_c, 2, 57, 95
3, 7200, Note_off_c, 2, 64, 95
3, 7200, Note_off_c, 2, 67, 95
3, 7200, Note_off_c, 2, 60, 95
3, 7200, Note_off_c, 2, 57, 95
3, 7200, Note_on_c, 2, 64, 95
3, 7200, Note_on_c, 2, 67, 95
3, 7200, Note_on_c, 2, 60, 95
3, 7200, Note_on_c, 2, 57, 95
3, 7440, Note_off_c, 2, 64, 95
3, 7440, Note_off_c, 2, 67, 95
3, 7440, Note_off_c, 2, 60, 95
3, 7440, Note_off_c, 2, 57, 95
3, 7440, Note_on_c, 2, 64, 95
3, 7440, Note_on_c, 2, 60, 95
3, 7440, Note_on_c, 2, 57, 95
3, 7680, Note_off_c, 2, 64, 95
3, 7680, Note_off_c, 2, 60, 95
3, 7680, Note_off_c, 2, 57, 95
3, 7680, Note_on_c, 2, 67, 95
3, 7680, Note_on_c, 2, 62, 95
3, 7680, Note_on_c, 2, 59, 95
3, 7680, Note_on_c, 2, 55, 95
3, 8640, Note_off_c, 2, 67, 95
3, 8640, Note_off_c, 2, 62, 95
3, 8640, Note_off_c, 2, 59, 95
3, 8640, Note_off_c, 2, 55, 95
3, 8640, Note_on_c, 2, 67, 95
3, 8640, Note_on_c, 2, 62, 95
3, 8640, Note_on_c, 2, 59, 95
3, 8640, Note_on_c, 2, 55, 95
3, 9360, Note_off_c, 2, 67, 95
3, 9360, Note_off_c, 2, 62, 95
3, 9360, Note_off_c, 2, 59, 95
3, 9360, Note_off_c, 2, 55, 95
3, 9360, Note_on_c, 2, 67, 95
3, 9360, Note_on_c, 2, 62, 95
3, 9360, Note_on_c, 2, 59, 95
3, 9360, Note_on_c, 2, 55, 95
3, 9600, Note_off_c, 2, 67, 95
3, 9600, Note_off_c, 2, 62, 95
3, 9600, Note_off_c, 2, 59, 95
3, 9600, Note_off_c, 2, 55, 95
3, 9600, Note_on_c, 2, 67, 95
3, 9600, Note_on_c, 2, 62, 95
3, 9600, Note_on_c, 2, 59, 95
3, 9600, Note_on_c, 2, 55, 95
3, 10080, Note_off_c, 2, 67, 95
3, 10080, Note_off_c, 2, 62, 95
3, 10080, Note_off_c, 2, 59, 95
3, 10080, Note_off_c, 2, 55, 95
3, 10080, Note_on_c, 2, 67, 95
3, 10080, Note_on_c, 2, 62, 95
3, 10080, Note_on_c, 2, 59, 95
3, 10080, Note_on_c, 2, 55, 95
3, 10560, Note_off_c, 2, 67, 95
3, 10560, Note_off_c, 2, 62, 95
3, 10560, Note_off_c, 2, 59, 95
3, 10560, Note_off_c, 2, 55, 95
3, 10560, Note_on_c, 2, 62, 95
3, 10560, Note_on_c, 2, 59, 95
3, 10560, Note_on_c, 2, 55, 95
3, 10800, Note_off_c, 2, 62, 95
3, 10800, Note_off_c, 2, 59, 95
3, 10800, Note_off_c, 2, 55, 95
3, 10800, Note_on_c, 2, 67, 95
3, 10800, Note_on_c, 2, 62, 95
3, 10800, Note_on_c, 2, 59, 95
3, 10800, Note_on_c, 2, 55, 95
3, 11040, Note_off_c, 2, 67, 95
3, 11040, Note_off_c, 2, 62, 95
3, 11040, Note_off_c, 2, 59, 95
3, 11040, Note_off_c, 2, 55, 95
3, 11040, Note_on_c, 2, 67, 95
3, 11040, Note_on_c, 2, 62, 95
3, 11040, Note_on_c, 2, 59, 95
3, 11040, Note_on_c, 2, 55, 95
3, 11280, Note_off_c, 2, 67, 95
3, 11280, Note_off_c, 2, 62, 95
3, 11280, Note_off_c, 2, 59, 95
3, 11280, Note_off_c, 2, 55, 95
3, 11280, Note_on_c, 2, 64, 95
3, 11280, Note_on_c, 2, 62, 95
3, 11280, Note_on_c, 2, 59, 95
3, 11280, Note_on_c, 2, 55, 95
3, 11520, Note_off_c, 2, 64, 95
3, 11520, Note_off_c, 2, 62, 95
3, 11520, Note_off_c, 2, 59, 95
3, 11520, Note_off_c, 2, 55, 95
3, 11520, Note_on_c, 2, 64, 95
3, 11520, Note_on_c, 2, 67, 95
3, 11520, Note_on_c, 2, 60, 95
3, 11520, Note_on_c, 2, 57, 95
3, 12480, Note_off_c, 2, 64, 95
3, 12480, Note_off_c, 2, 67, 95
3, 12480, Note_off_c, 2, 60, 95
3, 12480, Note_off_c, 2, 57, 95
3, 12480, Note_on_c, 2, 64, 95
3, 12480, Note_on_c, 2, 67, 95
3, 12480, Note_on_c, 2, 60, 95
3, 12480, Note_on_c, 2, 57, 95
3, 13200, Note_off_c, 2, 64, 95
3, 13200, Note_off_c, 2, 67, 95
3, 13200, Note_off_c, 2, 60, 95
3, 13200, Note_off_c, 2, 57, 95
3, 13200, Note_on_c, 2, 64, 95
3, 13200, Note_on_c, 2, 67, 95
3, 13200, Note_on_c, 2, 60, 95
3, 13200, Note_on_c, 2, 57, 95
3, 13440, Note_off_c, 2, 64, 95
3, 13440, Note_off_c, 2, 67, 95
3, 13440, Note_off_c, 2, 60, 95
3, 13440, Note_off_c, 2, 57, 95
3, 13440, Note_on_c, 2, 67, 95
3, 13440, Note_on_c, 2, 57, 95
3, 13680, Note_off_c, 2, 67, 95
3, 13680, Note_off_c, 2, 57, 95
3, 13680, Note_on_c, 2, 60, 95
3, 13920, Note_off_c, 2, 60, 95
3, 13920, Note_on_c, 2, 64, 95
3, 14160, Note_off_c, 2, 64, 95
3, 14160, Note_on_c, 2, 67, 95
3, 14400, Note_off_c, 2, 67, 95
3, 14400, Note_on_c, 2, 71, 95
3, 14640, Note_off_c, 2, 71, 95
3, 14640, Note_on_c, 2, 64, 95
3, 14880, Note_off_c, 2, 64, 95
3, 14880, Note_on_c, 2, 69, 95
3, 15360, Note_off_c, 2, 69, 95
3, 15360, Note_on_c, 2, 67, 95
3, 15360, Note_on_c, 2, 62, 95
3, 15360, Note_on_c, 2, 59, 95
3, 16320, Note_off_c, 2, 67, 95
3, 16320, Note_off_c, 2, 62, 95
3, 16320, Note_off_c, 2, 59, 95
3, 16320, Note_on_c, 2, 67, 95
3, 16320, Note_on_c, 2, 62, 95
3, 16320, Note_on_c, 2, 59, 95
3, 17040, Note_off_c, 2, 67, 95
3, 17040, Note_off_c, 2, 62, 95
3, 17040, Note_off_c, 2, 59, 95
3, 17040, Note_on_c, 2, 67, 95
3, 17040, Note_on_c, 2, 62, 95
3, 17040, Note_on_c, 2, 59, 95
3, 17280, Note_off_c, 2, 67, 95
3, 17280, Note_off_c, 2, 62, 95
3, 17280, Note_off_c, 2, 59, 95
3, 17280, Note_on_c, 2, 67, 95
3, 17280, Note_on_c, 2, 62, 95
3, 17280, Note_on_c, 2, 59, 95
3, 17760, Note_off_c, 2, 67, 95
3, 17760, Note_off_c, 2, 62, 95
3, 17760, Note_off_c, 2, 59, 95
3, 17760, Note_on_c, 2, 67, 95
3, 17760, Note_on_c, 2, 62, 95
3, 17760, Note_on_c, 2, 59, 95
3, 18240, Note_off_c, 2, 67, 95
3, 18240, Note_off_c, 2, 62, 95
3, 18240, Note_off_c, 2, 59, 95
3, 18240, Note_on_c, 2, 67, 95
3, 18240, Note_on_c, 2, 62, 95
3, 18240, Note_on_c, 2, 59, 95
3, 18480, Note_off_c, 2, 67, 95
3, 18480, Note_off_c, 2, 62, 95
3, 18480, Note_off_c, 2, 59, 95
3, 18480, Note_on_c, 2, 67, 95
3, 18480, Note_on_c, 2, 62, 95
3, 18480, Note_on_c, 2, 59, 95
3, 18720, Note_off_c, 2, 67, 95
3, 18720, Note_off_c, 2, 62, 95
3, 18720, Note_off_c, 2, 59, 95
3, 18720, Note_on_c, 2, 67, 95
3, 18720, Note_on_c, 2, 62, 95
3, 18720, Note_on_c, 2, 59, 95
3, 19200, Note_off_c, 2, 67, 95
3, 19200, Note_off_c, 2, 62, 95
3, 19200, Note_off_c, 2, 59, 95
3, 19200, Note_on_c, 2, 66, 95
3, 19200, Note_on_c, 2, 62, 95
3, 19200, Note_on_c, 2, 59, 95
3, 23040, Note_off_c, 2, 66, 95
3, 23040, Note_off_c, 2, 62, 95
3, 23040, Note_off_c, 2, 59, 95
3, 23040, Note_on_c, 2, 74, 95
3, 25440, Note_off_c, 2, 74, 95
3, 25440, Note_on_c, 2, 71, 95
3, 25680, Note_off_c, 2, 71, 95
3, 25680, Note_on_c, 2, 71, 95
3, 25920, Note_off_c, 2, 71, 95
3, 25920, Note_on_c, 2, 69, 95
3, 26880, Note_off_c, 2, 69, 95
3, 26880, Note_on_c, 2, 66, 95
3, 30720, Note_off_c, 2, 66, 95
3, 30720, Note_on_c, 2, 71, 95
3, 34560, Note_off_c, 2, 71, 95
3, 34560, Note_on_c, 2, 69, 95
3, 34560, Note_on_c, 2, 57, 95
3, 38400, Note_off_c, 2, 69, 95
3, 38400, Note_off_c, 2, 57, 95
3, 38400, Note_on_c, 2, 64, 95
3, 38400, Note_on_c, 2, 60, 95
3, 38400, Note_on_c, 2, 55, 95
3, 41280, Note_off_c, 2, 64, 95
3, 41280, Note_off_c, 2, 60, 95
3, 41280, Note_off_c, 2, 55, 95
3, 41280, Note_on_c, 2, 66, 95
3, 41280, Note_on_c, 2, 62, 95
3, 41280, Note_on_c, 2, 57, 95
3, 41280, Note_on_c, 2, 50, 95
3, 42240, Note_off_c, 2, 66, 95
3, 42240, Note_off_c, 2, 62, 95
3, 42240, Note_off_c, 2, 57, 95
3, 42240, Note_off_c, 2, 50, 95
3, 42240, Note_on_c, 2, 67, 95
3, 42240, Note_on_c, 2, 59, 95
3, 42240, Note_on_c, 2, 55, 95
3, 46080, Note_off_c, 2, 67, 95
3, 46080, Note_off_c, 2, 59, 95
3, 46080, Note_off_c, 2, 55, 95
3, 46080, Note_on_c, 2, 62, 95
3, 46080, Note_on_c, 2, 57, 95
3, 46080, Note_on_c, 2, 50, 95
3, 46320, Note_off_c, 2, 62, 95
3, 46320, Note_off_c, 2, 57, 95
3, 46320, Note_off_c, 2, 50, 95
3, 46320, Note_on_c, 2, 66, 95
3, 48000, Note_off_c, 2, 66, 95
3, 48000, Note_on_c, 2, 66, 95
3, 48000, Note_on_c, 2, 62, 95
3, 48000, Note_on_c, 2, 57, 95
3, 48480, Note_off_c, 2, 66, 95
3, 48480, Note_off_c, 2, 62, 95
3, 48480, Note_off_c, 2, 57, 95
3, 48480, Note_on_c, 2, 66, 95
3, 48960, Note_off_c, 2, 66, 95
3, 48960, Note_on_c, 2, 64, 95
3, 48960, Note_on_c, 2, 60, 95
3, 48960, Note_on_c, 2, 55, 95
3, 48960, Note_on_c, 2, 52, 95
3, 49200, Note_off_c, 2, 64, 95
3, 49200, Note_off_c, 2, 60, 95
3, 49200, Note_off_c, 2, 55, 95
3, 49200, Note_off_c, 2, 52, 95
3, 49200, Note_on_c, 2, 64, 95
3, 49440, Note_off_c, 2, 64, 95
3, 49440, Note_on_c, 2, 60, 95
3, 49920, Note_off_c, 2, 60, 95
3, 49920, Note_on_c, 2, 71, 95
3, 49920, Note_on_c, 2, 66, 95
3, 49920, Note_on_c, 2, 62, 95
3, 53760, Note_off_c, 2, 71, 95
3, 53760, Note_off_c, 2, 66, 95
3, 53760, Note_off_c, 2, 62, 95
3, 53760, Note_on_c, 2, 74, 95
3, 56160, Note_off_c, 2, 74, 95
3, 56160, Note_on_c, 2, 71, 95
3, 56400, Note_off_c, 2, 71, 95
3, 56400, Note_on_c, 2, 71, 95
3, 56640, Note_off_c, 2, 71, 95
3, 56640, Note_on_c, 2, 69, 95
3, 57600, Note_off_c, 2, 69, 95
3, 57600, Note_on_c, 2, 66, 95
3, 61440, Note_off_c, 2, 66, 95
3, 61440, Note_on_c, 2, 71, 95
3, 65280, Note_off_c, 2, 71, 95
3, 65280, Note_on_c, 2, 69, 95
3, 65280, Note_on_c, 2, 57, 95
3, 66240, Note_off_c, 2, 69, 95
3, 66240, Note_off_c, 2, 57, 95
3, 66960, Note_on_c, 2, 69, 95
3, 67680, Note_off_c, 2, 69, 95
3, 67680, Note_on_c, 2, 69, 95
3, 68640, Note_off_c, 2, 69, 95
3, 68640, Note_on_c, 2, 71, 95
3, 69120, Note_off_c, 2, 71, 95
3, 69120, Note_on_c, 2, 64, 95
3, 69120, Note_on_c, 2, 60, 95
3, 69120, Note_on_c, 2, 55, 95
3, 71040, Note_off_c, 2, 64, 95
3, 71040, Note_off_c, 2, 60, 95
3, 71040, Note_off_c, 2, 55, 95
3, 71040, Note_on_c, 2, 72, 95
3, 71520, Note_off_c, 2, 72, 95
3, 71520, Note_on_c, 2, 67, 95
3, 72000, Note_off_c, 2, 67, 95
3, 72000, Note_on_c, 2, 69, 95
3, 72000, Note_on_c, 2, 66, 95
3, 72000, Note_on_c, 2, 62, 95
3, 72240, Note_off_c, 2, 69, 95
3, 72240, Note_off_c, 2, 66, 95
3, 72240, Note_off_c, 2, 62, 95
3, 72240, Note_on_c, 2, 74, 95
3, 72480, Note_off_c, 2, 74, 95
3, 72480, Note_on_c, 2, 69, 95
3, 72960, Note_off_c, 2, 69, 95
3, 72960, Note_on_c, 2, 67, 95
3, 72960, Note_on_c, 2, 59, 95
3, 72960, Note_on_c, 2, 55, 95
3, 76800, Note_off_c, 2, 67, 95
3, 76800, Note_off_c, 2, 59, 95
3, 76800, Note_off_c, 2, 55, 95
3, 76800, Note_on_c, 2, 74, 95
3, 77760, Note_off_c, 2, 74, 95
3, 77760, Note_on_c, 2, 69, 95
3, 78000, Note_off_c, 2, 69, 95
3, 78000, Note_on_c, 2, 66, 95
3, 78240, Note_off_c, 2, 66, 95
3, 78240, Note_on_c, 2, 62, 95
3, 78720, Note_off_c, 2, 62, 95
3, 78720, Note_on_c, 2, 69, 95
3, 78960, Note_off_c, 2, 69, 95
3, 78960, Note_on_c, 2, 66, 95
3, 79200, Note_off_c, 2, 66, 95
3, 79200, Note_on_c, 2, 62, 95
3, 79680, Note_off_c, 2, 62, 95
3, 79680, Note_on_c, 2, 74, 95
3, 79680, Note_on_c, 2, 69, 95
3, 79680, Note_on_c, 2, 66, 95
3, 79680, Note_on_c, 2, 62, 95
3, 80160, Note_off_c, 2, 74, 95
3, 80160, Note_off_c, 2, 69, 95
3, 80160, Note_off_c, 2, 66, 95
3, 80160, Note_off_c, 2, 62, 95
3, 80160, Note_on_c, 2, 71, 95
3, 80160, Note_on_c, 2, 67, 95
3, 80160, Note_on_c, 2, 62, 95
3, 80160, Note_on_c, 2, 59, 95
3, 80640, Note_off_c, 2, 71, 95
3, 80640, Note_off_c, 2, 67, 95
3, 80640, Note_off_c, 2, 62, 95
3, 80640, Note_off_c, 2, 59, 95
3, 80640, Note_on_c, 2, 64, 95
3, 80640, Note_on_c, 2, 60, 95
3, 80640, Note_on_c, 2, 57, 95
3, 80640, Note_on_c, 2, 52, 95
3, 81600, Note_off_c, 2, 64, 95
3, 81600, Note_off_c, 2, 60, 95
3, 81600, Note_off_c, 2, 57, 95
3, 81600, Note_off_c, 2, 52, 95
3, 81600, Note_on_c, 2, 64, 95
3, 81600, Note_on_c, 2, 60, 95
3, 81600, Note_on_c, 2, 57, 95
3, 81600, Note_on_c, 2, 52, 95
3, 82560, Note_off_c, 2, 64, 95
3, 82560, Note_off_c, 2, 60, 95
3, 82560, Note_off_c, 2, 57, 95
3, 82560, Note_off_c, 2, 52, 95
3, 82560, Note_on_c, 2, 67, 95
3, 82560, Note_on_c, 2, 60, 95
3, 82560, Note_on_c, 2, 57, 95
3, 82560, Note_on_c, 2, 52, 95
3, 83520, Note_off_c, 2, 67, 95
3, 83520, Note_off_c, 2, 60, 95
3, 83520, Note_off_c, 2, 57, 95
3, 83520, Note_off_c, 2, 52, 95
3, 83520, Note_on_c, 2, 67, 95
3, 83520, Note_on_c, 2, 60, 95
3, 83520, Note_on_c, 2, 57, 95
3, 83520, Note_on_c, 2, 52, 95
3, 84000, Note_off_c, 2, 67, 95
3, 84000, Note_off_c, 2, 60, 95
3, 84000, Note_off_c, 2, 57, 95
3, 84000, Note_off_c, 2, 52, 95
3, 84000, Note_on_c, 2, 67, 95
3, 84000, Note_on_c, 2, 60, 95
3, 84000, Note_on_c, 2, 57, 95
3, 84480, Note_off_c, 2, 67, 95
3, 84480, Note_off_c, 2, 60, 95
3, 84480, Note_off_c, 2, 57, 95
3, 84480, Note_on_c, 2, 64, 95
3, 84480, Note_on_c, 2, 60, 95
3, 84480, Note_on_c, 2, 55, 95
3, 84480, Note_on_c, 2, 52, 95
3, 84480, Note_on_c, 2, 48, 95
3, 85440, Note_off_c, 2, 64, 95
3, 85440, Note_off_c, 2, 60, 95
3, 85440, Note_off_c, 2, 55, 95
3, 85440, Note_off_c, 2, 52, 95
3, 85440, Note_off_c, 2, 48, 95
3, 85440, Note_on_c, 2, 64, 95
3, 85440, Note_on_c, 2, 60, 95
3, 85440, Note_on_c, 2, 55, 95
3, 85440, Note_on_c, 2, 52, 95
3, 86400, Note_off_c, 2, 64, 95
3, 86400, Note_off_c, 2, 60, 95
3, 86400, Note_off_c, 2, 55, 95
3, 86400, Note_off_c, 2, 52, 95
3, 86400, Note_on_c, 2, 64, 95
3, 86400, Note_on_c, 2, 60, 95
3, 86400, Note_on_c, 2, 55, 95
3, 86400, Note_on_c, 2, 52, 95
3, 86880, Note_off_c, 2, 64, 95
3, 86880, Note_off_c, 2, 60, 95
3, 86880, Note_off_c, 2, 55, 95
3, 86880, Note_off_c, 2, 52, 95
3, 86880, Note_on_c, 2, 64, 95
3, 86880, Note_on_c, 2, 60, 95
3, 86880, Note_on_c, 2, 55, 95
3, 86880, Note_on_c, 2, 52, 95
3, 87360, Note_off_c, 2, 64, 95
3, 87360, Note_off_c, 2, 60, 95
3, 87360, Note_off_c, 2, 55, 95
3, 87360, Note_off_c, 2, 52, 95
3, 87360, Note_on_c, 2, 66, 95
3, 87360, Note_on_c, 2, 62, 95
3, 87360, Note_on_c, 2, 57, 95
3, 87360, Note_on_c, 2, 50, 95
3, 87600, Note_off_c, 2, 66, 95
3, 87600, Note_off_c, 2, 62, 95
3, 87600, Note_off_c, 2, 57, 95
3, 87600, Note_off_c, 2, 50, 95
3, 87600, Note_on_c, 2, 66, 95
3, 87600, Note_on_c, 2, 62, 95
3, 87600, Note_on_c, 2, 57, 95
3, 87840, Note_off_c, 2, 66, 95
3, 87840, Note_off_c, 2, 62, 95
3, 87840, Note_off_c, 2, 57, 95
3, 87840, Note_on_c, 2, 62, 95
3, 87840, Note_on_c, 2, 59, 95
3, 87840, Note_on_c, 2, 52, 95
3, 88320, Note_off_c, 2, 62, 95
3, 88320, Note_off_c, 2, 59, 95
3, 88320, Note_off_c, 2, 52, 95
3, 88320, Note_on_c, 2, 67, 95
3, 88320, Note_on_c, 2, 59, 95
3, 88320, Note_on_c, 2, 55, 95
3, 88320, Note_on_c, 2, 50, 95
3, 88320, Note_on_c, 2, 47, 95
3, 89280, Note_off_c, 2, 67, 95
3, 89280, Note_off_c, 2, 59, 95
3, 89280, Note_off_c, 2, 55, 95
3, 89280, Note_off_c, 2, 50, 95
3, 89280, Note_off_c, 2, 47, 95
3, 89280, Note_on_c, 2, 67, 95
3, 89280, Note_on_c, 2, 59, 95
3, 89280, Note_on_c, 2, 55, 95
3, 89280, Note_on_c, 2, 50, 95
3, 90240, Note_off_c, 2, 67, 95
3, 90240, Note_off_c, 2, 59, 95
3, 90240, Note_off_c, 2, 55, 95
3, 90240, Note_off_c, 2, 50, 95
3, 90240, Note_on_c, 2, 65, 95
3, 90240, Note_on_c, 2, 60, 95
3, 90240, Note_on_c, 2, 57, 95
3, 90240, Note_on_c, 2, 53, 95
3, 91200, Note_off_c, 2, 65, 95
3, 91200, Note_off_c, 2, 60, 95
3, 91200, Note_off_c, 2, 57, 95
3, 91200, Note_off_c, 2, 53, 95
3, 91200, Note_on_c, 2, 65, 95
3, 91200, Note_on_c, 2, 60, 95
3, 91200, Note_on_c, 2, 57, 95
3, 91200, Note_on_c, 2, 53, 95
3, 91680, Note_off_c, 2, 65, 95
3, 91680, Note_off_c, 2, 60, 95
3, 91680, Note_off_c, 2, 57, 95
3, 91680, Note_off_c, 2, 53, 95
3, 91680, Note_on_c, 2, 65, 95
3, 91680, Note_on_c, 2, 60, 95
3, 91680, Note_on_c, 2, 57, 95
3, 92160, Note_off_c, 2, 65, 95
3, 92160, Note_off_c, 2, 60, 95
3, 92160, Note_off_c, 2, 57, 95
3, 92160, Note_on_c, 2, 64, 95
3, 92160, Note_on_c, 2, 60, 95
3, 92160, Note_on_c, 2, 55, 95
3, 92160, Note_on_c, 2, 52, 95
3, 93120, Note_off_c, 2, 64, 95
3, 93120, Note_off_c, 2, 60, 95
3, 93120, Note_off_c, 2, 55, 95
3, 93120, Note_off_c, 2, 52, 95
3, 93120, Note_on_c, 2, 64, 95
3, 93120, Note_on_c, 2, 60, 95
3, 93120, Note_on_c, 2, 55, 95
3, 93120, Note_on_c, 2, 52, 95
3, 93840, Note_off_c, 2, 64, 95
3, 93840, Note_off_c, 2, 60, 95
3, 93840, Note_off_c, 2, 55, 95
3, 93840, Note_off_c, 2, 52, 95
3, 93840, Note_on_c, 2, 64, 95
3, 93840, Note_on_c, 2, 60, 95
3, 93840, Note_on_c, 2, 55, 95
3, 94080, Note_off_c, 2, 64, 95
3, 94080, Note_off_c, 2, 60, 95
3, 94080, Note_off_c, 2, 55, 95
3, 94080, Note_on_c, 2, 64, 95
3, 94080, Note_on_c, 2, 60, 95
3, 94080, Note_on_c, 2, 55, 95
3, 94080, Note_on_c, 2, 52, 95
3, 94560, Note_off_c, 2, 64, 95
3, 94560, Note_off_c, 2, 60, 95
3, 94560, Note_off_c, 2, 55, 95
3, 94560, Note_off_c, 2, 52, 95
3, 94560, Note_on_c, 2, 64, 95
3, 94560, Note_on_c, 2, 60, 95
3, 94560, Note_on_c, 2, 55, 95
3, 95040, Note_off_c, 2, 64, 95
3, 95040, Note_off_c, 2, 60, 95
3, 95040, Note_off_c, 2, 55, 95
3, 95040, Note_on_c, 2, 66, 95
3, 95040, Note_on_c, 2, 62, 95
3, 95040, Note_on_c, 2, 59, 95
3, 95040, Note_on_c, 2, 54, 95
3, 95280, Note_off_c, 2, 66, 95
3, 95280, Note_off_c, 2, 62, 95
3, 95280, Note_off_c, 2, 59, 95
3, 95280, Note_off_c, 2, 54, 95
3, 95280, Note_on_c, 2, 66, 95
3, 95280, Note_on_c, 2, 62, 95
3, 95280, Note_on_c, 2, 59, 95
3, 95520, Note_off_c, 2, 66, 95
3, 95520, Note_off_c, 2, 62, 95
3, 95520, Note_off_c, 2, 59, 95
3, 95520, Note_on_c, 2, 66, 95
3, 95520, Note_on_c, 2, 62, 95
3, 95520, Note_on_c, 2, 59, 95
3, 95520, Note_on_c, 2, 54, 95
3, 96000, Note_off_c, 2, 66, 95
3, 96000, Note_off_c, 2, 62, 95
3, 96000, Note_off_c, 2, 59, 95
3, 96000, Note_off_c, 2, 54, 95
3, 96000, Note_on_c, 2, 64, 95
3, 96000, Note_on_c, 2, 60, 95
3, 96000, Note_on_c, 2, 57, 95
3, 96000, Note_on_c, 2, 52, 95
3, 96960, Note_off_c, 2, 64, 95
3, 96960, Note_off_c, 2, 60, 95
3, 96960, Note_off_c, 2, 57, 95
3, 96960, Note_off_c, 2, 52, 95
3, 96960, Note_on_c, 2, 64, 95
3, 96960, Note_on_c, 2, 60, 95
3, 96960, Note_on_c, 2, 57, 95
3, 96960, Note_on_c, 2, 52, 95
3, 97920, Note_off_c, 2, 64, 95
3, 97920, Note_off_c, 2, 60, 95
3, 97920, Note_off_c, 2, 57, 95
3, 97920, Note_off_c, 2, 52, 95
3, 97920, Note_on_c, 2, 67, 95
3, 97920, Note_on_c, 2, 60, 95
3, 97920, Note_on_c, 2, 57, 95
3, 97920, Note_on_c, 2, 52, 95
3, 98880, Note_off_c, 2, 67, 95
3, 98880, Note_off_c, 2, 60, 95
3, 98880, Note_off_c, 2, 57, 95
3, 98880, Note_off_c, 2, 52, 95
3, 98880, Note_on_c, 2, 67, 95
3, 98880, Note_on_c, 2, 60, 95
3, 98880, Note_on_c, 2, 57, 95
3, 98880, Note_on_c, 2, 52, 95
3, 99360, Note_off_c, 2, 67, 95
3, 99360, Note_off_c, 2, 60, 95
3, 99360, Note_off_c, 2, 57, 95
3, 99360, Note_off_c, 2, 52, 95
3, 99360, Note_on_c, 2, 67, 95
3, 99360, Note_on_c, 2, 60, 95
3, 99360, Note_on_c, 2, 57, 95
3, 99840, Note_off_c, 2, 67, 95
3, 99840, Note_off_c, 2, 60, 95
3, 99840, Note_off_c, 2, 57, 95
3, 99840, Note_on_c, 2, 64, 95
3, 99840, Note_on_c, 2, 60, 95
3, 99840, Note_on_c, 2, 55, 95
3, 99840, Note_on_c, 2, 52, 95
3, 99840, Note_on_c, 2, 48, 95
3, 100800, Note_off_c, 2, 64, 95
3, 100800, Note_off_c, 2, 60, 95
3, 100800, Note_off_c, 2, 55, 95
3, 100800, Note_off_c, 2, 52, 95
3, 100800, Note_off_c, 2, 48, 95
3, 100800, Note_on_c, 2, 64, 95
3, 100800, Note_on_c, 2, 60, 95
3, 100800, Note_on_c, 2, 55, 95
3, 100800, Note_on_c, 2, 52, 95
3, 101760, Note_off_c, 2, 64, 95
3, 101760, Note_off_c, 2, 60, 95
3, 101760, Note_off_c, 2, 55, 95
3, 101760, Note_off_c, 2, 52, 95
3, 101760, Note_on_c, 2, 64, 95
3, 101760, Note_on_c, 2, 60, 95
3, 101760, Note_on_c, 2, 55, 95
3, 101760, Note_on_c, 2, 52, 95
3, 102240, Note_off_c, 2, 64, 95
3, 102240, Note_off_c, 2, 60, 95
3, 102240, Note_off_c, 2, 55, 95
3, 102240, Note_off_c, 2, 52, 95
3, 102240, Note_on_c, 2, 64, 95
3, 102240, Note_on_c, 2, 60, 95
3, 102240, Note_on_c, 2, 55, 95
3, 102240, Note_on_c, 2, 52, 95
3, 102720, Note_off_c, 2, 64, 95
3, 102720, Note_off_c, 2, 60, 95
3, 102720, Note_off_c, 2, 55, 95
3, 102720, Note_off_c, 2, 52, 95
3, 102720, Note_on_c, 2, 66, 95
3, 102720, Note_on_c, 2, 62, 95
3, 102720, Note_on_c, 2, 57, 95
3, 102720, Note_on_c, 2, 50, 95
3, 102960, Note_off_c, 2, 66, 95
3, 102960, Note_off_c, 2, 62, 95
3, 102960, Note_off_c, 2, 57, 95
3, 102960, Note_off_c, 2, 50, 95
3, 102960, Note_on_c, 2, 66, 95
3, 102960, Note_on_c, 2, 62, 95
3, 102960, Note_on_c, 2, 57, 95
3, 103200, Note_off_c, 2, 66, 95
3, 103200, Note_off_c, 2, 62, 95
3, 103200, Note_off_c, 2, 57, 95
3, 103200, Note_on_c, 2, 62, 95
3, 103200, Note_on_c, 2, 57, 95
3, 103200, Note_on_c, 2, 50, 95
3, 103680, Note_off_c, 2, 62, 95
3, 103680, Note_off_c, 2, 57, 95
3, 103680, Note_off_c, 2, 50, 95
3, 103680, Note_on_c, 2, 67, 95
3, 103680, Note_on_c, 2, 59, 95
3, 103680, Note_on_c, 2, 55, 95
3, 103680, Note_on_c, 2, 50, 95
3, 103680, Note_on_c, 2, 47, 95
3, 104640, Note_off_c, 2, 67, 95
3, 104640, Note_off_c, 2, 59, 95
3, 104640, Note_off_c, 2, 55, 95
3, 104640, Note_off_c, 2, 50, 95
3, 104640, Note_off_c, 2, 47, 95
3, 104640, Note_on_c, 2, 67, 95
3, 104640, Note_on_c, 2, 59, 95
3, 104640, Note_on_c, 2, 55, 95
3, 104640, Note_on_c, 2, 50, 95
3, 105600, Note_off_c, 2, 67, 95
3, 105600, Note_off_c, 2, 59, 95
3, 105600, Note_off_c, 2, 55, 95
3, 105600, Note_off_c, 2, 50, 95
3, 105600, Note_on_c, 2, 65, 95
3, 105600, Note_on_c, 2, 60, 95
3, 105600, Note_on_c, 2, 57, 95
3, 105600, Note_on_c, 2, 53, 95
3, 106560, Note_off_c, 2, 65, 95
3, 106560, Note_off_c, 2, 60, 95
3, 106560, Note_off_c, 2, 57, 95
3, 106560, Note_off_c, 2, 53, 95
3, 106560, Note_on_c, 2, 65, 95
3, 106560, Note_on_c, 2, 60, 95
3, 106560, Note_on_c, 2, 57, 95
3, 106560, Note_on_c, 2, 53, 95
3, 107520, Note_off_c, 2, 65, 95
3, 107520, Note_off_c, 2, 60, 95
3, 107520, Note_off_c, 2, 57, 95
3, 107520, Note_off_c, 2, 53, 95
3, 107520, Note_on_c, 2, 60, 95
3, 107520, Note_on_c, 2, 55, 95
3, 107520, Note_on_c, 2, 52, 95
3, 107760, Note_off_c, 2, 60, 95
3, 107760, Note_off_c, 2, 55, 95
3, 107760, Note_off_c, 2, 52, 95
3, 107760, Note_on_c, 2, 64, 95
3, 108480, Note_off_c, 2, 64, 95
3, 108480, Note_on_c, 2, 64, 95
3, 108720, Note_off_c, 2, 64, 95
3, 108720, Note_on_c, 2, 60, 95
3, 108960, Note_off_c, 2, 60, 95
3, 108960, Note_on_c, 2, 55, 95
3, 109440, Note_off_c, 2, 55, 95
3, 109440, Note_on_c, 2, 64, 95
3, 109680, Note_off_c, 2, 64, 95
3, 109680, Note_on_c, 2, 67, 95
3, 110160, Note_off_c, 2, 67, 95
3, 110160, Note_on_c, 2, 67, 95
3, 110400, Note_off_c, 2, 67, 95
3, 110400, Note_on_c, 2, 64, 95
3, 110880, Note_off_c, 2, 64, 95
3, 110880, Note_on_c, 2, 59, 95
3, 111360, Note_off_c, 2, 59, 95
3, 111360, Note_on_c, 2, 66, 95
3, 111360, Note_on_c, 2, 62, 95
3, 111360, Note_on_c, 2, 59, 95
3, 115200, Note_off_c, 2, 66, 95
3, 115200, Note_off_c, 2, 62, 95
3, 115200, Note_off_c, 2, 59, 95
3, 115200, Note_on_c, 2, 74, 95
3, 117600, Note_off_c, 2, 74, 95
3, 117600, Note_on_c, 2, 71, 95
3, 117840, Note_off_c, 2, 71, 95
3, 117840, Note_on_c, 2, 71, 95
3, 118080, Note_off_c, 2, 71, 95
3, 118080, Note_on_c, 2, 69, 95
3, 119040, Note_off_c, 2, 69, 95
3, 119040, Note_on_c, 2, 66, 95
3, 122880, Note_off_c, 2, 66, 95
3, 122880, Note_on_c, 2, 71, 95
3, 126720, Note_off_c, 2, 71, 95
3, 126720, Note_on_c, 2, 69, 95
3, 126720, Note_on_c, 2, 57, 95
3, 130560, Note_off_c, 2, 69, 95
3, 130560, Note_off_c, 2, 57, 95
3, 130560, Note_on_c, 2, 64, 95
3, 130560, Note_on_c, 2, 60, 95
3, 130560, Note_on_c, 2, 55, 95
3, 133440, Note_off_c, 2, 64, 95
3, 133440, Note_off_c, 2, 60, 95
3, 133440, Note_off_c, 2, 55, 95
3, 133440, Note_on_c, 2, 62, 95
3, 133440, Note_on_c, 2, 57, 95
3, 133440, Note_on_c, 2, 50, 95
3, 133680, Note_off_c, 2, 62, 95
3, 133680, Note_off_c, 2, 57, 95
3, 133680, Note_off_c, 2, 50, 95
3, 133680, Note_on_c, 2, 66, 95
3, 134400, Note_off_c, 2, 66, 95
3, 134400, Note_on_c, 2, 67, 95
3, 134400, Note_on_c, 2, 59, 95
3, 134400, Note_on_c, 2, 55, 95
3, 138240, Note_off_c, 2, 67, 95
3, 138240, Note_off_c, 2, 59, 95
3, 138240, Note_off_c, 2, 55, 95
3, 138240, Note_on_c, 2, 62, 95
3, 138240, Note_on_c, 2, 57, 95
3, 138240, Note_on_c, 2, 50, 95
3, 138480, Note_off_c, 2, 62, 95
3, 138480, Note_off_c, 2, 57, 95
3, 138480, Note_off_c, 2, 50, 95
3, 138480, Note_on_c, 2, 66, 95
3, 140160, Note_off_c, 2, 66, 95
3, 140160, Note_on_c, 2, 66, 95
3, 140160, Note_on_c, 2, 62, 95
3, 140160, Note_on_c, 2, 57, 95
3, 140640, Note_off_c, 2, 66, 95
3, 140640, Note_off_c, 2, 62, 95
3, 140640, Note_off_c, 2, 57, 95
3, 140640, Note_on_c, 2, 66, 95
3, 141120, Note_off_c, 2, 66, 95
3, 141120, Note_on_c, 2, 60, 95
3, 141120, Note_on_c, 2, 55, 95
3, 141120, Note_on_c, 2, 52, 95
3, 141360, Note_off_c, 2, 60, 95
3, 141360, Note_off_c, 2, 55, 95
3, 141360, Note_off_c, 2, 52, 95
3, 141360, Note_on_c, 2, 64, 95
3, 141600, Note_off_c, 2, 64, 95
3, 141600, Note_on_c, 2, 64, 95
3, 141840, Note_off_c, 2, 64, 95
3, 141840, Note_on_c, 2, 60, 95
3, 142080, Note_off_c, 2, 60, 95
3, 142080, Note_on_c, 2, 71, 95
3, 142080, Note_on_c, 2, 66, 95
3, 142080, Note_on_c, 2, 62, 95
3, 145920, Note_off_c, 2, 71, 95
3, 145920, Note_off_c, 2, 66, 95
3, 145920, Note_off_c, 2, 62, 95
3, 145920, Note_on_c, 2, 74, 95
3, 148800, Note_off_c, 2, 74, 95
3, 148800, Note_on_c, 2, 69, 95
3, 149040, Note_off_c, 2, 69, 95
3, 149040, Note_on_c, 2, 67, 95
3, 149760, Note_off_c, 2, 67, 95
3, 149760, Note_on_c, 2, 66, 95
3, 153600, Note_off_c, 2, 66, 95
3, 153600, Note_on_c, 2, 71, 95
3, 157440, Note_off_c, 2, 71, 95
3, 157440, Note_on_c, 2, 69, 95
3, 157440, Note_on_c, 2, 57, 95
3, 159120, Note_off_c, 2, 69, 95
3, 159120, Note_off_c, 2, 57, 95
3, 159120, Note_on_c, 2, 69, 95
3, 159840, Note_off_c, 2, 69, 95
3, 159840, Note_on_c, 2, 69, 95
3, 160800, Note_off_c, 2, 69, 95
3, 160800, Note_on_c, 2, 71, 95
3, 161280, Note_off_c, 2, 71, 95
3, 161280, Note_on_c, 2, 64, 95
3, 161280, Note_on_c, 2, 60, 95
3, 161280, Note_on_c, 2, 55, 95
3, 163200, Note_off_c, 2, 64, 95
3, 163200, Note_off_c, 2, 60, 95
3, 163200, Note_off_c, 2, 55, 95
3, 163200, Note_on_c, 2, 72, 95
3, 163680, Note_off_c, 2, 72, 95
3, 163680, Note_on_c, 2, 67, 95
3, 164160, Note_off_c, 2, 67, 95
3, 164160, Note_on_c, 2, 69, 95
3, 164160, Note_on_c, 2, 66, 95
3, 164160, Note_on_c, 2, 62, 95
3, 164400, Note_off_c, 2, 69, 95
3, 164400, Note_off_c, 2, 66, 95
3, 164400, Note_off_c, 2, 62, 95
3, 164400, Note_on_c, 2, 74, 95
3, 164640, Note_off_c, 2, 74, 95
3, 164640, Note_on_c, 2, 69, 95
3, 165120, Note_off_c, 2, 69, 95
3, 165120, Note_on_c, 2, 67, 95
3, 165120, Note_on_c, 2, 59, 95
3, 165120, Note_on_c, 2, 55, 95
3, 168960, Note_off_c, 2, 67, 95
3, 168960, Note_off_c, 2, 59, 95
3, 168960, Note_off_c, 2, 55, 95
3, 168960, Note_on_c, 2, 74, 95
3, 169920, Note_off_c, 2, 74, 95
3, 169920, Note_on_c, 2, 69, 95
3, 170160, Note_off_c, 2, 69, 95
3, 170160, Note_on_c, 2, 66, 95
3, 170400, Note_off_c, 2, 66, 95
3, 170400, Note_on_c, 2, 62, 95
3, 170880, Note_off_c, 2, 62, 95
3, 170880, Note_on_c, 2, 69, 95
3, 171120, Note_off_c, 2, 69, 95
3, 171120, Note_on_c, 2, 66, 95
3, 171360, Note_off_c, 2, 66, 95
3, 171360, Note_on_c, 2, 62, 95
3, 171840, Note_off_c, 2, 62, 95
3, 171840, Note_on_c, 2, 74, 95
3, 171840, Note_on_c, 2, 69, 95
3, 171840, Note_on_c, 2, 66, 95
3, 171840, Note_on_c, 2, 62, 95
3, 172320, Note_off_c, 2, 74, 95
3, 172320, Note_off_c, 2, 69, 95
3, 172320, Note_off_c, 2, 66, 95
3, 172320, Note_off_c, 2, 62, 95
3, 172320, Note_on_c, 2, 71, 95
3, 172320, Note_on_c, 2, 67, 95
3, 172320, Note_on_c, 2, 62, 95
3, 172320, Note_on_c, 2, 59, 95
3, 172800, Note_off_c, 2, 71, 95
3, 172800, Note_off_c, 2, 67, 95
3, 172800, Note_off_c, 2, 62, 95
3, 172800, Note_off_c, 2, 59, 95
3, 172800, Note_on_c, 2, 64, 95
3, 172800, Note_on_c, 2, 60, 95
3, 172800, Note_on_c, 2, 57, 95
3, 172800, Note_on_c, 2, 52, 95
3, 173760, Note_off_c, 2, 64, 95
3, 173760, Note_off_c, 2, 60, 95
3, 173760, Note_off_c, 2, 57, 95
3, 173760, Note_off_c, 2, 52, 95
3, 173760, Note_on_c, 2, 64, 95
3, 173760, Note_on_c, 2, 60, 95
3, 173760, Note_on_c, 2, 57, 95
3, 173760, Note_on_c, 2, 52, 95
3, 174720, Note_off_c, 2, 64, 95
3, 174720, Note_off_c, 2, 60, 95
3, 174720, Note_off_c, 2, 57, 95
3, 174720, Note_off_c, 2, 52, 95
3, 174720, Note_on_c, 2, 67, 95
3, 174720, Note_on_c, 2, 60, 95
3, 174720, Note_on_c, 2, 57, 95
3, 174720, Note_on_c, 2, 52, 95
3, 175680, Note_off_c, 2, 67, 95
3, 175680, Note_off_c, 2, 60, 95
3, 175680, Note_off_c, 2, 57, 95
3, 175680, Note_off_c, 2, 52, 95
3, 175680, Note_on_c, 2, 67, 95
3, 175680, Note_on_c, 2, 60, 95
3, 175680, Note_on_c, 2, 57, 95
3, 175680, Note_on_c, 2, 52, 95
3, 176160, Note_off_c, 2, 67, 95
3, 176160, Note_off_c, 2, 60, 95
3, 176160, Note_off_c, 2, 57, 95
3, 176160, Note_off_c, 2, 52, 95
3, 176160, Note_on_c, 2, 67, 95
3, 176160, Note_on_c, 2, 60, 95
3, 176160, Note_on_c, 2, 57, 95
3, 176640, Note_off_c, 2, 67, 95
3, 176640, Note_off_c, 2, 60, 95
3, 176640, Note_off_c, 2, 57, 95
3, 176640, Note_on_c, 2, 64, 95
3, 176640, Note_on_c, 2, 60, 95
3, 176640, Note_on_c, 2, 55, 95
3, 176640, Note_on_c, 2, 52, 95
3, 176640, Note_on_c, 2, 48, 95
3, 177600, Note_off_c, 2, 64, 95
3, 177600, Note_off_c, 2, 60, 95
3, 177600, Note_off_c, 2, 55, 95
3, 177600, Note_off_c, 2, 52, 95
3, 177600, Note_off_c, 2, 48, 95
3, 177600, Note_on_c, 2, 64, 95
3, 177600, Note_on_c, 2, 60, 95
3, 177600, Note_on_c, 2, 55, 95
3, 177600, Note_on_c, 2, 52, 95
3, 178560, Note_off_c, 2, 64, 95
3, 178560, Note_off_c, 2, 60, 95
3, 178560, Note_off_c, 2, 55, 95
3, 178560, Note_off_c, 2, 52, 95
3, 178560, Note_on_c, 2, 64, 95
3, 178560, Note_on_c, 2, 60, 95
3, 178560, Note_on_c, 2, 55, 95
3, 178560, Note_on_c, 2, 52, 95
3, 179040, Note_off_c, 2, 64, 95
3, 179040, Note_off_c, 2, 60, 95
3, 179040, Note_off_c, 2, 55, 95
3, 179040, Note_off_c, 2, 52, 95
3, 179040, Note_on_c, 2, 64, 95
3, 179040, Note_on_c, 2, 60, 95
3, 179040, Note_on_c, 2, 55, 95
3, 179040, Note_on_c, 2, 52, 95
3, 179520, Note_off_c, 2, 64, 95
3, 179520, Note_off_c, 2, 60, 95
3, 179520, Note_off_c, 2, 55, 95
3, 179520, Note_off_c, 2, 52, 95
3, 179520, Note_on_c, 2, 66, 95
3, 179520, Note_on_c, 2, 62, 95
3, 179520, Note_on_c, 2, 57, 95
3, 179520, Note_on_c, 2, 50, 95
3, 179760, Note_off_c, 2, 66, 95
3, 179760, Note_off_c, 2, 62, 95
3, 179760, Note_off_c, 2, 57, 95
3, 179760, Note_off_c, 2, 50, 95
3, 179760, Note_on_c, 2, 66, 95
3, 179760, Note_on_c, 2, 62, 95
3, 179760, Note_on_c, 2, 57, 95
3, 180000, Note_off_c, 2, 66, 95
3, 180000, Note_off_c, 2, 62, 95
3, 180000, Note_off_c, 2, 57, 95
3, 180000, Note_on_c, 2, 62, 95
3, 180000, Note_on_c, 2, 59, 95
3, 180000, Note_on_c, 2, 52, 95
3, 180480, Note_off_c, 2, 62, 95
3, 180480, Note_off_c, 2, 59, 95
3, 180480, Note_off_c, 2, 52, 95
3, 180480, Note_on_c, 2, 67, 95
3, 180480, Note_on_c, 2, 59, 95
3, 180480, Note_on_c, 2, 55, 95
3, 180480, Note_on_c, 2, 50, 95
3, 180480, Note_on_c, 2, 47, 95
3, 181440, Note_off_c, 2, 67, 95
3, 181440, Note_off_c, 2, 59, 95
3, 181440, Note_off_c, 2, 55, 95
3, 181440, Note_off_c, 2, 50, 95
3, 181440, Note_off_c, 2, 47, 95
3, 181440, Note_on_c, 2, 67, 95
3, 181440, Note_on_c, 2, 59, 95
3, 181440, Note_on_c, 2, 55, 95
3, 181440, Note_on_c, 2, 50, 95
3, 182400, Note_off_c, 2, 67, 95
3, 182400, Note_off_c, 2, 59, 95
3, 182400, Note_off_c, 2, 55, 95
3, 182400, Note_off_c, 2, 50, 95
3, 182400, Note_on_c, 2, 65, 95
3, 182400, Note_on_c, 2, 60, 95
3, 182400, Note_on_c, 2, 57, 95
3, 182400, Note_on_c, 2, 53, 95
3, 183360, Note_off_c, 2, 65, 95
3, 183360, Note_off_c, 2, 60, 95
3, 183360, Note_off_c, 2, 57, 95
3, 183360, Note_off_c, 2, 53, 95
3, 183360, Note_on_c, 2, 65, 95
3, 183360, Note_on_c, 2, 60, 95
3, 183360, Note_on_c, 2, 57, 95
3, 183360, Note_on_c, 2, 53, 95
3, 183840, Note_off_c, 2, 65, 95
3, 183840, Note_off_c, 2, 60, 95
3, 183840, Note_off_c, 2, 57, 95
3, 183840, Note_off_c, 2, 53, 95
3, 183840, Note_on_c, 2, 65, 95
3, 183840, Note_on_c, 2, 60, 95
3, 183840, Note_on_c, 2, 57, 95
3, 184320, Note_off_c, 2, 65, 95
3, 184320, Note_off_c, 2, 60, 95
3, 184320, Note_off_c, 2, 57, 95
3, 184320, Note_on_c, 2, 64, 95
3, 184320, Note_on_c, 2, 60, 95
3, 184320, Note_on_c, 2, 55, 95
3, 184320, Note_on_c, 2, 52, 95
3, 185280, Note_off_c, 2, 64, 95
3, 185280, Note_off_c, 2, 60, 95
3, 185280, Note_off_c, 2, 55, 95
3, 185280, Note_off_c, 2, 52, 95
3, 185280, Note_on_c, 2, 64, 95
3, 185280, Note_on_c, 2, 60, 95
3, 185280, Note_on_c, 2, 55, 95
3, 185280, Note_on_c, 2, 52, 95
3, 186000, Note_off_c, 2, 64, 95
3, 186000, Note_off_c, 2, 60, 95
3, 186000, Note_off_c, 2, 55, 95
3, 186000, Note_off_c, 2, 52, 95
3, 186000, Note_on_c, 2, 64, 95
3, 186000, Note_on_c, 2, 60, 95
3, 186000, Note_on_c, 2, 55, 95
3, 186240, Note_off_c, 2, 64, 95
3, 186240, Note_off_c, 2, 60, 95
3, 186240, Note_off_c, 2, 55, 95
3, 186240, Note_on_c, 2, 64, 95
3, 186240, Note_on_c, 2, 60, 95
3, 186240, Note_on_c, 2, 55, 95
3, 186240, Note_on_c, 2, 52, 95
3, 186720, Note_off_c, 2, 64, 95
3, 186720, Note_off_c, 2, 60, 95
3, 186720, Note_off_c, 2, 55, 95
3, 186720, Note_off_c, 2, 52, 95
3, 186720, Note_on_c, 2, 64, 95
3, 186720, Note_on_c, 2, 60, 95
3, 186720, Note_on_c, 2, 55, 95
3, 187200, Note_off_c, 2, 64, 95
3, 187200, Note_off_c, 2, 60, 95
3, 187200, Note_off_c, 2, 55, 95
3, 187200, Note_on_c, 2, 66, 95
3, 187200, Note_on_c, 2, 62, 95
3, 187200, Note_on_c, 2, 59, 95
3, 187200, Note_on_c, 2, 54, 95
3, 187440, Note_off_c, 2, 66, 95
3, 187440, Note_off_c, 2, 62, 95
3, 187440, Note_off_c, 2, 59, 95
3, 187440, Note_off_c, 2, 54, 95
3, 187440, Note_on_c, 2, 66, 95
3, 187440, Note_on_c, 2, 62, 95
3, 187440, Note_on_c, 2, 59, 95
3, 187680, Note_off_c, 2, 66, 95
3, 187680, Note_off_c, 2, 62, 95
3, 187680, Note_off_c, 2, 59, 95
3, 187680, Note_on_c, 2, 66, 95
3, 187680, Note_on_c, 2, 62, 95
3, 187680, Note_on_c, 2, 59, 95
3, 187680, Note_on_c, 2, 54, 95
3, 188160, Note_off_c, 2, 66, 95
3, 188160, Note_off_c, 2, 62, 95
3, 188160, Note_off_c, 2, 59, 95
3, 188160, Note_off_c, 2, 54, 95
3, 188160, Note_on_c, 2, 64, 95
3, 188160, Note_on_c, 2, 60, 95
3, 188160, Note_on_c, 2, 57, 95
3, 188160, Note_on_c, 2, 52, 95
3, 189120, Note_off_c, 2, 64, 95
3, 189120, Note_off_c, 2, 60, 95
3, 189120, Note_off_c, 2, 57, 95
3, 189120, Note_off_c, 2, 52, 95
3, 189120, Note_on_c, 2, 64, 95
3, 189120, Note_on_c, 2, 60, 95
3, 189120, Note_on_c, 2, 57, 95
3, 189120, Note_on_c, 2, 52, 95
3, 190080, Note_off_c, 2, 64, 95
3, 190080, Note_off_c, 2, 60, 95
3, 190080, Note_off_c, 2, 57, 95
3, 190080, Note_off_c, 2, 52, 95
3, 190080, Note_on_c, 2, 67, 95
3, 190080, Note_on_c, 2, 60, 95
3, 190080, Note_on_c, 2, 57, 95
3, 190080, Note_on_c, 2, 52, 95
3, 191040, Note_off_c, 2, 67, 95
3, 191040, Note_off_c, 2, 60, 95
3, 191040, Note_off_c, 2, 57, 95
3, 191040, Note_off_c, 2, 52, 95
3, 191040, Note_on_c, 2, 67, 95
3, 191040, Note_on_c, 2, 60, 95
3, 191040, Note_on_c, 2, 57, 95
3, 191040, Note_on_c, 2, 52, 95
3, 191520, Note_off_c, 2, 67, 95
3, 191520, Note_off_c, 2, 60, 95
3, 191520, Note_off_c, 2, 57, 95
3, 191520, Note_off_c, 2, 52, 95
3, 191520, Note_on_c, 2, 67, 95
3, 191520, Note_on_c, 2, 60, 95
3, 191520, Note_on_c, 2, 57, 95
3, 192000, Note_off_c, 2, 67, 95
3, 192000, Note_off_c, 2, 60, 95
3, 192000, Note_off_c, 2, 57, 95
3, 192000, Note_on_c, 2, 64, 95
3, 192000, Note_on_c, 2, 60, 95
3, 192000, Note_on_c, 2, 55, 95
3, 192000, Note_on_c, 2, 52, 95
3, 192000, Note_on_c, 2, 48, 95
3, 192960, Note_off_c, 2, 64, 95
3, 192960, Note_off_c, 2, 60, 95
3, 192960, Note_off_c, 2, 55, 95
3, 192960, Note_off_c, 2, 52, 95
3, 192960, Note_off_c, 2, 48, 95
3, 192960, Note_on_c, 2, 64, 95
3, 192960, Note_on_c, 2, 60, 95
3, 192960, Note_on_c, 2, 55, 95
3, 192960, Note_on_c, 2, 52, 95
3, 193920, Note_off_c, 2, 64, 95
3, 193920, Note_off_c, 2, 60, 95
3, 193920, Note_off_c, 2, 55, 95
3, 193920, Note_off_c, 2, 52, 95
3, 193920, Note_on_c, 2, 64, 95
3, 193920, Note_on_c, 2, 60, 95
3, 193920, Note_on_c, 2, 55, 95
3, 193920, Note_on_c, 2, 52, 95
3, 194400, Note_off_c, 2, 64, 95
3, 194400, Note_off_c, 2, 60, 95
3, 194400, Note_off_c, 2, 55, 95
3, 194400, Note_off_c, 2, 52, 95
3, 194400, Note_on_c, 2, 64, 95
3, 194400, Note_on_c, 2, 60, 95
3, 194400, Note_on_c, 2, 55, 95
3, 194400, Note_on_c, 2, 52, 95
3, 194880, Note_off_c, 2, 64, 95
3, 194880, Note_off_c, 2, 60, 95
3, 194880, Note_off_c, 2, 55, 95
3, 194880, Note_off_c, 2, 52, 95
3, 194880, Note_on_c, 2, 66, 95
3, 194880, Note_on_c, 2, 62, 95
3, 194880, Note_on_c, 2, 57, 95
3, 194880, Note_on_c, 2, 50, 95
3, 195120, Note_off_c, 2, 66, 95
3, 195120, Note_off_c, 2, 62, 95
3, 195120, Note_off_c, 2, 57, 95
3, 195120, Note_off_c, 2, 50, 95
3, 195120, Note_on_c, 2, 66, 95
3, 195120, Note_on_c, 2, 62, 95
3, 195120, Note_on_c, 2, 57, 95
3, 195360, Note_off_c, 2, 66, 95
3, 195360, Note_off_c, 2, 62, 95
3, 195360, Note_off_c, 2, 57, 95
3, 195360, Note_on_c, 2, 62, 95
3, 195360, Note_on_c, 2, 57, 95
3, 195360, Note_on_c, 2, 50, 95
3, 195840, Note_off_c, 2, 62, 95
3, 195840, Note_off_c, 2, 57, 95
3, 195840, Note_off_c, 2, 50, 95
3, 195840, Note_on_c, 2, 67, 95
3, 195840, Note_on_c, 2, 59, 95
3, 195840, Note_on_c, 2, 55, 95
3, 195840, Note_on_c, 2, 50, 95
3, 195840, Note_on_c, 2, 47, 95
3, 196800, Note_off_c, 2, 67, 95
3, 196800, Note_off_c, 2, 59, 95
3, 196800, Note_off_c, 2, 55, 95
3, 196800, Note_off_c, 2, 50, 95
3, 196800, Note_off_c, 2, 47, 95
3, 196800, Note_on_c, 2, 67, 95
3, 196800, Note_on_c, 2, 59, 95
3, 196800, Note_on_c, 2, 55, 95
3, 196800, Note_on_c, 2, 50, 95
3, 197760, Note_off_c, 2, 67, 95
3, 197760, Note_off_c, 2, 59, 95
3, 197760, Note_off_c, 2, 55, 95
3, 197760, Note_off_c, 2, 50, 95
3, 197760, Note_on_c, 2, 65, 95
3, 197760, Note_on_c, 2, 60, 95
3, 197760, Note_on_c, 2, 57, 95
3, 197760, Note_on_c, 2, 53, 95
3, 198720, Note_off_c, 2, 65, 95
3, 198720, Note_off_c, 2, 60, 95
3, 198720, Note_off_c, 2, 57, 95
3, 198720, Note_off_c, 2, 53, 95
3, 198720, Note_on_c, 2, 65, 95
3, 198720, Note_on_c, 2, 60, 95
3, 198720, Note_on_c, 2, 57, 95
3, 198720, Note_on_c, 2, 53, 95
3, 199680, Note_off_c, 2, 65, 95
3, 199680, Note_off_c, 2, 60, 95
3, 199680, Note_off_c, 2, 57, 95
3, 199680, Note_off_c, 2, 53, 95
3, 199680, Note_on_c, 2, 64, 95
3, 199680, Note_on_c, 2, 60, 95
3, 199680, Note_on_c, 2, 55, 95
3, 199680, Note_on_c, 2, 52, 95
3, 199680, Note_on_c, 2, 48, 95
3, 199920, Note_off_c, 2, 64, 95
3, 199920, Note_off_c, 2, 60, 95
3, 199920, Note_off_c, 2, 55, 95
3, 199920, Note_off_c, 2, 52, 95
3, 199920, Note_off_c, 2, 48, 95
3, 199920, Note_on_c, 2, 64, 95
3, 199920, Note_on_c, 2, 60, 95
3, 199920, Note_on_c, 2, 55, 95
3, 200160, Note_off_c, 2, 64, 95
3, 200160, Note_off_c, 2, 60, 95
3, 200160, Note_off_c, 2, 55, 95
3, 200160, Note_on_c, 2, 60, 95
3, 200160, Note_on_c, 2, 55, 95
3, 200160, Note_on_c, 2, 52, 95
3, 200160, Note_on_c, 2, 48, 95
3, 200640, Note_off_c, 2, 60, 95
3, 200640, Note_off_c, 2, 55, 95
3, 200640, Note_off_c, 2, 52, 95
3, 200640, Note_off_c, 2, 48, 95
3, 200640, Note_on_c, 2, 60, 95
3, 200640, Note_on_c, 2, 55, 95
3, 200640, Note_on_c, 2, 52, 95
3, 200640, Note_on_c, 2, 48, 95
3, 201360, Note_off_c, 2, 60, 95
3, 201360, Note_off_c, 2, 55, 95
3, 201360, Note_off_c, 2, 52, 95
3, 201360, Note_off_c, 2, 48, 95
3, 201360, Note_on_c, 2, 64, 95
3, 201360, Note_on_c, 2, 60, 95
3, 201360, Note_on_c, 2, 55, 95
3, 201360, Note_on_c, 2, 52, 95
3, 201600, Note_off_c, 2, 64, 95
3, 201600, Note_off_c, 2, 60, 95
3, 201600, Note_off_c, 2, 55, 95
3, 201600, Note_off_c, 2, 52, 95
3, 201600, Note_on_c, 2, 64, 95
3, 201600, Note_on_c, 2, 60, 95
3, 201600, Note_on_c, 2, 55, 95
3, 201600, Note_on_c, 2, 52, 95
3, 201600, Note_on_c, 2, 48, 95
3, 202080, Note_off_c, 2, 64, 95
3, 202080, Note_off_c, 2, 60, 95
3, 202080, Note_off_c, 2, 55, 95
3, 202080, Note_off_c, 2, 52, 95
3, 202080, Note_off_c, 2, 48, 95
3, 202080, Note_on_c, 2, 64, 95
3, 202080, Note_on_c, 2, 60, 95
3, 202080, Note_on_c, 2, 55, 95
3, 202080, Note_on_c, 2, 52, 95
3, 202560, Note_off_c, 2, 64, 95
3, 202560, Note_off_c, 2, 60, 95
3, 202560, Note_off_c, 2, 55, 95
3, 202560, Note_off_c, 2, 52, 95
3, 202560, Note_on_c, 2, 64, 95
3, 202560, Note_on_c, 2, 60, 95
3, 202560, Note_on_c, 2, 55, 95
3, 202560, Note_on_c, 2, 52, 95
3, 203040, Note_off_c, 2, 64, 95
3, 203040, Note_off_c, 2, 60, 95
3, 203040, Note_off_c, 2, 55, 95
3, 203040, Note_off_c, 2, 52, 95
3, 203040, Note_on_c, 2, 60, 95
3, 203040, Note_on_c, 2, 55, 95
3, 203040, Note_on_c, 2, 52, 95
3, 203040, Note_on_c, 2, 48, 95
3, 203520, Note_off_c, 2, 60, 95
3, 203520, Note_off_c, 2, 55, 95
3, 203520, Note_off_c, 2, 52, 95
3, 203520, Note_off_c, 2, 48, 95
3, 203520, Note_on_c, 2, 65, 95
3, 203520, Note_on_c, 2, 60, 95
3, 203520, Note_on_c, 2, 57, 95
3, 203520, Note_on_c, 2, 53, 95
3, 203760, Note_off_c, 2, 65, 95
3, 203760, Note_off_c, 2, 60, 95
3, 203760, Note_off_c, 2, 57, 95
3, 203760, Note_off_c, 2, 53, 95
3, 203760, Note_on_c, 2, 65, 95
3, 203760, Note_on_c, 2, 60, 95
3, 203760, Note_on_c, 2, 57, 95
3, 204000, Note_off_c, 2, 65, 95
3, 204000, Note_off_c, 2, 60, 95
3, 204000, Note_off_c, 2, 57, 95
3, 204000, Note_on_c, 2, 65, 95
3, 204000, Note_on_c, 2, 60, 95
3, 204000, Note_on_c, 2, 57, 95
3, 204000, Note_on_c, 2, 53, 95
3, 204480, Note_off_c, 2, 65, 95
3, 204480, Note_off_c, 2, 60, 95
3, 204480, Note_off_c, 2, 57, 95
3, 204480, Note_off_c, 2, 53, 95
3, 204480, Note_on_c, 2, 65, 95
3, 204480, Note_on_c, 2, 60, 95
3, 204480, Note_on_c, 2, 57, 95
3, 204480, Note_on_c, 2, 53, 95
3, 205200, Note_off_c, 2, 65, 95
3, 205200, Note_off_c, 2, 60, 95
3, 205200, Note_off_c, 2, 57, 95
3, 205200, Note_off_c, 2, 53, 95
3, 205200, Note_on_c, 2, 65, 95
3, 205200, Note_on_c, 2, 60, 95
3, 205200, Note_on_c, 2, 57, 95
3, 205440, Note_off_c, 2, 65, 95
3, 205440, Note_off_c, 2, 60, 95
3, 205440, Note_off_c, 2, 57, 95
3, 205440, Note_on_c, 2, 65, 95
3, 205440, Note_on_c, 2, 60, 95
3, 205440, Note_on_c, 2, 57, 95
3, 205440, Note_on_c, 2, 53, 95
3, 205920, Note_off_c, 2, 65, 95
3, 205920, Note_off_c, 2, 60, 95
3, 205920, Note_off_c, 2, 57, 95
3, 205920, Note_off_c, 2, 53, 95
3, 205920, Note_on_c, 2, 65, 95
3, 205920, Note_on_c, 2, 60, 95
3, 205920, Note_on_c, 2, 57, 95
3, 205920, Note_on_c, 2, 53, 95
3, 206400, Note_off_c, 2, 65, 95
3, 206400, Note_off_c, 2, 60, 95
3, 206400, Note_off_c, 2, 57, 95
3, 206400, Note_off_c, 2, 53, 95
3, 206400, Note_on_c, 2, 65, 95
3, 206400, Note_on_c, 2, 60, 95
3, 206400, Note_on_c, 2, 57, 95
3, 206400, Note_on_c, 2, 53, 95
3, 206880, Note_off_c, 2, 65, 95
3, 206880, Note_off_c, 2, 60, 95
3, 206880, Note_off_c, 2, 57, 95
3, 206880, Note_off_c, 2, 53, 95
3, 206880, Note_on_c, 2, 65, 95
3, 206880, Note_on_c, 2, 60, 95
3, 206880, Note_on_c, 2, 57, 95
3, 206880, Note_on_c, 2, 53, 95
3, 207360, Note_off_c, 2, 65, 95
3, 207360, Note_off_c, 2, 60, 95
3, 207360, Note_off_c, 2, 57, 95
3, 207360, Note_off_c, 2, 53, 95
3, 207360, Note_on_c, 2, 60, 95
3, 207360, Note_on_c, 2, 55, 95
3, 207360, Note_on_c, 2, 52, 95
3, 207360, Note_on_c, 2, 48, 95
3, 207840, Note_off_c, 2, 60, 95
3, 207840, Note_off_c, 2, 55, 95
3, 207840, Note_off_c, 2, 52, 95
3, 207840, Note_off_c, 2, 48, 95
3, 207840, Note_on_c, 2, 60, 95
3, 207840, Note_on_c, 2, 55, 95
3, 207840, Note_on_c, 2, 52, 95
3, 208320, Note_off_c, 2, 60, 95
3, 208320, Note_off_c, 2, 55, 95
3, 208320, Note_off_c, 2, 52, 95
3, 208320, Note_on_c, 2, 64, 95
3, 208320, Note_on_c, 2, 60, 95
3, 208320, Note_on_c, 2, 55, 95
3, 208320, Note_on_c, 2, 52, 95
3, 209040, Note_off_c, 2, 64, 95
3, 209040, Note_off_c, 2, 60, 95
3, 209040, Note_off_c, 2, 55, 95
3, 209040, Note_off_c, 2, 52, 95
3, 209040, Note_on_c, 2, 64, 95
3, 209040, Note_on_c, 2, 60, 95
3, 209040, Note_on_c, 2, 55, 95
3, 209040, Note_on_c, 2, 52, 95
3, 209280, Note_off_c, 2, 64, 95
3, 209280, Note_off_c, 2, 60, 95
3, 209280, Note_off_c, 2, 55, 95
3, 209280, Note_off_c, 2, 52, 95
3, 209280, Note_on_c, 2, 64, 95
3, 209280, Note_on_c, 2, 60, 95
3, 209280, Note_on_c, 2, 55, 95
3, 209280, Note_on_c, 2, 52, 95
3, 209280, Note_on_c, 2, 48, 95
3, 209760, Note_off_c, 2, 64, 95
3, 209760, Note_off_c, 2, 60, 95
3, 209760, Note_off_c, 2, 55, 95
3, 209760, Note_off_c, 2, 52, 95
3, 209760, Note_off_c, 2, 48, 95
3, 209760, Note_on_c, 2, 60, 95
3, 209760, Note_on_c, 2, 55, 95
3, 209760, Note_on_c, 2, 52, 95
3, 210240, Note_off_c, 2, 60, 95
3, 210240, Note_off_c, 2, 55, 95
3, 210240, Note_off_c, 2, 52, 95
3, 210240, Note_on_c, 2, 64, 95
3, 210240, Note_on_c, 2, 60, 95
3, 210240, Note_on_c, 2, 55, 95
3, 210240, Note_on_c, 2, 52, 95
3, 210720, Note_off_c, 2, 64, 95
3, 210720, Note_off_c, 2, 60, 95
3, 210720, Note_off_c, 2, 55, 95
3, 210720, Note_off_c, 2, 52, 95
3, 210720, Note_on_c, 2, 60, 95
3, 210720, Note_on_c, 2, 55, 95
3, 210720, Note_on_c, 2, 52, 95
3, 211200, Note_off_c, 2, 60, 95
3, 211200, Note_off_c, 2, 55, 95
3, 211200, Note_off_c, 2, 52, 95
3, 211200, Note_on_c, 2, 65, 95
3, 211200, Note_on_c, 2, 60, 95
3, 211200, Note_on_c, 2, 57, 95
3, 211200, Note_on_c, 2, 53, 95
3, 211680, Note_off_c, 2, 65, 95
3, 211680, Note_off_c, 2, 60, 95
3, 211680, Note_off_c, 2, 57, 95
3, 211680, Note_off_c, 2, 53, 95
3, 211680, Note_on_c, 2, 65, 95
3, 211680, Note_on_c, 2, 60, 95
3, 211680, Note_on_c, 2, 57, 95
3, 211680, Note_on_c, 2, 53, 95
3, 212160, Note_off_c, 2, 65, 95
3, 212160, Note_off_c, 2, 60, 95
3, 212160, Note_off_c, 2, 57, 95
3, 212160, Note_off_c, 2, 53, 95
3, 212160, Note_on_c, 2, 65, 95
3, 212160, Note_on_c, 2, 60, 95
3, 212160, Note_on_c, 2, 57, 95
3, 212160, Note_on_c, 2, 53, 95
3, 212880, Note_off_c, 2, 65, 95
3, 212880, Note_off_c, 2, 60, 95
3, 212880, Note_off_c, 2, 57, 95
3, 212880, Note_off_c, 2, 53, 95
3, 212880, Note_on_c, 2, 65, 95
3, 212880, Note_on_c, 2, 60, 95
3, 212880, Note_on_c, 2, 57, 95
3, 213120, Note_off_c, 2, 65, 95
3, 213120, Note_off_c, 2, 60, 95
3, 213120, Note_off_c, 2, 57, 95
3, 213120, Note_on_c, 2, 65, 95
3, 213120, Note_on_c, 2, 60, 95
3, 213120, Note_on_c, 2, 57, 95
3, 213120, Note_on_c, 2, 53, 95
3, 213600, Note_off_c, 2, 65, 95
3, 213600, Note_off_c, 2, 60, 95
3, 213600, Note_off_c, 2, 57, 95
3, 213600, Note_off_c, 2, 53, 95
3, 213600, Note_on_c, 2, 65, 95
3, 213600, Note_on_c, 2, 60, 95
3, 213600, Note_on_c, 2, 57, 95
3, 213600, Note_on_c, 2, 53, 95
3, 214080, Note_off_c, 2, 65, 95
3, 214080, Note_off_c, 2, 60, 95
3, 214080, Note_off_c, 2, 57, 95
3, 214080, Note_off_c, 2, 53, 95
3, 214080, Note_on_c, 2, 65, 95
3, 214080, Note_on_c, 2, 60, 95
3, 214080, Note_on_c, 2, 57, 95
3, 214080, Note_on_c, 2, 53, 95
3, 214560, Note_off_c, 2, 65, 95
3, 214560, Note_off_c, 2, 60, 95
3, 214560, Note_off_c, 2, 57, 95
3, 214560, Note_off_c, 2, 53, 95
3, 214560, Note_on_c, 2, 65, 95
3, 214560, Note_on_c, 2, 60, 95
3, 214560, Note_on_c, 2, 57, 95
3, 214560, Note_on_c, 2, 53, 95
3, 215040, Note_off_c, 2, 65, 95
3, 215040, Note_off_c, 2, 60, 95
3, 215040, Note_off_c, 2, 57, 95
3, 215040, Note_off_c, 2, 53, 95
3, 215040, Note_on_c, 2, 64, 95
3, 215040, Note_on_c, 2, 60, 95
3, 215040, Note_on_c, 2, 55, 95
3, 215040, Note_on_c, 2, 52, 95
3, 215040, Note_on_c, 2, 48, 95
3, 215520, Note_off_c, 2, 64, 95
3, 215520, Note_off_c, 2, 60, 95
3, 215520, Note_off_c, 2, 55, 95
3, 215520, Note_off_c, 2, 52, 95
3, 215520, Note_off_c, 2, 48, 95
3, 215520, Note_on_c, 2, 64, 95
3, 215520, Note_on_c, 2, 60, 95
3, 215520, Note_on_c, 2, 55, 95
3, 215520, Note_on_c, 2, 52, 95
3, 216000, Note_off_c, 2, 64, 95
3, 216000, Note_off_c, 2, 60, 95
3, 216000, Note_off_c, 2, 55, 95
3, 216000, Note_off_c, 2, 52, 95
3, 216000, Note_on_c, 2, 60, 95
3, 216000, Note_on_c, 2, 55, 95
3, 216000, Note_on_c, 2, 52, 95
3, 216000, Note_on_c, 2, 48, 95
3, 216720, Note_off_c, 2, 60, 95
3, 216720, Note_off_c, 2, 55, 95
3, 216720, Note_off_c, 2, 52, 95
3, 216720, Note_off_c, 2, 48, 95
3, 216720, Note_on_c, 2, 64, 95
3, 216720, Note_on_c, 2, 60, 95
3, 216720, Note_on_c, 2, 55, 95
3, 216720, Note_on_c, 2, 52, 95
3, 216960, Note_off_c, 2, 64, 95
3, 216960, Note_off_c, 2, 60, 95
3, 216960, Note_off_c, 2, 55, 95
3, 216960, Note_off_c, 2, 52, 95
3, 216960, Note_on_c, 2, 64, 95
3, 216960, Note_on_c, 2, 60, 95
3, 216960, Note_on_c, 2, 55, 95
3, 216960, Note_on_c, 2, 52, 95
3, 217440, Note_off_c, 2, 64, 95
3, 217440, Note_off_c, 2, 60, 95
3, 217440, Note_off_c, 2, 55, 95
3, 217440, Note_off_c, 2, 52, 95
3, 217440, Note_on_c, 2, 64, 95
3, 217440, Note_on_c, 2, 60, 95
3, 217440, Note_on_c, 2, 55, 95
3, 217920, Note_off_c, 2, 64, 95
3, 217920, Note_off_c, 2, 60, 95
3, 217920, Note_off_c, 2, 55, 95
3, 217920, Note_on_c, 2, 66, 95
3, 217920, Note_on_c, 2, 62, 95
3, 217920, Note_on_c, 2, 57, 95
3, 217920, Note_on_c, 2, 50, 95
3, 218160, Note_off_c, 2, 66, 95
3, 218160, Note_off_c, 2, 62, 95
3, 218160, Note_off_c, 2, 57, 95
3, 218160, Note_off_c, 2, 50, 95
3, 218160, Note_on_c, 2, 66, 95
3, 218160, Note_on_c, 2, 62, 95
3, 218160, Note_on_c, 2, 57, 95
3, 218400, Note_off_c, 2, 66, 95
3, 218400, Note_off_c, 2, 62, 95
3, 218400, Note_off_c, 2, 57, 95
3, 218400, Note_on_c, 2, 62, 95
3, 218400, Note_on_c, 2, 57, 95
3, 218400, Note_on_c, 2, 50, 95
3, 218880, Note_off_c, 2, 62, 95
3, 218880, Note_off_c, 2, 57, 95
3, 218880, Note_off_c, 2, 50, 95
3, 218880, Note_on_c, 2, 67, 95
3, 218880, Note_on_c, 2, 59, 95
3, 218880, Note_on_c, 2, 55, 95
3, 218880, Note_on_c, 2, 50, 95
3, 218880, Note_on_c, 2, 47, 95
3, 221760, Note_off_c, 2, 67, 95
3, 221760, Note_off_c, 2, 59, 95
3, 221760, Note_off_c, 2, 55, 95
3, 221760, Note_off_c, 2, 50, 95
3, 221760, Note_off_c, 2, 47, 95
3, 221760, Note_on_c, 2, 59, 95
3, 221760, Note_on_c, 2, 55, 95
3, 221760, Note_on_c, 2, 50, 95
3, 222000, Note_off_c, 2, 59, 95
3, 222000, Note_off_c, 2, 55, 95
3, 222000, Note_off_c, 2, 50, 95
3, 222000, Note_on_c, 2, 67, 95
3, 222240, Note_off_c, 2, 67, 95
3, 222240, Note_on_c, 2, 59, 95
3, 222720, Note_off_c, 2, 59, 95
3, 222720, Note_on_c, 2, 67, 95
3, 222720, Note_on_c, 2, 59, 95
3, 222720, Note_on_c, 2, 55, 95
3, 222720, Note_on_c, 2, 50, 95
3, 224640, Note_off_c, 2, 67, 95
3, 224640, Note_off_c, 2, 59, 95
3, 224640, Note_off_c, 2, 55, 95
3, 224640, Note_off_c, 2, 50, 95
3, 224640, Note_on_c, 2, 67, 95
3, 224880, Note_off_c, 2, 67, 95
3, 224880, Note_on_c, 2, 74, 95
3, 225120, Note_off_c, 2, 74, 95
3, 225120, Note_on_c, 2, 79, 95
3, 225360, Note_off_c, 2, 79, 95
3, 226560, Note_on_c, 2, 59, 95
3, 226560, Note_on_c, 2, 66, 95
3, 226560, Note_on_c, 2, 62, 95
3, 230400, Note_off_c, 2, 59, 95
3, 230400, Note_off_c, 2, 66, 95
3, 230400, Note_off_c, 2, 62, 95
3, 230400, Note_on_c, 2, 74, 95
3, 232800, Note_off_c, 2, 74, 95
3, 232800, Note_on_c, 2, 71, 95
3, 233040, Note_off_c, 2, 71, 95
3, 233040, Note_on_c, 2, 71, 95
3, 233280, Note_off_c, 2, 71, 95
3, 233280, Note_on_c, 2, 69, 95
3, 234240, Note_off_c, 2, 69, 95
3, 234240, Note_on_c, 2, 66, 95
3, 238080, Note_off_c, 2, 66, 95
3, 238080, Note_on_c, 2, 71, 95
3, 241920, Note_off_c, 2, 71, 95
3, 241920, Note_on_c, 2, 69, 95
3, 241920, Note_on_c, 2, 57, 95
3, 245760, Note_off_c, 2, 69, 95
3, 245760, Note_off_c, 2, 57, 95
3, 245760, Note_on_c, 2, 64, 95
3, 245760, Note_on_c, 2, 60, 95
3, 245760, Note_on_c, 2, 55, 95
3, 248640, Note_off_c, 2, 64, 95
3, 248640, Note_off_c, 2, 60, 95
3, 248640, Note_off_c, 2, 55, 95
3, 248640, Note_on_c, 2, 66, 95
3, 248640, Note_on_c, 2, 62, 95
3, 248640, Note_on_c, 2, 57, 95
3, 248640, Note_on_c, 2, 50, 95
3, 249600, Note_off_c, 2, 66, 95
3, 249600, Note_off_c, 2, 62, 95
3, 249600, Note_off_c, 2, 57, 95
3, 249600, Note_off_c, 2, 50, 95
3, 249600, Note_on_c, 2, 67, 95
3, 249600, Note_on_c, 2, 59, 95
3, 249600, Note_on_c, 2, 55, 95
3, 253440, Note_off_c, 2, 67, 95
3, 253440, Note_off_c, 2, 59, 95
3, 253440, Note_off_c, 2, 55, 95
3, 253440, Note_on_c, 2, 66, 95
3, 253440, Note_on_c, 2, 62, 95
3, 253440, Note_on_c, 2, 57, 95
3, 253440, Note_on_c, 2, 50, 95
3, 255360, Note_off_c, 2, 66, 95
3, 255360, Note_off_c, 2, 62, 95
3, 255360, Note_off_c, 2, 57, 95
3, 255360, Note_off_c, 2, 50, 95
3, 255360, Note_on_c, 2, 66, 95
3, 255360, Note_on_c, 2, 62, 95
3, 255360, Note_on_c, 2, 57, 95
3, 255840, Note_off_c, 2, 66, 95
3, 255840, Note_off_c, 2, 62, 95
3, 255840, Note_off_c, 2, 57, 95
3, 255840, Note_on_c, 2, 66, 95
3, 256320, Note_off_c, 2, 66, 95
3, 256320, Note_on_c, 2, 64, 95
3, 256320, Note_on_c, 2, 60, 95
3, 256320, Note_on_c, 2, 55, 95
3, 256320, Note_on_c, 2, 52, 95
3, 257280, Note_off_c, 2, 64, 95
3, 257280, Note_off_c, 2, 60, 95
3, 257280, Note_off_c, 2, 55, 95
3, 257280, Note_off_c, 2, 52, 95
3, 257280, Note_on_c, 2, 71, 95
3, 257280, Note_on_c, 2, 66, 95
3, 257280, Note_on_c, 2, 62, 95
3, 261120, Note_off_c, 2, 71, 95
3, 261120, Note_off_c, 2, 66, 95
3, 261120, Note_off_c, 2, 62, 95
3, 261120, Note_on_c, 2, 74, 95
3, 263520, Note_off_c, 2, 74, 95
3, 263520, Note_on_c, 2, 71, 95
3, 263760, Note_off_c, 2, 71, 95
3, 263760, Note_on_c, 2, 71, 95
3, 264000, Note_off_c, 2, 71, 95
3, 264000, Note_on_c, 2, 69, 95
3, 264240, Note_off_c, 2, 69, 95
3, 264960, Note_on_c, 2, 66, 95
3, 268800, Note_off_c, 2, 66, 95
3, 268800, Note_on_c, 2, 71, 95
3, 272640, Note_off_c, 2, 71, 95
3, 272640, Note_on_c, 2, 69, 95
3, 272640, Note_on_c, 2, 57, 95
3, 274320, Note_off_c, 2, 69, 95
3, 274320, Note_off_c, 2, 57, 95
3, 274320, Note_on_c, 2, 69, 95
3, 275040, Note_off_c, 2, 69, 95
3, 275040, Note_on_c, 2, 69, 95
3, 276000, Note_off_c, 2, 69, 95
3, 276000, Note_on_c, 2, 71, 95
3, 276480, Note_off_c, 2, 71, 95
3, 276480, Note_on_c, 2, 64, 95
3, 276480, Note_on_c, 2, 60, 95
3, 276480, Note_on_c, 2, 55, 95
3, 278400, Note_off_c, 2, 64, 95
3, 278400, Note_off_c, 2, 60, 95
3, 278400, Note_off_c, 2, 55, 95
3, 278400, Note_on_c, 2, 72, 95
3, 278880, Note_off_c, 2, 72, 95
3, 278880, Note_on_c, 2, 67, 95
3, 279360, Note_off_c, 2, 67, 95
3, 279360, Note_on_c, 2, 69, 95
3, 279360, Note_on_c, 2, 66, 95
3, 279360, Note_on_c, 2, 62, 95
3, 279600, Note_off_c, 2, 69, 95
3, 279600, Note_off_c, 2, 66, 95
3, 279600, Note_off_c, 2, 62, 95
3, 279600, Note_on_c, 2, 74, 95
3, 279840, Note_off_c, 2, 74, 95
3, 279840, Note_on_c, 2, 69, 95
3, 280320, Note_off_c, 2, 69, 95
3, 280320, Note_on_c, 2, 67, 95
3, 280320, Note_on_c, 2, 59, 95
3, 280320, Note_on_c, 2, 55, 95
3, 284160, Note_off_c, 2, 67, 95
3, 284160, Note_off_c, 2, 59, 95
3, 284160, Note_off_c, 2, 55, 95
3, 284160, Note_on_c, 2, 74, 95
3, 285120, Note_off_c, 2, 74, 95
3, 285120, Note_on_c, 2, 69, 95
3, 285360, Note_off_c, 2, 69, 95
3, 285360, Note_on_c, 2, 66, 95
3, 285600, Note_off_c, 2, 66, 95
3, 285600, Note_on_c, 2, 62, 95
3, 286080, Note_off_c, 2, 62, 95
3, 286080, Note_on_c, 2, 69, 95
3, 286320, Note_off_c, 2, 69, 95
3, 286320, Note_on_c, 2, 66, 95
3, 286560, Note_off_c, 2, 66, 95
3, 286560, Note_on_c, 2, 62, 95
3, 287040, Note_off_c, 2, 62, 95
3, 287040, Note_on_c, 2, 74, 95
3, 287040, Note_on_c, 2, 69, 95
3, 287040, Note_on_c, 2, 66, 95
3, 287040, Note_on_c, 2, 62, 95
3, 287520, Note_off_c, 2, 74, 95
3, 287520, Note_off_c, 2, 69, 95
3, 287520, Note_off_c, 2, 66, 95
3, 287520, Note_off_c, 2, 62, 95
3, 287520, Note_on_c, 2, 71, 95
3, 287520, Note_on_c, 2, 67, 95
3, 287520, Note_on_c, 2, 62, 95
3, 287520, Note_on_c, 2, 59, 95
3, 288000, Note_off_c, 2, 71, 95
3, 288000, Note_off_c, 2, 67, 95
3, 288000, Note_off_c, 2, 62, 95
3, 288000, Note_off_c, 2, 59, 95
3, 288000, Note_on_c, 2, 64, 95
3, 288000, Note_on_c, 2, 60, 95
3, 288000, Note_on_c, 2, 57, 95
3, 288000, Note_on_c, 2, 52, 95
3, 288960, Note_off_c, 2, 64, 95
3, 288960, Note_off_c, 2, 60, 95
3, 288960, Note_off_c, 2, 57, 95
3, 288960, Note_off_c, 2, 52, 95
3, 288960, Note_on_c, 2, 64, 95
3, 288960, Note_on_c, 2, 60, 95
3, 288960, Note_on_c, 2, 57, 95
3, 288960, Note_on_c, 2, 52, 95
3, 289920, Note_off_c, 2, 64, 95
3, 289920, Note_off_c, 2, 60, 95
3, 289920, Note_off_c, 2, 57, 95
3, 289920, Note_off_c, 2, 52, 95
3, 289920, Note_on_c, 2, 67, 95
3, 289920, Note_on_c, 2, 60, 95
3, 289920, Note_on_c, 2, 57, 95
3, 289920, Note_on_c, 2, 52, 95
3, 290880, Note_off_c, 2, 67, 95
3, 290880, Note_off_c, 2, 60, 95
3, 290880, Note_off_c, 2, 57, 95
3, 290880, Note_off_c, 2, 52, 95
3, 290880, Note_on_c, 2, 67, 95
3, 290880, Note_on_c, 2, 60, 95
3, 290880, Note_on_c, 2, 57, 95
3, 290880, Note_on_c, 2, 52, 95
3, 291360, Note_off_c, 2, 67, 95
3, 291360, Note_off_c, 2, 60, 95
3, 291360, Note_off_c, 2, 57, 95
3, 291360, Note_off_c, 2, 52, 95
3, 291360, Note_on_c, 2, 67, 95
3, 291360, Note_on_c, 2, 60, 95
3, 291360, Note_on_c, 2, 57, 95
3, 291840, Note_off_c, 2, 67, 95
3, 291840, Note_off_c, 2, 60, 95
3, 291840, Note_off_c, 2, 57, 95
3, 291840, Note_on_c, 2, 64, 95
3, 291840, Note_on_c, 2, 60, 95
3, 291840, Note_on_c, 2, 55, 95
3, 291840, Note_on_c, 2, 52, 95
3, 291840, Note_on_c, 2, 48, 95
3, 292800, Note_off_c, 2, 64, 95
3, 292800, Note_off_c, 2, 60, 95
3, 292800, Note_off_c, 2, 55, 95
3, 292800, Note_off_c, 2, 52, 95
3, 292800, Note_off_c, 2, 48, 95
3, 292800, Note_on_c, 2, 64, 95
3, 292800, Note_on_c, 2, 60, 95
3, 292800, Note_on_c, 2, 55, 95
3, 292800, Note_on_c, 2, 52, 95
3, 293760, Note_off_c, 2, 64, 95
3, 293760, Note_off_c, 2, 60, 95
3, 293760, Note_off_c, 2, 55, 95
3, 293760, Note_off_c, 2, 52, 95
3, 293760, Note_on_c, 2, 64, 95
3, 293760, Note_on_c, 2, 60, 95
3, 293760, Note_on_c, 2, 55, 95
3, 293760, Note_on_c, 2, 52, 95
3, 294240, Note_off_c, 2, 64, 95
3, 294240, Note_off_c, 2, 60, 95
3, 294240, Note_off_c, 2, 55, 95
3, 294240, Note_off_c, 2, 52, 95
3, 294240, Note_on_c, 2, 64, 95
3, 294240, Note_on_c, 2, 60, 95
3, 294240, Note_on_c, 2, 55, 95
3, 294240, Note_on_c, 2, 52, 95
3, 294720, Note_off_c, 2, 64, 95
3, 294720, Note_off_c, 2, 60, 95
3, 294720, Note_off_c, 2, 55, 95
3, 294720, Note_off_c, 2, 52, 95
3, 294720, Note_on_c, 2, 66, 95
3, 294720, Note_on_c, 2, 62, 95
3, 294720, Note_on_c, 2, 57, 95
3, 294720, Note_on_c, 2, 50, 95
3, 294960, Note_off_c, 2, 66, 95
3, 294960, Note_off_c, 2, 62, 95
3, 294960, Note_off_c, 2, 57, 95
3, 294960, Note_off_c, 2, 50, 95
3, 294960, Note_on_c, 2, 66, 95
3, 294960, Note_on_c, 2, 62, 95
3, 294960, Note_on_c, 2, 57, 95
3, 295200, Note_off_c, 2, 66, 95
3, 295200, Note_off_c, 2, 62, 95
3, 295200, Note_off_c, 2, 57, 95
3, 295200, Note_on_c, 2, 62, 95
3, 295200, Note_on_c, 2, 59, 95
3, 295200, Note_on_c, 2, 52, 95
3, 295440, Note_off_c, 2, 62, 95
3, 295440, Note_off_c, 2, 59, 95
3, 295440, Note_off_c, 2, 52, 95
3, 295680, Note_on_c, 2, 67, 95
3, 295680, Note_on_c, 2, 59, 95
3, 295680, Note_on_c, 2, 55, 95
3, 295680, Note_on_c, 2, 50, 95
3, 295680, Note_on_c, 2, 47, 95
3, 296640, Note_off_c, 2, 67, 95
3, 296640, Note_off_c, 2, 59, 95
3, 296640, Note_off_c, 2, 55, 95
3, 296640, Note_off_c, 2, 50, 95
3, 296640, Note_off_c, 2, 47, 95
3, 296640, Note_on_c, 2, 67, 95
3, 296640, Note_on_c, 2, 59, 95
3, 296640, Note_on_c, 2, 55, 95
3, 296640, Note_on_c, 2, 50, 95
3, 297600, Note_off_c, 2, 67, 95
3, 297600, Note_off_c, 2, 59, 95
3, 297600, Note_off_c, 2, 55, 95
3, 297600, Note_off_c, 2, 50, 95
3, 297600, Note_on_c, 2, 65, 95
3, 297600, Note_on_c, 2, 60, 95
3, 297600, Note_on_c, 2, 57, 95
3, 297600, Note_on_c, 2, 53, 95
3, 298560, Note_off_c, 2, 65, 95
3, 298560, Note_off_c, 2, 60, 95
3, 298560, Note_off_c, 2, 57, 95
3, 298560, Note_off_c, 2, 53, 95
3, 298560, Note_on_c, 2, 65, 95
3, 298560, Note_on_c, 2, 60, 95
3, 298560, Note_on_c, 2, 57, 95
3, 298560, Note_on_c, 2, 53, 95
3, 299040, Note_off_c, 2, 65, 95
3, 299040, Note_off_c, 2, 60, 95
3, 299040, Note_off_c, 2, 57, 95
3, 299040, Note_off_c, 2, 53, 95
3, 299040, Note_on_c, 2, 65, 95
3, 299040, Note_on_c, 2, 60, 95
3, 299040, Note_on_c, 2, 57, 95
3, 299520, Note_off_c, 2, 65, 95
3, 299520, Note_off_c, 2, 60, 95
3, 299520, Note_off_c, 2, 57, 95
3, 299520, Note_on_c, 2, 64, 95
3, 299520, Note_on_c, 2, 60, 95
3, 299520, Note_on_c, 2, 55, 95
3, 299520, Note_on_c, 2, 52, 95
3, 300480, Note_off_c, 2, 64, 95
3, 300480, Note_off_c, 2, 60, 95
3, 300480, Note_off_c, 2, 55, 95
3, 300480, Note_off_c, 2, 52, 95
3, 300480, Note_on_c, 2, 64, 95
3, 300480, Note_on_c, 2, 60, 95
3, 300480, Note_on_c, 2, 55, 95
3, 300480, Note_on_c, 2, 52, 95
3, 301200, Note_off_c, 2, 64, 95
3, 301200, Note_off_c, 2, 60, 95
3, 301200, Note_off_c, 2, 55, 95
3, 301200, Note_off_c, 2, 52, 95
3, 301200, Note_on_c, 2, 64, 95
3, 301200, Note_on_c, 2, 60, 95
3, 301200, Note_on_c, 2, 55, 95
3, 301440, Note_off_c, 2, 64, 95
3, 301440, Note_off_c, 2, 60, 95
3, 301440, Note_off_c, 2, 55, 95
3, 301440, Note_on_c, 2, 64, 95
3, 301440, Note_on_c, 2, 60, 95
3, 301440, Note_on_c, 2, 55, 95
3, 301440, Note_on_c, 2, 52, 95
3, 301920, Note_off_c, 2, 64, 95
3, 301920, Note_off_c, 2, 60, 95
3, 301920, Note_off_c, 2, 55, 95
3, 301920, Note_off_c, 2, 52, 95
3, 301920, Note_on_c, 2, 64, 95
3, 301920, Note_on_c, 2, 60, 95
3, 301920, Note_on_c, 2, 55, 95
3, 302400, Note_off_c, 2, 64, 95
3, 302400, Note_off_c, 2, 60, 95
3, 302400, Note_off_c, 2, 55, 95
3, 302400, Note_on_c, 2, 66, 95
3, 302400, Note_on_c, 2, 62, 95
3, 302400, Note_on_c, 2, 59, 95
3, 302400, Note_on_c, 2, 54, 95
3, 302640, Note_off_c, 2, 66, 95
3, 302640, Note_off_c, 2, 62, 95
3, 302640, Note_off_c, 2, 59, 95
3, 302640, Note_off_c, 2, 54, 95
3, 302640, Note_on_c, 2, 66, 95
3, 302640, Note_on_c, 2, 62, 95
3, 302640, Note_on_c, 2, 59, 95
3, 302880, Note_off_c, 2, 66, 95
3, 302880, Note_off_c, 2, 62, 95
3, 302880, Note_off_c, 2, 59, 95
3, 302880, Note_on_c, 2, 66, 95
3, 302880, Note_on_c, 2, 62, 95
3, 302880, Note_on_c, 2, 59, 95
3, 302880, Note_on_c, 2, 54, 95
3, 303120, Note_off_c, 2, 66, 95
3, 303120, Note_off_c, 2, 62, 95
3, 303120, Note_off_c, 2, 59, 95
3, 303120, Note_off_c, 2, 54, 95
3, 303360, Note_on_c, 2, 64, 95
3, 303360, Note_on_c, 2, 60, 95
3, 303360, Note_on_c, 2, 57, 95
3, 303360, Note_on_c, 2, 52, 95
3, 304320, Note_off_c, 2, 64, 95
3, 304320, Note_off_c, 2, 60, 95
3, 304320, Note_off_c, 2, 57, 95
3, 304320, Note_off_c, 2, 52, 95
3, 304320, Note_on_c, 2, 64, 95
3, 304320, Note_on_c, 2, 60, 95
3, 304320, Note_on_c, 2, 57, 95
3, 304320, Note_on_c, 2, 52, 95
3, 305280, Note_off_c, 2, 64, 95
3, 305280, Note_off_c, 2, 60, 95
3, 305280, Note_off_c, 2, 57, 95
3, 305280, Note_off_c, 2, 52, 95
3, 305280, Note_on_c, 2, 67, 95
3, 305280, Note_on_c, 2, 60, 95
3, 305280, Note_on_c, 2, 57, 95
3, 305280, Note_on_c, 2, 52, 95
3, 306240, Note_off_c, 2, 67, 95
3, 306240, Note_off_c, 2, 60, 95
3, 306240, Note_off_c, 2, 57, 95
3, 306240, Note_off_c, 2, 52, 95
3, 306240, Note_on_c, 2, 67, 95
3, 306240, Note_on_c, 2, 60, 95
3, 306240, Note_on_c, 2, 57, 95
3, 306240, Note_on_c, 2, 52, 95
3, 306720, Note_off_c, 2, 67, 95
3, 306720, Note_off_c, 2, 60, 95
3, 306720, Note_off_c, 2, 57, 95
3, 306720, Note_off_c, 2, 52, 95
3, 306720, Note_on_c, 2, 67, 95
3, 306720, Note_on_c, 2, 60, 95
3, 306720, Note_on_c, 2, 57, 95
3, 307200, Note_off_c, 2, 67, 95
3, 307200, Note_off_c, 2, 60, 95
3, 307200, Note_off_c, 2, 57, 95
3, 307200, Note_on_c, 2, 64, 95
3, 307200, Note_on_c, 2, 60, 95
3, 307200, Note_on_c, 2, 55, 95
3, 307200, Note_on_c, 2, 52, 95
3, 307200, Note_on_c, 2, 48, 95
3, 308160, Note_off_c, 2, 64, 95
3, 308160, Note_off_c, 2, 60, 95
3, 308160, Note_off_c, 2, 55, 95
3, 308160, Note_off_c, 2, 52, 95
3, 308160, Note_off_c, 2, 48, 95
3, 308160, Note_on_c, 2, 64, 95
3, 308160, Note_on_c, 2, 60, 95
3, 308160, Note_on_c, 2, 55, 95
3, 308160, Note_on_c, 2, 52, 95
3, 309120, Note_off_c, 2, 64, 95
3, 309120, Note_off_c, 2, 60, 95
3, 309120, Note_off_c, 2, 55, 95
3, 309120, Note_off_c, 2, 52, 95
3, 309120, Note_on_c, 2, 64, 95
3, 309120, Note_on_c, 2, 60, 95
3, 309120, Note_on_c, 2, 55, 95
3, 309120, Note_on_c, 2, 52, 95
3, 309600, Note_off_c, 2, 64, 95
3, 309600, Note_off_c, 2, 60, 95
3, 309600, Note_off_c, 2, 55, 95
3, 309600, Note_off_c, 2, 52, 95
3, 309600, Note_on_c, 2, 64, 95
3, 309600, Note_on_c, 2, 60, 95
3, 309600, Note_on_c, 2, 55, 95
3, 309600, Note_on_c, 2, 52, 95
3, 310080, Note_off_c, 2, 64, 95
3, 310080, Note_off_c, 2, 60, 95
3, 310080, Note_off_c, 2, 55, 95
3, 310080, Note_off_c, 2, 52, 95
3, 310080, Note_on_c, 2, 66, 95
3, 310080, Note_on_c, 2, 62, 95
3, 310080, Note_on_c, 2, 57, 95
3, 310080, Note_on_c, 2, 50, 95
3, 310320, Note_off_c, 2, 66, 95
3, 310320, Note_off_c, 2, 62, 95
3, 310320, Note_off_c, 2, 57, 95
3, 310320, Note_off_c, 2, 50, 95
3, 310320, Note_on_c, 2, 66, 95
3, 310320, Note_on_c, 2, 62, 95
3, 310320, Note_on_c, 2, 57, 95
3, 310560, Note_off_c, 2, 66, 95
3, 310560, Note_off_c, 2, 62, 95
3, 310560, Note_off_c, 2, 57, 95
3, 310560, Note_on_c, 2, 62, 95
3, 310560, Note_on_c, 2, 57, 95
3, 310560, Note_on_c, 2, 50, 95
3, 311040, Note_off_c, 2, 62, 95
3, 311040, Note_off_c, 2, 57, 95
3, 311040, Note_off_c, 2, 50, 95
3, 311040, Note_on_c, 2, 67, 95
3, 311040, Note_on_c, 2, 59, 95
3, 311040, Note_on_c, 2, 55, 95
3, 311040, Note_on_c, 2, 50, 95
3, 311040, Note_on_c, 2, 47, 95
3, 312000, Note_off_c, 2, 67, 95
3, 312000, Note_off_c, 2, 59, 95
3, 312000, Note_off_c, 2, 55, 95
3, 312000, Note_off_c, 2, 50, 95
3, 312000, Note_off_c, 2, 47, 95
3, 312000, Note_on_c, 2, 67, 95
3, 312000, Note_on_c, 2, 59, 95
3, 312000, Note_on_c, 2, 55, 95
3, 312000, Note_on_c, 2, 50, 95
3, 312960, Note_off_c, 2, 67, 95
3, 312960, Note_off_c, 2, 59, 95
3, 312960, Note_off_c, 2, 55, 95
3, 312960, Note_off_c, 2, 50, 95
3, 312960, Note_on_c, 2, 65, 95
3, 312960, Note_on_c, 2, 60, 95
3, 312960, Note_on_c, 2, 57, 95
3, 312960, Note_on_c, 2, 53, 95
3, 313920, Note_off_c, 2, 65, 95
3, 313920, Note_off_c, 2, 60, 95
3, 313920, Note_off_c, 2, 57, 95
3, 313920, Note_off_c, 2, 53, 95
3, 313920, Note_on_c, 2, 65, 95
3, 313920, Note_on_c, 2, 60, 95
3, 313920, Note_on_c, 2, 57, 95
3, 313920, Note_on_c, 2, 53, 95
3, 314880, Note_off_c, 2, 65, 95
3, 314880, Note_off_c, 2, 60, 95
3, 314880, Note_off_c, 2, 57, 95
3, 314880, Note_off_c, 2, 53, 95
3, 315120, Note_on_c, 2, 53, 95
3, 315360, Note_off_c, 2, 53, 95
3, 315360, Note_on_c, 2, 52, 95
3, 315600, Note_off_c, 2, 52, 95
3, 315600, Note_on_c, 2, 55, 95
3, 315840, Note_off_c, 2, 55, 95
3, 315840, Note_on_c, 2, 52, 95
3, 316080, Note_off_c, 2, 52, 95
3, 316080, Note_on_c, 2, 48, 95
3, 316320, Note_off_c, 2, 48, 95
3, 316320, Note_on_c, 2, 55, 95
3, 316560, Note_off_c, 2, 55, 95
3, 316560, Note_on_c, 2, 53, 95
3, 316800, Note_off_c, 2, 53, 95
3, 316800, Note_on_c, 2, 48, 95
3, 317280, Note_off_c, 2, 48, 95
3, 317280, Note_on_c, 2, 62, 95
3, 318720, Note_off_c, 2, 62, 95
3, 318720, Note_on_c, 2, 71, 95
3, 318720, Note_on_c, 2, 66, 95
3, 318720, Note_on_c, 2, 62, 95
3, 322560, Note_off_c, 2, 71, 95
3, 322560, Note_off_c, 2, 66, 95
3, 322560, Note_off_c, 2, 62, 95
3, 322560, Note_on_c, 2, 74, 95
3, 324960, Note_off_c, 2, 74, 95
3, 324960, Note_on_c, 2, 71, 95
3, 325200, Note_off_c, 2, 71, 95
3, 325200, Note_on_c, 2, 71, 95
3, 325440, Note_off_c, 2, 71, 95
3, 325440, Note_on_c, 2, 69, 95
3, 326400, Note_off_c, 2, 69, 95
3, 326400, Note_on_c, 2, 66, 95
3, 330240, Note_off_c, 2, 66, 95
3, 330240, Note_on_c, 2, 71, 95
3, 334080, Note_off_c, 2, 71, 95
3, 334080, Note_on_c, 2, 69, 95
3, 334080, Note_on_c, 2, 57, 95
3, 335760, Note_off_c, 2, 69, 95
3, 335760, Note_off_c, 2, 57, 95
3, 335760, Note_on_c, 2, 69, 95
3, 336480, Note_off_c, 2, 69, 95
3, 336480, Note_on_c, 2, 69, 95
3, 337440, Note_off_c, 2, 69, 95
3, 337440, Note_on_c, 2, 71, 95
3, 337920, Note_off_c, 2, 71, 95
3, 337920, Note_on_c, 2, 64, 95
3, 337920, Note_on_c, 2, 60, 95
3, 337920, Note_on_c, 2, 55, 95
3, 339840, Note_off_c, 2, 64, 95
3, 339840, Note_off_c, 2, 60, 95
3, 339840, Note_off_c, 2, 55, 95
3, 339840, Note_on_c, 2, 72, 95
3, 340320, Note_off_c, 2, 72, 95
3, 340320, Note_on_c, 2, 67, 95
3, 340800, Note_off_c, 2, 67, 95
3, 340800, Note_on_c, 2, 69, 95
3, 340800, Note_on_c, 2, 66, 95
3, 340800, Note_on_c, 2, 62, 95
3, 341040, Note_off_c, 2, 69, 95
3, 341040, Note_off_c, 2, 66, 95
3, 341040, Note_off_c, 2, 62, 95
3, 341040, Note_on_c, 2, 74, 95
3, 341280, Note_off_c, 2, 74, 95
3, 341280, Note_on_c, 2, 69, 95
3, 341760, Note_off_c, 2, 69, 95
3, 341760, Note_on_c, 2, 67, 95
3, 341760, Note_on_c, 2, 59, 95
3, 341760, Note_on_c, 2, 55, 95
3, 345600, Note_off_c, 2, 67, 95
3, 345600, Note_off_c, 2, 59, 95
3, 345600, Note_off_c, 2, 55, 95
3, 345600, Note_on_c, 2, 74, 95
3, 346560, Note_off_c, 2, 74, 95
3, 346560, Note_on_c, 2, 69, 95
3, 346800, Note_off_c, 2, 69, 95
3, 346800, Note_on_c, 2, 66, 95
3, 347040, Note_off_c, 2, 66, 95
3, 347040, Note_on_c, 2, 62, 95
3, 347520, Note_off_c, 2, 62, 95
3, 347520, Note_on_c, 2, 69, 95
3, 347760, Note_off_c, 2, 69, 95
3, 347760, Note_on_c, 2, 66, 95
3, 348000, Note_off_c, 2, 66, 95
3, 348000, Note_on_c, 2, 62, 95
3, 348480, Note_off_c, 2, 62, 95
3, 348480, Note_on_c, 2, 74, 95
3, 348480, Note_on_c, 2, 69, 95
3, 348480, Note_on_c, 2, 66, 95
3, 348480, Note_on_c, 2, 62, 95
3, 348960, Note_off_c, 2, 74, 95
3, 348960, Note_off_c, 2, 69, 95
3, 348960, Note_off_c, 2, 66, 95
3, 348960, Note_off_c, 2, 62, 95
3, 348960, Note_on_c, 2, 71, 95
3, 348960, Note_on_c, 2, 67, 95
3, 348960, Note_on_c, 2, 62, 95
3, 348960, Note_on_c, 2, 59, 95
3, 349440, Note_off_c, 2, 71, 95
3, 349440, Note_off_c, 2, 67, 95
3, 349440, Note_off_c, 2, 62, 95
3, 349440, Note_off_c, 2, 59, 95
3, 349440, Note_on_c, 2, 64, 95
3, 349440, Note_on_c, 2, 60, 95
3, 349440, Note_on_c, 2, 57, 95
3, 349440, Note_on_c, 2, 52, 95
3, 350400, Note_off_c, 2, 64, 95
3, 350400, Note_off_c, 2, 60, 95
3, 350400, Note_off_c, 2, 57, 95
3, 350400, Note_off_c, 2, 52, 95
3, 350400, Note_on_c, 2, 64, 95
3, 350400, Note_on_c, 2, 60, 95
3, 350400, Note_on_c, 2, 57, 95
3, 350400, Note_on_c, 2, 52, 95
3, 351360, Note_off_c, 2, 64, 95
3, 351360, Note_off_c, 2, 60, 95
3, 351360, Note_off_c, 2, 57, 95
3, 351360, Note_off_c, 2, 52, 95
3, 351360, Note_on_c, 2, 67, 95
3, 351360, Note_on_c, 2, 60, 95
3, 351360, Note_on_c, 2, 57, 95
3, 351360, Note_on_c, 2, 52, 95
3, 352320, Note_off_c, 2, 67, 95
3, 352320, Note_off_c, 2, 60, 95
3, 352320, Note_off_c, 2, 57, 95
3, 352320, Note_off_c, 2, 52, 95
3, 352320, Note_on_c, 2, 67, 95
3, 352320, Note_on_c, 2, 60, 95
3, 352320, Note_on_c, 2, 57, 95
3, 352320, Note_on_c, 2, 52, 95
3, 352800, Note_off_c, 2, 67, 95
3, 352800, Note_off_c, 2, 60, 95
3, 352800, Note_off_c, 2, 57, 95
3, 352800, Note_off_c, 2, 52, 95
3, 352800, Note_on_c, 2, 67, 95
3, 352800, Note_on_c, 2, 60, 95
3, 352800, Note_on_c, 2, 57, 95
3, 353280, Note_off_c, 2, 67, 95
3, 353280, Note_off_c, 2, 60, 95
3, 353280, Note_off_c, 2, 57, 95
3, 353280, Note_on_c, 2, 64, 95
3, 353280, Note_on_c, 2, 60, 95
3, 353280, Note_on_c, 2, 55, 95
3, 353280, Note_on_c, 2, 52, 95
3, 353280, Note_on_c, 2, 48, 95
3, 354240, Note_off_c, 2, 64, 95
3, 354240, Note_off_c, 2, 60, 95
3, 354240, Note_off_c, 2, 55, 95
3, 354240, Note_off_c, 2, 52, 95
3, 354240, Note_off_c, 2, 48, 95
3, 354240, Note_on_c, 2, 64, 95
3, 354240, Note_on_c, 2, 60, 95
3, 354240, Note_on_c, 2, 55, 95
3, 354240, Note_on_c, 2, 52, 95
3, 355200, Note_off_c, 2, 64, 95
3, 355200, Note_off_c, 2, 60, 95
3, 355200, Note_off_c, 2, 55, 95
3, 355200, Note_off_c, 2, 52, 95
3, 355200, Note_on_c, 2, 64, 95
3, 355200, Note_on_c, 2, 60, 95
3, 355200, Note_on_c, 2, 55, 95
3, 355200, Note_on_c, 2, 52, 95
3, 355680, Note_off_c, 2, 64, 95
3, 355680, Note_off_c, 2, 60, 95
3, 355680, Note_off_c, 2, 55, 95
3, 355680, Note_off_c, 2, 52, 95
3, 355680, Note_on_c, 2, 64, 95
3, 355680, Note_on_c, 2, 60, 95
3, 355680, Note_on_c, 2, 55, 95
3, 355680, Note_on_c, 2, 52, 95
3, 356160, Note_off_c, 2, 64, 95
3, 356160, Note_off_c, 2, 60, 95
3, 356160, Note_off_c, 2, 55, 95
3, 356160, Note_off_c, 2, 52, 95
3, 356160, Note_on_c, 2, 66, 95
3, 356160, Note_on_c, 2, 62, 95
3, 356160, Note_on_c, 2, 57, 95
3, 356160, Note_on_c, 2, 50, 95
3, 356400, Note_off_c, 2, 66, 95
3, 356400, Note_off_c, 2, 62, 95
3, 356400, Note_off_c, 2, 57, 95
3, 356400, Note_off_c, 2, 50, 95
3, 356400, Note_on_c, 2, 66, 95
3, 356400, Note_on_c, 2, 62, 95
3, 356400, Note_on_c, 2, 57, 95
3, 356640, Note_off_c, 2, 66, 95
3, 356640, Note_off_c, 2, 62, 95
3, 356640, Note_off_c, 2, 57, 95
3, 356640, Note_on_c, 2, 62, 95
3, 356640, Note_on_c, 2, 59, 95
3, 356640, Note_on_c, 2, 52, 95
3, 357120, Note_off_c, 2, 62, 95
3, 357120, Note_off_c, 2, 59, 95
3, 357120, Note_off_c, 2, 52, 95
3, 357120, Note_on_c, 2, 67, 95
3, 357120, Note_on_c, 2, 59, 95
3, 357120, Note_on_c, 2, 55, 95
3, 357120, Note_on_c, 2, 50, 95
3, 357120, Note_on_c, 2, 47, 95
3, 358080, Note_off_c, 2, 67, 95
3, 358080, Note_off_c, 2, 59, 95
3, 358080, Note_off_c, 2, 55, 95
3, 358080, Note_off_c, 2, 50, 95
3, 358080, Note_off_c, 2, 47, 95
3, 358080, Note_on_c, 2, 67, 95
3, 358080, Note_on_c, 2, 59, 95
3, 358080, Note_on_c, 2, 55, 95
3, 358080, Note_on_c, 2, 50, 95
3, 359040, Note_off_c, 2, 67, 95
3, 359040, Note_off_c, 2, 59, 95
3, 359040, Note_off_c, 2, 55, 95
3, 359040, Note_off_c, 2, 50, 95
3, 359040, Note_on_c, 2, 65, 95
3, 359040, Note_on_c, 2, 60, 95
3, 359040, Note_on_c, 2, 57, 95
3, 359040, Note_on_c, 2, 53, 95
3, 360000, Note_off_c, 2, 65, 95
3, 360000, Note_off_c, 2, 60, 95
3, 360000, Note_off_c, 2, 57, 95
3, 360000, Note_off_c, 2, 53, 95
3, 360000, Note_on_c, 2, 65, 95
3, 360000, Note_on_c, 2, 60, 95
3, 360000, Note_on_c, 2, 57, 95
3, 360000, Note_on_c, 2, 53, 95
3, 360480, Note_off_c, 2, 65, 95
3, 360480, Note_off_c, 2, 60, 95
3, 360480, Note_off_c, 2, 57, 95
3, 360480, Note_off_c, 2, 53, 95
3, 360480, Note_on_c, 2, 65, 95
3, 360480, Note_on_c, 2, 60, 95
3, 360480, Note_on_c, 2, 57, 95
3, 360960, Note_off_c, 2, 65, 95
3, 360960, Note_off_c, 2, 60, 95
3, 360960, Note_off_c, 2, 57, 95
3, 360960, Note_on_c, 2, 64, 95
3, 360960, Note_on_c, 2, 60, 95
3, 360960, Note_on_c, 2, 55, 95
3, 360960, Note_on_c, 2, 52, 95
3, 361920, Note_off_c, 2, 64, 95
3, 361920, Note_off_c, 2, 60, 95
3, 361920, Note_off_c, 2, 55, 95
3, 361920, Note_off_c, 2, 52, 95
3, 361920, Note_on_c, 2, 64, 95
3, 361920, Note_on_c, 2, 60, 95
3, 361920, Note_on_c, 2, 55, 95
3, 361920, Note_on_c, 2, 52, 95
3, 362640, Note_off_c, 2, 64, 95
3, 362640, Note_off_c, 2, 60, 95
3, 362640, Note_off_c, 2, 55, 95
3, 362640, Note_off_c, 2, 52, 95
3, 362640, Note_on_c, 2, 64, 95
3, 362640, Note_on_c, 2, 60, 95
3, 362640, Note_on_c, 2, 55, 95
3, 362880, Note_off_c, 2, 64, 95
3, 362880, Note_off_c, 2, 60, 95
3, 362880, Note_off_c, 2, 55, 95
3, 362880, Note_on_c, 2, 64, 95
3, 362880, Note_on_c, 2, 60, 95
3, 362880, Note_on_c, 2, 55, 95
3, 362880, Note_on_c, 2, 52, 95
3, 363360, Note_off_c, 2, 64, 95
3, 363360, Note_off_c, 2, 60, 95
3, 363360, Note_off_c, 2, 55, 95
3, 363360, Note_off_c, 2, 52, 95
3, 363360, Note_on_c, 2, 64, 95
3, 363360, Note_on_c, 2, 60, 95
3, 363360, Note_on_c, 2, 55, 95
3, 363840, Note_off_c, 2, 64, 95
3, 363840, Note_off_c, 2, 60, 95
3, 363840, Note_off_c, 2, 55, 95
3, 363840, Note_on_c, 2, 66, 95
3, 363840, Note_on_c, 2, 62, 95
3, 363840, Note_on_c, 2, 59, 95
3, 363840, Note_on_c, 2, 54, 95
3, 364080, Note_off_c, 2, 66, 95
3, 364080, Note_off_c, 2, 62, 95
3, 364080, Note_off_c, 2, 59, 95
3, 364080, Note_off_c, 2, 54, 95
3, 364080, Note_on_c, 2, 66, 95
3, 364080, Note_on_c, 2, 62, 95
3, 364080, Note_on_c, 2, 59, 95
3, 364320, Note_off_c, 2, 66, 95
3, 364320, Note_off_c, 2, 62, 95
3, 364320, Note_off_c, 2, 59, 95
3, 364320, Note_on_c, 2, 66, 95
3, 364320, Note_on_c, 2, 62, 95
3, 364320, Note_on_c, 2, 59, 95
3, 364320, Note_on_c, 2, 54, 95
3, 364800, Note_off_c, 2, 66, 95
3, 364800, Note_off_c, 2, 62, 95
3, 364800, Note_off_c, 2, 59, 95
3, 364800, Note_off_c, 2, 54, 95
3, 364800, Note_on_c, 2, 64, 95
3, 364800, Note_on_c, 2, 60, 95
3, 364800, Note_on_c, 2, 57, 95
3, 364800, Note_on_c, 2, 52, 95
3, 365760, Note_off_c, 2, 64, 95
3, 365760, Note_off_c, 2, 60, 95
3, 365760, Note_off_c, 2, 57, 95
3, 365760, Note_off_c, 2, 52, 95
3, 365760, Note_on_c, 2, 64, 95
3, 365760, Note_on_c, 2, 60, 95
3, 365760, Note_on_c, 2, 57, 95
3, 365760, Note_on_c, 2, 52, 95
3, 366720, Note_off_c, 2, 64, 95
3, 366720, Note_off_c, 2, 60, 95
3, 366720, Note_off_c, 2, 57, 95
3, 366720, Note_off_c, 2, 52, 95
3, 366720, Note_on_c, 2, 67, 95
3, 366720, Note_on_c, 2, 60, 95
3, 366720, Note_on_c, 2, 57, 95
3, 366720, Note_on_c, 2, 52, 95
3, 367680, Note_off_c, 2, 67, 95
3, 367680, Note_off_c, 2, 60, 95
3, 367680, Note_off_c, 2, 57, 95
3, 367680, Note_off_c, 2, 52, 95
3, 367680, Note_on_c, 2, 67, 95
3, 367680, Note_on_c, 2, 60, 95
3, 367680, Note_on_c, 2, 57, 95
3, 367680, Note_on_c, 2, 52, 95
3, 368160, Note_off_c, 2, 67, 95
3, 368160, Note_off_c, 2, 60, 95
3, 368160, Note_off_c, 2, 57, 95
3, 368160, Note_off_c, 2, 52, 95
3, 368160, Note_on_c, 2, 67, 95
3, 368160, Note_on_c, 2, 60, 95
3, 368160, Note_on_c, 2, 57, 95
3, 368640, Note_off_c, 2, 67, 95
3, 368640, Note_off_c, 2, 60, 95
3, 368640, Note_off_c, 2, 57, 95
3, 368640, Note_on_c, 2, 64, 95
3, 368640, Note_on_c, 2, 60, 95
3, 368640, Note_on_c, 2, 55, 95
3, 368640, Note_on_c, 2, 52, 95
3, 368640, Note_on_c, 2, 48, 95
3, 369600, Note_off_c, 2, 64, 95
3, 369600, Note_off_c, 2, 60, 95
3, 369600, Note_off_c, 2, 55, 95
3, 369600, Note_off_c, 2, 52, 95
3, 369600, Note_off_c, 2, 48, 95
3, 369600, Note_on_c, 2, 64, 95
3, 369600, Note_on_c, 2, 60, 95
3, 369600, Note_on_c, 2, 55, 95
3, 369600, Note_on_c, 2, 52, 95
3, 370560, Note_off_c, 2, 64, 95
3, 370560, Note_off_c, 2, 60, 95
3, 370560, Note_off_c, 2, 55, 95
3, 370560, Note_off_c, 2, 52, 95
3, 370560, Note_on_c, 2, 64, 95
3, 370560, Note_on_c, 2, 60, 95
3, 370560, Note_on_c, 2, 55, 95
3, 370560, Note_on_c, 2, 52, 95
3, 371040, Note_off_c, 2, 64, 95
3, 371040, Note_off_c, 2, 60, 95
3, 371040, Note_off_c, 2, 55, 95
3, 371040, Note_off_c, 2, 52, 95
3, 371040, Note_on_c, 2, 64, 95
3, 371040, Note_on_c, 2, 60, 95
3, 371040, Note_on_c, 2, 55, 95
3, 371040, Note_on_c, 2, 52, 95
3, 371520, Note_off_c, 2, 64, 95
3, 371520, Note_off_c, 2, 60, 95
3, 371520, Note_off_c, 2, 55, 95
3, 371520, Note_off_c, 2, 52, 95
3, 371520, Note_on_c, 2, 66, 95
3, 371520, Note_on_c, 2, 62, 95
3, 371520, Note_on_c, 2, 57, 95
3, 371520, Note_on_c, 2, 50, 95
3, 371760, Note_off_c, 2, 66, 95
3, 371760, Note_off_c, 2, 62, 95
3, 371760, Note_off_c, 2, 57, 95
3, 371760, Note_off_c, 2, 50, 95
3, 371760, Note_on_c, 2, 66, 95
3, 371760, Note_on_c, 2, 62, 95
3, 371760, Note_on_c, 2, 57, 95
3, 372000, Note_off_c, 2, 66, 95
3, 372000, Note_off_c, 2, 62, 95
3, 372000, Note_off_c, 2, 57, 95
3, 372000, Note_on_c, 2, 62, 95
3, 372000, Note_on_c, 2, 57, 95
3, 372000, Note_on_c, 2, 50, 95
3, 372480, Note_off_c, 2, 62, 95
3, 372480, Note_off_c, 2, 57, 95
3, 372480, Note_off_c, 2, 50, 95
3, 372480, Note_on_c, 2, 67, 95
3, 372480, Note_on_c, 2, 59, 95
3, 372480, Note_on_c, 2, 55, 95
3, 372480, Note_on_c, 2, 50, 95
3, 373440, Note_off_c, 2, 67, 95
3, 373440, Note_off_c, 2, 59, 95
3, 373440, Note_off_c, 2, 55, 95
3, 373440, Note_off_c, 2, 50, 95
3, 373440, Note_on_c, 2, 67, 95
3, 373440, Note_on_c, 2, 59, 95
3, 373440, Note_on_c, 2, 55, 95
3, 373440, Note_on_c, 2, 50, 95
3, 374400, Note_off_c, 2, 67, 95
3, 374400, Note_off_c, 2, 59, 95
3, 374400, Note_off_c, 2, 55, 95
3, 374400, Note_off_c, 2, 50, 95
3, 374400, Note_on_c, 2, 65, 95
3, 374400, Note_on_c, 2, 60, 95
3, 374400, Note_on_c, 2, 57, 95
3, 374400, Note_on_c, 2, 53, 95
3, 375360, Note_off_c, 2, 65, 95
3, 375360, Note_off_c, 2, 60, 95
3, 375360, Note_off_c, 2, 57, 95
3, 375360, Note_off_c, 2, 53, 95
3, 375360, Note_on_c, 2, 65, 95
3, 375360, Note_on_c, 2, 60, 95
3, 375360, Note_on_c, 2, 57, 95
3, 375360, Note_on_c, 2, 53, 95
3, 376320, Note_off_c, 2, 65, 95
3, 376320, Note_off_c, 2, 60, 95
3, 376320, Note_off_c, 2, 57, 95
3, 376320, Note_off_c, 2, 53, 95
3, 376320, Note_on_c, 2, 60, 95
3, 376320, Note_on_c, 2, 55, 95
3, 376320, Note_on_c, 2, 52, 95
3, 376320, Note_on_c, 2, 48, 95
3, 379200, Note_off_c, 2, 60, 95
3, 379200, Note_off_c, 2, 55, 95
3, 379200, Note_off_c, 2, 52, 95
3, 379200, Note_off_c, 2, 48, 95
3, 379200, Note_on_c, 2, 67, 95
3, 379200, Note_on_c, 2, 59, 95
3, 379200, Note_on_c, 2, 55, 95
3, 379200, Note_on_c, 2, 50, 95
3, 379200, Note_on_c, 2, 47, 95
3, 380160, Note_off_c, 2, 67, 95
3, 380160, Note_off_c, 2, 59, 95
3, 380160, Note_off_c, 2, 55, 95
3, 380160, Note_off_c, 2, 50, 95
3, 380160, Note_off_c, 2, 47, 95
3, 380160, Note_on_c, 2, 67, 95
3, 380160, Note_on_c, 2, 62, 95
3, 380160, Note_on_c, 2, 59, 95
3, 380160, Note_on_c, 2, 55, 95
3, 384000, Note_off_c, 2, 67, 95
3, 384000, Note_off_c, 2, 62, 95
3, 384000, Note_off_c, 2, 59, 95
3, 384000, Note_off_c, 2, 55, 95
3, 384000, End_track
4, 0, Start_track
4, 0, Pitch_bend_c, 4, 8192
4, 0, Control_c, 4, 7, 103
4, 0, Control_c, 5, 7, 103
4, 0, Control_c, 4, 10, 63
4, 0, Control_c, 5, 10, 63
4, 0, Control_c, 4, 93, 0
4, 0, Control_c, 5, 93, 0
4, 0, Control_c, 4, 91, 0
4, 0, Control_c, 5, 91, 0
4, 0, Control_c, 4, 95, 0
4, 0, Control_c, 5, 95, 0
4, 0, Control_c, 4, 92, 0
4, 0, Control_c, 5, 92, 0
4, 0, Control_c, 4, 11, 127
4, 0, Control_c, 5, 11, 127
4, 0, Control_c, 4, 0, 0
4, 0, Control_c, 5, 0, 0
4, 0, Program_c, 4, 24
4, 0, Program_c, 5, 24
4, 5280, Note_on_c, 4, 74, 95
4, 5520, Note_off_c, 4, 74, 95
4, 5520, Note_on_c, 4, 74, 95
4, 5760, Note_off_c, 4, 74, 95
4, 5760, Note_on_c, 4, 74, 95
4, 6240, Note_off_c, 4, 74, 95
4, 6240, Note_on_c, 4, 74, 95
4, 6480, Note_off_c, 4, 74, 95
4, 6480, Note_on_c, 4, 74, 95
4, 6720, Note_off_c, 4, 74, 95
4, 6720, Note_on_c, 4, 74, 95
4, 7200, Note_off_c, 4, 74, 95
4, 7200, Note_on_c, 4, 72, 95
4, 7680, Note_off_c, 4, 72, 95
4, 7680, Note_on_c, 4, 71, 95
4, 10560, Note_off_c, 4, 71, 95
4, 12960, Note_on_c, 4, 74, 95
4, 13200, Note_off_c, 4, 74, 95
4, 13200, Note_on_c, 4, 74, 95
4, 13440, Note_off_c, 4, 74, 95
4, 13440, Note_on_c, 4, 74, 95
4, 13920, Note_off_c, 4, 74, 95
4, 13920, Note_on_c, 4, 74, 95
4, 14160, Note_off_c, 4, 74, 95
4, 14160, Note_on_c, 4, 74, 95
4, 14400, Note_off_c, 4, 74, 95
4, 14400, Note_on_c, 4, 74, 95
4, 14880, Note_off_c, 4, 74, 95
4, 14880, Note_on_c, 4, 72, 95
4, 15360, Note_off_c, 4, 72, 95
4, 15360, Note_on_c, 4, 71, 95
4, 19200, Note_off_c, 4, 71, 95
4, 19200, Note_on_c, 4, 66, 95
4, 19200, Note_on_c, 4, 62, 95
4, 19200, Note_on_c, 4, 59, 95
4, 19200, Note_on_c, 4, 54, 95
4, 23040, Note_off_c, 4, 66, 95
4, 23040, Note_off_c, 4, 62, 95
4, 23040, Note_off_c, 4, 59, 95
4, 23040, Note_off_c, 4, 54, 95
4, 23040, Note_on_c, 4, 67, 95
4, 23040, Note_on_c, 4, 62, 95
4, 23040, Note_on_c, 4, 59, 95
4, 23040, Note_on_c, 4, 55, 95
4, 24960, Note_off_c, 4, 67, 95
4, 24960, Note_off_c, 4, 62, 95
4, 24960, Note_off_c, 4, 59, 95
4, 24960, Note_off_c, 4, 55, 95
4, 25440, Note_on_c, 4, 71, 95
4, 25680, Note_off_c, 4, 71, 95
4, 25680, Note_on_c, 4, 71, 95
4, 25920, Note_off_c, 4, 71, 95
4, 25920, Note_on_c, 4, 69, 95
4, 26400, Note_off_c, 4, 69, 95
4, 26400, Note_on_c, 4, 67, 95
4, 26880, Note_off_c, 4, 67, 95
4, 26880, Note_on_c, 4, 66, 95
4, 30720, Note_off_c, 4, 66, 95
4, 30720, Note_on_c, 4, 67, 95
4, 30720, Note_on_c, 4, 62, 95
4, 30720, Note_on_c, 4, 59, 95
4, 30720, Note_on_c, 4, 55, 95
4, 32640, Note_off_c, 4, 67, 95
4, 32640, Note_off_c, 4, 62, 95
4, 32640, Note_off_c, 4, 59, 95
4, 32640, Note_off_c, 4, 55, 95
4, 32640, Note_on_c, 4, 67, 95
4, 32640, Note_on_c, 4, 62, 95
4, 32640, Note_on_c, 4, 60, 95
4, 32640, Note_on_c, 4, 55, 95
4, 34080, Note_off_c, 4, 67, 95
4, 34080, Note_off_c, 4, 62, 95
4, 34080, Note_off_c, 4, 60, 95
4, 34080, Note_off_c, 4, 55, 95
4, 34080, Note_on_c, 4, 67, 95
4, 34080, Note_on_c, 4, 62, 95
4, 34080, Note_on_c, 4, 59, 95
4, 34080, Note_on_c, 4, 55, 95
4, 34560, Note_off_c, 4, 67, 95
4, 34560, Note_off_c, 4, 62, 95
4, 34560, Note_off_c, 4, 59, 95
4, 34560, Note_off_c, 4, 55, 95
4, 34560, Note_on_c, 4, 69, 95
4, 34560, Note_on_c, 4, 64, 95
4, 34560, Note_on_c, 4, 60, 95
4, 34560, Note_on_c, 4, 57, 95
4, 37440, Note_off_c, 4, 69, 95
4, 37440, Note_off_c, 4, 64, 95
4, 37440, Note_off_c, 4, 60, 95
4, 37440, Note_off_c, 4, 57, 95
4, 37920, Note_on_c, 4, 67, 95
4, 37920, Note_on_c, 4, 62, 95
4, 37920, Note_on_c, 4, 59, 95
4, 37920, Note_on_c, 4, 55, 95
4, 38400, Note_off_c, 4, 67, 95
4, 38400, Note_off_c, 4, 62, 95
4, 38400, Note_off_c, 4, 59, 95
4, 38400, Note_off_c, 4, 55, 95
4, 38400, Note_on_c, 4, 64, 95
4, 38400, Note_on_c, 4, 60, 95
4, 38400, Note_on_c, 4, 55, 95
4, 38400, Note_on_c, 4, 52, 95
4, 41280, Note_off_c, 4, 64, 95
4, 41280, Note_off_c, 4, 60, 95
4, 41280, Note_off_c, 4, 55, 95
4, 41280, Note_off_c, 4, 52, 95
4, 41280, Note_on_c, 4, 66, 95
4, 41280, Note_on_c, 4, 62, 95
4, 41280, Note_on_c, 4, 57, 95
4, 41280, Note_on_c, 4, 50, 95
4, 42240, Note_off_c, 4, 66, 95
4, 42240, Note_off_c, 4, 62, 95
4, 42240, Note_off_c, 4, 57, 95
4, 42240, Note_off_c, 4, 50, 95
4, 42240, Note_on_c, 4, 67, 95
4, 42240, Note_on_c, 4, 62, 95
4, 42240, Note_on_c, 4, 59, 95
4, 42240, Note_on_c, 4, 55, 95
4, 46080, Note_off_c, 4, 67, 95
4, 46080, Note_off_c, 4, 62, 95
4, 46080, Note_off_c, 4, 59, 95
4, 46080, Note_off_c, 4, 55, 95
4, 46080, Note_on_c, 4, 66, 95
4, 46080, Note_on_c, 4, 62, 95
4, 46080, Note_on_c, 4, 57, 95
4, 46080, Note_on_c, 4, 50, 95
4, 48960, Note_off_c, 4, 66, 95
4, 48960, Note_off_c, 4, 62, 95
4, 48960, Note_off_c, 4, 57, 95
4, 48960, Note_off_c, 4, 50, 95
4, 48960, Note_on_c, 4, 64, 95
4, 48960, Note_on_c, 4, 60, 95
4, 48960, Note_on_c, 4, 55, 95
4, 48960, Note_on_c, 4, 52, 95
4, 49920, Note_off_c, 4, 64, 95
4, 49920, Note_off_c, 4, 60, 95
4, 49920, Note_off_c, 4, 55, 95
4, 49920, Note_off_c, 4, 52, 95
4, 49920, Note_on_c, 4, 66, 95
4, 49920, Note_on_c, 4, 62, 95
4, 49920, Note_on_c, 4, 59, 95
4, 49920, Note_on_c, 4, 54, 95
4, 53760, Note_off_c, 4, 66, 95
4, 53760, Note_off_c, 4, 62, 95
4, 53760, Note_off_c, 4, 59, 95
4, 53760, Note_off_c, 4, 54, 95
4, 53760, Note_on_c, 4, 67, 95
4, 53760, Note_on_c, 4, 62, 95
4, 53760, Note_on_c, 4, 59, 95
4, 53760, Note_on_c, 4, 55, 95
4, 55680, Note_off_c, 4, 67, 95
4, 55680, Note_off_c, 4, 62, 95
4, 55680, Note_off_c, 4, 59, 95
4, 55680, Note_off_c, 4, 55, 95
4, 56160, Note_on_c, 4, 71, 95
4, 56400, Note_off_c, 4, 71, 95
4, 56400, Note_on_c, 4, 71, 95
4, 56640, Note_off_c, 4, 71, 95
4, 56640, Note_on_c, 4, 69, 95
4, 57120, Note_off_c, 4, 69, 95
4, 57120, Note_on_c, 4, 67, 95
4, 57600, Note_off_c, 4, 67, 95
4, 57600, Note_on_c, 4, 66, 95
4, 60480, Note_off_c, 4, 66, 95
4, 60960, Note_on_c, 4, 66, 95
4, 60960, Note_on_c, 4, 62, 95
4, 60960, Note_on_c, 4, 59, 95
4, 61440, Note_off_c, 4, 66, 95
4, 61440, Note_off_c, 4, 62, 95
4, 61440, Note_off_c, 4, 59, 95
4, 61440, Note_on_c, 4, 67, 95
4, 61440, Note_on_c, 4, 62, 95
4, 61440, Note_on_c, 4, 59, 95
4, 61440, Note_on_c, 4, 55, 95
4, 63360, Note_off_c, 4, 67, 95
4, 63360, Note_off_c, 4, 62, 95
4, 63360, Note_off_c, 4, 59, 95
4, 63360, Note_off_c, 4, 55, 95
4, 63360, Note_on_c, 4, 67, 95
4, 63360, Note_on_c, 4, 62, 95
4, 63360, Note_on_c, 4, 60, 95
4, 63360, Note_on_c, 4, 55, 95
4, 64800, Note_off_c, 4, 67, 95
4, 64800, Note_off_c, 4, 62, 95
4, 64800, Note_off_c, 4, 60, 95
4, 64800, Note_off_c, 4, 55, 95
4, 64800, Note_on_c, 4, 67, 95
4, 64800, Note_on_c, 4, 59, 95
4, 64800, Note_on_c, 4, 60, 95
4, 64800, Note_on_c, 4, 55, 95
4, 65280, Note_off_c, 4, 67, 95
4, 65280, Note_off_c, 4, 59, 95
4, 65280, Note_off_c, 4, 60, 95
4, 65280, Note_off_c, 4, 55, 95
4, 65280, Note_on_c, 4, 69, 95
4, 65280, Note_on_c, 4, 64, 95
4, 65280, Note_on_c, 4, 60, 95
4, 65280, Note_on_c, 4, 57, 95
4, 68160, Note_off_c, 4, 69, 95
4, 68160, Note_off_c, 4, 64, 95
4, 68160, Note_off_c, 4, 60, 95
4, 68160, Note_off_c, 4, 57, 95
4, 68640, Note_on_c, 4, 64, 95
4, 68640, Note_on_c, 4, 60, 95
4, 68640, Note_on_c, 4, 57, 95
4, 68640, Note_on_c, 4, 52, 95
4, 69120, Note_off_c, 4, 64, 95
4, 69120, Note_off_c, 4, 60, 95
4, 69120, Note_off_c, 4, 57, 95
4, 69120, Note_off_c, 4, 52, 95
4, 69120, Note_on_c, 4, 64, 95
4, 69120, Note_on_c, 4, 60, 95
4, 69120, Note_on_c, 4, 55, 95
4, 69120, Note_on_c, 4, 52, 95
4, 72000, Note_off_c, 4, 64, 95
4, 72000, Note_off_c, 4, 60, 95
4, 72000, Note_off_c, 4, 55, 95
4, 72000, Note_off_c, 4, 52, 95
4, 72000, Note_on_c, 4, 66, 95
4, 72000, Note_on_c, 4, 62, 95
4, 72000, Note_on_c, 4, 57, 95
4, 72000, Note_on_c, 4, 50, 95
4, 72960, Note_off_c, 4, 66, 95
4, 72960, Note_off_c, 4, 62, 95
4, 72960, Note_off_c, 4, 57, 95
4, 72960, Note_off_c, 4, 50, 95
4, 72960, Note_on_c, 4, 67, 95
4, 72960, Note_on_c, 4, 62, 95
4, 72960, Note_on_c, 4, 59, 95
4, 72960, Note_on_c, 4, 55, 95
4, 76800, Note_off_c, 4, 67, 95
4, 76800, Note_off_c, 4, 62, 95
4, 76800, Note_off_c, 4, 59, 95
4, 76800, Note_off_c, 4, 55, 95
4, 76800, Note_on_c, 4, 66, 95
4, 76800, Note_on_c, 4, 62, 95
4, 76800, Note_on_c, 4, 57, 95
4, 76800, Note_on_c, 4, 50, 95
4, 78720, Note_off_c, 4, 66, 95
4, 78720, Note_off_c, 4, 62, 95
4, 78720, Note_off_c, 4, 57, 95
4, 78720, Note_off_c, 4, 50, 95
4, 79200, Note_on_c, 4, 57, 95
4, 79680, Note_off_c, 4, 57, 95
4, 79680, Note_on_c, 4, 57, 95
4, 80160, Note_off_c, 4, 57, 95
4, 80160, Note_on_c, 4, 57, 95
4, 80640, Note_off_c, 4, 57, 95
4, 80640, Note_on_c, 4, 57, 95
4, 84480, Note_off_c, 4, 57, 95
4, 86400, Note_on_c, 4, 55, 95
4, 86880, Note_off_c, 4, 55, 95
4, 86880, Note_on_c, 4, 55, 95
4, 87360, Note_off_c, 4, 55, 95
4, 87360, Note_on_c, 4, 60, 95
4, 87840, Note_off_c, 4, 60, 95
4, 87840, Note_on_c, 4, 57, 95
4, 88320, Note_off_c, 4, 57, 95
4, 88320, Note_on_c, 4, 55, 95
4, 90240, Note_off_c, 4, 55, 95
4, 90240, Note_on_c, 4, 65, 95
4, 90240, Note_on_c, 4, 60, 95
4, 90240, Note_on_c, 4, 57, 95
4, 90240, Note_on_c, 4, 53, 95
4, 92160, Note_off_c, 4, 65, 95
4, 92160, Note_off_c, 4, 60, 95
4, 92160, Note_off_c, 4, 57, 95
4, 92160, Note_off_c, 4, 53, 95
4, 92160, Note_on_c, 4, 60, 95
4, 92160, Note_on_c, 4, 55, 95
4, 92160, Note_on_c, 4, 52, 95
4, 92160, Note_on_c, 4, 48, 95
4, 94080, Note_off_c, 4, 60, 95
4, 94080, Note_off_c, 4, 55, 95
4, 94080, Note_off_c, 4, 52, 95
4, 94080, Note_off_c, 4, 48, 95
4, 94560, Note_on_c, 4, 60, 95
4, 95040, Note_off_c, 4, 60, 95
4, 95040, Note_on_c, 4, 59, 95
4, 95520, Note_off_c, 4, 59, 95
4, 95520, Note_on_c, 4, 59, 95
4, 96000, Note_off_c, 4, 59, 95
4, 96000, Note_on_c, 4, 57, 95
4, 99840, Note_off_c, 4, 57, 95
4, 101760, Note_on_c, 4, 55, 95
4, 102240, Note_off_c, 4, 55, 95
4, 102240, Note_on_c, 4, 55, 95
4, 102720, Note_off_c, 4, 55, 95
4, 102720, Note_on_c, 4, 60, 95
4, 103200, Note_off_c, 4, 60, 95
4, 103200, Note_on_c, 4, 57, 95
4, 103680, Note_off_c, 4, 57, 95
4, 103680, Note_on_c, 4, 55, 95
4, 105360, Note_off_c, 4, 55, 95
4, 105600, Note_on_c, 4, 65, 95
4, 105600, Note_on_c, 4, 60, 95
4, 105600, Note_on_c, 4, 57, 95
4, 105600, Note_on_c, 4, 53, 95
4, 107520, Note_off_c, 4, 65, 95
4, 107520, Note_off_c, 4, 60, 95
4, 107520, Note_off_c, 4, 57, 95
4, 107520, Note_off_c, 4, 53, 95
4, 107520, Note_on_c, 4, 60, 95
4, 107520, Note_on_c, 4, 55, 95
4, 107520, Note_on_c, 4, 52, 95
4, 107520, Note_on_c, 4, 48, 95
4, 111360, Note_off_c, 4, 60, 95
4, 111360, Note_off_c, 4, 55, 95
4, 111360, Note_off_c, 4, 52, 95
4, 111360, Note_off_c, 4, 48, 95
4, 111360, Note_on_c, 4, 66, 95
4, 111360, Note_on_c, 4, 62, 95
4, 111360, Note_on_c, 4, 59, 95
4, 111360, Note_on_c, 4, 54, 95
4, 115200, Note_off_c, 4, 66, 95
4, 115200, Note_off_c, 4, 62, 95
4, 115200, Note_off_c, 4, 59, 95
4, 115200, Note_off_c, 4, 54, 95
4, 115200, Note_on_c, 4, 67, 95
4, 115200, Note_on_c, 4, 62, 95
4, 115200, Note_on_c, 4, 59, 95
4, 115200, Note_on_c, 4, 55, 95
4, 117120, Note_off_c, 4, 67, 95
4, 117120, Note_off_c, 4, 62, 95
4, 117120, Note_off_c, 4, 59, 95
4, 117120, Note_off_c, 4, 55, 95
4, 117600, Note_on_c, 4, 71, 95
4, 117840, Note_off_c, 4, 71, 95
4, 117840, Note_on_c, 4, 71, 95
4, 118080, Note_off_c, 4, 71, 95
4, 118080, Note_on_c, 4, 69, 95
4, 118560, Note_off_c, 4, 69, 95
4, 118560, Note_on_c, 4, 67, 95
4, 119040, Note_off_c, 4, 67, 95
4, 119040, Note_on_c, 4, 66, 95
4, 122640, Note_off_c, 4, 66, 95
4, 122880, Note_on_c, 4, 67, 95
4, 122880, Note_on_c, 4, 62, 95
4, 122880, Note_on_c, 4, 59, 95
4, 122880, Note_on_c, 4, 55, 95
4, 124800, Note_off_c, 4, 67, 95
4, 124800, Note_off_c, 4, 62, 95
4, 124800, Note_off_c, 4, 59, 95
4, 124800, Note_off_c, 4, 55, 95
4, 124800, Note_on_c, 4, 67, 95
4, 124800, Note_on_c, 4, 62, 95
4, 124800, Note_on_c, 4, 60, 95
4, 124800, Note_on_c, 4, 55, 95
4, 126240, Note_off_c, 4, 67, 95
4, 126240, Note_off_c, 4, 62, 95
4, 126240, Note_off_c, 4, 60, 95
4, 126240, Note_off_c, 4, 55, 95
4, 126240, Note_on_c, 4, 67, 95
4, 126240, Note_on_c, 4, 62, 95
4, 126240, Note_on_c, 4, 59, 95
4, 126240, Note_on_c, 4, 55, 95
4, 126720, Note_off_c, 4, 67, 95
4, 126720, Note_off_c, 4, 62, 95
4, 126720, Note_off_c, 4, 59, 95
4, 126720, Note_off_c, 4, 55, 95
4, 126720, Note_on_c, 4, 69, 95
4, 126720, Note_on_c, 4, 64, 95
4, 126720, Note_on_c, 4, 60, 95
4, 126720, Note_on_c, 4, 57, 95
4, 129600, Note_off_c, 4, 69, 95
4, 129600, Note_off_c, 4, 64, 95
4, 129600, Note_off_c, 4, 60, 95
4, 129600, Note_off_c, 4, 57, 95
4, 130080, Note_on_c, 4, 67, 95
4, 130080, Note_on_c, 4, 62, 95
4, 130080, Note_on_c, 4, 59, 95
4, 130080, Note_on_c, 4, 55, 95
4, 130560, Note_off_c, 4, 67, 95
4, 130560, Note_off_c, 4, 62, 95
4, 130560, Note_off_c, 4, 59, 95
4, 130560, Note_off_c, 4, 55, 95
4, 130560, Note_on_c, 4, 64, 95
4, 130560, Note_on_c, 4, 60, 95
4, 130560, Note_on_c, 4, 55, 95
4, 130560, Note_on_c, 4, 52, 95
4, 133440, Note_off_c, 4, 64, 95
4, 133440, Note_off_c, 4, 60, 95
4, 133440, Note_off_c, 4, 55, 95
4, 133440, Note_off_c, 4, 52, 95
4, 133440, Note_on_c, 4, 66, 95
4, 133440, Note_on_c, 4, 62, 95
4, 133440, Note_on_c, 4, 57, 95
4, 133440, Note_on_c, 4, 50, 95
4, 134400, Note_off_c, 4, 66, 95
4, 134400, Note_off_c, 4, 62, 95
4, 134400, Note_off_c, 4, 57, 95
4, 134400, Note_off_c, 4, 50, 95
4, 134400, Note_on_c, 4, 67, 95
4, 134400, Note_on_c, 4, 62, 95
4, 134400, Note_on_c, 4, 59, 95
4, 134400, Note_on_c, 4, 55, 95
4, 138240, Note_off_c, 4, 67, 95
4, 138240, Note_off_c, 4, 62, 95
4, 138240, Note_off_c, 4, 59, 95
4, 138240, Note_off_c, 4, 55, 95
4, 138240, Note_on_c, 4, 66, 95
4, 138240, Note_on_c, 4, 62, 95
4, 138240, Note_on_c, 4, 57, 95
4, 138240, Note_on_c, 4, 50, 95
4, 141120, Note_off_c, 4, 66, 95
4, 141120, Note_off_c, 4, 62, 95
4, 141120, Note_off_c, 4, 57, 95
4, 141120, Note_off_c, 4, 50, 95
4, 141120, Note_on_c, 4, 64, 95
4, 141120, Note_on_c, 4, 60, 95
4, 141120, Note_on_c, 4, 55, 95
4, 141120, Note_on_c, 4, 52, 95
4, 142080, Note_off_c, 4, 64, 95
4, 142080, Note_off_c, 4, 60, 95
4, 142080, Note_off_c, 4, 55, 95
4, 142080, Note_off_c, 4, 52, 95
4, 142080, Note_on_c, 4, 66, 95
4, 142080, Note_on_c, 4, 62, 95
4, 142080, Note_on_c, 4, 59, 95
4, 142080, Note_on_c, 4, 54, 95
4, 145920, Note_off_c, 4, 66, 95
4, 145920, Note_off_c, 4, 62, 95
4, 145920, Note_off_c, 4, 59, 95
4, 145920, Note_off_c, 4, 54, 95
4, 145920, Note_on_c, 4, 67, 95
4, 145920, Note_on_c, 4, 62, 95
4, 145920, Note_on_c, 4, 59, 95
4, 145920, Note_on_c, 4, 55, 95
4, 147840, Note_off_c, 4, 67, 95
4, 147840, Note_off_c, 4, 62, 95
4, 147840, Note_off_c, 4, 59, 95
4, 147840, Note_off_c, 4, 55, 95
4, 148800, Note_on_c, 4, 69, 95
4, 149280, Note_off_c, 4, 69, 95
4, 149280, Note_on_c, 4, 67, 95
4, 149760, Note_off_c, 4, 67, 95
4, 149760, Note_on_c, 4, 66, 95
4, 152640, Note_off_c, 4, 66, 95
4, 153120, Note_on_c, 4, 66, 95
4, 153120, Note_on_c, 4, 62, 95
4, 153120, Note_on_c, 4, 59, 95
4, 153600, Note_off_c, 4, 66, 95
4, 153600, Note_off_c, 4, 62, 95
4, 153600, Note_off_c, 4, 59, 95
4, 153600, Note_on_c, 4, 67, 95
4, 153600, Note_on_c, 4, 62, 95
4, 153600, Note_on_c, 4, 59, 95
4, 153600, Note_on_c, 4, 55, 95
4, 155280, Note_off_c, 4, 67, 95
4, 155280, Note_off_c, 4, 62, 95
4, 155280, Note_off_c, 4, 59, 95
4, 155280, Note_off_c, 4, 55, 95
4, 155280, Note_on_c, 4, 69, 95
4, 155760, Note_off_c, 4, 69, 95
4, 155760, Note_on_c, 4, 71, 95
4, 156240, Note_off_c, 4, 71, 95
4, 156240, Note_on_c, 4, 69, 95
4, 156480, Note_off_c, 4, 69, 95
4, 156480, Note_on_c, 4, 67, 95
4, 156960, Note_off_c, 4, 67, 95
4, 156960, Note_on_c, 4, 66, 95
4, 157440, Note_off_c, 4, 66, 95
4, 157440, Note_on_c, 4, 64, 95
4, 160320, Note_off_c, 4, 64, 95
4, 160800, Note_on_c, 4, 67, 95
4, 161280, Note_off_c, 4, 67, 95
4, 161280, Note_on_c, 4, 67, 95
4, 161760, Note_off_c, 4, 67, 95
4, 163680, Note_on_c, 4, 67, 95
4, 163920, Note_off_c, 4, 67, 95
4, 163920, Note_on_c, 4, 69, 95
4, 164160, Note_off_c, 4, 69, 95
4, 164160, Note_on_c, 4, 67, 95
4, 164640, Note_off_c, 4, 67, 95
4, 164640, Note_on_c, 4, 67, 95
4, 165120, Note_off_c, 4, 67, 95
4, 165120, Note_on_c, 4, 71, 95
4, 168960, Note_off_c, 4, 71, 95
4, 168960, Note_on_c, 4, 66, 95
4, 168960, Note_on_c, 4, 62, 95
4, 168960, Note_on_c, 4, 57, 95
4, 168960, Note_on_c, 4, 50, 95
4, 170400, Note_off_c, 4, 66, 95
4, 170400, Note_off_c, 4, 62, 95
4, 170400, Note_off_c, 4, 57, 95
4, 170400, Note_off_c, 4, 50, 95
4, 170400, Note_on_c, 4, 67, 95
4, 170880, Note_off_c, 4, 67, 95
4, 170880, Note_on_c, 4, 69, 95
4, 171360, Note_off_c, 4, 69, 95
4, 171360, Note_on_c, 4, 67, 95
4, 171840, Note_off_c, 4, 67, 95
4, 171840, Note_on_c, 4, 69, 95
4, 172320, Note_off_c, 4, 69, 95
4, 172320, Note_on_c, 4, 67, 95
4, 172800, Note_off_c, 4, 67, 95
4, 172800, Note_on_c, 4, 64, 95
4, 174720, Note_off_c, 4, 64, 95
4, 174720, Note_on_c, 4, 71, 95
4, 174720, Note_on_c, 4, 67, 95
4, 174720, Note_on_c, 4, 60, 95
4, 174720, Note_on_c, 4, 57, 95
4, 176640, Note_off_c, 4, 71, 95
4, 176640, Note_off_c, 4, 67, 95
4, 176640, Note_off_c, 4, 60, 95
4, 176640, Note_off_c, 4, 57, 95
4, 178560, Note_on_c, 4, 55, 95
4, 179040, Note_off_c, 4, 55, 95
4, 179040, Note_on_c, 4, 55, 95
4, 179520, Note_off_c, 4, 55, 95
4, 179520, Note_on_c, 4, 60, 95
4, 180000, Note_off_c, 4, 60, 95
4, 180000, Note_on_c, 4, 57, 95
4, 180480, Note_off_c, 4, 57, 95
4, 180480, Note_on_c, 4, 55, 95
4, 182400, Note_off_c, 4, 55, 95
4, 182400, Note_on_c, 4, 65, 95
4, 182400, Note_on_c, 4, 60, 95
4, 182400, Note_on_c, 4, 57, 95
4, 182400, Note_on_c, 4, 53, 95
4, 184320, Note_off_c, 4, 65, 95
4, 184320, Note_off_c, 4, 60, 95
4, 184320, Note_off_c, 4, 57, 95
4, 184320, Note_off_c, 4, 53, 95
4, 184320, Note_on_c, 4, 60, 95
4, 184320, Note_on_c, 4, 55, 95
4, 184320, Note_on_c, 4, 52, 95
4, 184320, Note_on_c, 4, 48, 95
4, 186240, Note_off_c, 4, 60, 95
4, 186240, Note_off_c, 4, 55, 95
4, 186240, Note_off_c, 4, 52, 95
4, 186240, Note_off_c, 4, 48, 95
4, 186720, Note_on_c, 4, 60, 95
4, 187200, Note_off_c, 4, 60, 95
4, 187200, Note_on_c, 4, 59, 95
4, 187680, Note_off_c, 4, 59, 95
4, 187680, Note_on_c, 4, 59, 95
4, 188160, Note_off_c, 4, 59, 95
4, 188160, Note_on_c, 4, 57, 95
4, 190080, Note_off_c, 4, 57, 95
4, 190080, Note_on_c, 4, 71, 95
4, 190080, Note_on_c, 4, 67, 95
4, 190080, Note_on_c, 4, 60, 95
4, 190080, Note_on_c, 4, 57, 95
4, 192000, Note_off_c, 4, 71, 95
4, 192000, Note_off_c, 4, 67, 95
4, 192000, Note_off_c, 4, 60, 95
4, 192000, Note_off_c, 4, 57, 95
4, 193920, Note_on_c, 4, 55, 95
4, 194400, Note_off_c, 4, 55, 95
4, 194400, Note_on_c, 4, 55, 95
4, 194880, Note_off_c, 4, 55, 95
4, 194880, Note_on_c, 4, 60, 95
4, 195360, Note_off_c, 4, 60, 95
4, 195360, Note_on_c, 4, 57, 95
4, 195840, Note_off_c, 4, 57, 95
4, 195840, Note_on_c, 4, 55, 95
4, 197760, Note_off_c, 4, 55, 95
4, 197760, Note_on_c, 4, 62, 95
4, 198240, Note_off_c, 4, 62, 95
4, 198240, Note_on_c, 4, 60, 95
4, 198720, Note_off_c, 4, 60, 95
4, 198720, Note_on_c, 4, 62, 95
4, 199200, Note_off_c, 4, 62, 95
4, 199200, Note_on_c, 4, 60, 95
4, 199680, Note_off_c, 4, 60, 95
4, 199680, Note_on_c, 4, 55, 95
4, 201600, Note_off_c, 4, 55, 95
4, 201600, Note_on_c, 4, 64, 95
4, 202080, Note_off_c, 4, 64, 95
4, 202080, Note_on_c, 4, 67, 95
4, 202320, Note_off_c, 4, 67, 95
4, 202320, Note_on_c, 4, 67, 95
4, 202800, Note_off_c, 4, 67, 95
4, 202800, Note_on_c, 4, 67, 95
4, 203040, Note_off_c, 4, 67, 95
4, 203040, Note_on_c, 4, 64, 95
4, 203520, Note_off_c, 4, 64, 95
4, 203520, Note_on_c, 4, 72, 95
4, 205440, Note_off_c, 4, 72, 95
4, 205920, Note_on_c, 4, 72, 95
4, 206160, Note_off_c, 4, 72, 95
4, 206160, Note_on_c, 4, 72, 95
4, 206640, Note_off_c, 4, 72, 95
4, 206640, Note_on_c, 4, 69, 95
4, 206880, Note_off_c, 4, 69, 95
4, 206880, Note_on_c, 4, 72, 95
4, 207360, Note_off_c, 4, 72, 95
4, 207360, Note_on_c, 4, 60, 95
4, 209280, Note_off_c, 4, 60, 95
4, 209520, Note_on_c, 4, 60, 95
4, 209760, Note_off_c, 4, 60, 95
4, 209760, Note_on_c, 4, 67, 95
4, 210000, Note_off_c, 4, 67, 95
4, 210000, Note_on_c, 4, 64, 95
4, 210480, Note_off_c, 4, 64, 95
4, 210480, Note_on_c, 4, 72, 95
4, 211200, Note_off_c, 4, 72, 95
4, 211200, Note_on_c, 4, 65, 95
4, 211680, Note_off_c, 4, 65, 95
4, 211680, Note_on_c, 4, 62, 95
4, 212400, Note_off_c, 4, 62, 95
4, 212400, Note_on_c, 4, 64, 95
4, 212640, Note_off_c, 4, 64, 95
4, 212640, Note_on_c, 4, 62, 95
4, 214080, Note_off_c, 4, 62, 95
4, 215040, Note_on_c, 4, 72, 95
4, 216960, Note_off_c, 4, 72, 95
4, 216960, Note_on_c, 4, 72, 95
4, 217200, Note_off_c, 4, 72, 95
4, 217200, Note_on_c, 4, 64, 95
4, 217920, Note_off_c, 4, 64, 95
4, 217920, Note_on_c, 4, 62, 95
4, 218160, Note_off_c, 4, 62, 95
4, 218160, Note_on_c, 4, 54, 95
4, 218880, Note_off_c, 4, 54, 95
4, 218880, Note_on_c, 4, 55, 95
4, 222720, Note_off_c, 4, 55, 95
4, 225840, Note_on_c, 4, 71, 95
4, 226320, Note_off_c, 4, 71, 95
4, 226320, Note_on_c, 4, 71, 95
4, 226560, Note_off_c, 4, 71, 95
4, 226560, Note_on_c, 4, 71, 95
4, 228480, Note_off_c, 4, 71, 95
4, 230400, Note_on_c, 4, 67, 95
4, 230400, Note_on_c, 4, 62, 95
4, 230400, Note_on_c, 4, 59, 95
4, 230400, Note_on_c, 4, 55, 95
4, 232320, Note_off_c, 4, 67, 95
4, 232320, Note_off_c, 4, 62, 95
4, 232320, Note_off_c, 4, 59, 95
4, 232320, Note_off_c, 4, 55, 95
4, 232800, Note_on_c, 4, 71, 95
4, 233040, Note_off_c, 4, 71, 95
4, 233040, Note_on_c, 4, 71, 95
4, 233280, Note_off_c, 4, 71, 95
4, 233280, Note_on_c, 4, 69, 95
4, 233760, Note_off_c, 4, 69, 95
4, 233760, Note_on_c, 4, 67, 95
4, 234240, Note_off_c, 4, 67, 95
4, 234240, Note_on_c, 4, 66, 95
4, 237840, Note_off_c, 4, 66, 95
4, 238080, Note_on_c, 4, 67, 95
4, 238080, Note_on_c, 4, 62, 95
4, 238080, Note_on_c, 4, 59, 95
4, 238080, Note_on_c, 4, 55, 95
4, 240000, Note_off_c, 4, 67, 95
4, 240000, Note_off_c, 4, 62, 95
4, 240000, Note_off_c, 4, 59, 95
4, 240000, Note_off_c, 4, 55, 95
4, 240000, Note_on_c, 4, 67, 95
4, 240000, Note_on_c, 4, 62, 95
4, 240000, Note_on_c, 4, 60, 95
4, 240000, Note_on_c, 4, 55, 95
4, 241440, Note_off_c, 4, 67, 95
4, 241440, Note_off_c, 4, 62, 95
4, 241440, Note_off_c, 4, 60, 95
4, 241440, Note_off_c, 4, 55, 95
4, 241440, Note_on_c, 4, 67, 95
4, 241440, Note_on_c, 4, 62, 95
4, 241440, Note_on_c, 4, 59, 95
4, 241440, Note_on_c, 4, 55, 95
4, 241920, Note_off_c, 4, 67, 95
4, 241920, Note_off_c, 4, 62, 95
4, 241920, Note_off_c, 4, 59, 95
4, 241920, Note_off_c, 4, 55, 95
4, 241920, Note_on_c, 4, 69, 95
4, 241920, Note_on_c, 4, 64, 95
4, 241920, Note_on_c, 4, 60, 95
4, 241920, Note_on_c, 4, 57, 95
4, 244800, Note_off_c, 4, 69, 95
4, 244800, Note_off_c, 4, 64, 95
4, 244800, Note_off_c, 4, 60, 95
4, 244800, Note_off_c, 4, 57, 95
4, 245280, Note_on_c, 4, 67, 95
4, 245280, Note_on_c, 4, 62, 95
4, 245280, Note_on_c, 4, 59, 95
4, 245280, Note_on_c, 4, 55, 95
4, 245760, Note_off_c, 4, 67, 95
4, 245760, Note_off_c, 4, 62, 95
4, 245760, Note_off_c, 4, 59, 95
4, 245760, Note_off_c, 4, 55, 95
4, 245760, Note_on_c, 4, 64, 95
4, 245760, Note_on_c, 4, 60, 95
4, 245760, Note_on_c, 4, 55, 95
4, 245760, Note_on_c, 4, 52, 95
4, 248640, Note_off_c, 4, 64, 95
4, 248640, Note_off_c, 4, 60, 95
4, 248640, Note_off_c, 4, 55, 95
4, 248640, Note_off_c, 4, 52, 95
4, 248640, Note_on_c, 4, 66, 95
4, 248640, Note_on_c, 4, 62, 95
4, 248640, Note_on_c, 4, 57, 95
4, 248640, Note_on_c, 4, 50, 95
4, 249600, Note_off_c, 4, 66, 95
4, 249600, Note_off_c, 4, 62, 95
4, 249600, Note_off_c, 4, 57, 95
4, 249600, Note_off_c, 4, 50, 95
4, 249600, Note_on_c, 4, 67, 95
4, 249600, Note_on_c, 4, 62, 95
4, 249600, Note_on_c, 4, 59, 95
4, 249600, Note_on_c, 4, 55, 95
4, 253440, Note_off_c, 4, 67, 95
4, 253440, Note_off_c, 4, 62, 95
4, 253440, Note_off_c, 4, 59, 95
4, 253440, Note_off_c, 4, 55, 95
4, 256560, Note_on_c, 4, 71, 95
4, 257040, Note_off_c, 4, 71, 95
4, 257040, Note_on_c, 4, 71, 95
4, 257280, Note_off_c, 4, 71, 95
4, 257280, Note_on_c, 4, 71, 95
4, 259200, Note_off_c, 4, 71, 95
4, 261120, Note_on_c, 4, 67, 95
4, 261120, Note_on_c, 4, 62, 95
4, 261120, Note_on_c, 4, 59, 95
4, 261120, Note_on_c, 4, 55, 95
4, 263040, Note_off_c, 4, 67, 95
4, 263040, Note_off_c, 4, 62, 95
4, 263040, Note_off_c, 4, 59, 95
4, 263040, Note_off_c, 4, 55, 95
4, 264000, Note_on_c, 4, 69, 95
4, 264480, Note_off_c, 4, 69, 95
4, 264480, Note_on_c, 4, 67, 95
4, 264720, Note_off_c, 4, 67, 95
4, 264960, Note_on_c, 4, 66, 95
4, 267840, Note_off_c, 4, 66, 95
4, 268320, Note_on_c, 4, 66, 95
4, 268320, Note_on_c, 4, 62, 95
4, 268320, Note_on_c, 4, 59, 95
4, 268800, Note_off_c, 4, 66, 95
4, 268800, Note_off_c, 4, 62, 95
4, 268800, Note_off_c, 4, 59, 95
4, 268800, Note_on_c, 4, 67, 95
4, 268800, Note_on_c, 4, 62, 95
4, 268800, Note_on_c, 4, 59, 95
4, 268800, Note_on_c, 4, 55, 95
4, 270480, Note_off_c, 4, 67, 95
4, 270480, Note_off_c, 4, 62, 95
4, 270480, Note_off_c, 4, 59, 95
4, 270480, Note_off_c, 4, 55, 95
4, 270480, Note_on_c, 4, 69, 95
4, 270960, Note_off_c, 4, 69, 95
4, 270960, Note_on_c, 4, 71, 95
4, 271440, Note_off_c, 4, 71, 95
4, 271440, Note_on_c, 4, 69, 95
4, 271680, Note_off_c, 4, 69, 95
4, 271680, Note_on_c, 4, 67, 95
4, 272160, Note_off_c, 4, 67, 95
4, 272160, Note_on_c, 4, 66, 95
4, 272640, Note_off_c, 4, 66, 95
4, 272640, Note_on_c, 4, 64, 95
4, 275520, Note_off_c, 4, 64, 95
4, 276000, Note_on_c, 4, 67, 95
4, 276480, Note_off_c, 4, 67, 95
4, 276480, Note_on_c, 4, 67, 95
4, 276960, Note_off_c, 4, 67, 95
4, 278880, Note_on_c, 4, 67, 95
4, 279120, Note_off_c, 4, 67, 95
4, 279120, Note_on_c, 4, 69, 95
4, 279360, Note_off_c, 4, 69, 95
4, 279360, Note_on_c, 4, 67, 95
4, 279840, Note_off_c, 4, 67, 95
4, 279840, Note_on_c, 4, 67, 95
4, 280320, Note_off_c, 4, 67, 95
4, 280320, Note_on_c, 4, 71, 95
4, 284160, Note_off_c, 4, 71, 95
4, 284160, Note_on_c, 4, 66, 95
4, 284160, Note_on_c, 4, 62, 95
4, 284160, Note_on_c, 4, 57, 95
4, 284160, Note_on_c, 4, 50, 95
4, 285600, Note_off_c, 4, 66, 95
4, 285600, Note_off_c, 4, 62, 95
4, 285600, Note_off_c, 4, 57, 95
4, 285600, Note_off_c, 4, 50, 95
4, 285600, Note_on_c, 4, 67, 95
4, 286080, Note_off_c, 4, 67, 95
4, 286080, Note_on_c, 4, 69, 95
4, 286560, Note_off_c, 4, 69, 95
4, 286560, Note_on_c, 4, 67, 95
4, 287040, Note_off_c, 4, 67, 95
4, 287040, Note_on_c, 4, 69, 95
4, 287520, Note_off_c, 4, 69, 95
4, 287520, Note_on_c, 4, 67, 95
4, 288000, Note_off_c, 4, 67, 95
4, 288000, Note_on_c, 4, 64, 95
4, 291840, Note_off_c, 4, 64, 95
4, 293760, Note_on_c, 4, 55, 95
4, 294240, Note_off_c, 4, 55, 95
4, 294240, Note_on_c, 4, 55, 95
4, 294720, Note_off_c, 4, 55, 95
4, 294720, Note_on_c, 4, 60, 95
4, 295200, Note_off_c, 4, 60, 95
4, 295200, Note_on_c, 4, 57, 95
4, 295680, Note_off_c, 4, 57, 95
4, 295680, Note_on_c, 4, 55, 95
4, 297600, Note_off_c, 4, 55, 95
4, 297600, Note_on_c, 4, 65, 95
4, 297600, Note_on_c, 4, 60, 95
4, 297600, Note_on_c, 4, 57, 95
4, 297600, Note_on_c, 4, 53, 95
4, 299520, Note_off_c, 4, 65, 95
4, 299520, Note_off_c, 4, 60, 95
4, 299520, Note_off_c, 4, 57, 95
4, 299520, Note_off_c, 4, 53, 95
4, 299520, Note_on_c, 4, 60, 95
4, 299520, Note_on_c, 4, 55, 95
4, 299520, Note_on_c, 4, 52, 95
4, 299520, Note_on_c, 4, 48, 95
4, 301440, Note_off_c, 4, 60, 95
4, 301440, Note_off_c, 4, 55, 95
4, 301440, Note_off_c, 4, 52, 95
4, 301440, Note_off_c, 4, 48, 95
4, 301920, Note_on_c, 4, 60, 95
4, 302400, Note_off_c, 4, 60, 95
4, 302400, Note_on_c, 4, 59, 95
4, 302880, Note_off_c, 4, 59, 95
4, 302880, Note_on_c, 4, 59, 95
4, 303360, Note_off_c, 4, 59, 95
4, 303360, Note_on_c, 4, 57, 95
4, 307200, Note_off_c, 4, 57, 95
4, 309120, Note_on_c, 4, 55, 95
4, 309600, Note_off_c, 4, 55, 95
4, 309600, Note_on_c, 4, 55, 95
4, 310080, Note_off_c, 4, 55, 95
4, 310080, Note_on_c, 4, 60, 95
4, 310560, Note_off_c, 4, 60, 95
4, 310560, Note_on_c, 4, 57, 95
4, 311040, Note_off_c, 4, 57, 95
4, 311040, Note_on_c, 4, 55, 95
4, 312960, Note_off_c, 4, 55, 95
4, 312960, Note_on_c, 4, 65, 95
4, 312960, Note_on_c, 4, 60, 95
4, 312960, Note_on_c, 4, 57, 95
4, 312960, Note_on_c, 4, 53, 95
4, 314880, Note_off_c, 4, 65, 95
4, 314880, Note_off_c, 4, 60, 95
4, 314880, Note_off_c, 4, 57, 95
4, 314880, Note_off_c, 4, 53, 95
4, 317280, Note_on_c, 4, 74, 95
4, 318240, Note_off_c, 4, 74, 95
4, 318240, Note_on_c, 4, 71, 95
4, 318720, Note_off_c, 4, 71, 95
4, 318720, Note_on_c, 4, 71, 95
4, 320160, Note_off_c, 4, 71, 95
4, 320640, Note_on_c, 4, 71, 95
4, 321600, Note_off_c, 4, 71, 95
4, 321600, Note_on_c, 4, 71, 95
4, 322080, Note_off_c, 4, 71, 95
4, 322080, Note_on_c, 4, 69, 95
4, 322560, Note_off_c, 4, 69, 95
4, 322560, Note_on_c, 4, 67, 95
4, 324480, Note_off_c, 4, 67, 95
4, 324960, Note_on_c, 4, 71, 95
4, 325200, Note_off_c, 4, 71, 95
4, 325200, Note_on_c, 4, 71, 95
4, 325440, Note_off_c, 4, 71, 95
4, 325440, Note_on_c, 4, 69, 95
4, 325920, Note_off_c, 4, 69, 95
4, 325920, Note_on_c, 4, 67, 95
4, 326400, Note_off_c, 4, 67, 95
4, 326400, Note_on_c, 4, 66, 95
4, 329280, Note_off_c, 4, 66, 95
4, 329280, Note_on_c, 4, 71, 95
4, 329760, Note_off_c, 4, 71, 95
4, 329760, Note_on_c, 4, 67, 95
4, 330240, Note_off_c, 4, 67, 95
4, 330240, Note_on_c, 4, 67, 95
4, 331680, Note_off_c, 4, 67, 95
4, 331920, Note_on_c, 4, 69, 95
4, 332400, Note_off_c, 4, 69, 95
4, 332400, Note_on_c, 4, 71, 95
4, 332880, Note_off_c, 4, 71, 95
4, 332880, Note_on_c, 4, 69, 95
4, 333120, Note_off_c, 4, 69, 95
4, 333120, Note_on_c, 4, 67, 95
4, 333600, Note_off_c, 4, 67, 95
4, 333600, Note_on_c, 4, 66, 95
4, 334080, Note_off_c, 4, 66, 95
4, 334080, Note_on_c, 4, 64, 95
4, 336960, Note_off_c, 4, 64, 95
4, 337440, Note_on_c, 4, 67, 95
4, 337920, Note_off_c, 4, 67, 95
4, 337920, Note_on_c, 4, 67, 95
4, 338400, Note_off_c, 4, 67, 95
4, 339840, Note_on_c, 4, 72, 95
4, 340320, Note_off_c, 4, 72, 95
4, 340320, Note_on_c, 4, 67, 95
4, 340560, Note_off_c, 4, 67, 95
4, 340560, Note_on_c, 4, 69, 95
4, 340800, Note_off_c, 4, 69, 95
4, 340800, Note_on_c, 4, 67, 95
4, 341280, Note_off_c, 4, 67, 95
4, 341280, Note_on_c, 4, 67, 95
4, 341760, Note_off_c, 4, 67, 95
4, 341760, Note_on_c, 4, 71, 95
4, 345600, Note_off_c, 4, 71, 95
4, 345600, Note_on_c, 4, 66, 95
4, 345600, Note_on_c, 4, 62, 95
4, 345600, Note_on_c, 4, 57, 95
4, 345600, Note_on_c, 4, 50, 95
4, 347040, Note_off_c, 4, 66, 95
4, 347040, Note_off_c, 4, 62, 95
4, 347040, Note_off_c, 4, 57, 95
4, 347040, Note_off_c, 4, 50, 95
4, 347040, Note_on_c, 4, 67, 95
4, 347520, Note_off_c, 4, 67, 95
4, 347520, Note_on_c, 4, 69, 95
4, 348000, Note_off_c, 4, 69, 95
4, 348000, Note_on_c, 4, 67, 95
4, 348480, Note_off_c, 4, 67, 95
4, 348480, Note_on_c, 4, 69, 95
4, 348960, Note_off_c, 4, 69, 95
4, 348960, Note_on_c, 4, 67, 95
4, 349440, Note_off_c, 4, 67, 95
4, 349440, Note_on_c, 4, 64, 95
4, 353280, Note_off_c, 4, 64, 95
4, 355200, Note_on_c, 4, 55, 95
4, 355680, Note_off_c, 4, 55, 95
4, 355680, Note_on_c, 4, 55, 95
4, 356160, Note_off_c, 4, 55, 95
4, 356160, Note_on_c, 4, 60, 95
4, 356640, Note_off_c, 4, 60, 95
4, 356640, Note_on_c, 4, 57, 95
4, 357120, Note_off_c, 4, 57, 95
4, 357120, Note_on_c, 4, 55, 95
4, 359040, Note_off_c, 4, 55, 95
4, 359040, Note_on_c, 4, 65, 95
4, 359040, Note_on_c, 4, 60, 95
4, 359040, Note_on_c, 4, 57, 95
4, 359040, Note_on_c, 4, 53, 95
4, 360960, Note_off_c, 4, 65, 95
4, 360960, Note_off_c, 4, 60, 95
4, 360960, Note_off_c, 4, 57, 95
4, 360960, Note_off_c, 4, 53, 95
4, 360960, Note_on_c, 4, 60, 95
4, 360960, Note_on_c, 4, 55, 95
4, 360960, Note_on_c, 4, 52, 95
4, 360960, Note_on_c, 4, 48, 95
4, 362880, Note_off_c, 4, 60, 95
4, 362880, Note_off_c, 4, 55, 95
4, 362880, Note_off_c, 4, 52, 95
4, 362880, Note_off_c, 4, 48, 95
4, 363360, Note_on_c, 4, 60, 95
4, 363840, Note_off_c, 4, 60, 95
4, 363840, Note_on_c, 4, 59, 95
4, 364320, Note_off_c, 4, 59, 95
4, 364320, Note_on_c, 4, 59, 95
4, 364800, Note_off_c, 4, 59, 95
4, 364800, Note_on_c, 4, 57, 95
4, 368640, Note_off_c, 4, 57, 95
4, 370560, Note_on_c, 4, 55, 95
4, 371040, Note_off_c, 4, 55, 95
4, 371040, Note_on_c, 4, 55, 95
4, 371520, Note_off_c, 4, 55, 95
4, 371520, Note_on_c, 4, 60, 95
4, 372000, Note_off_c, 4, 60, 95
4, 372000, Note_on_c, 4, 57, 95
4, 372480, Note_off_c, 4, 57, 95
4, 372480, Note_on_c, 4, 55, 95
4, 374160, Note_off_c, 4, 55, 95
4, 374400, Note_on_c, 4, 65, 95
4, 374400, Note_on_c, 4, 60, 95
4, 374400, Note_on_c, 4, 57, 95
4, 374400, Note_on_c, 4, 53, 95
4, 376320, Note_off_c, 4, 65, 95
4, 376320, Note_off_c, 4, 60, 95
4, 376320, Note_off_c, 4, 57, 95
4, 376320, Note_off_c, 4, 53, 95
4, 376320, Note_on_c, 4, 64, 95
4, 376320, Note_on_c, 4, 60, 95
4, 376320, Note_on_c, 4, 55, 95
4, 376320, Note_on_c, 4, 52, 95
4, 376320, Note_on_c, 4, 48, 95
4, 378240, Note_off_c, 4, 64, 95
4, 378240, Note_off_c, 4, 60, 95
4, 378240, Note_off_c, 4, 55, 95
4, 378240, Note_off_c, 4, 52, 95
4, 378240, Note_off_c, 4, 48, 95
4, 379200, Note_on_c, 4, 74, 95
4, 379440, Note_off_c, 4, 74, 95
4, 379440, Note_on_c, 4, 76, 95
4, 379680, Note_off_c, 4, 76, 95
4, 379680, Note_on_c, 4, 79, 95
4, 380160, Note_off_c, 4, 79, 95
4, 380160, Note_on_c, 4, 83, 95
4, 380160, Note_on_c, 4, 79, 95
4, 380160, Note_on_c, 4, 74, 95
4, 380160, Note_on_c, 4, 71, 95
4, 384000, Note_off_c, 4, 83, 95
4, 384000, Note_off_c, 4, 79, 95
4, 384000, Note_off_c, 4, 74, 95
4, 384000, Note_off_c, 4, 71, 95
4, 384000, End_track
5, 0, Start_track
5, 0, Pitch_bend_c, 6, 8192
5, 0, Control_c, 6, 7, 127
5, 0, Control_c, 7, 7, 127
5, 0, Control_c, 6, 10, 63
5, 0, Control_c, 7, 10, 63
5, 0, Control_c, 6, 93, 0
5, 0, Control_c, 7, 93, 0
5, 0, Control_c, 6, 91, 0
5, 0, Control_c, 7, 91, 0
5, 0, Control_c, 6, 95, 0
5, 0, Control_c, 7, 95, 0
5, 0, Control_c, 6, 92, 0
5, 0, Control_c, 7, 92, 0
5, 0, Control_c, 6, 11, 127
5, 0, Control_c, 7, 11, 127
5, 0, Control_c, 6, 0, 0
5, 0, Control_c, 7, 0, 0
5, 0, Program_c, 6, 32
5, 0, Program_c, 7, 32
5, 7680, Note_on_c, 6, 31, 95
5, 11520, Note_off_c, 6, 31, 95
5, 14640, Note_on_c, 6, 28, 95
5, 14880, Note_off_c, 6, 28, 95
5, 14880, Note_on_c, 6, 31, 95
5, 15360, Note_off_c, 6, 31, 95
5, 15360, Note_on_c, 6, 31, 95
5, 19200, Note_off_c, 6, 31, 95
5, 19200, Note_on_c, 6, 35, 95
5, 21120, Note_off_c, 6, 35, 95
5, 21120, Note_on_c, 6, 35, 95
5, 22080, Note_off_c, 6, 35, 95
5, 22080, Note_on_c, 6, 35, 95
5, 23040, Note_off_c, 6, 35, 95
5, 23040, Note_on_c, 6, 31, 95
5, 24960, Note_off_c, 6, 31, 95
5, 24960, Note_on_c, 6, 31, 95
5, 25920, Note_off_c, 6, 31, 95
5, 25920, Note_on_c, 6, 31, 95
5, 26880, Note_off_c, 6, 31, 95
5, 26880, Note_on_c, 6, 35, 95
5, 28800, Note_off_c, 6, 35, 95
5, 28800, Note_on_c, 6, 35, 95
5, 29760, Note_off_c, 6, 35, 95
5, 29760, Note_on_c, 6, 35, 95
5, 30720, Note_off_c, 6, 35, 95
5, 30720, Note_on_c, 6, 31, 95
5, 32640, Note_off_c, 6, 31, 95
5, 32640, Note_on_c, 6, 31, 95
5, 33600, Note_off_c, 6, 31, 95
5, 33600, Note_on_c, 6, 31, 95
5, 34560, Note_off_c, 6, 31, 95
5, 34560, Note_on_c, 6, 33, 95
5, 36480, Note_off_c, 6, 33, 95
5, 36480, Note_on_c, 6, 33, 95
5, 37440, Note_off_c, 6, 33, 95
5, 37440, Note_on_c, 6, 33, 95
5, 37920, Note_off_c, 6, 33, 95
5, 37920, Note_on_c, 6, 31, 95
5, 38400, Note_off_c, 6, 31, 95
5, 38400, Note_on_c, 6, 36, 95
5, 40320, Note_off_c, 6, 36, 95
5, 40320, Note_on_c, 6, 36, 95
5, 41280, Note_off_c, 6, 36, 95
5, 41280, Note_on_c, 6, 38, 95
5, 42240, Note_off_c, 6, 38, 95
5, 42240, Note_on_c, 6, 31, 95
5, 44160, Note_off_c, 6, 31, 95
5, 44160, Note_on_c, 6, 31, 95
5, 45120, Note_off_c, 6, 31, 95
5, 45120, Note_on_c, 6, 31, 95
5, 46080, Note_off_c, 6, 31, 95
5, 46080, Note_on_c, 6, 38, 95
5, 48000, Note_off_c, 6, 38, 95
5, 48000, Note_on_c, 6, 38, 95
5, 48960, Note_off_c, 6, 38, 95
5, 48960, Note_on_c, 6, 36, 95
5, 49920, Note_off_c, 6, 36, 95
5, 49920, Note_on_c, 6, 35, 95
5, 51840, Note_off_c, 6, 35, 95
5, 51840, Note_on_c, 6, 35, 95
5, 52800, Note_off_c, 6, 35, 95
5, 52800, Note_on_c, 6, 35, 95
5, 53760, Note_off_c, 6, 35, 95
5, 53760, Note_on_c, 6, 31, 95
5, 55680, Note_off_c, 6, 31, 95
5, 55680, Note_on_c, 6, 31, 95
5, 56640, Note_off_c, 6, 31, 95
5, 56640, Note_on_c, 6, 31, 95
5, 57600, Note_off_c, 6, 31, 95
5, 57600, Note_on_c, 6, 35, 95
5, 59520, Note_off_c, 6, 35, 95
5, 59520, Note_on_c, 6, 35, 95
5, 60480, Note_off_c, 6, 35, 95
5, 60480, Note_on_c, 6, 35, 95
5, 61440, Note_off_c, 6, 35, 95
5, 61440, Note_on_c, 6, 31, 95
5, 63360, Note_off_c, 6, 31, 95
5, 63360, Note_on_c, 6, 31, 95
5, 64320, Note_off_c, 6, 31, 95
5, 64320, Note_on_c, 6, 31, 95
5, 65280, Note_off_c, 6, 31, 95
5, 65280, Note_on_c, 6, 33, 95
5, 67200, Note_off_c, 6, 33, 95
5, 67200, Note_on_c, 6, 33, 95
5, 68160, Note_off_c, 6, 33, 95
5, 68160, Note_on_c, 6, 33, 95
5, 68640, Note_off_c, 6, 33, 95
5, 68640, Note_on_c, 6, 31, 95
5, 69120, Note_off_c, 6, 31, 95
5, 69120, Note_on_c, 6, 36, 95
5, 71040, Note_off_c, 6, 36, 95
5, 71040, Note_on_c, 6, 36, 95
5, 72000, Note_off_c, 6, 36, 95
5, 72000, Note_on_c, 6, 38, 95
5, 72960, Note_off_c, 6, 38, 95
5, 72960, Note_on_c, 6, 31, 95
5, 74880, Note_off_c, 6, 31, 95
5, 74880, Note_on_c, 6, 31, 95
5, 75840, Note_off_c, 6, 31, 95
5, 75840, Note_on_c, 6, 33, 95
5, 76320, Note_off_c, 6, 33, 95
5, 76320, Note_on_c, 6, 31, 95
5, 76800, Note_off_c, 6, 31, 95
5, 76800, Note_on_c, 6, 38, 95
5, 77760, Note_off_c, 6, 38, 95
5, 77760, Note_on_c, 6, 38, 95
5, 78720, Note_off_c, 6, 38, 95
5, 78720, Note_on_c, 6, 38, 95
5, 79680, Note_off_c, 6, 38, 95
5, 79680, Note_on_c, 6, 38, 95
5, 80640, Note_off_c, 6, 38, 95
5, 80640, Note_on_c, 6, 33, 95
5, 81600, Note_off_c, 6, 33, 95
5, 81600, Note_on_c, 6, 33, 95
5, 82320, Note_off_c, 6, 33, 95
5, 82320, Note_on_c, 6, 33, 95
5, 82560, Note_off_c, 6, 33, 95
5, 82560, Note_on_c, 6, 33, 95
5, 83040, Note_off_c, 6, 33, 95
5, 83040, Note_on_c, 6, 33, 95
5, 83520, Note_off_c, 6, 33, 95
5, 83520, Note_on_c, 6, 33, 95
5, 84000, Note_off_c, 6, 33, 95
5, 84000, Note_on_c, 6, 31, 95
5, 84480, Note_off_c, 6, 31, 95
5, 84480, Note_on_c, 6, 36, 95
5, 85440, Note_off_c, 6, 36, 95
5, 85440, Note_on_c, 6, 36, 95
5, 86160, Note_off_c, 6, 36, 95
5, 86160, Note_on_c, 6, 36, 95
5, 86400, Note_off_c, 6, 36, 95
5, 86400, Note_on_c, 6, 36, 95
5, 86880, Note_off_c, 6, 36, 95
5, 86880, Note_on_c, 6, 36, 95
5, 87360, Note_off_c, 6, 36, 95
5, 87360, Note_on_c, 6, 38, 95
5, 87840, Note_off_c, 6, 38, 95
5, 87840, Note_on_c, 6, 38, 95
5, 88320, Note_off_c, 6, 38, 95
5, 88320, Note_on_c, 6, 31, 95
5, 89280, Note_off_c, 6, 31, 95
5, 89280, Note_on_c, 6, 31, 95
5, 90240, Note_off_c, 6, 31, 95
5, 90240, Note_on_c, 6, 29, 95
5, 91200, Note_off_c, 6, 29, 95
5, 91200, Note_on_c, 6, 29, 95
5, 91680, Note_off_c, 6, 29, 95
5, 91680, Note_on_c, 6, 38, 95
5, 92160, Note_off_c, 6, 38, 95
5, 92160, Note_on_c, 6, 36, 95
5, 93120, Note_off_c, 6, 36, 95
5, 93120, Note_on_c, 6, 36, 95
5, 93840, Note_off_c, 6, 36, 95
5, 93840, Note_on_c, 6, 36, 95
5, 94080, Note_off_c, 6, 36, 95
5, 94080, Note_on_c, 6, 36, 95
5, 94560, Note_off_c, 6, 36, 95
5, 94560, Note_on_c, 6, 36, 95
5, 95040, Note_off_c, 6, 36, 95
5, 95040, Note_on_c, 6, 35, 95
5, 95520, Note_off_c, 6, 35, 95
5, 95520, Note_on_c, 6, 35, 95
5, 96000, Note_off_c, 6, 35, 95
5, 96000, Note_on_c, 6, 33, 95
5, 96960, Note_off_c, 6, 33, 95
5, 96960, Note_on_c, 6, 33, 95
5, 97680, Note_off_c, 6, 33, 95
5, 97680, Note_on_c, 6, 33, 95
5, 97920, Note_off_c, 6, 33, 95
5, 97920, Note_on_c, 6, 33, 95
5, 98880, Note_off_c, 6, 33, 95
5, 98880, Note_on_c, 6, 33, 95
5, 99360, Note_off_c, 6, 33, 95
5, 99360, Note_on_c, 6, 31, 95
5, 99840, Note_off_c, 6, 31, 95
5, 99840, Note_on_c, 6, 36, 95
5, 100800, Note_off_c, 6, 36, 95
5, 100800, Note_on_c, 6, 36, 95
5, 101520, Note_off_c, 6, 36, 95
5, 101520, Note_on_c, 6, 36, 95
5, 101760, Note_off_c, 6, 36, 95
5, 101760, Note_on_c, 6, 36, 95
5, 102240, Note_off_c, 6, 36, 95
5, 102240, Note_on_c, 6, 36, 95
5, 102720, Note_off_c, 6, 36, 95
5, 102720, Note_on_c, 6, 38, 95
5, 103200, Note_off_c, 6, 38, 95
5, 103200, Note_on_c, 6, 38, 95
5, 103680, Note_off_c, 6, 38, 95
5, 103680, Note_on_c, 6, 31, 95
5, 104640, Note_off_c, 6, 31, 95
5, 104640, Note_on_c, 6, 31, 95
5, 105600, Note_off_c, 6, 31, 95
5, 105600, Note_on_c, 6, 29, 95
5, 106560, Note_off_c, 6, 29, 95
5, 106560, Note_on_c, 6, 29, 95
5, 107040, Note_off_c, 6, 29, 95
5, 107040, Note_on_c, 6, 38, 95
5, 107520, Note_off_c, 6, 38, 95
5, 107520, Note_on_c, 6, 36, 95
5, 111360, Note_off_c, 6, 36, 95
5, 111360, Note_on_c, 6, 35, 95
5, 113280, Note_off_c, 6, 35, 95
5, 113280, Note_on_c, 6, 35, 95
5, 114240, Note_off_c, 6, 35, 95
5, 114240, Note_on_c, 6, 35, 95
5, 115200, Note_off_c, 6, 35, 95
5, 115200, Note_on_c, 6, 31, 95
5, 117120, Note_off_c, 6, 31, 95
5, 117120, Note_on_c, 6, 31, 95
5, 118080, Note_off_c, 6, 31, 95
5, 118080, Note_on_c, 6, 31, 95
5, 119040, Note_off_c, 6, 31, 95
5, 119040, Note_on_c, 6, 35, 95
5, 120960, Note_off_c, 6, 35, 95
5, 120960, Note_on_c, 6, 35, 95
5, 121920, Note_off_c, 6, 35, 95
5, 121920, Note_on_c, 6, 35, 95
5, 122880, Note_off_c, 6, 35, 95
5, 122880, Note_on_c, 6, 31, 95
5, 124800, Note_off_c, 6, 31, 95
5, 124800, Note_on_c, 6, 31, 95
5, 125760, Note_off_c, 6, 31, 95
5, 125760, Note_on_c, 6, 31, 95
5, 126720, Note_off_c, 6, 31, 95
5, 126720, Note_on_c, 6, 33, 95
5, 128640, Note_off_c, 6, 33, 95
5, 128640, Note_on_c, 6, 33, 95
5, 129600, Note_off_c, 6, 33, 95
5, 129600, Note_on_c, 6, 33, 95
5, 130080, Note_off_c, 6, 33, 95
5, 130080, Note_on_c, 6, 31, 95
5, 130560, Note_off_c, 6, 31, 95
5, 130560, Note_on_c, 6, 36, 95
5, 132480, Note_off_c, 6, 36, 95
5, 132480, Note_on_c, 6, 36, 95
5, 133440, Note_off_c, 6, 36, 95
5, 133440, Note_on_c, 6, 38, 95
5, 134400, Note_off_c, 6, 38, 95
5, 134400, Note_on_c, 6, 31, 95
5, 136320, Note_off_c, 6, 31, 95
5, 136320, Note_on_c, 6, 31, 95
5, 137280, Note_off_c, 6, 31, 95
5, 137280, Note_on_c, 6, 31, 95
5, 138240, Note_off_c, 6, 31, 95
5, 138240, Note_on_c, 6, 38, 95
5, 140160, Note_off_c, 6, 38, 95
5, 140160, Note_on_c, 6, 38, 95
5, 141120, Note_off_c, 6, 38, 95
5, 141120, Note_on_c, 6, 36, 95
5, 142080, Note_off_c, 6, 36, 95
5, 142080, Note_on_c, 6, 35, 95
5, 144000, Note_off_c, 6, 35, 95
5, 144000, Note_on_c, 6, 35, 95
5, 144960, Note_off_c, 6, 35, 95
5, 144960, Note_on_c, 6, 35, 95
5, 145920, Note_off_c, 6, 35, 95
5, 145920, Note_on_c, 6, 31, 95
5, 147840, Note_off_c, 6, 31, 95
5, 147840, Note_on_c, 6, 31, 95
5, 148800, Note_off_c, 6, 31, 95
5, 148800, Note_on_c, 6, 31, 95
5, 149760, Note_off_c, 6, 31, 95
5, 149760, Note_on_c, 6, 35, 95
5, 151680, Note_off_c, 6, 35, 95
5, 151680, Note_on_c, 6, 35, 95
5, 152640, Note_off_c, 6, 35, 95
5, 152640, Note_on_c, 6, 35, 95
5, 153600, Note_off_c, 6, 35, 95
5, 153600, Note_on_c, 6, 31, 95
5, 155520, Note_off_c, 6, 31, 95
5, 155520, Note_on_c, 6, 31, 95
5, 156480, Note_off_c, 6, 31, 95
5, 156480, Note_on_c, 6, 31, 95
5, 157440, Note_off_c, 6, 31, 95
5, 157440, Note_on_c, 6, 33, 95
5, 159360, Note_off_c, 6, 33, 95
5, 159360, Note_on_c, 6, 33, 95
5, 160320, Note_off_c, 6, 33, 95
5, 160320, Note_on_c, 6, 33, 95
5, 160800, Note_off_c, 6, 33, 95
5, 160800, Note_on_c, 6, 31, 95
5, 161280, Note_off_c, 6, 31, 95
5, 161280, Note_on_c, 6, 36, 95
5, 163200, Note_off_c, 6, 36, 95
5, 163200, Note_on_c, 6, 36, 95
5, 164160, Note_off_c, 6, 36, 95
5, 164160, Note_on_c, 6, 38, 95
5, 165120, Note_off_c, 6, 38, 95
5, 165120, Note_on_c, 6, 31, 95
5, 167040, Note_off_c, 6, 31, 95
5, 167040, Note_on_c, 6, 31, 95
5, 168000, Note_off_c, 6, 31, 95
5, 168000, Note_on_c, 6, 33, 95
5, 168480, Note_off_c, 6, 33, 95
5, 168480, Note_on_c, 6, 31, 95
5, 168960, Note_off_c, 6, 31, 95
5, 168960, Note_on_c, 6, 38, 95
5, 169920, Note_off_c, 6, 38, 95
5, 169920, Note_on_c, 6, 38, 95
5, 170880, Note_off_c, 6, 38, 95
5, 170880, Note_on_c, 6, 38, 95
5, 171840, Note_off_c, 6, 38, 95
5, 171840, Note_on_c, 6, 38, 95
5, 172800, Note_off_c, 6, 38, 95
5, 172800, Note_on_c, 6, 33, 95
5, 173760, Note_off_c, 6, 33, 95
5, 173760, Note_on_c, 6, 33, 95
5, 174480, Note_off_c, 6, 33, 95
5, 174480, Note_on_c, 6, 33, 95
5, 174720, Note_off_c, 6, 33, 95
5, 174720, Note_on_c, 6, 33, 95
5, 175200, Note_off_c, 6, 33, 95
5, 175200, Note_on_c, 6, 33, 95
5, 175680, Note_off_c, 6, 33, 95
5, 175680, Note_on_c, 6, 33, 95
5, 176160, Note_off_c, 6, 33, 95
5, 176160, Note_on_c, 6, 31, 95
5, 176640, Note_off_c, 6, 31, 95
5, 176640, Note_on_c, 6, 36, 95
5, 177600, Note_off_c, 6, 36, 95
5, 177600, Note_on_c, 6, 36, 95
5, 178320, Note_off_c, 6, 36, 95
5, 178320, Note_on_c, 6, 36, 95
5, 178560, Note_off_c, 6, 36, 95
5, 178560, Note_on_c, 6, 36, 95
5, 179040, Note_off_c, 6, 36, 95
5, 179040, Note_on_c, 6, 36, 95
5, 179520, Note_off_c, 6, 36, 95
5, 179520, Note_on_c, 6, 38, 95
5, 180000, Note_off_c, 6, 38, 95
5, 180000, Note_on_c, 6, 38, 95
5, 180480, Note_off_c, 6, 38, 95
5, 180480, Note_on_c, 6, 31, 95
5, 181440, Note_off_c, 6, 31, 95
5, 181440, Note_on_c, 6, 31, 95
5, 182400, Note_off_c, 6, 31, 95
5, 182400, Note_on_c, 6, 29, 95
5, 183360, Note_off_c, 6, 29, 95
5, 183360, Note_on_c, 6, 29, 95
5, 183840, Note_off_c, 6, 29, 95
5, 183840, Note_on_c, 6, 38, 95
5, 184320, Note_off_c, 6, 38, 95
5, 184320, Note_on_c, 6, 36, 95
5, 185280, Note_off_c, 6, 36, 95
5, 185280, Note_on_c, 6, 36, 95
5, 186000, Note_off_c, 6, 36, 95
5, 186000, Note_on_c, 6, 36, 95
5, 186240, Note_off_c, 6, 36, 95
5, 186240, Note_on_c, 6, 36, 95
5, 186720, Note_off_c, 6, 36, 95
5, 186720, Note_on_c, 6, 36, 95
5, 187200, Note_off_c, 6, 36, 95
5, 187200, Note_on_c, 6, 35, 95
5, 187680, Note_off_c, 6, 35, 95
5, 187680, Note_on_c, 6, 35, 95
5, 188160, Note_off_c, 6, 35, 95
5, 188160, Note_on_c, 6, 33, 95
5, 189120, Note_off_c, 6, 33, 95
5, 189120, Note_on_c, 6, 33, 95
5, 189840, Note_off_c, 6, 33, 95
5, 189840, Note_on_c, 6, 33, 95
5, 190080, Note_off_c, 6, 33, 95
5, 190080, Note_on_c, 6, 33, 95
5, 191040, Note_off_c, 6, 33, 95
5, 191040, Note_on_c, 6, 33, 95
5, 191520, Note_off_c, 6, 33, 95
5, 191520, Note_on_c, 6, 31, 95
5, 192000, Note_off_c, 6, 31, 95
5, 192000, Note_on_c, 6, 36, 95
5, 192960, Note_off_c, 6, 36, 95
5, 192960, Note_on_c, 6, 36, 95
5, 193680, Note_off_c, 6, 36, 95
5, 193680, Note_on_c, 6, 36, 95
5, 193920, Note_off_c, 6, 36, 95
5, 193920, Note_on_c, 6, 36, 95
5, 194400, Note_off_c, 6, 36, 95
5, 194400, Note_on_c, 6, 36, 95
5, 194880, Note_off_c, 6, 36, 95
5, 194880, Note_on_c, 6, 38, 95
5, 195360, Note_off_c, 6, 38, 95
5, 195360, Note_on_c, 6, 38, 95
5, 195840, Note_off_c, 6, 38, 95
5, 195840, Note_on_c, 6, 31, 95
5, 196800, Note_off_c, 6, 31, 95
5, 196800, Note_on_c, 6, 31, 95
5, 197760, Note_off_c, 6, 31, 95
5, 197760, Note_on_c, 6, 29, 95
5, 198720, Note_off_c, 6, 29, 95
5, 198720, Note_on_c, 6, 29, 95
5, 199200, Note_off_c, 6, 29, 95
5, 199200, Note_on_c, 6, 38, 95
5, 199680, Note_off_c, 6, 38, 95
5, 199680, Note_on_c, 6, 36, 95
5, 203520, Note_off_c, 6, 36, 95
5, 226560, Note_on_c, 6, 35, 95
5, 228480, Note_off_c, 6, 35, 95
5, 228480, Note_on_c, 6, 35, 95
5, 229440, Note_off_c, 6, 35, 95
5, 229440, Note_on_c, 6, 35, 95
5, 230400, Note_off_c, 6, 35, 95
5, 230400, Note_on_c, 6, 31, 95
5, 232320, Note_off_c, 6, 31, 95
5, 232320, Note_on_c, 6, 31, 95
5, 233280, Note_off_c, 6, 31, 95
5, 233280, Note_on_c, 6, 31, 95
5, 234240, Note_off_c, 6, 31, 95
5, 234240, Note_on_c, 6, 35, 95
5, 236160, Note_off_c, 6, 35, 95
5, 236160, Note_on_c, 6, 35, 95
5, 237120, Note_off_c, 6, 35, 95
5, 237120, Note_on_c, 6, 35, 95
5, 238080, Note_off_c, 6, 35, 95
5, 238080, Note_on_c, 6, 31, 95
5, 240000, Note_off_c, 6, 31, 95
5, 240000, Note_on_c, 6, 31, 95
5, 240960, Note_off_c, 6, 31, 95
5, 240960, Note_on_c, 6, 31, 95
5, 241920, Note_off_c, 6, 31, 95
5, 241920, Note_on_c, 6, 33, 95
5, 243840, Note_off_c, 6, 33, 95
5, 243840, Note_on_c, 6, 33, 95
5, 244800, Note_off_c, 6, 33, 95
5, 244800, Note_on_c, 6, 33, 95
5, 245280, Note_off_c, 6, 33, 95
5, 245280, Note_on_c, 6, 31, 95
5, 245760, Note_off_c, 6, 31, 95
5, 245760, Note_on_c, 6, 36, 95
5, 247680, Note_off_c, 6, 36, 95
5, 247680, Note_on_c, 6, 36, 95
5, 248640, Note_off_c, 6, 36, 95
5, 248640, Note_on_c, 6, 38, 95
5, 249600, Note_off_c, 6, 38, 95
5, 249600, Note_on_c, 6, 31, 95
5, 251520, Note_off_c, 6, 31, 95
5, 251520, Note_on_c, 6, 31, 95
5, 252480, Note_off_c, 6, 31, 95
5, 252480, Note_on_c, 6, 31, 95
5, 253440, Note_off_c, 6, 31, 95
5, 253440, Note_on_c, 6, 38, 95
5, 255360, Note_off_c, 6, 38, 95
5, 255360, Note_on_c, 6, 38, 95
5, 256320, Note_off_c, 6, 38, 95
5, 256320, Note_on_c, 6, 36, 95
5, 257280, Note_off_c, 6, 36, 95
5, 257280, Note_on_c, 6, 35, 95
5, 259200, Note_off_c, 6, 35, 95
5, 259200, Note_on_c, 6, 35, 95
5, 260160, Note_off_c, 6, 35, 95
5, 260160, Note_on_c, 6, 35, 95
5, 261120, Note_off_c, 6, 35, 95
5, 261120, Note_on_c, 6, 31, 95
5, 263040, Note_off_c, 6, 31, 95
5, 263040, Note_on_c, 6, 31, 95
5, 264000, Note_off_c, 6, 31, 95
5, 264000, Note_on_c, 6, 31, 95
5, 264960, Note_off_c, 6, 31, 95
5, 264960, Note_on_c, 6, 35, 95
5, 266880, Note_off_c, 6, 35, 95
5, 266880, Note_on_c, 6, 35, 95
5, 267840, Note_off_c, 6, 35, 95
5, 267840, Note_on_c, 6, 35, 95
5, 268800, Note_off_c, 6, 35, 95
5, 268800, Note_on_c, 6, 31, 95
5, 270720, Note_off_c, 6, 31, 95
5, 270720, Note_on_c, 6, 31, 95
5, 271680, Note_off_c, 6, 31, 95
5, 271680, Note_on_c, 6, 31, 95
5, 272640, Note_off_c, 6, 31, 95
5, 272640, Note_on_c, 6, 33, 95
5, 274560, Note_off_c, 6, 33, 95
5, 274560, Note_on_c, 6, 33, 95
5, 275520, Note_off_c, 6, 33, 95
5, 275520, Note_on_c, 6, 33, 95
5, 276000, Note_off_c, 6, 33, 95
5, 276000, Note_on_c, 6, 31, 95
5, 276480, Note_off_c, 6, 31, 95
5, 276480, Note_on_c, 6, 36, 95
5, 278400, Note_off_c, 6, 36, 95
5, 278400, Note_on_c, 6, 36, 95
5, 279360, Note_off_c, 6, 36, 95
5, 279360, Note_on_c, 6, 38, 95
5, 280320, Note_off_c, 6, 38, 95
5, 280320, Note_on_c, 6, 31, 95
5, 282240, Note_off_c, 6, 31, 95
5, 282240, Note_on_c, 6, 31, 95
5, 283200, Note_off_c, 6, 31, 95
5, 283200, Note_on_c, 6, 33, 95
5, 283680, Note_off_c, 6, 33, 95
5, 283680, Note_on_c, 6, 31, 95
5, 284160, Note_off_c, 6, 31, 95
5, 284160, Note_on_c, 6, 38, 95
5, 285120, Note_off_c, 6, 38, 95
5, 285120, Note_on_c, 6, 38, 95
5, 286080, Note_off_c, 6, 38, 95
5, 286080, Note_on_c, 6, 38, 95
5, 287040, Note_off_c, 6, 38, 95
5, 287040, Note_on_c, 6, 38, 95
5, 288000, Note_off_c, 6, 38, 95
5, 288000, Note_on_c, 6, 33, 95
5, 288960, Note_off_c, 6, 33, 95
5, 288960, Note_on_c, 6, 33, 95
5, 289680, Note_off_c, 6, 33, 95
5, 289680, Note_on_c, 6, 33, 95
5, 289920, Note_off_c, 6, 33, 95
5, 289920, Note_on_c, 6, 33, 95
5, 290400, Note_off_c, 6, 33, 95
5, 290400, Note_on_c, 6, 33, 95
5, 290880, Note_off_c, 6, 33, 95
5, 290880, Note_on_c, 6, 33, 95
5, 291360, Note_off_c, 6, 33, 95
5, 291360, Note_on_c, 6, 31, 95
5, 291840, Note_off_c, 6, 31, 95
5, 291840, Note_on_c, 6, 36, 95
5, 292800, Note_off_c, 6, 36, 95
5, 292800, Note_on_c, 6, 36, 95
5, 293520, Note_off_c, 6, 36, 95
5, 293520, Note_on_c, 6, 36, 95
5, 293760, Note_off_c, 6, 36, 95
5, 293760, Note_on_c, 6, 36, 95
5, 294240, Note_off_c, 6, 36, 95
5, 294240, Note_on_c, 6, 36, 95
5, 294720, Note_off_c, 6, 36, 95
5, 294720, Note_on_c, 6, 38, 95
5, 295200, Note_off_c, 6, 38, 95
5, 295200, Note_on_c, 6, 38, 95
5, 295680, Note_off_c, 6, 38, 95
5, 295680, Note_on_c, 6, 31, 95
5, 296640, Note_off_c, 6, 31, 95
5, 296640, Note_on_c, 6, 31, 95
5, 297600, Note_off_c, 6, 31, 95
5, 297600, Note_on_c, 6, 29, 95
5, 298560, Note_off_c, 6, 29, 95
5, 298560, Note_on_c, 6, 29, 95
5, 299040, Note_off_c, 6, 29, 95
5, 299040, Note_on_c, 6, 38, 95
5, 299520, Note_off_c, 6, 38, 95
5, 299520, Note_on_c, 6, 36, 95
5, 300480, Note_off_c, 6, 36, 95
5, 300480, Note_on_c, 6, 36, 95
5, 301200, Note_off_c, 6, 36, 95
5, 301200, Note_on_c, 6, 36, 95
5, 301440, Note_off_c, 6, 36, 95
5, 301440, Note_on_c, 6, 36, 95
5, 301920, Note_off_c, 6, 36, 95
5, 301920, Note_on_c, 6, 36, 95
5, 302400, Note_off_c, 6, 36, 95
5, 302400, Note_on_c, 6, 35, 95
5, 302880, Note_off_c, 6, 35, 95
5, 302880, Note_on_c, 6, 35, 95
5, 303360, Note_off_c, 6, 35, 95
5, 303360, Note_on_c, 6, 33, 95
5, 304320, Note_off_c, 6, 33, 95
5, 304320, Note_on_c, 6, 33, 95
5, 305040, Note_off_c, 6, 33, 95
5, 305040, Note_on_c, 6, 33, 95
5, 305280, Note_off_c, 6, 33, 95
5, 305280, Note_on_c, 6, 33, 95
5, 306240, Note_off_c, 6, 33, 95
5, 306240, Note_on_c, 6, 33, 95
5, 306720, Note_off_c, 6, 33, 95
5, 306720, Note_on_c, 6, 31, 95
5, 307200, Note_off_c, 6, 31, 95
5, 307200, Note_on_c, 6, 36, 95
5, 308160, Note_off_c, 6, 36, 95
5, 308160, Note_on_c, 6, 36, 95
5, 308880, Note_off_c, 6, 36, 95
5, 308880, Note_on_c, 6, 36, 95
5, 309120, Note_off_c, 6, 36, 95
5, 309120, Note_on_c, 6, 36, 95
5, 309600, Note_off_c, 6, 36, 95
5, 309600, Note_on_c, 6, 36, 95
5, 310080, Note_off_c, 6, 36, 95
5, 310080, Note_on_c, 6, 38, 95
5, 310560, Note_off_c, 6, 38, 95
5, 310560, Note_on_c, 6, 38, 95
5, 311040, Note_off_c, 6, 38, 95
5, 311040, Note_on_c, 6, 31, 95
5, 312000, Note_off_c, 6, 31, 95
5, 312000, Note_on_c, 6, 31, 95
5, 312960, Note_off_c, 6, 31, 95
5, 312960, Note_on_c, 6, 29, 95
5, 313920, Note_off_c, 6, 29, 95
5, 313920, Note_on_c, 6, 29, 95
5, 314400, Note_off_c, 6, 29, 95
5, 314400, Note_on_c, 6, 38, 95
5, 314880, Note_off_c, 6, 38, 95
5, 314880, Note_on_c, 6, 36, 95
5, 318720, Note_off_c, 6, 36, 95
5, 318720, Note_on_c, 6, 35, 95
5, 320640, Note_off_c, 6, 35, 95
5, 320640, Note_on_c, 6, 35, 95
5, 321600, Note_off_c, 6, 35, 95
5, 321600, Note_on_c, 6, 35, 95
5, 322560, Note_off_c, 6, 35, 95
5, 322560, Note_on_c, 6, 31, 95
5, 324480, Note_off_c, 6, 31, 95
5, 324480, Note_on_c, 6, 31, 95
5, 325440, Note_off_c, 6, 31, 95
5, 325440, Note_on_c, 6, 31, 95
5, 326400, Note_off_c, 6, 31, 95
5, 326400, Note_on_c, 6, 35, 95
5, 328320, Note_off_c, 6, 35, 95
5, 328320, Note_on_c, 6, 35, 95
5, 329280, Note_off_c, 6, 35, 95
5, 329280, Note_on_c, 6, 35, 95
5, 330240, Note_off_c, 6, 35, 95
5, 330240, Note_on_c, 6, 31, 95
5, 332160, Note_off_c, 6, 31, 95
5, 332160, Note_on_c, 6, 31, 95
5, 333120, Note_off_c, 6, 31, 95
5, 333120, Note_on_c, 6, 31, 95
5, 334080, Note_off_c, 6, 31, 95
5, 334080, Note_on_c, 6, 33, 95
5, 336000, Note_off_c, 6, 33, 95
5, 336000, Note_on_c, 6, 33, 95
5, 336960, Note_off_c, 6, 33, 95
5, 336960, Note_on_c, 6, 33, 95
5, 337440, Note_off_c, 6, 33, 95
5, 337440, Note_on_c, 6, 31, 95
5, 337920, Note_off_c, 6, 31, 95
5, 337920, Note_on_c, 6, 36, 95
5, 339840, Note_off_c, 6, 36, 95
5, 339840, Note_on_c, 6, 36, 95
5, 340800, Note_off_c, 6, 36, 95
5, 340800, Note_on_c, 6, 38, 95
5, 341760, Note_off_c, 6, 38, 95
5, 341760, Note_on_c, 6, 31, 95
5, 343680, Note_off_c, 6, 31, 95
5, 343680, Note_on_c, 6, 31, 95
5, 344640, Note_off_c, 6, 31, 95
5, 344640, Note_on_c, 6, 33, 95
5, 345120, Note_off_c, 6, 33, 95
5, 345120, Note_on_c, 6, 31, 95
5, 345600, Note_off_c, 6, 31, 95
5, 345600, Note_on_c, 6, 38, 95
5, 346560, Note_off_c, 6, 38, 95
5, 346560, Note_on_c, 6, 38, 95
5, 347520, Note_off_c, 6, 38, 95
5, 347520, Note_on_c, 6, 38, 95
5, 348480, Note_off_c, 6, 38, 95
5, 348480, Note_on_c, 6, 38, 95
5, 349440, Note_off_c, 6, 38, 95
5, 349440, Note_on_c, 6, 33, 95
5, 350400, Note_off_c, 6, 33, 95
5, 350400, Note_on_c, 6, 33, 95
5, 351120, Note_off_c, 6, 33, 95
5, 351120, Note_on_c, 6, 33, 95
5, 351360, Note_off_c, 6, 33, 95
5, 351360, Note_on_c, 6, 33, 95
5, 351840, Note_off_c, 6, 33, 95
5, 351840, Note_on_c, 6, 33, 95
5, 352320, Note_off_c, 6, 33, 95
5, 352320, Note_on_c, 6, 33, 95
5, 352800, Note_off_c, 6, 33, 95
5, 352800, Note_on_c, 6, 31, 95
5, 353280, Note_off_c, 6, 31, 95
5, 353280, Note_on_c, 6, 36, 95
5, 354240, Note_off_c, 6, 36, 95
5, 354240, Note_on_c, 6, 36, 95
5, 354960, Note_off_c, 6, 36, 95
5, 354960, Note_on_c, 6, 36, 95
5, 355200, Note_off_c, 6, 36, 95
5, 355200, Note_on_c, 6, 36, 95
5, 355680, Note_off_c, 6, 36, 95
5, 355680, Note_on_c, 6, 36, 95
5, 356160, Note_off_c, 6, 36, 95
5, 356160, Note_on_c, 6, 38, 95
5, 356640, Note_off_c, 6, 38, 95
5, 356640, Note_on_c, 6, 38, 95
5, 357120, Note_off_c, 6, 38, 95
5, 357120, Note_on_c, 6, 31, 95
5, 358080, Note_off_c, 6, 31, 95
5, 358080, Note_on_c, 6, 31, 95
5, 359040, Note_off_c, 6, 31, 95
5, 359040, Note_on_c, 6, 29, 95
5, 360000, Note_off_c, 6, 29, 95
5, 360000, Note_on_c, 6, 29, 95
5, 360480, Note_off_c, 6, 29, 95
5, 360480, Note_on_c, 6, 38, 95
5, 360960, Note_off_c, 6, 38, 95
5, 360960, Note_on_c, 6, 36, 95
5, 361920, Note_off_c, 6, 36, 95
5, 361920, Note_on_c, 6, 36, 95
5, 362640, Note_off_c, 6, 36, 95
5, 362640, Note_on_c, 6, 36, 95
5, 362880, Note_off_c, 6, 36, 95
5, 362880, Note_on_c, 6, 36, 95
5, 363360, Note_off_c, 6, 36, 95
5, 363360, Note_on_c, 6, 36, 95
5, 363840, Note_off_c, 6, 36, 95
5, 363840, Note_on_c, 6, 35, 95
5, 364320, Note_off_c, 6, 35, 95
5, 364320, Note_on_c, 6, 35, 95
5, 364800, Note_off_c, 6, 35, 95
5, 364800, Note_on_c, 6, 33, 95
5, 365760, Note_off_c, 6, 33, 95
5, 365760, Note_on_c, 6, 33, 95
5, 366480, Note_off_c, 6, 33, 95
5, 366480, Note_on_c, 6, 33, 95
5, 366720, Note_off_c, 6, 33, 95
5, 366720, Note_on_c, 6, 33, 95
5, 367680, Note_off_c, 6, 33, 95
5, 367680, Note_on_c, 6, 33, 95
5, 368160, Note_off_c, 6, 33, 95
5, 368160, Note_on_c, 6, 31, 95
5, 368640, Note_off_c, 6, 31, 95
5, 368640, Note_on_c, 6, 36, 95
5, 369600, Note_off_c, 6, 36, 95
5, 369600, Note_on_c, 6, 36, 95
5, 370320, Note_off_c, 6, 36, 95
5, 370320, Note_on_c, 6, 36, 95
5, 370560, Note_off_c, 6, 36, 95
5, 370560, Note_on_c, 6, 36, 95
5, 371040, Note_off_c, 6, 36, 95
5, 371040, Note_on_c, 6, 36, 95
5, 371520, Note_off_c, 6, 36, 95
5, 371520, Note_on_c, 6, 38, 95
5, 372000, Note_off_c, 6, 38, 95
5, 372000, Note_on_c, 6, 38, 95
5, 372480, Note_off_c, 6, 38, 95
5, 372480, Note_on_c, 6, 31, 95
5, 373440, Note_off_c, 6, 31, 95
5, 373440, Note_on_c, 6, 31, 95
5, 374160, Note_off_c, 6, 31, 95
5, 374160, Note_on_c, 6, 31, 95
5, 374400, Note_off_c, 6, 31, 95
5, 374400, Note_on_c, 6, 29, 95
5, 374880, Note_off_c, 6, 29, 95
5, 374880, Note_on_c, 6, 29, 95
5, 375360, Note_off_c, 6, 29, 95
5, 375360, Note_on_c, 6, 29, 95
5, 375840, Note_off_c, 6, 29, 95
5, 375840, Note_on_c, 6, 38, 95
5, 376320, Note_off_c, 6, 38, 95
5, 376320, Note_on_c, 6, 36, 95
5, 378720, Note_off_c, 6, 36, 95
5, 378720, Note_on_c, 6, 36, 95
5, 379200, Note_off_c, 6, 36, 95
5, 379200, Note_on_c, 6, 38, 95
5, 379680, Note_off_c, 6, 38, 95
5, 379680, Note_on_c, 6, 35, 95
5, 380160, Note_off_c, 6, 35, 95
5, 380160, Note_on_c, 6, 31, 95
5, 384000, Note_off_c, 6, 31, 95
5, 384000, End_track
6, 0, Start_track
6, 0, Pitch_bend_c, 9, 8192
6, 0, Control_c, 9, 7, 103
6, 0, Control_c, 9, 10, 63
6, 0, Control_c, 9, 93, 0
6, 0, Control_c, 9, 91, 0
6, 0, Control_c, 9, 95, 0
6, 0, Control_c, 9, 92, 0
6, 0, Control_c, 9, 11, 127
6, 0, Program_c, 9, 0
6, 80640, Note_on_c, 9, 36, 95
6, 81120, Note_off_c, 9, 36, 95
6, 81120, Note_on_c, 9, 0, 95
6, 81120, Note_on_c, 9, 46, 95
6, 81360, Note_off_c, 9, 0, 95
6, 81360, Note_off_c, 9, 46, 95
6, 81600, Note_on_c, 9, 38, 95
6, 82080, Note_off_c, 9, 38, 95
6, 82080, Note_on_c, 9, 0, 95
6, 82080, Note_on_c, 9, 42, 95
6, 82320, Note_off_c, 9, 0, 95
6, 82320, Note_off_c, 9, 42, 95
6, 82320, Note_on_c, 9, 0, 95
6, 82320, Note_on_c, 9, 46, 95
6, 82560, Note_off_c, 9, 0, 95
6, 82560, Note_off_c, 9, 46, 95
6, 82560, Note_on_c, 9, 0, 95
6, 82560, Note_on_c, 9, 36, 95
6, 83040, Note_off_c, 9, 0, 95
6, 83040, Note_off_c, 9, 36, 95
6, 83040, Note_on_c, 9, 0, 95
6, 83040, Note_on_c, 9, 46, 95
6, 83280, Note_off_c, 9, 0, 95
6, 83280, Note_off_c, 9, 46, 95
6, 83520, Note_on_c, 9, 38, 95
6, 84000, Note_off_c, 9, 38, 95
6, 84000, Note_on_c, 9, 0, 95
6, 84000, Note_on_c, 9, 42, 95
6, 84240, Note_off_c, 9, 0, 95
6, 84240, Note_off_c, 9, 42, 95
6, 84240, Note_on_c, 9, 0, 95
6, 84240, Note_on_c, 9, 46, 95
6, 84480, Note_off_c, 9, 0, 95
6, 84480, Note_off_c, 9, 46, 95
6, 84480, Note_on_c, 9, 0, 95
6, 84480, Note_on_c, 9, 36, 95
6, 84960, Note_off_c, 9, 0, 95
6, 84960, Note_off_c, 9, 36, 95
6, 84960, Note_on_c, 9, 0, 95
6, 84960, Note_on_c, 9, 46, 95
6, 85200, Note_off_c, 9, 0, 95
6, 85200, Note_off_c, 9, 46, 95
6, 85440, Note_on_c, 9, 38, 95
6, 85920, Note_off_c, 9, 38, 95
6, 85920, Note_on_c, 9, 0, 95
6, 85920, Note_on_c, 9, 42, 95
6, 86160, Note_off_c, 9, 0, 95
6, 86160, Note_off_c, 9, 42, 95
6, 86160, Note_on_c, 9, 0, 95
6, 86160, Note_on_c, 9, 46, 95
6, 86400, Note_off_c, 9, 0, 95
6, 86400, Note_off_c, 9, 46, 95
6, 86400, Note_on_c, 9, 0, 95
6, 86400, Note_on_c, 9, 36, 95
6, 86880, Note_off_c, 9, 0, 95
6, 86880, Note_off_c, 9, 36, 95
6, 86880, Note_on_c, 9, 0, 95
6, 86880, Note_on_c, 9, 46, 95
6, 87120, Note_off_c, 9, 0, 95
6, 87120, Note_off_c, 9, 46, 95
6, 87360, Note_on_c, 9, 38, 95
6, 87840, Note_off_c, 9, 38, 95
6, 87840, Note_on_c, 9, 0, 95
6, 87840, Note_on_c, 9, 42, 95
6, 88080, Note_off_c, 9, 0, 95
6, 88080, Note_off_c, 9, 42, 95
6, 88080, Note_on_c, 9, 0, 95
6, 88080, Note_on_c, 9, 46, 95
6, 88320, Note_off_c, 9, 0, 95
6, 88320, Note_off_c, 9, 46, 95
6, 88320, Note_on_c, 9, 0, 95
6, 88320, Note_on_c, 9, 36, 95
6, 88800, Note_off_c, 9, 0, 95
6, 88800, Note_off_c, 9, 36, 95
6, 88800, Note_on_c, 9, 0, 95
6, 88800, Note_on_c, 9, 46, 95
6, 89040, Note_off_c, 9, 0, 95
6, 89040, Note_off_c, 9, 46, 95
6, 89280, Note_on_c, 9, 38, 95
6, 89760, Note_off_c, 9, 38, 95
6, 89760, Note_on_c, 9, 0, 95
6, 89760, Note_on_c, 9, 42, 95
6, 90000, Note_off_c, 9, 0, 95
6, 90000, Note_off_c, 9, 42, 95
6, 90000, Note_on_c, 9, 0, 95
6, 90000, Note_on_c, 9, 46, 95
6, 90240, Note_off_c, 9, 0, 95
6, 90240, Note_off_c, 9, 46, 95
6, 90240, Note_on_c, 9, 0, 95
6, 90240, Note_on_c, 9, 36, 95
6, 90720, Note_off_c, 9, 0, 95
6, 90720, Note_off_c, 9, 36, 95
6, 90720, Note_on_c, 9, 0, 95
6, 90720, Note_on_c, 9, 46, 95
6, 90960, Note_off_c, 9, 0, 95
6, 90960, Note_off_c, 9, 46, 95
6, 91200, Note_on_c, 9, 38, 95
6, 91680, Note_off_c, 9, 38, 95
6, 91680, Note_on_c, 9, 0, 95
6, 91680, Note_on_c, 9, 42, 95
6, 91920, Note_off_c, 9, 0, 95
6, 91920, Note_off_c, 9, 42, 95
6, 91920, Note_on_c, 9, 0, 95
6, 91920, Note_on_c, 9, 46, 95
6, 92160, Note_off_c, 9, 0, 95
6, 92160, Note_off_c, 9, 46, 95
6, 92160, Note_on_c, 9, 0, 95
6, 92160, Note_on_c, 9, 36, 95
6, 92640, Note_off_c, 9, 0, 95
6, 92640, Note_off_c, 9, 36, 95
6, 92640, Note_on_c, 9, 0, 95
6, 92640, Note_on_c, 9, 46, 95
6, 92880, Note_off_c, 9, 0, 95
6, 92880, Note_off_c, 9, 46, 95
6, 93120, Note_on_c, 9, 38, 95
6, 93600, Note_off_c, 9, 38, 95
6, 93600, Note_on_c, 9, 0, 95
6, 93600, Note_on_c, 9, 42, 95
6, 93840, Note_off_c, 9, 0, 95
6, 93840, Note_off_c, 9, 42, 95
6, 93840, Note_on_c, 9, 0, 95
6, 93840, Note_on_c, 9, 46, 95
6, 94080, Note_off_c, 9, 0, 95
6, 94080, Note_off_c, 9, 46, 95
6, 94080, Note_on_c, 9, 0, 95
6, 94080, Note_on_c, 9, 36, 95
6, 94560, Note_off_c, 9, 0, 95
6, 94560, Note_off_c, 9, 36, 95
6, 94560, Note_on_c, 9, 0, 95
6, 94560, Note_on_c, 9, 43, 95
6, 94560, Note_on_c, 9, 46, 95
6, 94800, Note_off_c, 9, 0, 95
6, 94800, Note_off_c, 9, 43, 95
6, 94800, Note_off_c, 9, 46, 95
6, 95040, Note_on_c, 9, 38, 95
6, 95520, Note_off_c, 9, 38, 95
6, 95520, Note_on_c, 9, 0, 95
6, 95520, Note_on_c, 9, 43, 95
6, 95520, Note_on_c, 9, 42, 95
6, 95760, Note_off_c, 9, 0, 95
6, 95760, Note_off_c, 9, 43, 95
6, 95760, Note_off_c, 9, 42, 95
6, 95760, Note_on_c, 9, 0, 95
6, 95760, Note_on_c, 9, 38, 95
6, 95760, Note_on_c, 9, 46, 95
6, 96000, Note_off_c, 9, 0, 95
6, 96000, Note_off_c, 9, 38, 95
6, 96000, Note_off_c, 9, 46, 95
6, 96000, Note_on_c, 9, 0, 95
6, 96000, Note_on_c, 9, 36, 95
6, 96480, Note_off_c, 9, 0, 95
6, 96480, Note_off_c, 9, 36, 95
6, 96480, Note_on_c, 9, 0, 95
6, 96480, Note_on_c, 9, 46, 95
6, 96720, Note_off_c, 9, 0, 95
6, 96720, Note_off_c, 9, 46, 95
6, 96960, Note_on_c, 9, 38, 95
6, 97440, Note_off_c, 9, 38, 95
6, 97440, Note_on_c, 9, 0, 95
6, 97440, Note_on_c, 9, 42, 95
6, 97680, Note_off_c, 9, 0, 95
6, 97680, Note_off_c, 9, 42, 95
6, 97680, Note_on_c, 9, 0, 95
6, 97680, Note_on_c, 9, 46, 95
6, 97920, Note_off_c, 9, 0, 95
6, 97920, Note_off_c, 9, 46, 95
6, 97920, Note_on_c, 9, 0, 95
6, 97920, Note_on_c, 9, 36, 95
6, 98400, Note_off_c, 9, 0, 95
6, 98400, Note_off_c, 9, 36, 95
6, 98400, Note_on_c, 9, 0, 95
6, 98400, Note_on_c, 9, 46, 95
6, 98640, Note_off_c, 9, 0, 95
6, 98640, Note_off_c, 9, 46, 95
6, 98880, Note_on_c, 9, 38, 95
6, 99360, Note_off_c, 9, 38, 95
6, 99360, Note_on_c, 9, 0, 95
6, 99360, Note_on_c, 9, 42, 95
6, 99600, Note_off_c, 9, 0, 95
6, 99600, Note_off_c, 9, 42, 95
6, 99600, Note_on_c, 9, 0, 95
6, 99600, Note_on_c, 9, 46, 95
6, 99840, Note_off_c, 9, 0, 95
6, 99840, Note_off_c, 9, 46, 95
6, 99840, Note_on_c, 9, 0, 95
6, 99840, Note_on_c, 9, 36, 95
6, 100320, Note_off_c, 9, 0, 95
6, 100320, Note_off_c, 9, 36, 95
6, 100320, Note_on_c, 9, 0, 95
6, 100320, Note_on_c, 9, 46, 95
6, 100560, Note_off_c, 9, 0, 95
6, 100560, Note_off_c, 9, 46, 95
6, 100800, Note_on_c, 9, 38, 95
6, 101280, Note_off_c, 9, 38, 95
6, 101280, Note_on_c, 9, 0, 95
6, 101280, Note_on_c, 9, 42, 95
6, 101520, Note_off_c, 9, 0, 95
6, 101520, Note_off_c, 9, 42, 95
6, 101520, Note_on_c, 9, 0, 95
6, 101520, Note_on_c, 9, 46, 95
6, 101760, Note_off_c, 9, 0, 95
6, 101760, Note_off_c, 9, 46, 95
6, 101760, Note_on_c, 9, 0, 95
6, 101760, Note_on_c, 9, 49, 95
6, 101760, Note_on_c, 9, 36, 95
6, 102240, Note_off_c, 9, 0, 95
6, 102240, Note_off_c, 9, 49, 95
6, 102240, Note_off_c, 9, 36, 95
6, 102240, Note_on_c, 9, 0, 95
6, 102240, Note_on_c, 9, 46, 95
6, 102480, Note_off_c, 9, 0, 95
6, 102480, Note_off_c, 9, 46, 95
6, 102720, Note_on_c, 9, 38, 95
6, 103200, Note_off_c, 9, 38, 95
6, 103200, Note_on_c, 9, 0, 95
6, 103200, Note_on_c, 9, 42, 95
6, 103440, Note_off_c, 9, 0, 95
6, 103440, Note_off_c, 9, 42, 95
6, 103440, Note_on_c, 9, 0, 95
6, 103440, Note_on_c, 9, 46, 95
6, 103680, Note_off_c, 9, 0, 95
6, 103680, Note_off_c, 9, 46, 95
6, 103680, Note_on_c, 9, 0, 95
6, 103680, Note_on_c, 9, 49, 95
6, 104160, Note_off_c, 9, 0, 95
6, 104160, Note_off_c, 9, 49, 95
6, 104160, Note_on_c, 9, 0, 95
6, 104160, Note_on_c, 9, 46, 95
6, 104400, Note_off_c, 9, 0, 95
6, 104400, Note_off_c, 9, 46, 95
6, 104640, Note_on_c, 9, 42, 95
6, 104880, Note_off_c, 9, 42, 95
6, 105120, Note_on_c, 9, 42, 95
6, 105360, Note_off_c, 9, 42, 95
6, 105360, Note_on_c, 9, 0, 95
6, 105360, Note_on_c, 9, 46, 95
6, 105600, Note_off_c, 9, 0, 95
6, 105600, Note_off_c, 9, 46, 95
6, 105600, Note_on_c, 9, 0, 95
6, 105600, Note_on_c, 9, 42, 95
6, 105840, Note_off_c, 9, 0, 95
6, 105840, Note_off_c, 9, 42, 95
6, 106080, Note_on_c, 9, 46, 95
6, 106320, Note_off_c, 9, 46, 95
6, 106560, Note_on_c, 9, 42, 95
6, 106800, Note_off_c, 9, 42, 95
6, 107040, Note_on_c, 9, 42, 95
6, 107280, Note_off_c, 9, 42, 95
6, 107280, Note_on_c, 9, 0, 95
6, 107280, Note_on_c, 9, 46, 95
6, 107520, Note_off_c, 9, 0, 95
6, 107520, Note_off_c, 9, 46, 95
6, 107520, Note_on_c, 9, 0, 95
6, 107520, Note_on_c, 9, 51, 95
6, 108000, Note_off_c, 9, 0, 95
6, 108000, Note_off_c, 9, 51, 95
6, 141600, Note_on_c, 9, 45, 95
6, 141840, Note_off_c, 9, 45, 95
6, 141840, Note_on_c, 9, 0, 95
6, 141840, Note_on_c, 9, 43, 95
6, 142080, Note_off_c, 9, 0, 95
6, 142080, Note_off_c, 9, 43, 95
6, 142080, Note_on_c, 9, 0, 95
6, 142080, Note_on_c, 9, 41, 95
6, 142080, Note_on_c, 9, 36, 95
6, 142560, Note_off_c, 9, 0, 95
6, 142560, Note_off_c, 9, 41, 95
6, 142560, Note_off_c, 9, 36, 95
6, 143040, Note_on_c, 9, 38, 95
6, 143520, Note_off_c, 9, 38, 95
6, 143520, Note_on_c, 9, 0, 95
6, 143520, Note_on_c, 9, 42, 95
6, 143760, Note_off_c, 9, 0, 95
6, 143760, Note_off_c, 9, 42, 95
6, 143760, Note_on_c, 9, 0, 95
6, 143760, Note_on_c, 9, 46, 95
6, 144000, Note_off_c, 9, 0, 95
6, 144000, Note_off_c, 9, 46, 95
6, 144000, Note_on_c, 9, 0, 95
6, 144000, Note_on_c, 9, 36, 95
6, 144480, Note_off_c, 9, 0, 95
6, 144480, Note_off_c, 9, 36, 95
6, 144480, Note_on_c, 9, 0, 95
6, 144480, Note_on_c, 9, 46, 95
6, 144720, Note_off_c, 9, 0, 95
6, 144720, Note_off_c, 9, 46, 95
6, 144960, Note_on_c, 9, 38, 95
6, 145440, Note_off_c, 9, 38, 95
6, 145440, Note_on_c, 9, 0, 95
6, 145440, Note_on_c, 9, 42, 95
6, 145680, Note_off_c, 9, 0, 95
6, 145680, Note_off_c, 9, 42, 95
6, 145680, Note_on_c, 9, 0, 95
6, 145680, Note_on_c, 9, 46, 95
6, 145920, Note_off_c, 9, 0, 95
6, 145920, Note_off_c, 9, 46, 95
6, 145920, Note_on_c, 9, 0, 95
6, 145920, Note_on_c, 9, 36, 95
6, 146400, Note_off_c, 9, 0, 95
6, 146400, Note_off_c, 9, 36, 95
6, 146400, Note_on_c, 9, 0, 95
6, 146400, Note_on_c, 9, 46, 95
6, 146640, Note_off_c, 9, 0, 95
6, 146640, Note_off_c, 9, 46, 95
6, 146880, Note_on_c, 9, 38, 95
6, 147360, Note_off_c, 9, 38, 95
6, 147360, Note_on_c, 9, 0, 95
6, 147360, Note_on_c, 9, 42, 95
6, 147600, Note_off_c, 9, 0, 95
6, 147600, Note_off_c, 9, 42, 95
6, 147600, Note_on_c, 9, 0, 95
6, 147600, Note_on_c, 9, 46, 95
6, 147840, Note_off_c, 9, 0, 95
6, 147840, Note_off_c, 9, 46, 95
6, 147840, Note_on_c, 9, 0, 95
6, 147840, Note_on_c, 9, 36, 95
6, 148320, Note_off_c, 9, 0, 95
6, 148320, Note_off_c, 9, 36, 95
6, 148320, Note_on_c, 9, 0, 95
6, 148320, Note_on_c, 9, 43, 95
6, 148320, Note_on_c, 9, 46, 95
6, 148560, Note_off_c, 9, 0, 95
6, 148560, Note_off_c, 9, 43, 95
6, 148560, Note_off_c, 9, 46, 95
6, 148560, Note_on_c, 9, 0, 95
6, 148560, Note_on_c, 9, 41, 95
6, 148800, Note_off_c, 9, 0, 95
6, 148800, Note_off_c, 9, 41, 95
6, 148800, Note_on_c, 9, 0, 95
6, 148800, Note_on_c, 9, 38, 95
6, 149280, Note_off_c, 9, 0, 95
6, 149280, Note_off_c, 9, 38, 95
6, 149280, Note_on_c, 9, 0, 95
6, 149280, Note_on_c, 9, 43, 95
6, 149280, Note_on_c, 9, 42, 95
6, 149520, Note_off_c, 9, 0, 95
6, 149520, Note_off_c, 9, 43, 95
6, 149520, Note_off_c, 9, 42, 95
6, 149520, Note_on_c, 9, 0, 95
6, 149520, Note_on_c, 9, 45, 95
6, 149520, Note_on_c, 9, 46, 95
6, 149760, Note_off_c, 9, 0, 95
6, 149760, Note_off_c, 9, 45, 95
6, 149760, Note_off_c, 9, 46, 95
6, 149760, Note_on_c, 9, 0, 95
6, 149760, Note_on_c, 9, 36, 95
6, 150240, Note_off_c, 9, 0, 95
6, 150240, Note_off_c, 9, 36, 95
6, 150240, Note_on_c, 9, 0, 95
6, 150240, Note_on_c, 9, 46, 95
6, 150480, Note_off_c, 9, 0, 95
6, 150480, Note_off_c, 9, 46, 95
6, 150720, Note_on_c, 9, 38, 95
6, 151200, Note_off_c, 9, 38, 95
6, 151200, Note_on_c, 9, 0, 95
6, 151200, Note_on_c, 9, 42, 95
6, 151440, Note_off_c, 9, 0, 95
6, 151440, Note_off_c, 9, 42, 95
6, 151440, Note_on_c, 9, 0, 95
6, 151440, Note_on_c, 9, 46, 95
6, 151680, Note_off_c, 9, 0, 95
6, 151680, Note_off_c, 9, 46, 95
6, 151680, Note_on_c, 9, 0, 95
6, 151680, Note_on_c, 9, 36, 95
6, 152160, Note_off_c, 9, 0, 95
6, 152160, Note_off_c, 9, 36, 95
6, 152160, Note_on_c, 9, 0, 95
6, 152160, Note_on_c, 9, 46, 95
6, 152400, Note_off_c, 9, 0, 95
6, 152400, Note_off_c, 9, 46, 95
6, 152640, Note_on_c, 9, 38, 95
6, 153120, Note_off_c, 9, 38, 95
6, 153120, Note_on_c, 9, 0, 95
6, 153120, Note_on_c, 9, 42, 95
6, 153360, Note_off_c, 9, 0, 95
6, 153360, Note_off_c, 9, 42, 95
6, 153360, Note_on_c, 9, 0, 95
6, 153360, Note_on_c, 9, 46, 95
6, 153600, Note_off_c, 9, 0, 95
6, 153600, Note_off_c, 9, 46, 95
6, 153600, Note_on_c, 9, 0, 95
6, 153600, Note_on_c, 9, 36, 95
6, 154080, Note_off_c, 9, 0, 95
6, 154080, Note_off_c, 9, 36, 95
6, 154080, Note_on_c, 9, 0, 95
6, 154080, Note_on_c, 9, 46, 95
6, 154320, Note_off_c, 9, 0, 95
6, 154320, Note_off_c, 9, 46, 95
6, 154560, Note_on_c, 9, 38, 95
6, 155040, Note_off_c, 9, 38, 95
6, 155040, Note_on_c, 9, 0, 95
6, 155040, Note_on_c, 9, 42, 95
6, 155280, Note_off_c, 9, 0, 95
6, 155280, Note_off_c, 9, 42, 95
6, 155280, Note_on_c, 9, 0, 95
6, 155280, Note_on_c, 9, 46, 95
6, 155520, Note_off_c, 9, 0, 95
6, 155520, Note_off_c, 9, 46, 95
6, 155520, Note_on_c, 9, 0, 95
6, 155520, Note_on_c, 9, 36, 95
6, 156000, Note_off_c, 9, 0, 95
6, 156000, Note_off_c, 9, 36, 95
6, 156000, Note_on_c, 9, 0, 95
6, 156000, Note_on_c, 9, 43, 95
6, 156000, Note_on_c, 9, 46, 95
6, 156240, Note_off_c, 9, 0, 95
6, 156240, Note_off_c, 9, 43, 95
6, 156240, Note_off_c, 9, 46, 95
6, 156240, Note_on_c, 9, 0, 95
6, 156240, Note_on_c, 9, 41, 95
6, 156480, Note_off_c, 9, 0, 95
6, 156480, Note_off_c, 9, 41, 95
6, 156480, Note_on_c, 9, 0, 95
6, 156480, Note_on_c, 9, 38, 95
6, 156960, Note_off_c, 9, 0, 95
6, 156960, Note_off_c, 9, 38, 95
6, 156960, Note_on_c, 9, 0, 95
6, 156960, Note_on_c, 9, 43, 95
6, 156960, Note_on_c, 9, 42, 95
6, 157200, Note_off_c, 9, 0, 95
6, 157200, Note_off_c, 9, 43, 95
6, 157200, Note_off_c, 9, 42, 95
6, 157200, Note_on_c, 9, 0, 95
6, 157200, Note_on_c, 9, 38, 95
6, 157200, Note_on_c, 9, 46, 95
6, 157440, Note_off_c, 9, 0, 95
6, 157440, Note_off_c, 9, 38, 95
6, 157440, Note_off_c, 9, 46, 95
6, 157440, Note_on_c, 9, 0, 95
6, 157440, Note_on_c, 9, 41, 95
6, 157440, Note_on_c, 9, 36, 95
6, 157920, Note_off_c, 9, 0, 95
6, 157920, Note_off_c, 9, 41, 95
6, 157920, Note_off_c, 9, 36, 95
6, 157920, Note_on_c, 9, 0, 95
6, 157920, Note_on_c, 9, 46, 95
6, 158160, Note_off_c, 9, 0, 95
6, 158160, Note_off_c, 9, 46, 95
6, 158400, Note_on_c, 9, 38, 95
6, 158880, Note_off_c, 9, 38, 95
6, 158880, Note_on_c, 9, 0, 95
6, 158880, Note_on_c, 9, 42, 95
6, 159120, Note_off_c, 9, 0, 95
6, 159120, Note_off_c, 9, 42, 95
6, 159120, Note_on_c, 9, 0, 95
6, 159120, Note_on_c, 9, 46, 95
6, 159360, Note_off_c, 9, 0, 95
6, 159360, Note_off_c, 9, 46, 95
6, 159360, Note_on_c, 9, 0, 95
6, 159360, Note_on_c, 9, 36, 95
6, 159840, Note_off_c, 9, 0, 95
6, 159840, Note_off_c, 9, 36, 95
6, 159840, Note_on_c, 9, 0, 95
6, 159840, Note_on_c, 9, 46, 95
6, 160080, Note_off_c, 9, 0, 95
6, 160080, Note_off_c, 9, 46, 95
6, 160320, Note_on_c, 9, 38, 95
6, 160800, Note_off_c, 9, 38, 95
6, 160800, Note_on_c, 9, 0, 95
6, 160800, Note_on_c, 9, 42, 95
6, 161040, Note_off_c, 9, 0, 95
6, 161040, Note_off_c, 9, 42, 95
6, 161040, Note_on_c, 9, 0, 95
6, 161040, Note_on_c, 9, 46, 95
6, 161280, Note_off_c, 9, 0, 95
6, 161280, Note_off_c, 9, 46, 95
6, 161280, Note_on_c, 9, 0, 95
6, 161280, Note_on_c, 9, 36, 95
6, 161760, Note_off_c, 9, 0, 95
6, 161760, Note_off_c, 9, 36, 95
6, 161760, Note_on_c, 9, 0, 95
6, 161760, Note_on_c, 9, 46, 95
6, 162000, Note_off_c, 9, 0, 95
6, 162000, Note_off_c, 9, 46, 95
6, 162240, Note_on_c, 9, 38, 95
6, 162720, Note_off_c, 9, 38, 95
6, 162720, Note_on_c, 9, 0, 95
6, 162720, Note_on_c, 9, 42, 95
6, 162960, Note_off_c, 9, 0, 95
6, 162960, Note_off_c, 9, 42, 95
6, 162960, Note_on_c, 9, 0, 95
6, 162960, Note_on_c, 9, 46, 95
6, 163200, Note_off_c, 9, 0, 95
6, 163200, Note_off_c, 9, 46, 95
6, 163200, Note_on_c, 9, 0, 95
6, 163200, Note_on_c, 9, 36, 95
6, 163680, Note_off_c, 9, 0, 95
6, 163680, Note_off_c, 9, 36, 95
6, 163680, Note_on_c, 9, 0, 95
6, 163680, Note_on_c, 9, 43, 95
6, 163680, Note_on_c, 9, 46, 95
6, 163920, Note_off_c, 9, 0, 95
6, 163920, Note_off_c, 9, 43, 95
6, 163920, Note_off_c, 9, 46, 95
6, 163920, Note_on_c, 9, 0, 95
6, 163920, Note_on_c, 9, 41, 95
6, 164160, Note_off_c, 9, 0, 95
6, 164160, Note_off_c, 9, 41, 95
6, 164160, Note_on_c, 9, 0, 95
6, 164160, Note_on_c, 9, 38, 95
6, 164640, Note_off_c, 9, 0, 95
6, 164640, Note_off_c, 9, 38, 95
6, 164640, Note_on_c, 9, 0, 95
6, 164640, Note_on_c, 9, 43, 95
6, 164640, Note_on_c, 9, 42, 95
6, 164880, Note_off_c, 9, 0, 95
6, 164880, Note_off_c, 9, 43, 95
6, 164880, Note_off_c, 9, 42, 95
6, 164880, Note_on_c, 9, 0, 95
6, 164880, Note_on_c, 9, 45, 95
6, 164880, Note_on_c, 9, 46, 95
6, 165120, Note_off_c, 9, 0, 95
6, 165120, Note_off_c, 9, 45, 95
6, 165120, Note_off_c, 9, 46, 95
6, 165120, Note_on_c, 9, 0, 95
6, 165120, Note_on_c, 9, 36, 95
6, 165600, Note_off_c, 9, 0, 95
6, 165600, Note_off_c, 9, 36, 95
6, 165600, Note_on_c, 9, 0, 95
6, 165600, Note_on_c, 9, 46, 95
6, 165840, Note_off_c, 9, 0, 95
6, 165840, Note_off_c, 9, 46, 95
6, 166080, Note_on_c, 9, 38, 95
6, 166560, Note_off_c, 9, 38, 95
6, 166560, Note_on_c, 9, 0, 95
6, 166560, Note_on_c, 9, 42, 95
6, 166800, Note_off_c, 9, 0, 95
6, 166800, Note_off_c, 9, 42, 95
6, 166800, Note_on_c, 9, 0, 95
6, 166800, Note_on_c, 9, 46, 95
6, 167040, Note_off_c, 9, 0, 95
6, 167040, Note_off_c, 9, 46, 95
6, 167040, Note_on_c, 9, 0, 95
6, 167040, Note_on_c, 9, 36, 95
6, 167520, Note_off_c, 9, 0, 95
6, 167520, Note_off_c, 9, 36, 95
6, 167520, Note_on_c, 9, 0, 95
6, 167520, Note_on_c, 9, 46, 95
6, 167760, Note_off_c, 9, 0, 95
6, 167760, Note_off_c, 9, 46, 95
6, 168000, Note_on_c, 9, 38, 95
6, 168480, Note_off_c, 9, 38, 95
6, 168480, Note_on_c, 9, 0, 95
6, 168480, Note_on_c, 9, 42, 95
6, 168720, Note_off_c, 9, 0, 95
6, 168720, Note_off_c, 9, 42, 95
6, 168720, Note_on_c, 9, 0, 95
6, 168720, Note_on_c, 9, 46, 95
6, 168960, Note_off_c, 9, 0, 95
6, 168960, Note_off_c, 9, 46, 95
6, 168960, Note_on_c, 9, 0, 95
6, 168960, Note_on_c, 9, 36, 95
6, 169440, Note_off_c, 9, 0, 95
6, 169440, Note_off_c, 9, 36, 95
6, 169440, Note_on_c, 9, 0, 95
6, 169440, Note_on_c, 9, 46, 95
6, 169680, Note_off_c, 9, 0, 95
6, 169680, Note_off_c, 9, 46, 95
6, 169920, Note_on_c, 9, 38, 95
6, 170400, Note_off_c, 9, 38, 95
6, 170400, Note_on_c, 9, 0, 95
6, 170400, Note_on_c, 9, 42, 95
6, 170640, Note_off_c, 9, 0, 95
6, 170640, Note_off_c, 9, 42, 95
6, 170640, Note_on_c, 9, 0, 95
6, 170640, Note_on_c, 9, 46, 95
6, 170880, Note_off_c, 9, 0, 95
6, 170880, Note_off_c, 9, 46, 95
6, 170880, Note_on_c, 9, 0, 95
6, 170880, Note_on_c, 9, 36, 95
6, 171360, Note_off_c, 9, 0, 95
6, 171360, Note_off_c, 9, 36, 95
6, 171360, Note_on_c, 9, 0, 95
6, 171360, Note_on_c, 9, 43, 95
6, 171360, Note_on_c, 9, 46, 95
6, 171600, Note_off_c, 9, 0, 95
6, 171600, Note_off_c, 9, 43, 95
6, 171600, Note_off_c, 9, 46, 95
6, 171600, Note_on_c, 9, 0, 95
6, 171600, Note_on_c, 9, 41, 95
6, 171840, Note_off_c, 9, 0, 95
6, 171840, Note_off_c, 9, 41, 95
6, 171840, Note_on_c, 9, 0, 95
6, 171840, Note_on_c, 9, 38, 95
6, 172080, Note_off_c, 9, 0, 95
6, 172080, Note_off_c, 9, 38, 95
6, 172080, Note_on_c, 9, 0, 95
6, 172080, Note_on_c, 9, 43, 95
6, 172320, Note_off_c, 9, 0, 95
6, 172320, Note_off_c, 9, 43, 95
6, 172320, Note_on_c, 9, 0, 95
6, 172320, Note_on_c, 9, 43, 95
6, 172320, Note_on_c, 9, 42, 95
6, 172560, Note_off_c, 9, 0, 95
6, 172560, Note_off_c, 9, 43, 95
6, 172560, Note_off_c, 9, 42, 95
6, 172560, Note_on_c, 9, 0, 95
6, 172560, Note_on_c, 9, 43, 95
6, 172560, Note_on_c, 9, 46, 95
6, 172800, Note_off_c, 9, 0, 95
6, 172800, Note_off_c, 9, 43, 95
6, 172800, Note_off_c, 9, 46, 95
6, 172800, Note_on_c, 9, 0, 95
6, 172800, Note_on_c, 9, 49, 95
6, 172800, Note_on_c, 9, 36, 95
6, 173280, Note_off_c, 9, 0, 95
6, 173280, Note_off_c, 9, 49, 95
6, 173280, Note_off_c, 9, 36, 95
6, 173280, Note_on_c, 9, 0, 95
6, 173280, Note_on_c, 9, 46, 95
6, 173520, Note_off_c, 9, 0, 95
6, 173520, Note_off_c, 9, 46, 95
6, 173760, Note_on_c, 9, 38, 95
6, 174240, Note_off_c, 9, 38, 95
6, 174240, Note_on_c, 9, 0, 95
6, 174240, Note_on_c, 9, 42, 95
6, 174480, Note_off_c, 9, 0, 95
6, 174480, Note_off_c, 9, 42, 95
6, 174480, Note_on_c, 9, 0, 95
6, 174480, Note_on_c, 9, 46, 95
6, 174720, Note_off_c, 9, 0, 95
6, 174720, Note_off_c, 9, 46, 95
6, 174720, Note_on_c, 9, 0, 95
6, 174720, Note_on_c, 9, 36, 95
6, 175200, Note_off_c, 9, 0, 95
6, 175200, Note_off_c, 9, 36, 95
6, 175200, Note_on_c, 9, 0, 95
6, 175200, Note_on_c, 9, 46, 95
6, 175440, Note_off_c, 9, 0, 95
6, 175440, Note_off_c, 9, 46, 95
6, 175680, Note_on_c, 9, 38, 95
6, 176160, Note_off_c, 9, 38, 95
6, 176160, Note_on_c, 9, 0, 95
6, 176160, Note_on_c, 9, 42, 95
6, 176400, Note_off_c, 9, 0, 95
6, 176400, Note_off_c, 9, 42, 95
6, 176400, Note_on_c, 9, 0, 95
6, 176400, Note_on_c, 9, 46, 95
6, 176640, Note_off_c, 9, 0, 95
6, 176640, Note_off_c, 9, 46, 95
6, 176640, Note_on_c, 9, 0, 95
6, 176640, Note_on_c, 9, 36, 95
6, 177120, Note_off_c, 9, 0, 95
6, 177120, Note_off_c, 9, 36, 95
6, 177120, Note_on_c, 9, 0, 95
6, 177120, Note_on_c, 9, 46, 95
6, 177360, Note_off_c, 9, 0, 95
6, 177360, Note_off_c, 9, 46, 95
6, 177600, Note_on_c, 9, 38, 95
6, 178080, Note_off_c, 9, 38, 95
6, 178080, Note_on_c, 9, 0, 95
6, 178080, Note_on_c, 9, 42, 95
6, 178320, Note_off_c, 9, 0, 95
6, 178320, Note_off_c, 9, 42, 95
6, 178320, Note_on_c, 9, 0, 95
6, 178320, Note_on_c, 9, 46, 95
6, 178560, Note_off_c, 9, 0, 95
6, 178560, Note_off_c, 9, 46, 95
6, 178560, Note_on_c, 9, 0, 95
6, 178560, Note_on_c, 9, 36, 95
6, 179040, Note_off_c, 9, 0, 95
6, 179040, Note_off_c, 9, 36, 95
6, 179040, Note_on_c, 9, 0, 95
6, 179040, Note_on_c, 9, 46, 95
6, 179280, Note_off_c, 9, 0, 95
6, 179280, Note_off_c, 9, 46, 95
6, 179520, Note_on_c, 9, 38, 95
6, 180000, Note_off_c, 9, 38, 95
6, 180000, Note_on_c, 9, 0, 95
6, 180000, Note_on_c, 9, 42, 95
6, 180240, Note_off_c, 9, 0, 95
6, 180240, Note_off_c, 9, 42, 95
6, 180240, Note_on_c, 9, 0, 95
6, 180240, Note_on_c, 9, 46, 95
6, 180480, Note_off_c, 9, 0, 95
6, 180480, Note_off_c, 9, 46, 95
6, 180480, Note_on_c, 9, 0, 95
6, 180480, Note_on_c, 9, 49, 95
6, 180480, Note_on_c, 9, 36, 95
6, 180960, Note_off_c, 9, 0, 95
6, 180960, Note_off_c, 9, 49, 95
6, 180960, Note_off_c, 9, 36, 95
6, 180960, Note_on_c, 9, 0, 95
6, 180960, Note_on_c, 9, 46, 95
6, 181200, Note_off_c, 9, 0, 95
6, 181200, Note_off_c, 9, 46, 95
6, 181440, Note_on_c, 9, 38, 95
6, 181920, Note_off_c, 9, 38, 95
6, 181920, Note_on_c, 9, 0, 95
6, 181920, Note_on_c, 9, 42, 95
6, 182160, Note_off_c, 9, 0, 95
6, 182160, Note_off_c, 9, 42, 95
6, 182160, Note_on_c, 9, 0, 95
6, 182160, Note_on_c, 9, 46, 95
6, 182400, Note_off_c, 9, 0, 95
6, 182400, Note_off_c, 9, 46, 95
6, 182400, Note_on_c, 9, 0, 95
6, 182400, Note_on_c, 9, 36, 95
6, 182880, Note_off_c, 9, 0, 95
6, 182880, Note_off_c, 9, 36, 95
6, 182880, Note_on_c, 9, 0, 95
6, 182880, Note_on_c, 9, 46, 95
6, 183120, Note_off_c, 9, 0, 95
6, 183120, Note_off_c, 9, 46, 95
6, 183360, Note_on_c, 9, 38, 95
6, 183840, Note_off_c, 9, 38, 95
6, 183840, Note_on_c, 9, 0, 95
6, 183840, Note_on_c, 9, 42, 95
6, 184080, Note_off_c, 9, 0, 95
6, 184080, Note_off_c, 9, 42, 95
6, 184080, Note_on_c, 9, 0, 95
6, 184080, Note_on_c, 9, 46, 95
6, 184320, Note_off_c, 9, 0, 95
6, 184320, Note_off_c, 9, 46, 95
6, 184320, Note_on_c, 9, 0, 95
6, 184320, Note_on_c, 9, 36, 95
6, 184800, Note_off_c, 9, 0, 95
6, 184800, Note_off_c, 9, 36, 95
6, 184800, Note_on_c, 9, 0, 95
6, 184800, Note_on_c, 9, 46, 95
6, 185040, Note_off_c, 9, 0, 95
6, 185040, Note_off_c, 9, 46, 95
6, 185280, Note_on_c, 9, 38, 95
6, 185760, Note_off_c, 9, 38, 95
6, 185760, Note_on_c, 9, 0, 95
6, 185760, Note_on_c, 9, 42, 95
6, 186000, Note_off_c, 9, 0, 95
6, 186000, Note_off_c, 9, 42, 95
6, 186000, Note_on_c, 9, 0, 95
6, 186000, Note_on_c, 9, 46, 95
6, 186240, Note_off_c, 9, 0, 95
6, 186240, Note_off_c, 9, 46, 95
6, 186240, Note_on_c, 9, 0, 95
6, 186240, Note_on_c, 9, 36, 95
6, 186720, Note_off_c, 9, 0, 95
6, 186720, Note_off_c, 9, 36, 95
6, 186720, Note_on_c, 9, 0, 95
6, 186720, Note_on_c, 9, 43, 95
6, 186720, Note_on_c, 9, 46, 95
6, 186960, Note_off_c, 9, 0, 95
6, 186960, Note_off_c, 9, 43, 95
6, 186960, Note_off_c, 9, 46, 95
6, 187200, Note_on_c, 9, 38, 95
6, 187680, Note_off_c, 9, 38, 95
6, 187680, Note_on_c, 9, 0, 95
6, 187680, Note_on_c, 9, 43, 95
6, 187680, Note_on_c, 9, 42, 95
6, 187920, Note_off_c, 9, 0, 95
6, 187920, Note_off_c, 9, 43, 95
6, 187920, Note_off_c, 9, 42, 95
6, 187920, Note_on_c, 9, 0, 95
6, 187920, Note_on_c, 9, 38, 95
6, 187920, Note_on_c, 9, 46, 95
6, 188160, Note_off_c, 9, 0, 95
6, 188160, Note_off_c, 9, 38, 95
6, 188160, Note_off_c, 9, 46, 95
6, 188160, Note_on_c, 9, 0, 95
6, 188160, Note_on_c, 9, 49, 95
6, 188160, Note_on_c, 9, 36, 95
6, 188640, Note_off_c, 9, 0, 95
6, 188640, Note_off_c, 9, 49, 95
6, 188640, Note_off_c, 9, 36, 95
6, 188640, Note_on_c, 9, 0, 95
6, 188640, Note_on_c, 9, 46, 95
6, 188880, Note_off_c, 9, 0, 95
6, 188880, Note_off_c, 9, 46, 95
6, 189120, Note_on_c, 9, 38, 95
6, 189600, Note_off_c, 9, 38, 95
6, 189600, Note_on_c, 9, 0, 95
6, 189600, Note_on_c, 9, 42, 95
6, 189840, Note_off_c, 9, 0, 95
6, 189840, Note_off_c, 9, 42, 95
6, 189840, Note_on_c, 9, 0, 95
6, 189840, Note_on_c, 9, 46, 95
6, 190080, Note_off_c, 9, 0, 95
6, 190080, Note_off_c, 9, 46, 95
6, 190080, Note_on_c, 9, 0, 95
6, 190080, Note_on_c, 9, 36, 95
6, 190560, Note_off_c, 9, 0, 95
6, 190560, Note_off_c, 9, 36, 95
6, 190560, Note_on_c, 9, 0, 95
6, 190560, Note_on_c, 9, 46, 95
6, 190800, Note_off_c, 9, 0, 95
6, 190800, Note_off_c, 9, 46, 95
6, 191040, Note_on_c, 9, 38, 95
6, 191520, Note_off_c, 9, 38, 95
6, 191520, Note_on_c, 9, 0, 95
6, 191520, Note_on_c, 9, 42, 95
6, 191760, Note_off_c, 9, 0, 95
6, 191760, Note_off_c, 9, 42, 95
6, 191760, Note_on_c, 9, 0, 95
6, 191760, Note_on_c, 9, 46, 95
6, 192000, Note_off_c, 9, 0, 95
6, 192000, Note_off_c, 9, 46, 95
6, 192000, Note_on_c, 9, 0, 95
6, 192000, Note_on_c, 9, 36, 95
6, 192480, Note_off_c, 9, 0, 95
6, 192480, Note_off_c, 9, 36, 95
6, 192480, Note_on_c, 9, 0, 95
6, 192480, Note_on_c, 9, 46, 95
6, 192720, Note_off_c, 9, 0, 95
6, 192720, Note_off_c, 9, 46, 95
6, 192960, Note_on_c, 9, 38, 95
6, 193440, Note_off_c, 9, 38, 95
6, 193440, Note_on_c, 9, 0, 95
6, 193440, Note_on_c, 9, 42, 95
6, 193680, Note_off_c, 9, 0, 95
6, 193680, Note_off_c, 9, 42, 95
6, 193680, Note_on_c, 9, 0, 95
6, 193680, Note_on_c, 9, 46, 95
6, 193920, Note_off_c, 9, 0, 95
6, 193920, Note_off_c, 9, 46, 95
6, 193920, Note_on_c, 9, 0, 95
6, 193920, Note_on_c, 9, 49, 95
6, 193920, Note_on_c, 9, 36, 95
6, 194400, Note_off_c, 9, 0, 95
6, 194400, Note_off_c, 9, 49, 95
6, 194400, Note_off_c, 9, 36, 95
6, 194400, Note_on_c, 9, 0, 95
6, 194400, Note_on_c, 9, 46, 95
6, 194640, Note_off_c, 9, 0, 95
6, 194640, Note_off_c, 9, 46, 95
6, 194880, Note_on_c, 9, 38, 95
6, 195360, Note_off_c, 9, 38, 95
6, 195360, Note_on_c, 9, 0, 95
6, 195360, Note_on_c, 9, 42, 95
6, 195600, Note_off_c, 9, 0, 95
6, 195600, Note_off_c, 9, 42, 95
6, 195600, Note_on_c, 9, 0, 95
6, 195600, Note_on_c, 9, 46, 95
6, 195840, Note_off_c, 9, 0, 95
6, 195840, Note_off_c, 9, 46, 95
6, 195840, Note_on_c, 9, 0, 95
6, 195840, Note_on_c, 9, 49, 95
6, 196320, Note_off_c, 9, 0, 95
6, 196320, Note_off_c, 9, 49, 95
6, 226560, Note_on_c, 9, 41, 95
6, 226560, Note_on_c, 9, 36, 95
6, 227040, Note_off_c, 9, 41, 95
6, 227040, Note_off_c, 9, 36, 95
6, 227520, Note_on_c, 9, 38, 95
6, 228000, Note_off_c, 9, 38, 95
6, 228000, Note_on_c, 9, 0, 95
6, 228000, Note_on_c, 9, 42, 95
6, 228240, Note_off_c, 9, 0, 95
6, 228240, Note_off_c, 9, 42, 95
6, 228240, Note_on_c, 9, 0, 95
6, 228240, Note_on_c, 9, 46, 95
6, 228480, Note_off_c, 9, 0, 95
6, 228480, Note_off_c, 9, 46, 95
6, 228480, Note_on_c, 9, 0, 95
6, 228480, Note_on_c, 9, 36, 95
6, 228960, Note_off_c, 9, 0, 95
6, 228960, Note_off_c, 9, 36, 95
6, 228960, Note_on_c, 9, 0, 95
6, 228960, Note_on_c, 9, 46, 95
6, 229200, Note_off_c, 9, 0, 95
6, 229200, Note_off_c, 9, 46, 95
6, 229440, Note_on_c, 9, 43, 95
6, 229920, Note_off_c, 9, 43, 95
6, 229920, Note_on_c, 9, 0, 95
6, 229920, Note_on_c, 9, 42, 95
6, 230160, Note_off_c, 9, 0, 95
6, 230160, Note_off_c, 9, 42, 95
6, 230160, Note_on_c, 9, 0, 95
6, 230160, Note_on_c, 9, 46, 95
6, 230400, Note_off_c, 9, 0, 95
6, 230400, Note_off_c, 9, 46, 95
6, 230400, Note_on_c, 9, 0, 95
6, 230400, Note_on_c, 9, 36, 95
6, 230880, Note_off_c, 9, 0, 95
6, 230880, Note_off_c, 9, 36, 95
6, 230880, Note_on_c, 9, 0, 95
6, 230880, Note_on_c, 9, 46, 95
6, 231120, Note_off_c, 9, 0, 95
6, 231120, Note_off_c, 9, 46, 95
6, 231360, Note_on_c, 9, 38, 95
6, 231840, Note_off_c, 9, 38, 95
6, 231840, Note_on_c, 9, 0, 95
6, 231840, Note_on_c, 9, 42, 95
6, 232080, Note_off_c, 9, 0, 95
6, 232080, Note_off_c, 9, 42, 95
6, 232080, Note_on_c, 9, 0, 95
6, 232080, Note_on_c, 9, 46, 95
6, 232320, Note_off_c, 9, 0, 95
6, 232320, Note_off_c, 9, 46, 95
6, 232320, Note_on_c, 9, 0, 95
6, 232320, Note_on_c, 9, 36, 95
6, 232800, Note_off_c, 9, 0, 95
6, 232800, Note_off_c, 9, 36, 95
6, 232800, Note_on_c, 9, 0, 95
6, 232800, Note_on_c, 9, 43, 95
6, 232800, Note_on_c, 9, 46, 95
6, 233040, Note_off_c, 9, 0, 95
6, 233040, Note_off_c, 9, 43, 95
6, 233040, Note_off_c, 9, 46, 95
6, 233040, Note_on_c, 9, 0, 95
6, 233040, Note_on_c, 9, 41, 95
6, 233280, Note_off_c, 9, 0, 95
6, 233280, Note_off_c, 9, 41, 95
6, 233280, Note_on_c, 9, 0, 95
6, 233280, Note_on_c, 9, 38, 95
6, 233760, Note_off_c, 9, 0, 95
6, 233760, Note_off_c, 9, 38, 95
6, 233760, Note_on_c, 9, 0, 95
6, 233760, Note_on_c, 9, 43, 95
6, 233760, Note_on_c, 9, 42, 95
6, 234000, Note_off_c, 9, 0, 95
6, 234000, Note_off_c, 9, 43, 95
6, 234000, Note_off_c, 9, 42, 95
6, 234000, Note_on_c, 9, 0, 95
6, 234000, Note_on_c, 9, 45, 95
6, 234000, Note_on_c, 9, 46, 95
6, 234240, Note_off_c, 9, 0, 95
6, 234240, Note_off_c, 9, 45, 95
6, 234240, Note_off_c, 9, 46, 95
6, 234240, Note_on_c, 9, 0, 95
6, 234240, Note_on_c, 9, 36, 95
6, 234720, Note_off_c, 9, 0, 95
6, 234720, Note_off_c, 9, 36, 95
6, 234720, Note_on_c, 9, 0, 95
6, 234720, Note_on_c, 9, 46, 95
6, 234960, Note_off_c, 9, 0, 95
6, 234960, Note_off_c, 9, 46, 95
6, 235200, Note_on_c, 9, 38, 95
6, 235680, Note_off_c, 9, 38, 95
6, 235680, Note_on_c, 9, 0, 95
6, 235680, Note_on_c, 9, 42, 95
6, 235920, Note_off_c, 9, 0, 95
6, 235920, Note_off_c, 9, 42, 95
6, 235920, Note_on_c, 9, 0, 95
6, 235920, Note_on_c, 9, 46, 95
6, 236160, Note_off_c, 9, 0, 95
6, 236160, Note_off_c, 9, 46, 95
6, 236160, Note_on_c, 9, 0, 95
6, 236160, Note_on_c, 9, 36, 95
6, 236640, Note_off_c, 9, 0, 95
6, 236640, Note_off_c, 9, 36, 95
6, 236640, Note_on_c, 9, 0, 95
6, 236640, Note_on_c, 9, 46, 95
6, 236880, Note_off_c, 9, 0, 95
6, 236880, Note_off_c, 9, 46, 95
6, 237120, Note_on_c, 9, 38, 95
6, 237600, Note_off_c, 9, 38, 95
6, 237600, Note_on_c, 9, 0, 95
6, 237600, Note_on_c, 9, 42, 95
6, 237840, Note_off_c, 9, 0, 95
6, 237840, Note_off_c, 9, 42, 95
6, 237840, Note_on_c, 9, 0, 95
6, 237840, Note_on_c, 9, 46, 95
6, 238080, Note_off_c, 9, 0, 95
6, 238080, Note_off_c, 9, 46, 95
6, 238080, Note_on_c, 9, 0, 95
6, 238080, Note_on_c, 9, 36, 95
6, 238560, Note_off_c, 9, 0, 95
6, 238560, Note_off_c, 9, 36, 95
6, 238560, Note_on_c, 9, 0, 95
6, 238560, Note_on_c, 9, 46, 95
6, 238800, Note_off_c, 9, 0, 95
6, 238800, Note_off_c, 9, 46, 95
6, 239040, Note_on_c, 9, 38, 95
6, 239520, Note_off_c, 9, 38, 95
6, 239520, Note_on_c, 9, 0, 95
6, 239520, Note_on_c, 9, 42, 95
6, 239760, Note_off_c, 9, 0, 95
6, 239760, Note_off_c, 9, 42, 95
6, 239760, Note_on_c, 9, 0, 95
6, 239760, Note_on_c, 9, 46, 95
6, 240000, Note_off_c, 9, 0, 95
6, 240000, Note_off_c, 9, 46, 95
6, 240000, Note_on_c, 9, 0, 95
6, 240000, Note_on_c, 9, 36, 95
6, 240480, Note_off_c, 9, 0, 95
6, 240480, Note_off_c, 9, 36, 95
6, 240480, Note_on_c, 9, 0, 95
6, 240480, Note_on_c, 9, 43, 95
6, 240480, Note_on_c, 9, 46, 95
6, 240720, Note_off_c, 9, 0, 95
6, 240720, Note_off_c, 9, 43, 95
6, 240720, Note_off_c, 9, 46, 95
6, 240960, Note_on_c, 9, 38, 95
6, 241200, Note_off_c, 9, 38, 95
6, 241440, Note_on_c, 9, 43, 95
6, 241440, Note_on_c, 9, 42, 95
6, 241680, Note_off_c, 9, 43, 95
6, 241680, Note_off_c, 9, 42, 95
6, 241680, Note_on_c, 9, 0, 95
6, 241680, Note_on_c, 9, 45, 95
6, 241680, Note_on_c, 9, 46, 95
6, 241920, Note_off_c, 9, 0, 95
6, 241920, Note_off_c, 9, 45, 95
6, 241920, Note_off_c, 9, 46, 95
6, 241920, Note_on_c, 9, 0, 95
6, 241920, Note_on_c, 9, 41, 95
6, 241920, Note_on_c, 9, 36, 95
6, 242400, Note_off_c, 9, 0, 95
6, 242400, Note_off_c, 9, 41, 95
6, 242400, Note_off_c, 9, 36, 95
6, 242400, Note_on_c, 9, 0, 95
6, 242400, Note_on_c, 9, 46, 95
6, 242640, Note_off_c, 9, 0, 95
6, 242640, Note_off_c, 9, 46, 95
6, 242880, Note_on_c, 9, 38, 95
6, 243360, Note_off_c, 9, 38, 95
6, 243360, Note_on_c, 9, 0, 95
6, 243360, Note_on_c, 9, 42, 95
6, 243600, Note_off_c, 9, 0, 95
6, 243600, Note_off_c, 9, 42, 95
6, 243600, Note_on_c, 9, 0, 95
6, 243600, Note_on_c, 9, 46, 95
6, 243840, Note_off_c, 9, 0, 95
6, 243840, Note_off_c, 9, 46, 95
6, 243840, Note_on_c, 9, 0, 95
6, 243840, Note_on_c, 9, 36, 95
6, 244320, Note_off_c, 9, 0, 95
6, 244320, Note_off_c, 9, 36, 95
6, 244320, Note_on_c, 9, 0, 95
6, 244320, Note_on_c, 9, 46, 95
6, 244560, Note_off_c, 9, 0, 95
6, 244560, Note_off_c, 9, 46, 95
6, 244800, Note_on_c, 9, 38, 95
6, 245280, Note_off_c, 9, 38, 95
6, 245280, Note_on_c, 9, 0, 95
6, 245280, Note_on_c, 9, 42, 95
6, 245520, Note_off_c, 9, 0, 95
6, 245520, Note_off_c, 9, 42, 95
6, 245520, Note_on_c, 9, 0, 95
6, 245520, Note_on_c, 9, 46, 95
6, 245760, Note_off_c, 9, 0, 95
6, 245760, Note_off_c, 9, 46, 95
6, 245760, Note_on_c, 9, 0, 95
6, 245760, Note_on_c, 9, 36, 95
6, 246240, Note_off_c, 9, 0, 95
6, 246240, Note_off_c, 9, 36, 95
6, 246240, Note_on_c, 9, 0, 95
6, 246240, Note_on_c, 9, 46, 95
6, 246480, Note_off_c, 9, 0, 95
6, 246480, Note_off_c, 9, 46, 95
6, 246720, Note_on_c, 9, 38, 95
6, 247200, Note_off_c, 9, 38, 95
6, 247200, Note_on_c, 9, 0, 95
6, 247200, Note_on_c, 9, 42, 95
6, 247440, Note_off_c, 9, 0, 95
6, 247440, Note_off_c, 9, 42, 95
6, 247440, Note_on_c, 9, 0, 95
6, 247440, Note_on_c, 9, 46, 95
6, 247680, Note_off_c, 9, 0, 95
6, 247680, Note_off_c, 9, 46, 95
6, 247680, Note_on_c, 9, 0, 95
6, 247680, Note_on_c, 9, 36, 95
6, 248160, Note_off_c, 9, 0, 95
6, 248160, Note_off_c, 9, 36, 95
6, 248160, Note_on_c, 9, 0, 95
6, 248160, Note_on_c, 9, 43, 95
6, 248160, Note_on_c, 9, 46, 95
6, 248400, Note_off_c, 9, 0, 95
6, 248400, Note_off_c, 9, 43, 95
6, 248400, Note_off_c, 9, 46, 95
6, 248400, Note_on_c, 9, 0, 95
6, 248400, Note_on_c, 9, 41, 95
6, 248640, Note_off_c, 9, 0, 95
6, 248640, Note_off_c, 9, 41, 95
6, 248640, Note_on_c, 9, 0, 95
6, 248640, Note_on_c, 9, 38, 95
6, 249120, Note_off_c, 9, 0, 95
6, 249120, Note_off_c, 9, 38, 95
6, 249120, Note_on_c, 9, 0, 95
6, 249120, Note_on_c, 9, 43, 95
6, 249120, Note_on_c, 9, 42, 95
6, 249360, Note_off_c, 9, 0, 95
6, 249360, Note_off_c, 9, 43, 95
6, 249360, Note_off_c, 9, 42, 95
6, 249360, Note_on_c, 9, 0, 95
6, 249360, Note_on_c, 9, 45, 95
6, 249360, Note_on_c, 9, 46, 95
6, 249600, Note_off_c, 9, 0, 95
6, 249600, Note_off_c, 9, 45, 95
6, 249600, Note_off_c, 9, 46, 95
6, 249600, Note_on_c, 9, 0, 95
6, 249600, Note_on_c, 9, 36, 95
6, 250080, Note_off_c, 9, 0, 95
6, 250080, Note_off_c, 9, 36, 95
6, 250080, Note_on_c, 9, 0, 95
6, 250080, Note_on_c, 9, 46, 95
6, 250320, Note_off_c, 9, 0, 95
6, 250320, Note_off_c, 9, 46, 95
6, 250560, Note_on_c, 9, 38, 95
6, 251040, Note_off_c, 9, 38, 95
6, 251040, Note_on_c, 9, 0, 95
6, 251040, Note_on_c, 9, 42, 95
6, 251280, Note_off_c, 9, 0, 95
6, 251280, Note_off_c, 9, 42, 95
6, 251280, Note_on_c, 9, 0, 95
6, 251280, Note_on_c, 9, 46, 95
6, 251520, Note_off_c, 9, 0, 95
6, 251520, Note_off_c, 9, 46, 95
6, 251520, Note_on_c, 9, 0, 95
6, 251520, Note_on_c, 9, 36, 95
6, 252000, Note_off_c, 9, 0, 95
6, 252000, Note_off_c, 9, 36, 95
6, 252000, Note_on_c, 9, 0, 95
6, 252000, Note_on_c, 9, 46, 95
6, 252240, Note_off_c, 9, 0, 95
6, 252240, Note_off_c, 9, 46, 95
6, 252480, Note_on_c, 9, 38, 95
6, 252960, Note_off_c, 9, 38, 95
6, 252960, Note_on_c, 9, 0, 95
6, 252960, Note_on_c, 9, 42, 95
6, 253200, Note_off_c, 9, 0, 95
6, 253200, Note_off_c, 9, 42, 95
6, 253200, Note_on_c, 9, 0, 95
6, 253200, Note_on_c, 9, 46, 95
6, 253440, Note_off_c, 9, 0, 95
6, 253440, Note_off_c, 9, 46, 95
6, 253440, Note_on_c, 9, 0, 95
6, 253440, Note_on_c, 9, 36, 95
6, 253920, Note_off_c, 9, 0, 95
6, 253920, Note_off_c, 9, 36, 95
6, 253920, Note_on_c, 9, 0, 95
6, 253920, Note_on_c, 9, 46, 95
6, 254160, Note_off_c, 9, 0, 95
6, 254160, Note_off_c, 9, 46, 95
6, 254400, Note_on_c, 9, 38, 95
6, 254880, Note_off_c, 9, 38, 95
6, 254880, Note_on_c, 9, 0, 95
6, 254880, Note_on_c, 9, 42, 95
6, 255120, Note_off_c, 9, 0, 95
6, 255120, Note_off_c, 9, 42, 95
6, 255120, Note_on_c, 9, 0, 95
6, 255120, Note_on_c, 9, 46, 95
6, 255360, Note_off_c, 9, 0, 95
6, 255360, Note_off_c, 9, 46, 95
6, 255360, Note_on_c, 9, 0, 95
6, 255360, Note_on_c, 9, 36, 95
6, 255840, Note_off_c, 9, 0, 95
6, 255840, Note_off_c, 9, 36, 95
6, 255840, Note_on_c, 9, 0, 95
6, 255840, Note_on_c, 9, 43, 95
6, 255840, Note_on_c, 9, 46, 95
6, 256080, Note_off_c, 9, 0, 95
6, 256080, Note_off_c, 9, 43, 95
6, 256080, Note_off_c, 9, 46, 95
6, 256080, Note_on_c, 9, 0, 95
6, 256080, Note_on_c, 9, 41, 95
6, 256320, Note_off_c, 9, 0, 95
6, 256320, Note_off_c, 9, 41, 95
6, 256320, Note_on_c, 9, 0, 95
6, 256320, Note_on_c, 9, 38, 95
6, 256560, Note_off_c, 9, 0, 95
6, 256560, Note_off_c, 9, 38, 95
6, 256560, Note_on_c, 9, 0, 95
6, 256560, Note_on_c, 9, 43, 95
6, 256800, Note_off_c, 9, 0, 95
6, 256800, Note_off_c, 9, 43, 95
6, 256800, Note_on_c, 9, 0, 95
6, 256800, Note_on_c, 9, 43, 95
6, 256800, Note_on_c, 9, 42, 95
6, 257040, Note_off_c, 9, 0, 95
6, 257040, Note_off_c, 9, 43, 95
6, 257040, Note_off_c, 9, 42, 95
6, 257040, Note_on_c, 9, 0, 95
6, 257040, Note_on_c, 9, 43, 95
6, 257040, Note_on_c, 9, 46, 95
6, 257280, Note_off_c, 9, 0, 95
6, 257280, Note_off_c, 9, 43, 95
6, 257280, Note_off_c, 9, 46, 95
6, 257280, Note_on_c, 9, 0, 95
6, 257280, Note_on_c, 9, 49, 95
6, 257280, Note_on_c, 9, 41, 95
6, 257280, Note_on_c, 9, 36, 95
6, 257760, Note_off_c, 9, 0, 95
6, 257760, Note_off_c, 9, 49, 95
6, 257760, Note_off_c, 9, 41, 95
6, 257760, Note_off_c, 9, 36, 95
6, 258240, Note_on_c, 9, 38, 95
6, 258720, Note_off_c, 9, 38, 95
6, 258720, Note_on_c, 9, 0, 95
6, 258720, Note_on_c, 9, 42, 95
6, 258960, Note_off_c, 9, 0, 95
6, 258960, Note_off_c, 9, 42, 95
6, 258960, Note_on_c, 9, 0, 95
6, 258960, Note_on_c, 9, 46, 95
6, 259200, Note_off_c, 9, 0, 95
6, 259200, Note_off_c, 9, 46, 95
6, 259200, Note_on_c, 9, 0, 95
6, 259200, Note_on_c, 9, 36, 95
6, 259680, Note_off_c, 9, 0, 95
6, 259680, Note_off_c, 9, 36, 95
6, 259680, Note_on_c, 9, 0, 95
6, 259680, Note_on_c, 9, 46, 95
6, 259920, Note_off_c, 9, 0, 95
6, 259920, Note_off_c, 9, 46, 95
6, 260160, Note_on_c, 9, 38, 95
6, 260640, Note_off_c, 9, 38, 95
6, 260640, Note_on_c, 9, 0, 95
6, 260640, Note_on_c, 9, 42, 95
6, 260880, Note_off_c, 9, 0, 95
6, 260880, Note_off_c, 9, 42, 95
6, 260880, Note_on_c, 9, 0, 95
6, 260880, Note_on_c, 9, 46, 95
6, 261120, Note_off_c, 9, 0, 95
6, 261120, Note_off_c, 9, 46, 95
6, 261120, Note_on_c, 9, 0, 95
6, 261120, Note_on_c, 9, 36, 95
6, 261600, Note_off_c, 9, 0, 95
6, 261600, Note_off_c, 9, 36, 95
6, 261600, Note_on_c, 9, 0, 95
6, 261600, Note_on_c, 9, 46, 95
6, 261840, Note_off_c, 9, 0, 95
6, 261840, Note_off_c, 9, 46, 95
6, 262080, Note_on_c, 9, 38, 95
6, 262560, Note_off_c, 9, 38, 95
6, 262560, Note_on_c, 9, 0, 95
6, 262560, Note_on_c, 9, 42, 95
6, 262800, Note_off_c, 9, 0, 95
6, 262800, Note_off_c, 9, 42, 95
6, 262800, Note_on_c, 9, 0, 95
6, 262800, Note_on_c, 9, 46, 95
6, 263040, Note_off_c, 9, 0, 95
6, 263040, Note_off_c, 9, 46, 95
6, 263040, Note_on_c, 9, 0, 95
6, 263040, Note_on_c, 9, 36, 95
6, 263520, Note_off_c, 9, 0, 95
6, 263520, Note_off_c, 9, 36, 95
6, 263520, Note_on_c, 9, 0, 95
6, 263520, Note_on_c, 9, 43, 95
6, 263520, Note_on_c, 9, 46, 95
6, 263760, Note_off_c, 9, 0, 95
6, 263760, Note_off_c, 9, 43, 95
6, 263760, Note_off_c, 9, 46, 95
6, 263760, Note_on_c, 9, 0, 95
6, 263760, Note_on_c, 9, 41, 95
6, 264000, Note_off_c, 9, 0, 95
6, 264000, Note_off_c, 9, 41, 95
6, 264000, Note_on_c, 9, 0, 95
6, 264000, Note_on_c, 9, 38, 95
6, 264480, Note_off_c, 9, 0, 95
6, 264480, Note_off_c, 9, 38, 95
6, 264480, Note_on_c, 9, 0, 95
6, 264480, Note_on_c, 9, 43, 95
6, 264480, Note_on_c, 9, 42, 95
6, 264720, Note_off_c, 9, 0, 95
6, 264720, Note_off_c, 9, 43, 95
6, 264720, Note_off_c, 9, 42, 95
6, 264720, Note_on_c, 9, 0, 95
6, 264720, Note_on_c, 9, 45, 95
6, 264720, Note_on_c, 9, 46, 95
6, 264960, Note_off_c, 9, 0, 95
6, 264960, Note_off_c, 9, 45, 95
6, 264960, Note_off_c, 9, 46, 95
6, 264960, Note_on_c, 9, 0, 95
6, 264960, Note_on_c, 9, 36, 95
6, 265440, Note_off_c, 9, 0, 95
6, 265440, Note_off_c, 9, 36, 95
6, 265440, Note_on_c, 9, 0, 95
6, 265440, Note_on_c, 9, 46, 95
6, 265680, Note_off_c, 9, 0, 95
6, 265680, Note_off_c, 9, 46, 95
6, 265920, Note_on_c, 9, 38, 95
6, 266400, Note_off_c, 9, 38, 95
6, 266400, Note_on_c, 9, 0, 95
6, 266400, Note_on_c, 9, 42, 95
6, 266640, Note_off_c, 9, 0, 95
6, 266640, Note_off_c, 9, 42, 95
6, 266640, Note_on_c, 9, 0, 95
6, 266640, Note_on_c, 9, 46, 95
6, 266880, Note_off_c, 9, 0, 95
6, 266880, Note_off_c, 9, 46, 95
6, 266880, Note_on_c, 9, 0, 95
6, 266880, Note_on_c, 9, 36, 95
6, 267360, Note_off_c, 9, 0, 95
6, 267360, Note_off_c, 9, 36, 95
6, 267360, Note_on_c, 9, 0, 95
6, 267360, Note_on_c, 9, 46, 95
6, 267600, Note_off_c, 9, 0, 95
6, 267600, Note_off_c, 9, 46, 95
6, 267840, Note_on_c, 9, 38, 95
6, 268320, Note_off_c, 9, 38, 95
6, 268320, Note_on_c, 9, 0, 95
6, 268320, Note_on_c, 9, 42, 95
6, 268560, Note_off_c, 9, 0, 95
6, 268560, Note_off_c, 9, 42, 95
6, 268560, Note_on_c, 9, 0, 95
6, 268560, Note_on_c, 9, 46, 95
6, 268800, Note_off_c, 9, 0, 95
6, 268800, Note_off_c, 9, 46, 95
6, 268800, Note_on_c, 9, 0, 95
6, 268800, Note_on_c, 9, 36, 95
6, 269280, Note_off_c, 9, 0, 95
6, 269280, Note_off_c, 9, 36, 95
6, 269280, Note_on_c, 9, 0, 95
6, 269280, Note_on_c, 9, 46, 95
6, 269520, Note_off_c, 9, 0, 95
6, 269520, Note_off_c, 9, 46, 95
6, 269760, Note_on_c, 9, 38, 95
6, 270240, Note_off_c, 9, 38, 95
6, 270240, Note_on_c, 9, 0, 95
6, 270240, Note_on_c, 9, 42, 95
6, 270480, Note_off_c, 9, 0, 95
6, 270480, Note_off_c, 9, 42, 95
6, 270480, Note_on_c, 9, 0, 95
6, 270480, Note_on_c, 9, 46, 95
6, 270720, Note_off_c, 9, 0, 95
6, 270720, Note_off_c, 9, 46, 95
6, 270720, Note_on_c, 9, 0, 95
6, 270720, Note_on_c, 9, 36, 95
6, 271200, Note_off_c, 9, 0, 95
6, 271200, Note_off_c, 9, 36, 95
6, 271200, Note_on_c, 9, 0, 95
6, 271200, Note_on_c, 9, 43, 95
6, 271200, Note_on_c, 9, 46, 95
6, 271440, Note_off_c, 9, 0, 95
6, 271440, Note_off_c, 9, 43, 95
6, 271440, Note_off_c, 9, 46, 95
6, 271440, Note_on_c, 9, 0, 95
6, 271440, Note_on_c, 9, 41, 95
6, 271680, Note_off_c, 9, 0, 95
6, 271680, Note_off_c, 9, 41, 95
6, 271680, Note_on_c, 9, 0, 95
6, 271680, Note_on_c, 9, 38, 95
6, 272160, Note_off_c, 9, 0, 95
6, 272160, Note_off_c, 9, 38, 95
6, 272160, Note_on_c, 9, 0, 95
6, 272160, Note_on_c, 9, 43, 95
6, 272160, Note_on_c, 9, 42, 95
6, 272400, Note_off_c, 9, 0, 95
6, 272400, Note_off_c, 9, 43, 95
6, 272400, Note_off_c, 9, 42, 95
6, 272400, Note_on_c, 9, 0, 95
6, 272400, Note_on_c, 9, 38, 95
6, 272400, Note_on_c, 9, 46, 95
6, 272640, Note_off_c, 9, 0, 95
6, 272640, Note_off_c, 9, 38, 95
6, 272640, Note_off_c, 9, 46, 95
6, 272640, Note_on_c, 9, 0, 95
6, 272640, Note_on_c, 9, 41, 95
6, 272640, Note_on_c, 9, 36, 95
6, 273120, Note_off_c, 9, 0, 95
6, 273120, Note_off_c, 9, 41, 95
6, 273120, Note_off_c, 9, 36, 95
6, 273600, Note_on_c, 9, 38, 95
6, 274080, Note_off_c, 9, 38, 95
6, 274080, Note_on_c, 9, 0, 95
6, 274080, Note_on_c, 9, 42, 95
6, 274320, Note_off_c, 9, 0, 95
6, 274320, Note_off_c, 9, 42, 95
6, 274320, Note_on_c, 9, 0, 95
6, 274320, Note_on_c, 9, 46, 95
6, 274560, Note_off_c, 9, 0, 95
6, 274560, Note_off_c, 9, 46, 95
6, 274560, Note_on_c, 9, 0, 95
6, 274560, Note_on_c, 9, 36, 95
6, 275040, Note_off_c, 9, 0, 95
6, 275040, Note_off_c, 9, 36, 95
6, 275040, Note_on_c, 9, 0, 95
6, 275040, Note_on_c, 9, 46, 95
6, 275280, Note_off_c, 9, 0, 95
6, 275280, Note_off_c, 9, 46, 95
6, 275520, Note_on_c, 9, 38, 95
6, 276000, Note_off_c, 9, 38, 95
6, 276000, Note_on_c, 9, 0, 95
6, 276000, Note_on_c, 9, 42, 95
6, 276240, Note_off_c, 9, 0, 95
6, 276240, Note_off_c, 9, 42, 95
6, 276240, Note_on_c, 9, 0, 95
6, 276240, Note_on_c, 9, 46, 95
6, 276480, Note_off_c, 9, 0, 95
6, 276480, Note_off_c, 9, 46, 95
6, 276480, Note_on_c, 9, 0, 95
6, 276480, Note_on_c, 9, 36, 95
6, 276960, Note_off_c, 9, 0, 95
6, 276960, Note_off_c, 9, 36, 95
6, 276960, Note_on_c, 9, 0, 95
6, 276960, Note_on_c, 9, 46, 95
6, 277200, Note_off_c, 9, 0, 95
6, 277200, Note_off_c, 9, 46, 95
6, 277440, Note_on_c, 9, 38, 95
6, 277920, Note_off_c, 9, 38, 95
6, 277920, Note_on_c, 9, 0, 95
6, 277920, Note_on_c, 9, 42, 95
6, 278160, Note_off_c, 9, 0, 95
6, 278160, Note_off_c, 9, 42, 95
6, 278160, Note_on_c, 9, 0, 95
6, 278160, Note_on_c, 9, 46, 95
6, 278400, Note_off_c, 9, 0, 95
6, 278400, Note_off_c, 9, 46, 95
6, 278400, Note_on_c, 9, 0, 95
6, 278400, Note_on_c, 9, 36, 95
6, 278880, Note_off_c, 9, 0, 95
6, 278880, Note_off_c, 9, 36, 95
6, 278880, Note_on_c, 9, 0, 95
6, 278880, Note_on_c, 9, 43, 95
6, 278880, Note_on_c, 9, 46, 95
6, 279120, Note_off_c, 9, 0, 95
6, 279120, Note_off_c, 9, 43, 95
6, 279120, Note_off_c, 9, 46, 95
6, 279120, Note_on_c, 9, 0, 95
6, 279120, Note_on_c, 9, 41, 95
6, 279360, Note_off_c, 9, 0, 95
6, 279360, Note_off_c, 9, 41, 95
6, 279360, Note_on_c, 9, 0, 95
6, 279360, Note_on_c, 9, 38, 95
6, 279840, Note_off_c, 9, 0, 95
6, 279840, Note_off_c, 9, 38, 95
6, 279840, Note_on_c, 9, 0, 95
6, 279840, Note_on_c, 9, 43, 95
6, 279840, Note_on_c, 9, 42, 95
6, 280080, Note_off_c, 9, 0, 95
6, 280080, Note_off_c, 9, 43, 95
6, 280080, Note_off_c, 9, 42, 95
6, 280080, Note_on_c, 9, 0, 95
6, 280080, Note_on_c, 9, 45, 95
6, 280080, Note_on_c, 9, 46, 95
6, 280320, Note_off_c, 9, 0, 95
6, 280320, Note_off_c, 9, 45, 95
6, 280320, Note_off_c, 9, 46, 95
6, 280320, Note_on_c, 9, 0, 95
6, 280320, Note_on_c, 9, 36, 95
6, 280800, Note_off_c, 9, 0, 95
6, 280800, Note_off_c, 9, 36, 95
6, 280800, Note_on_c, 9, 0, 95
6, 280800, Note_on_c, 9, 46, 95
6, 281040, Note_off_c, 9, 0, 95
6, 281040, Note_off_c, 9, 46, 95
6, 281280, Note_on_c, 9, 38, 95
6, 281760, Note_off_c, 9, 38, 95
6, 281760, Note_on_c, 9, 0, 95
6, 281760, Note_on_c, 9, 42, 95
6, 282000, Note_off_c, 9, 0, 95
6, 282000, Note_off_c, 9, 42, 95
6, 282000, Note_on_c, 9, 0, 95
6, 282000, Note_on_c, 9, 46, 95
6, 282240, Note_off_c, 9, 0, 95
6, 282240, Note_off_c, 9, 46, 95
6, 282240, Note_on_c, 9, 0, 95
6, 282240, Note_on_c, 9, 36, 95
6, 282720, Note_off_c, 9, 0, 95
6, 282720, Note_off_c, 9, 36, 95
6, 282720, Note_on_c, 9, 0, 95
6, 282720, Note_on_c, 9, 46, 95
6, 282960, Note_off_c, 9, 0, 95
6, 282960, Note_off_c, 9, 46, 95
6, 283200, Note_on_c, 9, 38, 95
6, 283680, Note_off_c, 9, 38, 95
6, 283680, Note_on_c, 9, 0, 95
6, 283680, Note_on_c, 9, 42, 95
6, 283920, Note_off_c, 9, 0, 95
6, 283920, Note_off_c, 9, 42, 95
6, 283920, Note_on_c, 9, 0, 95
6, 283920, Note_on_c, 9, 46, 95
6, 284160, Note_off_c, 9, 0, 95
6, 284160, Note_off_c, 9, 46, 95
6, 284160, Note_on_c, 9, 0, 95
6, 284160, Note_on_c, 9, 36, 95
6, 284640, Note_off_c, 9, 0, 95
6, 284640, Note_off_c, 9, 36, 95
6, 284640, Note_on_c, 9, 0, 95
6, 284640, Note_on_c, 9, 46, 95
6, 284880, Note_off_c, 9, 0, 95
6, 284880, Note_off_c, 9, 46, 95
6, 285120, Note_on_c, 9, 38, 95
6, 285600, Note_off_c, 9, 38, 95
6, 285600, Note_on_c, 9, 0, 95
6, 285600, Note_on_c, 9, 42, 95
6, 285840, Note_off_c, 9, 0, 95
6, 285840, Note_off_c, 9, 42, 95
6, 285840, Note_on_c, 9, 0, 95
6, 285840, Note_on_c, 9, 46, 95
6, 286080, Note_off_c, 9, 0, 95
6, 286080, Note_off_c, 9, 46, 95
6, 286080, Note_on_c, 9, 0, 95
6, 286080, Note_on_c, 9, 36, 95
6, 286560, Note_off_c, 9, 0, 95
6, 286560, Note_off_c, 9, 36, 95
6, 286560, Note_on_c, 9, 0, 95
6, 286560, Note_on_c, 9, 43, 95
6, 286560, Note_on_c, 9, 46, 95
6, 286800, Note_off_c, 9, 0, 95
6, 286800, Note_off_c, 9, 43, 95
6, 286800, Note_off_c, 9, 46, 95
6, 286800, Note_on_c, 9, 0, 95
6, 286800, Note_on_c, 9, 41, 95
6, 287040, Note_off_c, 9, 0, 95
6, 287040, Note_off_c, 9, 41, 95
6, 287040, Note_on_c, 9, 0, 95
6, 287040, Note_on_c, 9, 38, 95
6, 287280, Note_off_c, 9, 0, 95
6, 287280, Note_off_c, 9, 38, 95
6, 287280, Note_on_c, 9, 0, 95
6, 287280, Note_on_c, 9, 43, 95
6, 287520, Note_off_c, 9, 0, 95
6, 287520, Note_off_c, 9, 43, 95
6, 287520, Note_on_c, 9, 0, 95
6, 287520, Note_on_c, 9, 43, 95
6, 287520, Note_on_c, 9, 42, 95
6, 287760, Note_off_c, 9, 0, 95
6, 287760, Note_off_c, 9, 43, 95
6, 287760, Note_off_c, 9, 42, 95
6, 287760, Note_on_c, 9, 0, 95
6, 287760, Note_on_c, 9, 43, 95
6, 287760, Note_on_c, 9, 46, 95
6, 288000, Note_off_c, 9, 0, 95
6, 288000, Note_off_c, 9, 43, 95
6, 288000, Note_off_c, 9, 46, 95
6, 288000, Note_on_c, 9, 0, 95
6, 288000, Note_on_c, 9, 49, 95
6, 288000, Note_on_c, 9, 36, 95
6, 288480, Note_off_c, 9, 0, 95
6, 288480, Note_off_c, 9, 49, 95
6, 288480, Note_off_c, 9, 36, 95
6, 288480, Note_on_c, 9, 0, 95
6, 288480, Note_on_c, 9, 46, 95
6, 288720, Note_off_c, 9, 0, 95
6, 288720, Note_off_c, 9, 46, 95
6, 288960, Note_on_c, 9, 38, 95
6, 289440, Note_off_c, 9, 38, 95
6, 289440, Note_on_c, 9, 0, 95
6, 289440, Note_on_c, 9, 42, 95
6, 289680, Note_off_c, 9, 0, 95
6, 289680, Note_off_c, 9, 42, 95
6, 289680, Note_on_c, 9, 0, 95
6, 289680, Note_on_c, 9, 46, 95
6, 289920, Note_off_c, 9, 0, 95
6, 289920, Note_off_c, 9, 46, 95
6, 289920, Note_on_c, 9, 0, 95
6, 289920, Note_on_c, 9, 36, 95
6, 290400, Note_off_c, 9, 0, 95
6, 290400, Note_off_c, 9, 36, 95
6, 290400, Note_on_c, 9, 0, 95
6, 290400, Note_on_c, 9, 46, 95
6, 290640, Note_off_c, 9, 0, 95
6, 290640, Note_off_c, 9, 46, 95
6, 290880, Note_on_c, 9, 38, 95
6, 291360, Note_off_c, 9, 38, 95
6, 291360, Note_on_c, 9, 0, 95
6, 291360, Note_on_c, 9, 42, 95
6, 291600, Note_off_c, 9, 0, 95
6, 291600, Note_off_c, 9, 42, 95
6, 291600, Note_on_c, 9, 0, 95
6, 291600, Note_on_c, 9, 46, 95
6, 291840, Note_off_c, 9, 0, 95
6, 291840, Note_off_c, 9, 46, 95
6, 291840, Note_on_c, 9, 0, 95
6, 291840, Note_on_c, 9, 36, 95
6, 292320, Note_off_c, 9, 0, 95
6, 292320, Note_off_c, 9, 36, 95
6, 292320, Note_on_c, 9, 0, 95
6, 292320, Note_on_c, 9, 46, 95
6, 292560, Note_off_c, 9, 0, 95
6, 292560, Note_off_c, 9, 46, 95
6, 292800, Note_on_c, 9, 38, 95
6, 293280, Note_off_c, 9, 38, 95
6, 293280, Note_on_c, 9, 0, 95
6, 293280, Note_on_c, 9, 42, 95
6, 293520, Note_off_c, 9, 0, 95
6, 293520, Note_off_c, 9, 42, 95
6, 293520, Note_on_c, 9, 0, 95
6, 293520, Note_on_c, 9, 46, 95
6, 293760, Note_off_c, 9, 0, 95
6, 293760, Note_off_c, 9, 46, 95
6, 293760, Note_on_c, 9, 0, 95
6, 293760, Note_on_c, 9, 36, 95
6, 294240, Note_off_c, 9, 0, 95
6, 294240, Note_off_c, 9, 36, 95
6, 294240, Note_on_c, 9, 0, 95
6, 294240, Note_on_c, 9, 46, 95
6, 294480, Note_off_c, 9, 0, 95
6, 294480, Note_off_c, 9, 46, 95
6, 294720, Note_on_c, 9, 38, 95
6, 295200, Note_off_c, 9, 38, 95
6, 295200, Note_on_c, 9, 0, 95
6, 295200, Note_on_c, 9, 42, 95
6, 295440, Note_off_c, 9, 0, 95
6, 295440, Note_off_c, 9, 42, 95
6, 295440, Note_on_c, 9, 0, 95
6, 295440, Note_on_c, 9, 46, 95
6, 295680, Note_off_c, 9, 0, 95
6, 295680, Note_off_c, 9, 46, 95
6, 295680, Note_on_c, 9, 0, 95
6, 295680, Note_on_c, 9, 49, 95
6, 295680, Note_on_c, 9, 36, 95
6, 296160, Note_off_c, 9, 0, 95
6, 296160, Note_off_c, 9, 49, 95
6, 296160, Note_off_c, 9, 36, 95
6, 296160, Note_on_c, 9, 0, 95
6, 296160, Note_on_c, 9, 46, 95
6, 296400, Note_off_c, 9, 0, 95
6, 296400, Note_off_c, 9, 46, 95
6, 296640, Note_on_c, 9, 38, 95
6, 297120, Note_off_c, 9, 38, 95
6, 297120, Note_on_c, 9, 0, 95
6, 297120, Note_on_c, 9, 42, 95
6, 297360, Note_off_c, 9, 0, 95
6, 297360, Note_off_c, 9, 42, 95
6, 297360, Note_on_c, 9, 0, 95
6, 297360, Note_on_c, 9, 46, 95
6, 297600, Note_off_c, 9, 0, 95
6, 297600, Note_off_c, 9, 46, 95
6, 297600, Note_on_c, 9, 0, 95
6, 297600, Note_on_c, 9, 36, 95
6, 298080, Note_off_c, 9, 0, 95
6, 298080, Note_off_c, 9, 36, 95
6, 298080, Note_on_c, 9, 0, 95
6, 298080, Note_on_c, 9, 46, 95
6, 298320, Note_off_c, 9, 0, 95
6, 298320, Note_off_c, 9, 46, 95
6, 298560, Note_on_c, 9, 38, 95
6, 299040, Note_off_c, 9, 38, 95
6, 299040, Note_on_c, 9, 0, 95
6, 299040, Note_on_c, 9, 42, 95
6, 299280, Note_off_c, 9, 0, 95
6, 299280, Note_off_c, 9, 42, 95
6, 299280, Note_on_c, 9, 0, 95
6, 299280, Note_on_c, 9, 46, 95
6, 299520, Note_off_c, 9, 0, 95
6, 299520, Note_off_c, 9, 46, 95
6, 299520, Note_on_c, 9, 0, 95
6, 299520, Note_on_c, 9, 36, 95
6, 300000, Note_off_c, 9, 0, 95
6, 300000, Note_off_c, 9, 36, 95
6, 300000, Note_on_c, 9, 0, 95
6, 300000, Note_on_c, 9, 46, 95
6, 300240, Note_off_c, 9, 0, 95
6, 300240, Note_off_c, 9, 46, 95
6, 300480, Note_on_c, 9, 38, 95
6, 300960, Note_off_c, 9, 38, 95
6, 300960, Note_on_c, 9, 0, 95
6, 300960, Note_on_c, 9, 42, 95
6, 301200, Note_off_c, 9, 0, 95
6, 301200, Note_off_c, 9, 42, 95
6, 301200, Note_on_c, 9, 0, 95
6, 301200, Note_on_c, 9, 46, 95
6, 301440, Note_off_c, 9, 0, 95
6, 301440, Note_off_c, 9, 46, 95
6, 301440, Note_on_c, 9, 0, 95
6, 301440, Note_on_c, 9, 36, 95
6, 301920, Note_off_c, 9, 0, 95
6, 301920, Note_off_c, 9, 36, 95
6, 301920, Note_on_c, 9, 0, 95
6, 301920, Note_on_c, 9, 43, 95
6, 301920, Note_on_c, 9, 46, 95
6, 302160, Note_off_c, 9, 0, 95
6, 302160, Note_off_c, 9, 43, 95
6, 302160, Note_off_c, 9, 46, 95
6, 302400, Note_on_c, 9, 38, 95
6, 302880, Note_off_c, 9, 38, 95
6, 302880, Note_on_c, 9, 0, 95
6, 302880, Note_on_c, 9, 43, 95
6, 302880, Note_on_c, 9, 42, 95
6, 303120, Note_off_c, 9, 0, 95
6, 303120, Note_off_c, 9, 43, 95
6, 303120, Note_off_c, 9, 42, 95
6, 303120, Note_on_c, 9, 0, 95
6, 303120, Note_on_c, 9, 38, 95
6, 303120, Note_on_c, 9, 46, 95
6, 303360, Note_off_c, 9, 0, 95
6, 303360, Note_off_c, 9, 38, 95
6, 303360, Note_off_c, 9, 46, 95
6, 303360, Note_on_c, 9, 0, 95
6, 303360, Note_on_c, 9, 49, 95
6, 303360, Note_on_c, 9, 36, 95
6, 303840, Note_off_c, 9, 0, 95
6, 303840, Note_off_c, 9, 49, 95
6, 303840, Note_off_c, 9, 36, 95
6, 303840, Note_on_c, 9, 0, 95
6, 303840, Note_on_c, 9, 46, 95
6, 304080, Note_off_c, 9, 0, 95
6, 304080, Note_off_c, 9, 46, 95
6, 304320, Note_on_c, 9, 38, 95
6, 304800, Note_off_c, 9, 38, 95
6, 304800, Note_on_c, 9, 0, 95
6, 304800, Note_on_c, 9, 42, 95
6, 305040, Note_off_c, 9, 0, 95
6, 305040, Note_off_c, 9, 42, 95
6, 305040, Note_on_c, 9, 0, 95
6, 305040, Note_on_c, 9, 46, 95
6, 305280, Note_off_c, 9, 0, 95
6, 305280, Note_off_c, 9, 46, 95
6, 305280, Note_on_c, 9, 0, 95
6, 305280, Note_on_c, 9, 36, 95
6, 305760, Note_off_c, 9, 0, 95
6, 305760, Note_off_c, 9, 36, 95
6, 305760, Note_on_c, 9, 0, 95
6, 305760, Note_on_c, 9, 46, 95
6, 306000, Note_off_c, 9, 0, 95
6, 306000, Note_off_c, 9, 46, 95
6, 306240, Note_on_c, 9, 38, 95
6, 306720, Note_off_c, 9, 38, 95
6, 306720, Note_on_c, 9, 0, 95
6, 306720, Note_on_c, 9, 42, 95
6, 306960, Note_off_c, 9, 0, 95
6, 306960, Note_off_c, 9, 42, 95
6, 306960, Note_on_c, 9, 0, 95
6, 306960, Note_on_c, 9, 46, 95
6, 307200, Note_off_c, 9, 0, 95
6, 307200, Note_off_c, 9, 46, 95
6, 307200, Note_on_c, 9, 0, 95
6, 307200, Note_on_c, 9, 36, 95
6, 307680, Note_off_c, 9, 0, 95
6, 307680, Note_off_c, 9, 36, 95
6, 307680, Note_on_c, 9, 0, 95
6, 307680, Note_on_c, 9, 46, 95
6, 307920, Note_off_c, 9, 0, 95
6, 307920, Note_off_c, 9, 46, 95
6, 308160, Note_on_c, 9, 38, 95
6, 308640, Note_off_c, 9, 38, 95
6, 308640, Note_on_c, 9, 0, 95
6, 308640, Note_on_c, 9, 42, 95
6, 308880, Note_off_c, 9, 0, 95
6, 308880, Note_off_c, 9, 42, 95
6, 308880, Note_on_c, 9, 0, 95
6, 308880, Note_on_c, 9, 46, 95
6, 309120, Note_off_c, 9, 0, 95
6, 309120, Note_off_c, 9, 46, 95
6, 309120, Note_on_c, 9, 0, 95
6, 309120, Note_on_c, 9, 49, 95
6, 309120, Note_on_c, 9, 36, 95
6, 309600, Note_off_c, 9, 0, 95
6, 309600, Note_off_c, 9, 49, 95
6, 309600, Note_off_c, 9, 36, 95
6, 309600, Note_on_c, 9, 0, 95
6, 309600, Note_on_c, 9, 46, 95
6, 309840, Note_off_c, 9, 0, 95
6, 309840, Note_off_c, 9, 46, 95
6, 310080, Note_on_c, 9, 38, 95
6, 310560, Note_off_c, 9, 38, 95
6, 310560, Note_on_c, 9, 0, 95
6, 310560, Note_on_c, 9, 42, 95
6, 310800, Note_off_c, 9, 0, 95
6, 310800, Note_off_c, 9, 42, 95
6, 310800, Note_on_c, 9, 0, 95
6, 310800, Note_on_c, 9, 46, 95
6, 311040, Note_off_c, 9, 0, 95
6, 311040, Note_off_c, 9, 46, 95
6, 311040, Note_on_c, 9, 0, 95
6, 311040, Note_on_c, 9, 49, 95
6, 311520, Note_off_c, 9, 0, 95
6, 311520, Note_off_c, 9, 49, 95
6, 347040, Note_on_c, 9, 45, 95
6, 347280, Note_off_c, 9, 45, 95
6, 347520, Note_on_c, 9, 43, 95
6, 347760, Note_off_c, 9, 43, 95
6, 347760, Note_on_c, 9, 0, 95
6, 347760, Note_on_c, 9, 41, 95
6, 348000, Note_off_c, 9, 0, 95
6, 348000, Note_off_c, 9, 41, 95
6, 348000, Note_on_c, 9, 0, 95
6, 348000, Note_on_c, 9, 45, 95
6, 348240, Note_off_c, 9, 0, 95
6, 348240, Note_off_c, 9, 45, 95
6, 348480, Note_on_c, 9, 45, 95
6, 348720, Note_off_c, 9, 45, 95
6, 348720, Note_on_c, 9, 0, 95
6, 348720, Note_on_c, 9, 45, 95
6, 348960, Note_off_c, 9, 0, 95
6, 348960, Note_off_c, 9, 45, 95
6, 348960, Note_on_c, 9, 0, 95
6, 348960, Note_on_c, 9, 43, 95
6, 349200, Note_off_c, 9, 0, 95
6, 349200, Note_off_c, 9, 43, 95
6, 349200, Note_on_c, 9, 0, 95
6, 349200, Note_on_c, 9, 41, 95
6, 349440, Note_off_c, 9, 0, 95
6, 349440, Note_off_c, 9, 41, 95
6, 349440, Note_on_c, 9, 0, 95
6, 349440, Note_on_c, 9, 49, 95
6, 349440, Note_on_c, 9, 36, 95
6, 349920, Note_off_c, 9, 0, 95
6, 349920, Note_off_c, 9, 49, 95
6, 349920, Note_off_c, 9, 36, 95
6, 349920, Note_on_c, 9, 0, 95
6, 349920, Note_on_c, 9, 46, 95
6, 350160, Note_off_c, 9, 0, 95
6, 350160, Note_off_c, 9, 46, 95
6, 350400, Note_on_c, 9, 38, 95
6, 350880, Note_off_c, 9, 38, 95
6, 350880, Note_on_c, 9, 0, 95
6, 350880, Note_on_c, 9, 42, 95
6, 351120, Note_off_c, 9, 0, 95
6, 351120, Note_off_c, 9, 42, 95
6, 351120, Note_on_c, 9, 0, 95
6, 351120, Note_on_c, 9, 46, 95
6, 351360, Note_off_c, 9, 0, 95
6, 351360, Note_off_c, 9, 46, 95
6, 351360, Note_on_c, 9, 0, 95
6, 351360, Note_on_c, 9, 36, 95
6, 351840, Note_off_c, 9, 0, 95
6, 351840, Note_off_c, 9, 36, 95
6, 351840, Note_on_c, 9, 0, 95
6, 351840, Note_on_c, 9, 46, 95
6, 352080, Note_off_c, 9, 0, 95
6, 352080, Note_off_c, 9, 46, 95
6, 352320, Note_on_c, 9, 38, 95
6, 352800, Note_off_c, 9, 38, 95
6, 352800, Note_on_c, 9, 0, 95
6, 352800, Note_on_c, 9, 42, 95
6, 353040, Note_off_c, 9, 0, 95
6, 353040, Note_off_c, 9, 42, 95
6, 353040, Note_on_c, 9, 0, 95
6, 353040, Note_on_c, 9, 46, 95
6, 353280, Note_off_c, 9, 0, 95
6, 353280, Note_off_c, 9, 46, 95
6, 353280, Note_on_c, 9, 0, 95
6, 353280, Note_on_c, 9, 36, 95
6, 353760, Note_off_c, 9, 0, 95
6, 353760, Note_off_c, 9, 36, 95
6, 353760, Note_on_c, 9, 0, 95
6, 353760, Note_on_c, 9, 46, 95
6, 354000, Note_off_c, 9, 0, 95
6, 354000, Note_off_c, 9, 46, 95
6, 354240, Note_on_c, 9, 38, 95
6, 354720, Note_off_c, 9, 38, 95
6, 354720, Note_on_c, 9, 0, 95
6, 354720, Note_on_c, 9, 42, 95
6, 354960, Note_off_c, 9, 0, 95
6, 354960, Note_off_c, 9, 42, 95
6, 354960, Note_on_c, 9, 0, 95
6, 354960, Note_on_c, 9, 46, 95
6, 355200, Note_off_c, 9, 0, 95
6, 355200, Note_off_c, 9, 46, 95
6, 355200, Note_on_c, 9, 0, 95
6, 355200, Note_on_c, 9, 36, 95
6, 355680, Note_off_c, 9, 0, 95
6, 355680, Note_off_c, 9, 36, 95
6, 355680, Note_on_c, 9, 0, 95
6, 355680, Note_on_c, 9, 43, 95
6, 355680, Note_on_c, 9, 46, 95
6, 355920, Note_off_c, 9, 0, 95
6, 355920, Note_off_c, 9, 43, 95
6, 355920, Note_off_c, 9, 46, 95
6, 355920, Note_on_c, 9, 0, 95
6, 355920, Note_on_c, 9, 41, 95
6, 356160, Note_off_c, 9, 0, 95
6, 356160, Note_off_c, 9, 41, 95
6, 356160, Note_on_c, 9, 0, 95
6, 356160, Note_on_c, 9, 38, 95
6, 356640, Note_off_c, 9, 0, 95
6, 356640, Note_off_c, 9, 38, 95
6, 356640, Note_on_c, 9, 0, 95
6, 356640, Note_on_c, 9, 43, 95
6, 356640, Note_on_c, 9, 42, 95
6, 356880, Note_off_c, 9, 0, 95
6, 356880, Note_off_c, 9, 43, 95
6, 356880, Note_off_c, 9, 42, 95
6, 356880, Note_on_c, 9, 0, 95
6, 356880, Note_on_c, 9, 45, 95
6, 356880, Note_on_c, 9, 46, 95
6, 357120, Note_off_c, 9, 0, 95
6, 357120, Note_off_c, 9, 45, 95
6, 357120, Note_off_c, 9, 46, 95
6, 357120, Note_on_c, 9, 0, 95
6, 357120, Note_on_c, 9, 49, 95
6, 357120, Note_on_c, 9, 36, 95
6, 357600, Note_off_c, 9, 0, 95
6, 357600, Note_off_c, 9, 49, 95
6, 357600, Note_off_c, 9, 36, 95
6, 357600, Note_on_c, 9, 0, 95
6, 357600, Note_on_c, 9, 46, 95
6, 357840, Note_off_c, 9, 0, 95
6, 357840, Note_off_c, 9, 46, 95
6, 358080, Note_on_c, 9, 38, 95
6, 358560, Note_off_c, 9, 38, 95
6, 358560, Note_on_c, 9, 0, 95
6, 358560, Note_on_c, 9, 42, 95
6, 358800, Note_off_c, 9, 0, 95
6, 358800, Note_off_c, 9, 42, 95
6, 358800, Note_on_c, 9, 0, 95
6, 358800, Note_on_c, 9, 46, 95
6, 359040, Note_off_c, 9, 0, 95
6, 359040, Note_off_c, 9, 46, 95
6, 359040, Note_on_c, 9, 0, 95
6, 359040, Note_on_c, 9, 36, 95
6, 359520, Note_off_c, 9, 0, 95
6, 359520, Note_off_c, 9, 36, 95
6, 359520, Note_on_c, 9, 0, 95
6, 359520, Note_on_c, 9, 46, 95
6, 359760, Note_off_c, 9, 0, 95
6, 359760, Note_off_c, 9, 46, 95
6, 360000, Note_on_c, 9, 38, 95
6, 360480, Note_off_c, 9, 38, 95
6, 360480, Note_on_c, 9, 0, 95
6, 360480, Note_on_c, 9, 42, 95
6, 360720, Note_off_c, 9, 0, 95
6, 360720, Note_off_c, 9, 42, 95
6, 360720, Note_on_c, 9, 0, 95
6, 360720, Note_on_c, 9, 46, 95
6, 360960, Note_off_c, 9, 0, 95
6, 360960, Note_off_c, 9, 46, 95
6, 360960, Note_on_c, 9, 0, 95
6, 360960, Note_on_c, 9, 36, 95
6, 361440, Note_off_c, 9, 0, 95
6, 361440, Note_off_c, 9, 36, 95
6, 361440, Note_on_c, 9, 0, 95
6, 361440, Note_on_c, 9, 46, 95
6, 361680, Note_off_c, 9, 0, 95
6, 361680, Note_off_c, 9, 46, 95
6, 361920, Note_on_c, 9, 38, 95
6, 362400, Note_off_c, 9, 38, 95
6, 362400, Note_on_c, 9, 0, 95
6, 362400, Note_on_c, 9, 42, 95
6, 362640, Note_off_c, 9, 0, 95
6, 362640, Note_off_c, 9, 42, 95
6, 362640, Note_on_c, 9, 0, 95
6, 362640, Note_on_c, 9, 46, 95
6, 362880, Note_off_c, 9, 0, 95
6, 362880, Note_off_c, 9, 46, 95
6, 362880, Note_on_c, 9, 0, 95
6, 362880, Note_on_c, 9, 36, 95
6, 363360, Note_off_c, 9, 0, 95
6, 363360, Note_off_c, 9, 36, 95
6, 363360, Note_on_c, 9, 0, 95
6, 363360, Note_on_c, 9, 43, 95
6, 363360, Note_on_c, 9, 46, 95
6, 363600, Note_off_c, 9, 0, 95
6, 363600, Note_off_c, 9, 43, 95
6, 363600, Note_off_c, 9, 46, 95
6, 363600, Note_on_c, 9, 0, 95
6, 363600, Note_on_c, 9, 41, 95
6, 363840, Note_off_c, 9, 0, 95
6, 363840, Note_off_c, 9, 41, 95
6, 363840, Note_on_c, 9, 0, 95
6, 363840, Note_on_c, 9, 38, 95
6, 364320, Note_off_c, 9, 0, 95
6, 364320, Note_off_c, 9, 38, 95
6, 364320, Note_on_c, 9, 0, 95
6, 364320, Note_on_c, 9, 43, 95
6, 364320, Note_on_c, 9, 42, 95
6, 364560, Note_off_c, 9, 0, 95
6, 364560, Note_off_c, 9, 43, 95
6, 364560, Note_off_c, 9, 42, 95
6, 364560, Note_on_c, 9, 0, 95
6, 364560, Note_on_c, 9, 38, 95
6, 364560, Note_on_c, 9, 46, 95
6, 364800, Note_off_c, 9, 0, 95
6, 364800, Note_off_c, 9, 38, 95
6, 364800, Note_off_c, 9, 46, 95
6, 364800, Note_on_c, 9, 0, 95
6, 364800, Note_on_c, 9, 49, 95
6, 364800, Note_on_c, 9, 36, 95
6, 365280, Note_off_c, 9, 0, 95
6, 365280, Note_off_c, 9, 49, 95
6, 365280, Note_off_c, 9, 36, 95
6, 365280, Note_on_c, 9, 0, 95
6, 365280, Note_on_c, 9, 46, 95
6, 365520, Note_off_c, 9, 0, 95
6, 365520, Note_off_c, 9, 46, 95
6, 365760, Note_on_c, 9, 38, 95
6, 366240, Note_off_c, 9, 38, 95
6, 366240, Note_on_c, 9, 0, 95
6, 366240, Note_on_c, 9, 42, 95
6, 366480, Note_off_c, 9, 0, 95
6, 366480, Note_off_c, 9, 42, 95
6, 366480, Note_on_c, 9, 0, 95
6, 366480, Note_on_c, 9, 46, 95
6, 366720, Note_off_c, 9, 0, 95
6, 366720, Note_off_c, 9, 46, 95
6, 366720, Note_on_c, 9, 0, 95
6, 366720, Note_on_c, 9, 36, 95
6, 367200, Note_off_c, 9, 0, 95
6, 367200, Note_off_c, 9, 36, 95
6, 367200, Note_on_c, 9, 0, 95
6, 367200, Note_on_c, 9, 46, 95
6, 367440, Note_off_c, 9, 0, 95
6, 367440, Note_off_c, 9, 46, 95
6, 367680, Note_on_c, 9, 38, 95
6, 368160, Note_off_c, 9, 38, 95
6, 368160, Note_on_c, 9, 0, 95
6, 368160, Note_on_c, 9, 42, 95
6, 368400, Note_off_c, 9, 0, 95
6, 368400, Note_off_c, 9, 42, 95
6, 368400, Note_on_c, 9, 0, 95
6, 368400, Note_on_c, 9, 46, 95
6, 368640, Note_off_c, 9, 0, 95
6, 368640, Note_off_c, 9, 46, 95
6, 368640, Note_on_c, 9, 0, 95
6, 368640, Note_on_c, 9, 36, 95
6, 369120, Note_off_c, 9, 0, 95
6, 369120, Note_off_c, 9, 36, 95
6, 369120, Note_on_c, 9, 0, 95
6, 369120, Note_on_c, 9, 46, 95
6, 369360, Note_off_c, 9, 0, 95
6, 369360, Note_off_c, 9, 46, 95
6, 369600, Note_on_c, 9, 38, 95
6, 370080, Note_off_c, 9, 38, 95
6, 370080, Note_on_c, 9, 0, 95
6, 370080, Note_on_c, 9, 42, 95
6, 370320, Note_off_c, 9, 0, 95
6, 370320, Note_off_c, 9, 42, 95
6, 370320, Note_on_c, 9, 0, 95
6, 370320, Note_on_c, 9, 46, 95
6, 370560, Note_off_c, 9, 0, 95
6, 370560, Note_off_c, 9, 46, 95
6, 370560, Note_on_c, 9, 0, 95
6, 370560, Note_on_c, 9, 49, 95
6, 370560, Note_on_c, 9, 36, 95
6, 371040, Note_off_c, 9, 0, 95
6, 371040, Note_off_c, 9, 49, 95
6, 371040, Note_off_c, 9, 36, 95
6, 371040, Note_on_c, 9, 0, 95
6, 371040, Note_on_c, 9, 43, 95
6, 371040, Note_on_c, 9, 46, 95
6, 371280, Note_off_c, 9, 0, 95
6, 371280, Note_off_c, 9, 43, 95
6, 371280, Note_off_c, 9, 46, 95
6, 371280, Note_on_c, 9, 0, 95
6, 371280, Note_on_c, 9, 41, 95
6, 371520, Note_off_c, 9, 0, 95
6, 371520, Note_off_c, 9, 41, 95
6, 371520, Note_on_c, 9, 0, 95
6, 371520, Note_on_c, 9, 38, 95
6, 372000, Note_off_c, 9, 0, 95
6, 372000, Note_off_c, 9, 38, 95
6, 372000, Note_on_c, 9, 0, 95
6, 372000, Note_on_c, 9, 43, 95
6, 372000, Note_on_c, 9, 42, 95
6, 372240, Note_off_c, 9, 0, 95
6, 372240, Note_off_c, 9, 43, 95
6, 372240, Note_off_c, 9, 42, 95
6, 372240, Note_on_c, 9, 0, 95
6, 372240, Note_on_c, 9, 45, 95
6, 372240, Note_on_c, 9, 46, 95
6, 372480, Note_off_c, 9, 0, 95
6, 372480, Note_off_c, 9, 45, 95
6, 372480, Note_off_c, 9, 46, 95
6, 372480, Note_on_c, 9, 0, 95
6, 372480, Note_on_c, 9, 49, 95
6, 372480, Note_on_c, 9, 36, 95
6, 372960, Note_off_c, 9, 0, 95
6, 372960, Note_off_c, 9, 49, 95
6, 372960, Note_off_c, 9, 36, 95
6, 372960, Note_on_c, 9, 0, 95
6, 372960, Note_on_c, 9, 46, 95
6, 373200, Note_off_c, 9, 0, 95
6, 373200, Note_off_c, 9, 46, 95
6, 373440, Note_on_c, 9, 38, 95
6, 373920, Note_off_c, 9, 38, 95
6, 373920, Note_on_c, 9, 0, 95
6, 373920, Note_on_c, 9, 42, 95
6, 374160, Note_off_c, 9, 0, 95
6, 374160, Note_off_c, 9, 42, 95
6, 374160, Note_on_c, 9, 0, 95
6, 374160, Note_on_c, 9, 46, 95
6, 374400, Note_off_c, 9, 0, 95
6, 374400, Note_off_c, 9, 46, 95
6, 374400, Note_on_c, 9, 0, 95
6, 374400, Note_on_c, 9, 36, 95
6, 374880, Note_off_c, 9, 0, 95
6, 374880, Note_off_c, 9, 36, 95
6, 374880, Note_on_c, 9, 0, 95
6, 374880, Note_on_c, 9, 46, 95
6, 375120, Note_off_c, 9, 0, 95
6, 375120, Note_off_c, 9, 46, 95
6, 375360, Note_on_c, 9, 38, 95
6, 375840, Note_off_c, 9, 38, 95
6, 375840, Note_on_c, 9, 0, 95
6, 375840, Note_on_c, 9, 42, 95
6, 376080, Note_off_c, 9, 0, 95
6, 376080, Note_off_c, 9, 42, 95
6, 376080, Note_on_c, 9, 0, 95
6, 376080, Note_on_c, 9, 46, 95
6, 376320, Note_off_c, 9, 0, 95
6, 376320, Note_off_c, 9, 46, 95
6, 376320, Note_on_c, 9, 0, 95
6, 376320, Note_on_c, 9, 49, 95
6, 376800, Note_off_c, 9, 0, 95
6, 376800, Note_off_c, 9, 49, 95
6, 376800, End_track
0, 0, End_of_file
